<?xml version="1.0" encoding="iso-8859-1"?>
<!-- Generator: Adobe Illustrator 16.0.0, SVG Export Plug-In . SVG Version: 6.00 Build 0)  -->
<!DOCTYPE svg PUBLIC "-//W3C//DTD SVG 1.1//EN" "http://www.w3.org/Graphics/SVG/1.1/DTD/svg11.dtd">
<svg version="1.1" id="Layer_1" xmlns="http://www.w3.org/2000/svg" xmlns:xlink="http://www.w3.org/1999/xlink" x="0px" y="0px"
	 width="10.62px" height="24.115px" viewBox="0 0 10.62 24.115" style="enable-background:new 0 0 10.62 24.115;"
	 xml:space="preserve">
<path d="M10.021,9.864c0.372-0.56,0.6-1.247,0.6-1.999c0-0.761-0.234-1.454-0.613-2.018c-0.042-0.08-0.293-0.38-0.335-0.424
	C9.223,4.921,8.26,4.142,8.26,3.173C8.26,2.242,8.264,0,8.264,0s-1.441,0.173-2.77,0.173S2.356,0,2.356,0S2.354,2.336,2.354,3.267
	c0.016,1.172-0.956,1.654-1.406,2.157C0.905,5.468,0.654,5.768,0.612,5.848C0.233,6.411,0,7.104,0,7.865
	c0,0.752,0.227,1.439,0.6,1.999c0.582,1.028,2.608,2.396,3.573,3.965c-0.108,0.193-0.176,0.415-0.176,0.653
	c0,0.508,0.283,0.943,0.694,1.168c0.002,1.219,0.015,5.678,0.016,6.364c-0.003,0-0.016,0.001-0.016,0.001
	c0,1.158-2.149,1.729-3.465,1.981c-0.283,0.058-0.199,0.118,0.001,0.118c0.189,0,3.623,0,4.042,0c0.022,0,0.041,0,0.041,0
	c0.42,0,3.854,0,4.043,0c0.2,0,0.284-0.061,0.001-0.118c-1.278-0.246-3.328-0.792-3.443-1.886h0.001c0,0,0.014-5.141,0.017-6.461
	c0.411-0.226,0.692-0.66,0.692-1.168c0-0.238-0.066-0.459-0.175-0.653C7.411,12.26,9.438,10.893,10.021,9.864z M1.454,8.202
	c0-1.563,1.431-3.295,1.431-3.295S2.182,6.86,2.338,8.22s1.344,3.297,1.344,3.297S1.454,9.765,1.454,8.202z"/>
<g>
</g>
<g>
</g>
<g>
</g>
<g>
</g>
<g>
</g>
<g>
</g>
<g>
</g>
<g>
</g>
<g>
</g>
<g>
</g>
<g>
</g>
<g>
</g>
<g>
</g>
<g>
</g>
<g>
</g>
</svg>
