<?xml version="1.0" encoding="iso-8859-1"?>
<!-- Generator: Adobe Illustrator 16.0.0, SVG Export Plug-In . SVG Version: 6.00 Build 0)  -->
<!DOCTYPE svg PUBLIC "-//W3C//DTD SVG 1.1//EN" "http://www.w3.org/Graphics/SVG/1.1/DTD/svg11.dtd">
<svg version="1.1" id="Layer_1" xmlns="http://www.w3.org/2000/svg" xmlns:xlink="http://www.w3.org/1999/xlink" x="0px" y="0px"
	 width="22.439px" height="29.848px" viewBox="0 0 22.439 29.848" style="enable-background:new 0 0 22.439 29.848;"
	 xml:space="preserve">
<path d="M22.08,6.916c-0.433-1.32-1.277-2.291-2.442-2.806c-1.551-0.685-3.388-0.444-4.688-0.109C16.003,2.176,17.654,0,16.777,0
	c-1.244,0-8.265,0-8.265,0S1.492,0,0.248,0c-1.245,0,2.607,4.385,2.607,5.926s-1.937,10.982-0.494,12.78
	c0.997,1.243,3.116,1.484,4.33,1.515c-0.03,0.133-0.049,0.269-0.049,0.41c0,0.708,0.398,1.317,0.979,1.634
	c0.001,0.375-0.003,0.724-0.015,0.972H7.585c-0.002,0.065-0.003,0.132-0.004,0.197c0,3.38-3.725,5.335-5.498,6.072
	c-0.382,0.171-0.269,0.342,0.001,0.342c0.256,0,5.836,0,6.399,0c0.031,0,0.057,0,0.057,0c0.564,0,6.145,0,6.4,0
	c0.271,0,0.382-0.171,0-0.342c-1.772-0.737-5.497-2.692-5.497-6.072c-0.001-0.065-0.003-0.132-0.004-0.197H9.417
	c-0.011-0.248-0.015-0.597-0.014-0.972c0.58-0.316,0.979-0.926,0.979-1.634c0-0.142-0.019-0.277-0.048-0.41
	c1.214-0.03,3.332-0.271,4.329-1.515c0.343-0.427,0.491-1.293,0.523-2.376c0.241,0.031,0.482,0.05,0.723,0.05
	c1.637,0,3.232-0.696,4.471-1.992C22.255,12.423,22.923,9.489,22.08,6.916z M5.648,18.403c-0.256-0.068-0.568-0.173-0.9-0.379
	c-0.162-0.108-0.336-0.236-0.482-0.415c-0.144-0.156-0.294-0.45-0.353-0.633c-0.153-0.522-0.154-0.986-0.188-1.509
	c-0.027-0.515-0.026-1.054-0.019-1.609c0.009-1.112,0.085-2.293,0.176-3.471C3.976,9.21,4.107,8.037,4.256,6.938
	c0.089-0.55,0.174-1.08,0.256-1.584c0.095-0.418-0.005-0.844-0.148-1.233C4.072,3.337,3.626,2.733,3.319,2.33
	C3.011,1.919,2.811,1.699,2.811,1.699s0.247,0.166,0.637,0.513c0.373,0.361,0.93,0.873,1.388,1.696
	c0.211,0.408,0.414,0.938,0.358,1.533c-0.03,0.502-0.063,1.032-0.095,1.58C5.025,8.12,4.947,9.292,4.869,10.464
	c-0.089,1.169-0.179,2.339-0.263,3.435c-0.036,0.545-0.072,1.072-0.105,1.572c-0.024,0.486-0.043,0.989-0.004,1.33
	c0.078,0.403,0.253,0.655,0.497,0.906c0.239,0.23,0.504,0.389,0.728,0.501c0.453,0.225,0.745,0.304,0.745,0.304
	S6.165,18.534,5.648,18.403z M18.802,12.882c-1.03,1.081-2.364,1.513-3.675,1.223c-0.195-2.825-0.751-6.082-0.91-7.568
	c0.804-0.351,3.094-1.074,4.544-0.43c0.598,0.266,1.006,0.753,1.247,1.487C20.604,9.415,20.13,11.49,18.802,12.882z"/>
<g>
</g>
<g>
</g>
<g>
</g>
<g>
</g>
<g>
</g>
<g>
</g>
<g>
</g>
<g>
</g>
<g>
</g>
<g>
</g>
<g>
</g>
<g>
</g>
<g>
</g>
<g>
</g>
<g>
</g>
</svg>
