<?xml version="1.0" encoding="iso-8859-1"?>
<!-- Generator: Adobe Illustrator 16.0.0, SVG Export Plug-In . SVG Version: 6.00 Build 0)  -->
<!DOCTYPE svg PUBLIC "-//W3C//DTD SVG 1.1//EN" "http://www.w3.org/Graphics/SVG/1.1/DTD/svg11.dtd">
<svg version="1.1" id="Layer_1" xmlns="http://www.w3.org/2000/svg" xmlns:xlink="http://www.w3.org/1999/xlink" x="0px" y="0px"
	 width="13.334px" height="30.025px" viewBox="0 0 13.334 30.025" style="enable-background:new 0 0 13.334 30.025;"
	 xml:space="preserve">
<path d="M0,0l0.633,29.551h0.919v0.475h10.252v-0.475h0.918L13.334,0H0z M3.929,24.013c-0.078,2.492-0.264,4.158-0.264,4.158
	s-0.318-1.646-0.596-4.123c-0.147-1.238-0.286-2.685-0.4-4.235c-0.126-1.55-0.202-3.206-0.284-4.861
	c-0.05-1.657-0.105-3.313-0.104-4.869C2.271,8.527,2.294,7.075,2.341,5.829c0.078-2.492,0.262-4.158,0.262-4.158
	S2.92,3.317,3.196,5.794c0.146,1.238,0.285,2.685,0.4,4.235c0.126,1.55,0.203,3.206,0.286,4.861
	c0.051,1.657,0.107,3.313,0.106,4.869C3.999,21.314,3.977,22.767,3.929,24.013z"/>
<g>
</g>
<g>
</g>
<g>
</g>
<g>
</g>
<g>
</g>
<g>
</g>
<g>
</g>
<g>
</g>
<g>
</g>
<g>
</g>
<g>
</g>
<g>
</g>
<g>
</g>
<g>
</g>
<g>
</g>
</svg>
