<?xml version="1.0" encoding="iso-8859-1"?>
<!-- Generator: Adobe Illustrator 16.0.0, SVG Export Plug-In . SVG Version: 6.00 Build 0)  -->
<!DOCTYPE svg PUBLIC "-//W3C//DTD SVG 1.1//EN" "http://www.w3.org/Graphics/SVG/1.1/DTD/svg11.dtd">
<svg version="1.1" id="Layer_1" xmlns="http://www.w3.org/2000/svg" xmlns:xlink="http://www.w3.org/1999/xlink" x="0px" y="0px"
	 width="8.109px" height="32px" viewBox="0 0 8.109 32" style="enable-background:new 0 0 8.109 32;" xml:space="preserve">
<path d="M5.129,11.791C5.129,10.214,5.216,0,5.216,0h-0.92H3.813h-0.92c0,0,0.087,10.214,0.087,11.791
	C2.98,13.369,0,22.356,0,24.898C0,27.441,0,32,0,32h3.813h0.482h3.813c0,0,0-4.559,0-7.102C8.109,22.356,5.129,13.369,5.129,11.791z
	 M3.307,16.228c-0.048,0.432-0.083,1.054-0.179,1.789c-0.172,1.474-0.487,3.421-0.818,5.352c-0.086,0.481-0.168,0.964-0.236,1.436
	c-0.081,0.483-0.144,0.904-0.154,1.359c-0.043,0.925-0.093,1.788-0.155,2.528c-0.061,0.74-0.139,1.356-0.181,1.788
	c-0.052,0.432-0.091,0.679-0.091,0.679s-0.04-0.247-0.091-0.679c-0.042-0.432-0.12-1.048-0.181-1.788
	c-0.062-0.74-0.112-1.604-0.155-2.528c-0.022-0.471,0.01-1.003,0.059-1.482c0.058-0.491,0.129-0.984,0.205-1.476
	c0.325-1.961,0.798-3.882,1.224-5.308c0.202-0.715,0.426-1.298,0.559-1.712c0.143-0.41,0.241-0.642,0.241-0.642
	S3.345,15.795,3.307,16.228z"/>
<g>
</g>
<g>
</g>
<g>
</g>
<g>
</g>
<g>
</g>
<g>
</g>
<g>
</g>
<g>
</g>
<g>
</g>
<g>
</g>
<g>
</g>
<g>
</g>
<g>
</g>
<g>
</g>
<g>
</g>
</svg>
