<?xml version="1.0" encoding="iso-8859-1"?>
<!-- Generator: Adobe Illustrator 16.0.0, SVG Export Plug-In . SVG Version: 6.00 Build 0)  -->
<!DOCTYPE svg PUBLIC "-//W3C//DTD SVG 1.1//EN" "http://www.w3.org/Graphics/SVG/1.1/DTD/svg11.dtd">
<svg version="1.1" id="Layer_1" xmlns="http://www.w3.org/2000/svg" xmlns:xlink="http://www.w3.org/1999/xlink" x="0px" y="0px"
	 width="12.241px" height="32px" viewBox="0 0 12.241 32" style="enable-background:new 0 0 12.241 32;" xml:space="preserve">
<path d="M7.907,11.586C7.907,10.225,7.742,0,7.742,0H4.5c0,0-0.165,10.225-0.165,11.586s-4.425,3.862-4.333,5.648
	c0.092,1.787,0.431,11.935,0.603,13.211c0.172,1.275,3.681,1.508,5.517,1.551c1.836,0.044,5.345-0.275,5.517-1.551
	c0.172-1.276,0.511-11.424,0.603-13.211C12.332,15.448,7.907,12.947,7.907,11.586z M4.319,14.252
	c-0.299,0.368-0.685,0.929-1.101,1.6c-0.195,0.342-0.397,0.715-0.541,1.113c-0.07,0.2-0.119,0.405-0.14,0.603
	c-0.022,0.173-0.005,0.421,0.007,0.683c0.055,1.017,0.072,2.102,0.095,3.187c0.023,2.172-0.025,4.338-0.107,5.963
	c-0.039,0.813-0.111,1.493-0.143,1.968c-0.042,0.476-0.079,0.748-0.079,0.748S2.263,29.845,2.2,29.371
	c-0.053-0.474-0.155-1.15-0.231-1.964c-0.083-0.814-0.156-1.765-0.217-2.783c-0.056-1.018-0.084-2.103-0.108-3.188
	c-0.008-1.085-0.022-2.17,0.004-3.187c0.006-0.247-0.004-0.5,0.052-0.813c0.058-0.285,0.158-0.538,0.268-0.769
	c0.224-0.459,0.495-0.835,0.764-1.161c0.535-0.651,1.076-1.087,1.442-1.396c0.373-0.303,0.608-0.447,0.608-0.447
	S4.614,13.877,4.319,14.252z"/>
<g>
</g>
<g>
</g>
<g>
</g>
<g>
</g>
<g>
</g>
<g>
</g>
<g>
</g>
<g>
</g>
<g>
</g>
<g>
</g>
<g>
</g>
<g>
</g>
<g>
</g>
<g>
</g>
<g>
</g>
</svg>
