<?xml version="1.0" encoding="iso-8859-1"?>
<!-- Generator: Adobe Illustrator 16.0.0, SVG Export Plug-In . SVG Version: 6.00 Build 0)  -->
<!DOCTYPE svg PUBLIC "-//W3C//DTD SVG 1.1//EN" "http://www.w3.org/Graphics/SVG/1.1/DTD/svg11.dtd">
<svg version="1.1" id="Layer_1" xmlns="http://www.w3.org/2000/svg" xmlns:xlink="http://www.w3.org/1999/xlink" x="0px" y="0px"
	 width="9.741px" height="32px" viewBox="0 0 9.741 32" style="enable-background:new 0 0 9.741 32;" xml:space="preserve">
<path d="M8.678,8.212c0,0,0-2.22,0-2.553c0-0.332-2.53-0.559-2.53-0.559L5.505,0.783L4.353,0L3.594,5.101c0,0-2.53,0.227-2.53,0.559
	c0,0.333,0,2.553,0,2.553S0,8.387,0,9.407S0.253,28.71,0.253,29.976C0.253,30.622,1.696,32,5.264,32
	c3.568,0,4.225-1.431,4.225-2.024c0-1.266,0.253-19.548,0.253-20.568S8.678,8.212,8.678,8.212z M2.75,26.646
	c-0.107,1.91-0.295,3.187-0.295,3.187s-0.25-1.266-0.451-3.168c-0.212-1.902-0.382-4.441-0.448-6.982
	c-0.018-1.271-0.039-2.542-0.013-3.735c0.017-1.192,0.059-2.306,0.119-3.261C1.769,10.776,1.955,9.5,1.955,9.5
	s0.249,1.266,0.449,3.168c0.107,0.951,0.204,2.062,0.279,3.252c0.085,1.189,0.126,2.46,0.171,3.73
	C2.913,22.192,2.868,24.736,2.75,26.646z"/>
<g>
</g>
<g>
</g>
<g>
</g>
<g>
</g>
<g>
</g>
<g>
</g>
<g>
</g>
<g>
</g>
<g>
</g>
<g>
</g>
<g>
</g>
<g>
</g>
<g>
</g>
<g>
</g>
<g>
</g>
</svg>
