<?xml version="1.0" encoding="iso-8859-1"?>
<!-- Generator: Adobe Illustrator 16.0.0, SVG Export Plug-In . SVG Version: 6.00 Build 0)  -->
<!DOCTYPE svg PUBLIC "-//W3C//DTD SVG 1.1//EN" "http://www.w3.org/Graphics/SVG/1.1/DTD/svg11.dtd">
<svg version="1.1" id="Layer_1" xmlns="http://www.w3.org/2000/svg" xmlns:xlink="http://www.w3.org/1999/xlink" x="0px" y="0px"
	 width="32px" height="31.997px" viewBox="0 0 32 31.997" style="enable-background:new 0 0 32 31.997;" xml:space="preserve">
<path d="M30.948,12.983c-0.841-0.956-1.781-1.504-2.1-1.224c-0.027,0.024-0.042,0.061-0.059,0.095l-2.046,1.725
	c-2.077-2.228-5.12-4.021-9.549-4.021c-0.497,0-0.97,0.033-1.433,0.08L15.397,8.79c0.458-0.466,0.743-1.104,0.743-1.81
	c0-1.424-1.153-2.576-2.577-2.576c-1.422,0-2.576,1.152-2.576,2.576c0,1.11,0.707,2.049,1.691,2.412l0.211,0.873
	c-2.313,0.807-4.088,2.222-5.432,3.796c-0.873-1.27-2.764-4.279-2.685-6.446C5.488,3.066,20.311,2.044,22.1,2.249
	C23.889,2.453,24.274,0,22.355,0C14.688,0.052,2.626,1.125,1.808,8.024c-0.204,2.913,2.366,6.92,2.366,6.92
	s-3.684-0.385-4.144,2.938c-0.341,2.46,2.225,3.494,3.583,3.867c-0.01,0.046-0.017,0.076-0.017,0.076s0,6.44,0,7.718
	c0,0.629,6.901,2.419,13.596,2.453c6.898,0.036,13.595-1.701,13.595-2.453c0-1.482,0-6.243,0-7.513c0-0.47-0.346-2.302-1.34-4.419
	l2.445-2.391C32.213,14.939,31.788,13.937,30.948,12.983z"/>
<g>
</g>
<g>
</g>
<g>
</g>
<g>
</g>
<g>
</g>
<g>
</g>
<g>
</g>
<g>
</g>
<g>
</g>
<g>
</g>
<g>
</g>
<g>
</g>
<g>
</g>
<g>
</g>
<g>
</g>
</svg>
