<?xml version="1.0" encoding="utf-8"?>
<!-- Generator: Adobe Illustrator 16.0.4, SVG Export Plug-In . SVG Version: 6.00 Build 0)  -->
<!DOCTYPE svg PUBLIC "-//W3C//DTD SVG 1.1//EN" "http://www.w3.org/Graphics/SVG/1.1/DTD/svg11.dtd">
<svg version="1.1" id="Layer_1" xmlns="http://www.w3.org/2000/svg" xmlns:xlink="http://www.w3.org/1999/xlink" x="0px" y="0px"
	 width="32px" height="29.014px" viewBox="0 0 32 29.014" enable-background="new 0 0 32 29.014" xml:space="preserve">
<path d="M31.79,6.574c-2.224,0-12.806-0.027-15.479-0.034V6.539c0,0-0.111,0-0.309,0.001c-0.199-0.001-0.31-0.001-0.31-0.001V6.54
	C13.017,6.547,2.434,6.574,0.211,6.574c-1.405,5.83,4.539,12.649,7.853,13.743v2.156H23.32v-2.018
	C26.434,20.13,33.288,12.791,31.79,6.574z M8.305,17.368c-0.527-0.328-1.101-0.766-1.693-1.266c-0.583-0.51-1.168-1.103-1.696-1.751
	c-0.251-0.337-0.524-0.654-0.736-1.019c-0.226-0.351-0.438-0.701-0.6-1.074c-0.188-0.353-0.314-0.729-0.416-1.09
	c-0.133-0.344-0.168-0.711-0.205-1.036c-0.064-0.312-0.018-0.646,0.01-0.916c0.015-0.135,0.025-0.259,0.044-0.368
	c0.04-0.103,0.076-0.195,0.108-0.279c0.136-0.336,0.228-0.524,0.228-0.524s0.033,0.209,0.065,0.57
	c0.008,0.09,0.017,0.188,0.026,0.298c0.031,0.097,0.064,0.202,0.1,0.314c0.071,0.22,0.118,0.442,0.253,0.708
	c0.223,0.517,0.526,1.095,0.943,1.675c0.186,0.3,0.414,0.593,0.638,0.895c0.213,0.309,0.473,0.601,0.707,0.904
	c0.485,0.601,0.994,1.194,1.474,1.756c0.482,0.568,0.933,1.102,1.318,1.557c0.777,0.92,1.27,1.604,1.27,1.604
	S9.343,18.042,8.305,17.368z"/>
</svg>
