<?xml version="1.0" encoding="iso-8859-1"?>
<!-- Generator: Adobe Illustrator 16.0.0, SVG Export Plug-In . SVG Version: 6.00 Build 0)  -->
<!DOCTYPE svg PUBLIC "-//W3C//DTD SVG 1.1//EN" "http://www.w3.org/Graphics/SVG/1.1/DTD/svg11.dtd">
<svg version="1.1" id="Layer_1" xmlns="http://www.w3.org/2000/svg" xmlns:xlink="http://www.w3.org/1999/xlink" x="0px" y="0px"
	 width="27.656px" height="32px" viewBox="0 0 27.656 32" style="enable-background:new 0 0 27.656 32;" xml:space="preserve">
<path d="M25.34,7.915c-0.988-1.976-0.894-3.528-0.235-3.387c0.38,0.081,1.129,0,1.27-0.518c0.142-0.518,0.283-3.716-1.458-3.904
	c-1.307-0.142-20.869-0.142-22.176,0c-1.741,0.188-1.6,3.387-1.458,3.904c0.141,0.518,0.89,0.599,1.27,0.518
	C3.21,4.387,3.305,5.939,2.316,7.915c-4.845,9.268-0.705,17.641,0.048,19.287C3.116,28.849,3.445,32,3.445,32h9.68h0.703h0.703h9.68
	c0,0,0.329-3.151,1.081-4.798C26.045,25.556,30.185,17.183,25.34,7.915z M22.273,19.396c0,0.717-0.597,1.298-1.334,1.298H6.717
	c-0.737,0-1.334-0.581-1.334-1.298v-5.543c0-0.717,0.597-1.298,1.334-1.298h14.223c0.737,0,1.334,0.581,1.334,1.298V19.396z"/>
<g>
</g>
<g>
</g>
<g>
</g>
<g>
</g>
<g>
</g>
<g>
</g>
<g>
</g>
<g>
</g>
<g>
</g>
<g>
</g>
<g>
</g>
<g>
</g>
<g>
</g>
<g>
</g>
<g>
</g>
</svg>
