<?xml version="1.0" encoding="iso-8859-1"?>
<!-- Generator: Adobe Illustrator 16.0.0, SVG Export Plug-In . SVG Version: 6.00 Build 0)  -->
<!DOCTYPE svg PUBLIC "-//W3C//DTD SVG 1.1//EN" "http://www.w3.org/Graphics/SVG/1.1/DTD/svg11.dtd">
<svg version="1.1" id="Layer_1" xmlns="http://www.w3.org/2000/svg" xmlns:xlink="http://www.w3.org/1999/xlink" x="0px" y="0px"
	 width="13.529px" height="13.499px" viewBox="0 0 13.529 13.499" style="enable-background:new 0 0 13.529 13.499;"
	 xml:space="preserve">
<path d="M12.845,0.66L12.845,0.66c-0.005-0.007-0.028-0.029-0.034-0.035c0,0,0,0-0.001,0.001c-1.363-1.319-3.541-0.262-4.309,0.506
	C7.093,2.54,6.794,4.141,7.309,5.103c-0.164,0.97-1.61,2.202-2.667,2.688c-0.369,0.369-4.277,4.276-4.277,4.276l0.002,0.001
	c-0.004,0.004-0.009,0.007-0.014,0.012c-0.346,0.346-0.506,0.749-0.158,1.095c0.017,0.018,0.084,0.084,0.102,0.102
	c0.346,0.347,0.826,0.265,1.172-0.081c0.004-0.005,0.008-0.01,0.012-0.015l0.001,0.002c0,0,3.907-3.906,4.276-4.276
	c0.486-1.058,1.642-2.58,2.611-2.744c0.961,0.515,2.658,0.281,4.066-1.127C13.324,4.146,14.164,2.023,12.845,0.66z M9.095,2.008
	C8.888,2.251,8.591,2.569,8.398,2.915C8.208,3.26,8.123,3.693,8.046,4c-0.08,0.312-0.092,0.53-0.068,0.527
	c-0.049,0.023-0.249-0.893,0.161-1.75c0.104-0.217,0.268-0.375,0.407-0.531c0.14-0.155,0.302-0.267,0.432-0.368
	c0.271-0.196,0.486-0.266,0.486-0.266S9.303,1.763,9.095,2.008z"/>
<g>
</g>
<g>
</g>
<g>
</g>
<g>
</g>
<g>
</g>
<g>
</g>
<g>
</g>
<g>
</g>
<g>
</g>
<g>
</g>
<g>
</g>
<g>
</g>
<g>
</g>
<g>
</g>
<g>
</g>
</svg>
