<?xml version="1.0" encoding="iso-8859-1"?>
<!-- Generator: Adobe Illustrator 16.0.0, SVG Export Plug-In . SVG Version: 6.00 Build 0)  -->
<!DOCTYPE svg PUBLIC "-//W3C//DTD SVG 1.1//EN" "http://www.w3.org/Graphics/SVG/1.1/DTD/svg11.dtd">
<svg version="1.1" id="Layer_1" xmlns="http://www.w3.org/2000/svg" xmlns:xlink="http://www.w3.org/1999/xlink" x="0px" y="0px"
	 width="28.058px" height="32.014px" viewBox="0 0 28.058 32.014" style="enable-background:new 0 0 28.058 32.014;"
	 xml:space="preserve">
<g>
	<path d="M8.913,0.016L8.913,0.016c-0.001,0-0.003,0-0.004,0s-0.002,0-0.003,0l0,0C6.18-0.125,4.255,8.163,5.015,10.227
		c0.539,1.467,2.001,2.579,2.805,3.101c0.714,1.187,0.198,3.76-0.358,5.264c0,0.74,0,12.085,0,12.085l0.002,0
		c0,0.008-0.002,0.016-0.002,0.025c0,0.694,0.563,1.257,1.258,1.258c0.036-0.001,0.169-0.001,0.204-0.001
		c0.695,0,1.259-0.563,1.259-1.257c0-0.009-0.001-0.017-0.003-0.025h0.003c0,0,0-11.345,0-12.085
		c-0.532-1.436-1.028-3.848-0.45-5.096c0.69-0.417,2.465-1.619,3.072-3.269C13.563,8.163,11.637-0.125,8.913,0.016z M7.95,12.352
		c-0.038,0.057-0.112,0.079-0.182,0.054c-0.018-0.007-0.109-0.043-0.243-0.14c-0.03-0.022-0.064-0.048-0.097-0.079l-0.055-0.05
		c-0.154-0.14-0.367-0.329-0.566-0.591C6.172,10.752,5.778,9.99,5.61,9.22C5.567,8.95,5.523,8.463,5.538,8.2
		c0.02-0.231,0.053-0.46,0.105-0.704c0.11-0.472,0.274-0.882,0.408-1.189c0.154-0.352,0.323-0.625,0.456-0.792
		c0.156-0.2,0.265-0.332,0.265-0.332c0.049-0.059,0.141-0.068,0.212-0.019c0.073,0.055,0.102,0.136,0.07,0.206
		C7.053,5.372,6.965,5.548,6.895,5.736C6.809,5.91,6.765,6.165,6.679,6.507C6.6,6.806,6.535,7.181,6.487,7.62
		C6.462,7.81,6.449,8.015,6.446,8.229c-0.008,0.185,0.042,0.66,0.078,0.836c0.184,0.799,0.576,1.596,0.861,2.178
		c0.06,0.113,0.12,0.226,0.173,0.33c0.074,0.145,0.139,0.27,0.201,0.362c0.09,0.148,0.163,0.226,0.163,0.229
		C7.975,12.218,7.985,12.297,7.95,12.352z"/>
	<path d="M17.555,2.394c-0.004,0-0.008-0.002-0.012-0.002c-0.857,0.015-2.61,0.084-3.267,2.708s-0.543,5.887,0.123,6.531
		c0.517,0.5,1.796,1.635,2.344,2.12c0.446,1.292-0.027,3.533-0.531,4.896c0,0.74,0,12.085,0,12.085l0.003-0.001
		c-0.001,0.008-0.003,0.017-0.003,0.025c0,0.694,0.563,1.257,1.258,1.258c0.036,0,0.169,0,0.204,0c0.695,0,1.259-0.563,1.259-1.257
		c0-0.009-0.001-0.017-0.003-0.025h0.003c0,0,0-11.344,0-12.084c-0.499-1.347-0.967-3.556-0.546-4.854
		c0.512-0.459,1.85-1.665,2.38-2.185c0.662-0.648,0.75-3.914,0.074-6.532C20.165,2.459,18.413,2.402,17.555,2.394z M16.778,12.532
		c-0.014-0.004-0.086-0.028-0.196-0.093c-0.025-0.015-0.053-0.032-0.081-0.054l-0.046-0.034c-0.129-0.097-0.307-0.227-0.481-0.412
		c-0.551-0.562-0.916-1.107-1.111-1.671c-0.057-0.198-0.133-0.557-0.145-0.752c-0.005-0.172,0-0.343,0.019-0.526
		c0.042-0.354,0.13-0.665,0.205-0.898c0.086-0.268,0.191-0.478,0.276-0.608c0.101-0.154,0.172-0.257,0.172-0.257
		c0.031-0.047,0.1-0.058,0.159-0.024c0.061,0.038,0.089,0.097,0.072,0.149c-0.001,0.001-0.052,0.136-0.09,0.278
		c-0.049,0.132-0.06,0.324-0.096,0.581c-0.033,0.225-0.049,0.505-0.047,0.833c-0.001,0.142,0.006,0.294,0.022,0.453
		c0.01,0.138,0.09,0.487,0.132,0.616c0.21,0.583,0.576,1.156,0.844,1.574c0.056,0.081,0.111,0.162,0.16,0.236
		c0.069,0.104,0.129,0.194,0.184,0.259c0.081,0.105,0.144,0.16,0.144,0.162c0.045,0.038,0.06,0.097,0.038,0.139
		C16.888,12.529,16.833,12.547,16.778,12.532z"/>
	<path d="M27.399,7.015c-0.38-0.994-1.257-1.842-2.163-1.754c-0.011,0.001-0.021,0.009-0.031,0.012
		c-0.01-0.003-0.02-0.011-0.031-0.012c-0.906-0.088-1.783,0.76-2.163,1.754c-0.38,0.994-0.906,2.748-0.526,4.044
		c0.304,1.036,1.54,2.089,2.024,2.47c0.603,2.015,0.042,10.84-0.495,12.293c0,0.74,0,4.836,0,4.836l0.002,0
		c0,0.008-0.002,0.016-0.002,0.025c0,0.694,0.394,1.277,1.089,1.278c0.036-0.001,0.169-0.001,0.205-0.001
		c0.695,0,1.064-0.563,1.064-1.257c0-0.009-0.001-0.017-0.002-0.025h0.002c0,0,0-4.095,0-4.835
		c-0.538-1.452-1.076-10.295-0.471-12.312c0.484-0.381,1.721-1.434,2.025-2.471C28.306,9.762,27.78,8.008,27.399,7.015z
		 M24.377,12.355c-0.01-0.003-0.06-0.019-0.136-0.063c-0.018-0.01-0.036-0.022-0.056-0.037l-0.032-0.024
		c-0.089-0.067-0.211-0.158-0.33-0.288c-0.376-0.395-0.622-0.783-0.749-1.186c-0.036-0.142-0.083-0.4-0.087-0.541
		c0-0.125,0.007-0.249,0.023-0.38c0.037-0.257,0.105-0.483,0.162-0.654c0.066-0.195,0.143-0.349,0.206-0.444
		c0.074-0.113,0.126-0.189,0.126-0.189c0.023-0.035,0.071-0.043,0.112-0.021c0.042,0.026,0.061,0.068,0.047,0.106
		c0,0.001-0.039,0.099-0.068,0.203c-0.037,0.097-0.048,0.235-0.079,0.422c-0.028,0.164-0.044,0.366-0.049,0.603
		c-0.004,0.103-0.002,0.213,0.007,0.327c0.005,0.099,0.054,0.351,0.081,0.443c0.136,0.417,0.382,0.824,0.563,1.121
		c0.038,0.057,0.075,0.115,0.108,0.167c0.046,0.074,0.086,0.138,0.124,0.184c0.055,0.074,0.098,0.113,0.098,0.114
		c0.031,0.027,0.041,0.069,0.024,0.1C24.455,12.35,24.416,12.364,24.377,12.355z"/>
	<path d="M2.683,9.809c0,0,0.407-9.573-0.036-9.796C1.799-0.265-0.229,3.956,0.021,7.101s2.832,3.475,2.782,4.287
		C2.753,12.2,1.624,25.48,1.678,27.754c0.055,2.274,1.08,4.876,1.382,4.11c0.302-0.767,0.295-19.293,0.213-20.313
		C3.19,10.533,2.683,9.809,2.683,9.809z"/>
</g>
<g>
</g>
<g>
</g>
<g>
</g>
<g>
</g>
<g>
</g>
<g>
</g>
<g>
</g>
<g>
</g>
<g>
</g>
<g>
</g>
<g>
</g>
<g>
</g>
<g>
</g>
<g>
</g>
<g>
</g>
</svg>
