<?xml version="1.0" encoding="iso-8859-1"?>
<!-- Generator: Adobe Illustrator 16.0.0, SVG Export Plug-In . SVG Version: 6.00 Build 0)  -->
<!DOCTYPE svg PUBLIC "-//W3C//DTD SVG 1.1//EN" "http://www.w3.org/Graphics/SVG/1.1/DTD/svg11.dtd">
<svg version="1.1" id="Layer_1" xmlns="http://www.w3.org/2000/svg" xmlns:xlink="http://www.w3.org/1999/xlink" x="0px" y="0px"
	 width="21.807px" height="21.806px" viewBox="0 0 21.807 21.806" style="enable-background:new 0 0 21.807 21.806;"
	 xml:space="preserve">
<path d="M20.459,1.399c0.001,0,0.001-0.001,0.001-0.001c-0.008-0.009-0.042-0.043-0.051-0.051c0,0-0.001,0-0.002,0.001
	c-2.047-1.982-4.59-1.713-6.688,0.384c-2.115,2.115-2.352,4.896-1.578,6.34c-0.246,1.458-2.657,3.07-4.246,3.8
	c-0.555,0.555-7.486,7.487-7.486,7.487l0.002,0.002c-0.007,0.005-0.015,0.01-0.021,0.017c-0.52,0.52-0.52,1.364,0.001,1.885
	c0.026,0.026,0.127,0.126,0.153,0.153c0.521,0.521,1.365,0.521,1.885,0.001c0.006-0.007,0.012-0.014,0.018-0.021l0.002,0.002
	c0,0,6.932-6.932,7.486-7.487c0.73-1.589,2.343-4.001,3.8-4.246c1.444,0.773,4.226,0.537,6.341-1.578
	C22.173,5.99,22.442,3.447,20.459,1.399z M15.639,2.189c-0.102,0.134-0.247,0.325-0.422,0.555c-0.171,0.223-0.372,0.483-0.587,0.762
	c-0.221,0.274-0.402,0.563-0.566,0.858c-0.279,0.637-0.508,1.393-0.697,1.928c-0.199,0.542-0.291,0.921-0.254,0.922
	c-0.006,0.008-0.067-0.087-0.092-0.264c-0.022-0.175-0.042-0.425-0.04-0.725c0.007-0.298,0.039-0.643,0.1-1.011
	c0.071-0.368,0.146-0.752,0.317-1.153c0.088-0.185,0.193-0.4,0.32-0.557c0.127-0.163,0.245-0.327,0.387-0.454
	c0.265-0.275,0.545-0.488,0.795-0.654c0.248-0.167,0.487-0.271,0.652-0.343c0.16-0.068,0.266-0.075,0.264-0.081
	C15.815,1.974,15.751,2.052,15.639,2.189z"/>
<g>
</g>
<g>
</g>
<g>
</g>
<g>
</g>
<g>
</g>
<g>
</g>
<g>
</g>
<g>
</g>
<g>
</g>
<g>
</g>
<g>
</g>
<g>
</g>
<g>
</g>
<g>
</g>
<g>
</g>
</svg>
