<?xml version="1.0" encoding="iso-8859-1"?>
<!-- Generator: Adobe Illustrator 16.0.0, SVG Export Plug-In . SVG Version: 6.00 Build 0)  -->
<!DOCTYPE svg PUBLIC "-//W3C//DTD SVG 1.1//EN" "http://www.w3.org/Graphics/SVG/1.1/DTD/svg11.dtd">
<svg version="1.1" id="Layer_1" xmlns="http://www.w3.org/2000/svg" xmlns:xlink="http://www.w3.org/1999/xlink" x="0px" y="0px"
	 width="32px" height="31.978px" viewBox="0 0 32 31.978" style="enable-background:new 0 0 32 31.978;" xml:space="preserve">
<path d="M30.172,1.829c-2.645-2.645-7.185-2.391-10.142,0.566c-2.575,2.575-3.1,6.352-1.444,9.03
	c-3.754,5.743-8.166,7.958-8.166,7.958L0.148,29.654l0.001,0.001c-0.004,0.005-0.009,0.008-0.015,0.012
	c-0.359,0.361,0.074,1.381,0.434,1.742c0.362,0.361,1.382,0.794,1.742,0.434c0.004-0.005,0.008-0.01,0.012-0.014h0.002
	l10.258-10.258c0,0,2.639-4.502,7.961-8.168c-0.008-0.007-0.014-0.014-0.021-0.021c2.683,1.695,6.492,1.182,9.084-1.411
	C32.563,9.013,32.815,4.472,30.172,1.829z M23.861,2.751c-0.002,0.001-0.211,0.103-0.412,0.229
	c-0.207,0.104-0.454,0.298-0.781,0.561c-0.289,0.228-0.619,0.537-0.98,0.92c-0.158,0.166-0.318,0.35-0.477,0.553
	c-0.139,0.171-0.283,0.395-0.373,0.59c-0.4,0.899-0.604,1.953-0.75,2.721c-0.024,0.15-0.049,0.305-0.074,0.441
	c-0.033,0.194-0.063,0.362-0.07,0.496c-0.021,0.207-0.008,0.338-0.01,0.34c0.011,0.092-0.035,0.175-0.109,0.201
	c-0.076,0.027-0.162-0.008-0.211-0.084c-0.012-0.021-0.07-0.123-0.128-0.313c-0.013-0.043-0.026-0.094-0.036-0.147L19.434,9.17
	c-0.047-0.248-0.111-0.588-0.112-0.986c-0.028-1.23,0.146-2.251,0.54-3.113c0.152-0.288,0.309-0.52,0.513-0.76
	c0.186-0.207,0.382-0.399,0.604-0.594c0.229-0.191,0.458-0.354,0.676-0.494c0.021-0.015,0.044-0.035,0.065-0.049
	c0.32-0.228,0.623-0.368,0.841-0.449c0.005-0.001,0.007-0.001,0.012-0.003c0.259-0.112,0.5-0.198,0.669-0.241
	c0.29-0.072,0.489-0.118,0.489-0.118c0.088-0.021,0.182,0.039,0.214,0.14C23.973,2.609,23.941,2.708,23.861,2.751z"/>
<g>
</g>
<g>
</g>
<g>
</g>
<g>
</g>
<g>
</g>
<g>
</g>
<g>
</g>
<g>
</g>
<g>
</g>
<g>
</g>
<g>
</g>
<g>
</g>
<g>
</g>
<g>
</g>
<g>
</g>
</svg>
