<?xml version="1.0" encoding="iso-8859-1"?>
<!-- Generator: Adobe Illustrator 16.0.0, SVG Export Plug-In . SVG Version: 6.00 Build 0)  -->
<!DOCTYPE svg PUBLIC "-//W3C//DTD SVG 1.1//EN" "http://www.w3.org/Graphics/SVG/1.1/DTD/svg11.dtd">
<svg version="1.1" id="Layer_1" xmlns="http://www.w3.org/2000/svg" xmlns:xlink="http://www.w3.org/1999/xlink" x="0px" y="0px"
	 width="25.532px" height="25.523px" viewBox="0 0 25.532 25.523" style="enable-background:new 0 0 25.532 25.523;"
	 xml:space="preserve">
<path d="M25.261,0C17.954,0,6.511,0,0.224,0c-2.129,7.727,11.644,11.316,11.644,12.037c0,0.722,0.055,4.091-0.008,6.784
	c0,3.532-3.891,5.574-5.743,6.345c-0.399,0.179-0.281,0.357,0.001,0.357c0.268,0,6.097,0,6.687,0c0.03,0,0.059,0,0.059,0
	c0.589,0,6.419,0,6.687,0c0.282,0,0.399-0.179,0.001-0.357c-1.854-0.771-5.744-2.813-5.744-6.345
	c-0.063-2.693-0.007-6.063-0.007-6.784C13.799,11.316,27.622,7.727,25.261,0z M9.548,8.839C8.415,8.4,6.967,7.655,5.656,6.667
	C5.012,6.163,4.388,5.614,3.88,5.014C3.367,4.422,2.959,3.785,2.727,3.18C2.481,2.577,2.442,2.02,2.494,1.644
	c0.01-0.19,0.069-0.316,0.096-0.409c0.029-0.092,0.045-0.141,0.045-0.141C2.644,1.088,2.648,1.31,2.751,1.635
	C2.843,1.951,3.046,2.383,3.38,2.826c0.667,0.895,1.829,1.881,3.063,2.807C7.67,6.568,8.956,7.469,9.909,8.186
	c0.959,0.707,1.585,1.242,1.585,1.242S10.679,9.287,9.548,8.839z"/>
<g>
</g>
<g>
</g>
<g>
</g>
<g>
</g>
<g>
</g>
<g>
</g>
<g>
</g>
<g>
</g>
<g>
</g>
<g>
</g>
<g>
</g>
<g>
</g>
<g>
</g>
<g>
</g>
<g>
</g>
</svg>
