<?xml version="1.0" encoding="iso-8859-1"?>
<!-- Generator: Adobe Illustrator 16.0.0, SVG Export Plug-In . SVG Version: 6.00 Build 0)  -->
<!DOCTYPE svg PUBLIC "-//W3C//DTD SVG 1.1//EN" "http://www.w3.org/Graphics/SVG/1.1/DTD/svg11.dtd">
<svg version="1.1" id="Layer_1" xmlns="http://www.w3.org/2000/svg" xmlns:xlink="http://www.w3.org/1999/xlink" x="0px" y="0px"
	 width="32px" height="31.901px" viewBox="0 0 32 31.901" style="enable-background:new 0 0 32 31.901;" xml:space="preserve">
<g>
	<path d="M31.011,4.628C29.58,2.247,26.783,0.88,23.337,0.88c-2.464,0-4.67,1.082-6.478,2.451c-1.613-1.786-4.728-3.416-8.056-3.328
		c-2.148,0.055-5.196,0.851-7.516,4.33C0.094,6.125-0.272,8.019,0.2,9.96c0.893,3.674,4.63,6.404,6.201,7.411v13.122
		c0,0.742,0.602,1.343,1.343,1.343h1.243V16.138c-0.112-0.289-0.312-0.541-0.591-0.696c-0.047-0.026-4.757-2.685-5.588-6.121
		C2.519,8.124,2.753,6.979,3.523,5.824c1.35-2.024,3.149-3.079,5.35-3.136c2.397-0.056,4.815,1.137,5.976,2.419
		c-1.831,1.852-2.937,3.645-3.03,3.8c-0.384,0.633-0.183,1.458,0.451,1.843s1.459,0.185,1.845-0.449
		c0.041-0.067,4.165-6.733,9.223-6.733c2.48,0,4.438,0.892,5.371,2.445c0.931,1.55,0.776,3.66-0.438,5.944
		c-0.734,1.381-2.261,2.322-4.1,2.956v16.924h1.332c0.742,0,1.343-0.601,1.343-1.343V16.681c1.62-0.813,2.983-1.933,3.798-3.464
		C32.316,10.069,32.447,7.018,31.011,4.628z"/>
	<path d="M22.591,25.479c0.001-0.463-0.013-11.55-0.013-11.55l-0.531-0.003c0,0-1.787,1.166-1.786,9.804
		c1.586,0.436,0.918,2.168,0.798,2.388c0,0.44,0.034,4.957,0.034,4.957l0.004-0.001c-0.001,0.004-0.003,0.009-0.002,0.015
		c-0.002,0.415,0.334,0.751,0.748,0.748c0.412,0.002,0.75-0.336,0.749-0.749c0.001-0.004,0.001-0.01-0.001-0.013l0.002-0.002
		C22.592,31.073,22.592,25.985,22.591,25.479z"/>
	<path d="M19.335,13.864l-0.46-0.001l0.138,4.819l-0.553-0.001v-4.818l-0.404,0.001v4.849h-0.458v-4.849h-0.446v4.849h-0.542
		l0.154-4.85h-0.42l-0.51,4.102c0,0-0.013,0.155-0.013,0.214c0,0.632,0.293,1.197,0.752,1.565c1.511,1.706,0.479,3.445,0.479,3.858
		c0.001,0.459,0.001,7.502,0.001,7.502h0.001c0,0.005-0.002,0.01-0.002,0.017c0,0.431,0.351,0.78,0.782,0.78s0.782-0.351,0.782-0.78
		c0-0.007-0.002-0.012-0.002-0.016h0.001c0,0,0.001-6.956,0.001-7.487c-0.001-0.479-0.874-2.481,0.583-3.969
		c0.001-0.002,0.004-0.007,0.007-0.009c0.356-0.336,0.59-0.801,0.626-1.322c0.002-0.037,0.001-0.13,0.001-0.13L19.335,13.864z"/>
	<path d="M15.339,16.892c0-1.722-0.933-3.305-2.587-3.332c0-0.001,0-0.001,0-0.001c-0.007,0-0.035,0-0.042,0c0,0,0,0,0,0.001
		c-1.654,0.027-2.587,1.61-2.587,3.332c0,1.736,1.044,2.976,1.955,3.25c0.498,0.699,0.169,2.351-0.183,3.303
		c-0.001,0.455,0,7.435,0,7.435h0.001c0,0.005-0.002,0.011-0.001,0.016c0,0.427,0.346,0.773,0.773,0.773c0.022,0,0.104,0,0.125,0
		c0.428,0,0.774-0.347,0.775-0.772c0-0.006-0.001-0.012-0.002-0.017h0.001c0,0,0-6.979,0-7.435c-0.352-0.952-0.68-2.604-0.183-3.303
		C14.295,19.868,15.339,18.628,15.339,16.892z M12.1,19.475c-0.01-0.003-0.064-0.021-0.144-0.067
		c-0.019-0.013-0.04-0.026-0.06-0.041l-0.033-0.025c-0.095-0.072-0.225-0.17-0.351-0.311c-0.398-0.424-0.659-0.84-0.79-1.271
		c-0.037-0.15-0.055-0.282-0.059-0.435c0-0.133,0.009-0.264,0.027-0.406c0.041-0.272,0.115-0.515,0.177-0.696
		c0.071-0.207,0.168-0.372,0.234-0.475c0.081-0.119,0.136-0.2,0.136-0.2c0.026-0.035,0.078-0.046,0.12-0.021
		c0.044,0.028,0.064,0.072,0.05,0.113c-0.001,0.002-0.043,0.105-0.074,0.216c-0.041,0.104-0.067,0.252-0.101,0.451
		c-0.03,0.174-0.05,0.391-0.057,0.644c-0.005,0.109-0.003,0.227,0.005,0.349c0.005,0.106,0.025,0.231,0.053,0.329
		c0.143,0.448,0.403,0.884,0.593,1.202c0.039,0.061,0.079,0.123,0.114,0.179c0.049,0.079,0.092,0.148,0.131,0.197
		c0.058,0.08,0.104,0.122,0.104,0.123c0.033,0.029,0.042,0.073,0.024,0.107C12.183,19.469,12.141,19.487,12.1,19.475z"/>
</g>
<g>
</g>
<g>
</g>
<g>
</g>
<g>
</g>
<g>
</g>
<g>
</g>
<g>
</g>
<g>
</g>
<g>
</g>
<g>
</g>
<g>
</g>
<g>
</g>
<g>
</g>
<g>
</g>
<g>
</g>
</svg>
