<?xml version="1.0" encoding="iso-8859-1"?>
<!-- Generator: Adobe Illustrator 16.0.0, SVG Export Plug-In . SVG Version: 6.00 Build 0)  -->
<!DOCTYPE svg PUBLIC "-//W3C//DTD SVG 1.1//EN" "http://www.w3.org/Graphics/SVG/1.1/DTD/svg11.dtd">
<svg version="1.1" id="Layer_1" xmlns="http://www.w3.org/2000/svg" xmlns:xlink="http://www.w3.org/1999/xlink" x="0px" y="0px"
	 width="20.862px" height="32px" viewBox="0 0 20.862 32" style="enable-background:new 0 0 20.862 32;" xml:space="preserve">
<g>
	<path d="M15.522,21.033c-1.274,1.324-2.962,2.139-4.819,2.139c-1.905,0-3.635-0.857-4.92-2.243C0.871,22.511,0,26.391,0,27.855
		C0,29.715,0,32,0,32h20.862c0,0,0-1.134,0-3.082C20.862,27.381,20.318,22.869,15.522,21.033z"/>
	<path d="M5.019,13.938c0.059,0.33,0.345,0.57,0.681,0.57h0.05c-0.014,0.166-0.035,0.33-0.035,0.5c0,2.577,1.359,4.767,3.263,5.611
		c0.015,0.007,0.031,0.013,0.046,0.021c0.15,0.064,0.304,0.12,0.461,0.168c0.032,0.01,0.063,0.021,0.096,0.028
		c0.144,0.04,0.291,0.071,0.438,0.096c0.041,0.007,0.082,0.017,0.123,0.022c0.184,0.024,0.371,0.04,0.561,0.04
		c0.188,0,0.374-0.015,0.557-0.039c0.038-0.005,0.075-0.015,0.112-0.021c0.15-0.024,0.298-0.055,0.443-0.095
		c0.027-0.008,0.054-0.017,0.081-0.024c0.16-0.048,0.316-0.104,0.469-0.169c0.01-0.004,0.02-0.009,0.031-0.014
		c1.92-0.833,3.296-3.033,3.296-5.625c0-0.17-0.022-0.334-0.035-0.5h0.06c0.33,0,0.615-0.233,0.679-0.558l2.302-11.746
		c0.06-0.303-0.088-0.607-0.363-0.748C18.218,1.397,15.429,0,10.958,0c-0.042,0-0.083,0.001-0.125,0.001
		C10.83,0.001,10.827,0,10.823,0s-0.007,0.001-0.011,0.001c-4.378,0.03-7.351,1.387-7.477,1.444
		C3.051,1.577,2.892,1.885,2.946,2.192L5.019,13.938z M17.236,2.484l-1.406,7.17h-1.742l1.302-7.749
		C16.216,2.109,16.844,2.33,17.236,2.484z M11.399,1.388c1.098,0.025,2.078,0.14,2.92,0.292l-1.34,7.975h-1.581V1.388z
		 M15.604,10.805l-0.456,2.322h-8.87l-0.41-2.322H15.604z M10.248,1.396v8.259h-1.61L7.305,1.72
		C8.162,1.561,9.154,1.436,10.248,1.396z M6.235,1.951L7.53,9.654H5.666l-1.262-7.15C4.8,2.357,5.427,2.148,6.235,1.951z"/>
</g>
<g>
</g>
<g>
</g>
<g>
</g>
<g>
</g>
<g>
</g>
<g>
</g>
<g>
</g>
<g>
</g>
<g>
</g>
<g>
</g>
<g>
</g>
<g>
</g>
<g>
</g>
<g>
</g>
<g>
</g>
</svg>
