<?xml version="1.0" encoding="iso-8859-1"?>
<!-- Generator: Adobe Illustrator 16.0.0, SVG Export Plug-In . SVG Version: 6.00 Build 0)  -->
<!DOCTYPE svg PUBLIC "-//W3C//DTD SVG 1.1//EN" "http://www.w3.org/Graphics/SVG/1.1/DTD/svg11.dtd">
<svg version="1.1" id="Layer_1" xmlns="http://www.w3.org/2000/svg" xmlns:xlink="http://www.w3.org/1999/xlink" x="0px" y="0px"
	 width="20.804px" height="32px" viewBox="0 0 20.804 32" style="enable-background:new 0 0 20.804 32;" xml:space="preserve">
<g>
	<path d="M15.479,21.064c-1.271,1.32-2.954,2.133-4.805,2.133c-1.9,0-3.625-0.855-4.906-2.237C0.869,22.538,0,26.407,0,27.867
		C0,29.722,0,32,0,32h20.804c0,0,0-1.131,0-3.073C20.804,27.395,20.261,22.895,15.479,21.064z"/>
	<path d="M5.205,9.407v4.923c0,0.319,0.21,0.583,0.497,0.68c0,0.017-0.003,0.031-0.003,0.047c0,2.57,1.356,4.754,3.254,5.596
		c0.015,0.007,0.031,0.013,0.046,0.021c0.15,0.063,0.303,0.12,0.46,0.167c0.032,0.01,0.063,0.021,0.095,0.029
		c0.144,0.039,0.29,0.07,0.437,0.095c0.041,0.007,0.082,0.017,0.123,0.022c0.184,0.024,0.37,0.04,0.56,0.04
		c0.188,0,0.372-0.015,0.555-0.039c0.038-0.005,0.075-0.015,0.112-0.021c0.149-0.024,0.297-0.055,0.442-0.095
		c0.027-0.008,0.054-0.017,0.081-0.024c0.16-0.047,0.315-0.104,0.468-0.168c0.01-0.004,0.02-0.009,0.03-0.014
		c1.915-0.83,3.287-3.024,3.287-5.609c0-0.007-0.001-0.014-0.001-0.021c0.352-0.05,0.627-0.34,0.627-0.706V9.032
		c0.877-0.44,1.615-1.046,2.056-1.875c0.907-1.705,0.978-3.356,0.2-4.65c-0.775-1.29-2.289-2.029-4.155-2.029
		c-1.334,0-2.529,0.585-3.507,1.326c-0.873-0.967-2.56-1.849-4.361-1.802c-1.164,0.03-2.813,0.461-4.07,2.345
		C1.79,3.316,1.592,4.342,1.847,5.394C2.331,7.383,4.354,8.861,5.205,9.407z M3.646,3.153c0.731-1.096,1.706-1.667,2.896-1.697
		c1.298-0.03,2.607,0.616,3.236,1.31c-0.991,1.003-1.59,1.973-1.641,2.058C7.93,5.166,8.039,5.612,8.382,5.821
		c0.343,0.208,0.79,0.1,0.999-0.244c0.022-0.036,2.255-3.645,4.994-3.645c1.343,0,2.402,0.482,2.908,1.323
		c0.504,0.838,0.419,1.981-0.238,3.219C15.841,8.74,10.7,8.832,8.82,8.676C8.421,8.641,8.068,8.941,8.036,9.341
		c-0.034,0.4,0.263,0.752,0.663,0.785c0.081,0.007,0.629,0.05,1.432,0.05c1.224,0,3.039-0.102,4.689-0.583v4.01h-8.16V8.998
		c0-0.265-0.144-0.508-0.375-0.637C6.259,8.348,3.71,6.908,3.26,5.047C3.103,4.399,3.229,3.779,3.646,3.153z"/>
</g>
<g>
</g>
<g>
</g>
<g>
</g>
<g>
</g>
<g>
</g>
<g>
</g>
<g>
</g>
<g>
</g>
<g>
</g>
<g>
</g>
<g>
</g>
<g>
</g>
<g>
</g>
<g>
</g>
<g>
</g>
</svg>
