<?xml version="1.0" encoding="iso-8859-1"?>
<!-- Generator: Adobe Illustrator 16.0.0, SVG Export Plug-In . SVG Version: 6.00 Build 0)  -->
<!DOCTYPE svg PUBLIC "-//W3C//DTD SVG 1.1//EN" "http://www.w3.org/Graphics/SVG/1.1/DTD/svg11.dtd">
<svg version="1.1" id="Layer_1" xmlns="http://www.w3.org/2000/svg" xmlns:xlink="http://www.w3.org/1999/xlink" x="0px" y="0px"
	 width="30.059px" height="28.44px" viewBox="0 0 30.059 28.44" style="enable-background:new 0 0 30.059 28.44;"
	 xml:space="preserve">
<g>
	<path d="M30.056,24.375c-0.042-2.557-2.491-3.998-5.152-3.998c-2.684,0.001-4.599,1.615-5.023,3.021
		c-1.08,0.771-3.634,0.264-5.105-0.28c-0.704,0.001-11.491,0.001-11.491,0.001l-0.001,0.003c-0.007-0.001-0.016-0.002-0.024-0.002
		c-0.66,0-1.195,0.535-1.196,1.195c0,0.034,0.001,0.162,0,0.195c0.001,0.661,0.536,1.195,1.196,1.195
		c0.008,0,0.016-0.002,0.024-0.002l-0.001,0.002c0,0,10.79,0,11.493-0.001c1.473-0.545,4.024-1.054,5.105-0.283
		c0.425,1.407,2.34,3.021,5.024,3.02c2.66,0,5.109-1.443,5.15-3.999h0.001c0.001-0.012,0-0.056,0.002-0.066
		C30.059,24.375,30.057,24.375,30.056,24.375z M26.918,22.039c-0.189-0.008-0.462-0.017-0.788-0.027
		c-0.64-0.008-1.512-0.059-2.285,0.061c-0.181,0.022-0.386,0.085-0.572,0.148c-0.191,0.059-0.382,0.13-0.564,0.205
		c-0.368,0.143-0.708,0.298-1.002,0.432c-0.292,0.136-0.535,0.256-0.699,0.351c-0.169,0.088-0.241,0.171-0.233,0.177
		c-0.009,0.002,0.018-0.12,0.145-0.276c0.124-0.159,0.32-0.362,0.58-0.577c0.258-0.217,0.578-0.441,0.948-0.652
		c0.186-0.102,0.382-0.199,0.592-0.29c0.218-0.087,0.429-0.157,0.678-0.204c0.478-0.09,0.937-0.075,1.358-0.024
		c0.421,0.046,0.804,0.136,1.123,0.235c0.323,0.096,0.582,0.208,0.758,0.301c0.18,0.09,0.266,0.164,0.266,0.164
		S27.107,22.046,26.918,22.039z"/>
	<path d="M4.79,12.999v6.804c0,0.555,0.45,1.004,1.005,1.004h13.287c0.555,0,1.004-0.449,1.004-1.004v-7.321
		c1.212-0.608,2.232-1.446,2.841-2.591c1.253-2.357,1.351-4.64,0.277-6.428c-1.072-1.782-3.164-2.804-5.742-2.804
		c-1.844,0-3.495,0.809-4.847,1.833c-1.207-1.336-3.537-2.555-6.027-2.49C4.98,0.044,2.7,0.639,0.964,3.242
		C0.07,4.583-0.204,5.999,0.149,7.453C0.817,10.201,3.614,12.245,4.79,12.999z M2.636,4.357c1.01-1.515,2.357-2.304,4.003-2.346
		c1.793-0.042,3.603,0.851,4.471,1.81c-1.37,1.386-2.197,2.727-2.267,2.844c-0.288,0.473-0.137,1.09,0.337,1.379
		c0.474,0.288,1.091,0.138,1.38-0.337c0.03-0.05,3.116-5.037,6.901-5.037c1.855,0,3.32,0.667,4.019,1.828
		c0.697,1.159,0.58,2.739-0.329,4.448c-1.665,3.132-8.769,3.258-11.367,3.043c-0.551-0.049-1.039,0.366-1.084,0.918
		c-0.046,0.554,0.364,1.04,0.917,1.086c0.112,0.009,0.87,0.068,1.979,0.068c1.691,0,4.199-0.14,6.479-0.806v5.541H6.799v-6.363
		c0-0.365-0.198-0.701-0.517-0.879c-0.035-0.02-3.559-2.009-4.181-4.581C1.885,6.079,2.06,5.223,2.636,4.357z"/>
</g>
<g>
</g>
<g>
</g>
<g>
</g>
<g>
</g>
<g>
</g>
<g>
</g>
<g>
</g>
<g>
</g>
<g>
</g>
<g>
</g>
<g>
</g>
<g>
</g>
<g>
</g>
<g>
</g>
<g>
</g>
</svg>
