<?xml version="1.0" encoding="iso-8859-1"?>
<!-- Generator: Adobe Illustrator 16.0.0, SVG Export Plug-In . SVG Version: 6.00 Build 0)  -->
<!DOCTYPE svg PUBLIC "-//W3C//DTD SVG 1.1//EN" "http://www.w3.org/Graphics/SVG/1.1/DTD/svg11.dtd">
<svg version="1.1" id="Layer_1" xmlns="http://www.w3.org/2000/svg" xmlns:xlink="http://www.w3.org/1999/xlink" x="0px" y="0px"
	 width="32px" height="29.43px" viewBox="0 0 32 29.43" style="enable-background:new 0 0 32 29.43;" xml:space="preserve">
<path d="M31.236,2.956C31,2.835,25.342,0,16.272,0c-0.085,0-0.168,0.002-0.253,0.002C16.013,0.002,16.007,0,16,0
	c-0.008,0-0.016,0.002-0.024,0.002C7.096,0.063,1.066,2.814,0.811,2.933c-0.576,0.268-0.9,0.89-0.79,1.515l4.204,23.825
	c0.119,0.67,0.7,1.157,1.38,1.157h20.321c0.67,0,1.247-0.474,1.375-1.132l4.671-23.824C32.094,3.859,31.793,3.24,31.236,2.956z
	 M17.168,19.581V2.815c2.226,0.051,4.214,0.282,5.924,0.591l-2.718,16.175H17.168z M11.566,19.581L8.862,3.488
	c1.738-0.323,3.752-0.577,5.97-0.657v16.75H11.566z M6.693,3.957l2.625,15.624h-3.78L2.979,5.079
	C3.782,4.781,5.054,4.357,6.693,3.957z M6.782,26.627l-0.831-4.71h19.747l-0.924,4.71H6.782z M26.155,19.581h-3.533l2.64-15.715
	c1.676,0.413,2.95,0.859,3.744,1.174L26.155,19.581z"/>
<g>
</g>
<g>
</g>
<g>
</g>
<g>
</g>
<g>
</g>
<g>
</g>
<g>
</g>
<g>
</g>
<g>
</g>
<g>
</g>
<g>
</g>
<g>
</g>
<g>
</g>
<g>
</g>
<g>
</g>
</svg>
