<?xml version="1.0" encoding="iso-8859-1"?>
<!-- Generator: Adobe Illustrator 16.0.0, SVG Export Plug-In . SVG Version: 6.00 Build 0)  -->
<!DOCTYPE svg PUBLIC "-//W3C//DTD SVG 1.1//EN" "http://www.w3.org/Graphics/SVG/1.1/DTD/svg11.dtd">
<svg version="1.1" id="Layer_1" xmlns="http://www.w3.org/2000/svg" xmlns:xlink="http://www.w3.org/1999/xlink" x="0px" y="0px"
	 width="23.719px" height="31.395px" viewBox="0 0 23.719 31.395" style="enable-background:new 0 0 23.719 31.395;"
	 xml:space="preserve">
<g>
	<path d="M1.025,4.408v-2.86l0.438-0.525h21.563V0H0.984L0.003,1.179v3.229H0v26.986h23.719V4.408H1.025z M4.816,8.164h15.516v1.521
		H4.816V8.164z M19.916,19.673c-0.407,0.768-1.092,1.329-1.904,1.736v4.907c0,0.372-0.301,0.673-0.673,0.673H8.435
		c-0.372,0-0.674-0.301-0.674-0.673v-4.56C6.974,21.251,5.1,19.882,4.651,18.04c-0.236-0.974-0.052-1.923,0.546-2.821
		c1.164-1.745,2.691-2.145,3.77-2.172c1.668-0.044,3.23,0.774,4.039,1.668c0.906-0.686,2.013-1.229,3.248-1.229
		c1.729,0,3.131,0.686,3.848,1.88C20.822,16.565,20.756,18.094,19.916,19.673z"/>
	<path d="M16.254,14.834c-2.537,0-4.604,3.343-4.625,3.377c-0.193,0.317-0.607,0.418-0.926,0.225
		c-0.316-0.192-0.418-0.605-0.226-0.924c0.048-0.078,0.603-0.977,1.521-1.905c-0.583-0.643-1.795-1.24-2.997-1.213
		c-1.104,0.028-2.006,0.557-2.683,1.572c-0.387,0.579-0.504,1.153-0.358,1.754c0.417,1.723,2.778,3.057,2.802,3.068
		c0.213,0.119,0.347,0.345,0.347,0.59v4.265h7.558v-3.714c-1.529,0.447-3.21,0.541-4.343,0.541c-0.743,0-1.251-0.041-1.326-0.048
		c-0.37-0.029-0.646-0.355-0.614-0.727c0.031-0.37,0.357-0.647,0.727-0.614c1.742,0.144,6.502,0.059,7.618-2.04
		c0.608-1.146,0.687-2.204,0.22-2.981C18.479,15.281,17.498,14.834,16.254,14.834z"/>
</g>
<g>
</g>
<g>
</g>
<g>
</g>
<g>
</g>
<g>
</g>
<g>
</g>
<g>
</g>
<g>
</g>
<g>
</g>
<g>
</g>
<g>
</g>
<g>
</g>
<g>
</g>
<g>
</g>
<g>
</g>
</svg>
