<?xml version="1.0" encoding="iso-8859-1"?>
<!-- Generator: Adobe Illustrator 16.0.0, SVG Export Plug-In . SVG Version: 6.00 Build 0)  -->
<!DOCTYPE svg PUBLIC "-//W3C//DTD SVG 1.1//EN" "http://www.w3.org/Graphics/SVG/1.1/DTD/svg11.dtd">
<svg version="1.1" id="Layer_1" xmlns="http://www.w3.org/2000/svg" xmlns:xlink="http://www.w3.org/1999/xlink" x="0px" y="0px"
	 width="28.014px" height="26.139px" viewBox="0 0 28.014 26.139" style="enable-background:new 0 0 28.014 26.139;"
	 xml:space="preserve">
<path d="M17.504,12.078l-2.816-2.903l6.375-6.184l2.094-1.716l-1.2-1.201l-1.82,2.107l-6.116,6.306L7.818,2.094L6.103,0l-1.2,1.201
	L7.01,3.021l6.344,6.153l-2.817,2.904H0c0,0,1.038,6.336,2.648,8.238s7.01,5,7.01,5v0.822h4.206h0.286h4.206v-0.822
	c0,0,5.402-3.098,7.01-5c1.61-1.902,2.648-8.238,2.648-8.238H17.504z M8.212,22.407c-0.532-0.313-1.134-0.706-1.752-1.169
	c-0.308-0.228-0.63-0.482-0.944-0.751c-0.325-0.268-0.597-0.55-0.9-0.826c-0.325-0.32-0.599-0.7-0.826-1.074
	c-0.222-0.38-0.382-0.776-0.512-1.158c-0.259-0.769-0.37-1.504-0.41-2.131c-0.086-1.257,0.11-2.078,0.11-2.078
	s0.213,0.81,0.571,1.95c0.187,0.567,0.415,1.218,0.714,1.866c0.144,0.328,0.336,0.636,0.517,0.947
	c0.198,0.302,0.416,0.572,0.672,0.82c0.287,0.281,0.57,0.593,0.856,0.842c0.281,0.269,0.559,0.533,0.827,0.788
	c0.545,0.518,1.06,1.003,1.492,1.433c0.873,0.85,1.422,1.479,1.422,1.479S9.271,23.041,8.212,22.407z M11.696,12.078l2.326-2.257
	l2.326,2.257H11.696z"/>
<g>
</g>
<g>
</g>
<g>
</g>
<g>
</g>
<g>
</g>
<g>
</g>
<g>
</g>
<g>
</g>
<g>
</g>
<g>
</g>
<g>
</g>
<g>
</g>
<g>
</g>
<g>
</g>
<g>
</g>
</svg>
