<?xml version="1.0" encoding="iso-8859-1"?>
<!-- Generator: Adobe Illustrator 16.0.0, SVG Export Plug-In . SVG Version: 6.00 Build 0)  -->
<!DOCTYPE svg PUBLIC "-//W3C//DTD SVG 1.1//EN" "http://www.w3.org/Graphics/SVG/1.1/DTD/svg11.dtd">
<svg version="1.1" id="Layer_1" xmlns="http://www.w3.org/2000/svg" xmlns:xlink="http://www.w3.org/1999/xlink" x="0px" y="0px"
	 width="25.947px" height="31.999px" viewBox="0 0 25.947 31.999" style="enable-background:new 0 0 25.947 31.999;"
	 xml:space="preserve">
<path d="M25.601,18.189L14.434,7.022c0.527-0.717,0.859-1.821,0.859-3.082c0-2.21-1.019-3.94-2.319-3.94s-2.319,1.73-2.319,3.94
	c0,1.261,0.332,2.365,0.859,3.082L0.347,18.189c-0.462,0.462-0.462,1.212,0,1.674l11.79,11.79c0.462,0.462,1.212,0.462,1.674,0
	l11.79-11.79C26.063,19.401,26.063,18.651,25.601,18.189z M11.479,3.94c0-1.836,0.787-3.115,1.494-3.115s1.494,1.279,1.494,3.115
	c0,1.064-0.266,1.94-0.627,2.489l-0.03-0.03c-0.462-0.463-1.212-0.463-1.674,0l-0.03,0.03C11.745,5.881,11.479,5.005,11.479,3.94z"
	/>
<g>
</g>
<g>
</g>
<g>
</g>
<g>
</g>
<g>
</g>
<g>
</g>
<g>
</g>
<g>
</g>
<g>
</g>
<g>
</g>
<g>
</g>
<g>
</g>
<g>
</g>
<g>
</g>
<g>
</g>
</svg>
