<?xml version="1.0" encoding="iso-8859-1"?>
<!-- Generator: Adobe Illustrator 16.0.0, SVG Export Plug-In . SVG Version: 6.00 Build 0)  -->
<!DOCTYPE svg PUBLIC "-//W3C//DTD SVG 1.1//EN" "http://www.w3.org/Graphics/SVG/1.1/DTD/svg11.dtd">
<svg version="1.1" id="Layer_1" xmlns="http://www.w3.org/2000/svg" xmlns:xlink="http://www.w3.org/1999/xlink" x="0px" y="0px"
	 width="27.169px" height="22.932px" viewBox="0 0 27.169 22.932" style="enable-background:new 0 0 27.169 22.932;"
	 xml:space="preserve">
<g>
	<path d="M20.233,14.05c-1.184,0.574-5.307,2.062-5.307,2.062l-4.873-0.306c0,0,2.787-0.775,3.868-1.018
		c1.082-0.242,0.611-1.464,0.013-1.464c-0.598,0-5.814,0.217-5.814,0.217l-3.463,1.247l0.917,5.802c0,0,0.713-1.221,1.425-1.221
		c0.713,0,6.897,0.165,7.737,0c0.84-0.166,5.955-3.665,6.566-4.073C21.913,14.889,21.418,13.475,20.233,14.05z"/>
	<polygon points="0,15.411 0,22.932 5.307,21.938 3.979,14.712 	"/>
	<path d="M20.247,10.646c0-0.089,0-0.223,0-0.393c0.908-0.007,1.922-1.236,2.526-2.318c1.775-0.244,4.374-2.382,4.395-4.8
		c0.008-0.912-0.372-1.385-0.692-1.621c-0.634-0.469-1.497-0.376-2.14-0.222c0.02-0.501,0.017-0.947-0.003-1.293
		c-2.285,0-6.751,0-7.49,0c0,0-0.047,0-0.116,0c-0.645,0-4.056,0-6.311,0c-0.126,2.354,0.778,9.96,4.217,10.254
		c0,0.17,0,0.304,0,0.393H7.986v1.267h19.183v-1.267H20.247z M24.239,2.682c0.75-0.227,1.246-0.27,1.46-0.113
		c0.135,0.1,0.161,0.358,0.159,0.556c-0.011,1.343-1.283,2.618-2.374,3.198C23.891,5.125,24.119,3.836,24.239,2.682z M12.939,7.211
		C12.191,5.483,11.651,0.8,11.651,0.8s1.519,4.209,1.864,5.375c0.345,1.165,1.858,2.82,1.858,2.82S13.688,8.938,12.939,7.211z"/>
</g>
<g>
</g>
<g>
</g>
<g>
</g>
<g>
</g>
<g>
</g>
<g>
</g>
<g>
</g>
<g>
</g>
<g>
</g>
<g>
</g>
<g>
</g>
<g>
</g>
<g>
</g>
<g>
</g>
<g>
</g>
</svg>
