<?xml version="1.0" encoding="iso-8859-1"?>
<!-- Generator: Adobe Illustrator 16.0.0, SVG Export Plug-In . SVG Version: 6.00 Build 0)  -->
<!DOCTYPE svg PUBLIC "-//W3C//DTD SVG 1.1//EN" "http://www.w3.org/Graphics/SVG/1.1/DTD/svg11.dtd">
<svg version="1.1" id="Layer_1" xmlns="http://www.w3.org/2000/svg" xmlns:xlink="http://www.w3.org/1999/xlink" x="0px" y="0px"
	 width="23.719px" height="31.395px" viewBox="0 0 23.719 31.395" style="enable-background:new 0 0 23.719 31.395;"
	 xml:space="preserve">
<g>
	<path d="M16.355,14.43c-0.186,0.098-0.396,0.227-0.603,0.393c-0.208,0.165-0.418,0.36-0.59,0.611
		c-0.09,0.132-0.151,0.258-0.209,0.392c-0.053,0.133-0.097,0.264-0.134,0.392c-0.07,0.256-0.113,0.498-0.131,0.708
		c-0.02,0.21-0.017,0.387-0.001,0.512c0.013,0.125,0.055,0.191,0.058,0.187c-0.006,0-0.011-0.067,0.025-0.182
		c0.031-0.115,0.085-0.274,0.154-0.465c0.071-0.188,0.153-0.407,0.252-0.635c0.047-0.113,0.101-0.229,0.16-0.34
		c0.054-0.109,0.117-0.229,0.187-0.319c0.29-0.396,0.699-0.758,0.986-1.038c0.149-0.14,0.273-0.256,0.361-0.337
		c0.086-0.081,0.145-0.125,0.145-0.125s-0.07,0.006-0.19,0.046C16.706,14.265,16.541,14.33,16.355,14.43z"/>
	<path d="M1.026,4.408V1.549l0.438-0.526h21.563V0H0.985L0.003,1.179v3.229H0v26.986h23.719V4.408H1.026z M18.9,18.35
		c-1.265,1.264-2.928,1.405-3.792,0.942c-0.651,0.11-1.354,0.944-1.85,1.755c1.101,1.1,5.064,5.063,5.064,5.063l0,0.001
		c0.003,0.004,0.008,0.005,0.013,0.01c0.306,0.308,0.306,0.804-0.001,1.11c-0.306,0.308-0.805,0.308-1.11,0.001
		c-0.004-0.004-0.006-0.009-0.009-0.013l0,0.002c0,0-3.59-3.589-4.884-4.884c-1.361,1.361-4.909,4.909-4.909,4.909L7.42,27.246
		c-0.003,0.004-0.006,0.008-0.01,0.013c-0.311,0.311-0.815,0.311-1.127,0c-0.015-0.017-0.075-0.076-0.091-0.092
		c-0.312-0.313-0.312-0.816,0-1.128c0.004-0.003,0.009-0.007,0.012-0.01H6.202c0,0,3.821-3.823,5.053-5.055
		c-0.502-0.679-1.303-1.466-2.598-1.479c-0.002-0.001-0.007-0.002-0.011-0.002c-0.492,0.014-0.989-0.15-1.385-0.495
		c-0.028-0.024-0.093-0.091-0.093-0.091L4.45,15.481l0.327-0.328l3.327,3.522l0.393-0.394l-3.424-3.425l0.288-0.285l3.445,3.444
		l0.326-0.325l-3.445-3.445l0.317-0.316l3.445,3.445l0.386-0.387l-3.556-3.335l0.298-0.299l3.278,2.552c0,0,0.119,0.102,0.16,0.143
		c0.45,0.449,0.643,1.061,0.579,1.647c0.089,1.471,0.935,2.202,1.606,2.615c0.87-0.497,1.84-1.264,1.958-1.972
		c-0.462-0.862-0.321-2.525,0.944-3.79c1.254-1.255,3.087-1.729,4.312-0.544l0.001-0.001c0.005,0.006,0.025,0.026,0.031,0.032
		c0,0-0.001,0-0.001,0C20.628,15.262,20.153,17.095,18.9,18.35z M21.39,9.371H3.184V7.586H21.39V9.371z"/>
</g>
<g>
</g>
<g>
</g>
<g>
</g>
<g>
</g>
<g>
</g>
<g>
</g>
<g>
</g>
<g>
</g>
<g>
</g>
<g>
</g>
<g>
</g>
<g>
</g>
<g>
</g>
<g>
</g>
<g>
</g>
</svg>
