<?xml version="1.0" encoding="iso-8859-1"?>
<!-- Generator: Adobe Illustrator 16.0.0, SVG Export Plug-In . SVG Version: 6.00 Build 0)  -->
<!DOCTYPE svg PUBLIC "-//W3C//DTD SVG 1.1//EN" "http://www.w3.org/Graphics/SVG/1.1/DTD/svg11.dtd">
<svg version="1.1" id="Layer_1" xmlns="http://www.w3.org/2000/svg" xmlns:xlink="http://www.w3.org/1999/xlink" x="0px" y="0px"
	 width="32px" height="20.919px" viewBox="0 0 32 20.919" style="enable-background:new 0 0 32 20.919;" xml:space="preserve">
<g>
	<path d="M25.982,4.212c-0.608,0-2.318,0-4.51,0c-0.57-0.477-1.358-0.87-2.298-1.137c0.012-0.552-0.067-1.497-0.675-2.206
		C18.008,0.292,17.295,0,16.384,0c-0.913,0-1.622,0.294-2.105,0.872c-0.569,0.682-0.648,1.579-0.633,2.142
		c-1.033,0.267-1.897,0.685-2.51,1.198c-2.799,0-5.043,0-5.643,0c-1.796,0-2.214,1.527-2.214,2.259c0.813,0,24.703,0,25.293,0
		C28.572,5.586,28.171,4.212,25.982,4.212z M16.304,2.689c-0.501,0-0.981,0.04-1.448,0.101c0.013-0.374,0.096-0.834,0.356-1.144
		c0.245-0.291,0.629-0.434,1.172-0.434c0.546,0,0.937,0.145,1.192,0.44c0.272,0.317,0.365,0.786,0.386,1.163
		C17.434,2.737,16.88,2.689,16.304,2.689z"/>
	<path d="M29.62,9.583c-0.288,0.102-0.643,0.405-0.918,0.671c0.072-0.686,0.119-1.244,0.146-1.605h0.474V7.407H2.532v1.241H3.22
		c0.013,0.367,0.038,0.94,0.085,1.641c-0.276-0.268-0.636-0.577-0.926-0.678C1.832,9.417,0,9.611,0,9.611v0.74
		c0,0,1.8-0.063,2.187,0.162s0.805,2.128,1.127,2.128c0.053,0,0.126,0,0.206,0c0.326,2.813,0.837,6.135,2.187,7.338h-1.02v0.939
		h22.375v-0.939h-1.171c1.317-1.207,2.084-4.546,2.51-7.365c0.113,0,0.215,0,0.285,0c0.322,0,0.74-1.902,1.127-2.128
		S32,10.323,32,10.323v-0.74C32,9.583,30.167,9.389,29.62,9.583z M6.615,17.988c-0.501-0.919-1.028-2.222-1.213-3.657
		c-0.05-0.387-0.07-0.679-0.072-1.057c0.001-0.342,0.007-0.677,0.025-1.002c0.051-0.648,0.127-1.253,0.244-1.765
		c0.108-0.511,0.242-0.931,0.355-1.217c0.109-0.289,0.197-0.444,0.197-0.444s0.073,0.703,0.153,1.71
		c0.046,0.505,0.09,1.088,0.136,1.713c0.023,0.311,0.046,0.633,0.07,0.96c0.023,0.289,0.049,0.676,0.093,0.961
		c0.035,0.305,0.087,0.636,0.142,0.949c0.059,0.318,0.115,0.63,0.171,0.934c0.125,0.612,0.242,1.186,0.341,1.676
		c0.216,0.988,0.334,1.686,0.334,1.686S7.109,18.909,6.615,17.988z"/>
</g>
<g>
</g>
<g>
</g>
<g>
</g>
<g>
</g>
<g>
</g>
<g>
</g>
<g>
</g>
<g>
</g>
<g>
</g>
<g>
</g>
<g>
</g>
<g>
</g>
<g>
</g>
<g>
</g>
<g>
</g>
</svg>
