<?xml version="1.0" encoding="iso-8859-1"?>
<!-- Generator: Adobe Illustrator 16.0.0, SVG Export Plug-In . SVG Version: 6.00 Build 0)  -->
<!DOCTYPE svg PUBLIC "-//W3C//DTD SVG 1.1//EN" "http://www.w3.org/Graphics/SVG/1.1/DTD/svg11.dtd">
<svg version="1.1" id="Layer_1" xmlns="http://www.w3.org/2000/svg" xmlns:xlink="http://www.w3.org/1999/xlink" x="0px" y="0px"
	 width="32px" height="25.367px" viewBox="0 0 32 25.367" style="enable-background:new 0 0 32 25.367;" xml:space="preserve">
<g>
	<path d="M23.996,2.409c-1.676,0-3.396,0-5.115,0c0-1.33-1.078-2.409-2.408-2.409c-1.332,0-2.41,1.079-2.41,2.409
		c-2.066,0-4.06,0-5.886,0c-4.698,0-7.75,5.716-7.75,5.716h31.191C31.618,8.125,29.323,2.409,23.996,2.409z"/>
	<path d="M31.789,9.468c-2.223,0-12.806-0.027-15.48-0.034V9.433c0,0-0.111,0-0.309,0.001c-0.197-0.001-0.309-0.001-0.309-0.001
		v0.001C13.017,9.44,2.434,9.468,0.211,9.468c-1.405,5.83,4.539,12.649,7.853,13.744v2.155h15.256v-2.017
		C26.434,23.023,33.287,15.684,31.789,9.468z M8.324,20.318c-0.527-0.327-1.102-0.764-1.693-1.265
		c-0.583-0.51-1.168-1.103-1.696-1.752c-0.251-0.338-0.523-0.654-0.735-1.019c-0.227-0.35-0.438-0.701-0.601-1.074
		c-0.188-0.353-0.313-0.729-0.416-1.09c-0.133-0.344-0.168-0.711-0.205-1.036c-0.063-0.312-0.018-0.647,0.01-0.916
		c0.016-0.135,0.025-0.259,0.045-0.369c0.039-0.102,0.076-0.195,0.108-0.279c0.137-0.336,0.228-0.525,0.228-0.525
		s0.033,0.209,0.065,0.57c0.008,0.09,0.017,0.189,0.026,0.298c0.03,0.098,0.063,0.203,0.099,0.315
		c0.071,0.221,0.118,0.443,0.253,0.708c0.224,0.517,0.527,1.095,0.943,1.675c0.186,0.3,0.414,0.593,0.638,0.895
		c0.213,0.308,0.473,0.6,0.707,0.904c0.485,0.602,0.994,1.194,1.474,1.757c0.483,0.569,0.933,1.101,1.318,1.556
		c0.777,0.921,1.271,1.604,1.271,1.604S9.362,20.993,8.324,20.318z"/>
</g>
<g>
</g>
<g>
</g>
<g>
</g>
<g>
</g>
<g>
</g>
<g>
</g>
<g>
</g>
<g>
</g>
<g>
</g>
<g>
</g>
<g>
</g>
<g>
</g>
<g>
</g>
<g>
</g>
<g>
</g>
</svg>
