<?xml version="1.0" encoding="iso-8859-1"?>
<!-- Generator: Adobe Illustrator 16.0.0, SVG Export Plug-In . SVG Version: 6.00 Build 0)  -->
<!DOCTYPE svg PUBLIC "-//W3C//DTD SVG 1.1//EN" "http://www.w3.org/Graphics/SVG/1.1/DTD/svg11.dtd">
<svg version="1.1" id="Layer_1" xmlns="http://www.w3.org/2000/svg" xmlns:xlink="http://www.w3.org/1999/xlink" x="0px" y="0px"
	 width="23.602px" height="32px" viewBox="0 0 23.602 32" style="enable-background:new 0 0 23.602 32;" xml:space="preserve">
<g>
	<rect x="11.245" y="21.512" width="1.378" height="10.488"/>
	<polygon points="1.067,31.423 2.711,31.423 7.423,20.845 6,20.845 	"/>
	<polygon points="16.661,20.845 21.373,31.423 23.017,31.423 18.083,20.845 	"/>
	<path d="M11.934,20.667c11.022,0,11.667-7.556,11.667-7.556H0C0,13.111,0.912,20.667,11.934,20.667z"/>
	<path d="M8.128,7.29c0.104,0.196,0.177,0.251,0.27,0.384l0.236,0.287C8.679,8.058,8.75,8.132,8.782,8.237
		c0.077,0.2,0.162,0.41,0.188,0.642c0.077,0.453,0.07,0.928,0.051,1.342c-0.056,0.829-0.136,1.436-0.136,1.436
		s0.444-0.43,0.796-1.279c0.087-0.211,0.174-0.449,0.23-0.713C9.967,9.4,10.022,9.111,10.01,8.799c0-0.307-0.038-0.646-0.161-0.977
		C9.8,7.654,9.698,7.499,9.618,7.335c-0.045-0.078-0.106-0.149-0.16-0.224l-0.085-0.11L9.33,6.947L9.32,6.934
		C9.324,6.94,9.333,6.948,9.35,6.968L9.346,6.96L9.33,6.941C9.255,6.84,9.109,6.695,9.092,6.632
		c-0.034-0.075-0.085-0.136-0.119-0.25C8.893,6.186,8.832,5.961,8.798,5.73c-0.069-0.459-0.06-0.934-0.041-1.35
		c0.055-0.832,0.127-1.44,0.127-1.44S8.446,3.376,8.093,4.223c-0.176,0.423-0.332,0.95-0.34,1.57
		c0.007,0.305,0.013,0.641,0.14,0.973C7.934,6.926,8.029,7.111,8.128,7.29z"/>
	<path d="M10.739,4.347c0.107,0.198,0.178,0.254,0.271,0.388l0.236,0.285c0.045,0.094,0.116,0.172,0.147,0.276
		c0.077,0.198,0.162,0.409,0.188,0.641c0.076,0.454,0.07,0.928,0.051,1.343c-0.054,0.83-0.135,1.435-0.135,1.435
		s0.443-0.43,0.795-1.278c0.088-0.213,0.175-0.449,0.23-0.716c0.057-0.263,0.111-0.55,0.099-0.862c0-0.307-0.037-0.647-0.161-0.977
		c-0.049-0.168-0.151-0.325-0.23-0.488c-0.046-0.078-0.107-0.149-0.162-0.225l-0.084-0.11L11.94,4.004L11.931,3.99
		c0.003,0.007,0.013,0.016,0.025,0.027l-0.016-0.02c-0.073-0.102-0.22-0.244-0.237-0.309c-0.034-0.074-0.085-0.135-0.119-0.25
		c-0.081-0.196-0.143-0.422-0.174-0.65c-0.068-0.461-0.06-0.936-0.041-1.352C11.423,0.605,11.497,0,11.497,0
		s-0.439,0.435-0.792,1.279c-0.175,0.422-0.332,0.951-0.34,1.57c0.008,0.305,0.013,0.643,0.139,0.975
		C10.546,3.984,10.64,4.17,10.739,4.347z"/>
	<path d="M13.966,7.016c0.105,0.197,0.177,0.253,0.269,0.385l0.236,0.286c0.045,0.095,0.115,0.172,0.148,0.276
		c0.078,0.199,0.162,0.41,0.187,0.641c0.077,0.455,0.071,0.929,0.051,1.342c-0.054,0.832-0.135,1.436-0.135,1.436
		s0.444-0.428,0.795-1.279c0.088-0.211,0.174-0.449,0.229-0.713c0.058-0.264,0.112-0.551,0.1-0.864c0-0.307-0.037-0.646-0.16-0.976
		c-0.049-0.17-0.152-0.326-0.231-0.488c-0.046-0.078-0.107-0.148-0.16-0.225l-0.085-0.109l-0.042-0.055l-0.01-0.014
		c0.006,0.006,0.014,0.016,0.029,0.035l-0.003-0.006l-0.016-0.022c-0.075-0.101-0.222-0.244-0.237-0.309
		c-0.036-0.073-0.085-0.136-0.12-0.251c-0.08-0.195-0.143-0.421-0.175-0.649c-0.069-0.46-0.06-0.937-0.041-1.352
		c0.053-0.83,0.127-1.438,0.127-1.438s-0.439,0.435-0.79,1.282c-0.177,0.422-0.333,0.949-0.34,1.567
		c0.005,0.306,0.011,0.644,0.138,0.974C13.771,6.65,13.867,6.837,13.966,7.016z"/>
</g>
<g>
</g>
<g>
</g>
<g>
</g>
<g>
</g>
<g>
</g>
<g>
</g>
<g>
</g>
<g>
</g>
<g>
</g>
<g>
</g>
<g>
</g>
<g>
</g>
<g>
</g>
<g>
</g>
<g>
</g>
</svg>
