<?xml version="1.0" encoding="iso-8859-1"?>
<!-- Generator: Adobe Illustrator 16.0.0, SVG Export Plug-In . SVG Version: 6.00 Build 0)  -->
<!DOCTYPE svg PUBLIC "-//W3C//DTD SVG 1.1//EN" "http://www.w3.org/Graphics/SVG/1.1/DTD/svg11.dtd">
<svg version="1.1" id="Layer_1" xmlns="http://www.w3.org/2000/svg" xmlns:xlink="http://www.w3.org/1999/xlink" x="0px" y="0px"
	 width="28.695px" height="32px" viewBox="0 0 28.695 32" style="enable-background:new 0 0 28.695 32;" xml:space="preserve">
<g>
	<path d="M4.107,14.824h0.6V14.09c0,0-0.834-1.833-0.058-4.646c0-0.595,0.001-8.136,0.001-8.136L4.647,1.308
		c0-0.006,0.002-0.013,0.001-0.02c0.002-0.559-0.452-1.012-1.01-1.012C3.08,0.277,2.628,0.73,2.627,1.288
		c0,0.008,0.002,0.014,0.002,0.021H2.627c0,0,0,7.428,0.001,8.116c0.585,3.403-0.13,4.666-0.13,4.666v0.733h0.601v4.128L0,21.632
		l0.001,8.771c0,0,0.338,1.32,3.284,1.32s3.895-1.32,3.895-1.32v-8.771l-3.072-2.676V14.824z M3.361,22.986v0.571H2.79l-0.001-0.571
		H3.361z M2.783,24.853h0.572l-0.001,0.571H2.783V24.853z M2.797,26.402v-0.571l0.57-0.001l0.001,0.572H2.797z M3.358,26.732v0.571
		H2.787v-0.572L3.358,26.732z M1.748,22.986H2.32v0.571H1.748V22.986z M1.742,24.853h0.571l0.001,0.571H1.742V24.853z M1.756,26.402
		v-0.571h0.57v0.571H1.756z M2.316,26.731v0.572h-0.57l-0.002-0.572H2.316z M1.305,22.986l-0.001,0.571H0.732v-0.571H1.305z
		 M1.298,24.853v0.571H0.727v-0.571H1.298z M0.738,26.402l0.001-0.571l0.571-0.001v0.571L0.738,26.402z M1.301,26.731v0.571H0.729
		v-0.571H1.301z M0.723,28.599h0.572v0.571H0.724L0.723,28.599z M1.307,30.147h-0.57v-0.571h0.571L1.307,30.147z M1.314,28.281
		H0.742V27.71h0.572V28.281z M1.316,24.535h-0.57v-0.571h0.57V24.535z M1.739,28.599h0.571v0.571H1.738L1.739,28.599z M1.752,30.147
		v-0.571h0.571l0.001,0.571H1.752z M2.33,28.281H1.758V27.71H2.33V28.281z M1.762,24.535v-0.571h0.57l0.001,0.571H1.762z
		 M2.78,28.599h0.571v0.571h-0.57L2.78,28.599z M3.364,30.147H2.793v-0.571h0.572L3.364,30.147z M3.371,28.281H2.8V27.71h0.571
		V28.281z M3.374,24.535H2.803v-0.571h0.571V24.535z M3.115,1.415c0-0.313,0.254-0.567,0.568-0.566
		C3.997,0.848,4.25,1.102,4.25,1.416c0.002,0.313-0.254,1.379-0.566,1.379C3.37,2.795,3.116,1.729,3.115,1.415z M3.813,26.402V25.83
		l0.571,0.001v0.571H3.813z M4.374,26.732v0.571H3.803v-0.571H4.374z M3.799,25.424L3.8,24.853h0.571v0.571H3.799z M3.797,28.599
		h0.57v0.571H3.796L3.797,28.599z M3.809,30.147v-0.571h0.572v0.571H3.809z M4.387,28.281H3.815V27.71h0.571V28.281z M5.434,30.147
		h-0.57v-0.571h0.57V30.147z M4.869,28.281V27.71h0.572v0.571H4.869z M5.428,26.732v0.571h-0.57l-0.001-0.572L5.428,26.732z
		 M4.865,25.831h0.572v0.571h-0.57L4.865,25.831z M5.879,30.147v-0.571H6.45l0.001,0.571H5.879z M5.885,28.281V27.71h0.572v0.571
		H5.885z M6.443,26.732v0.57h-0.57v-0.57H6.443z M5.883,26.402v-0.571h0.57v0.571H5.883z M6.46,24.535H5.889v-0.571H6.46V24.535z
		 M5.875,22.986h0.572v0.571H5.875V22.986z M5.869,24.853h0.572v0.571l-0.572,0.001V24.853z M5.865,28.599h0.572v0.571H5.865V28.599
		z M5.444,24.535H4.873v-0.571h0.57L5.444,24.535z M4.859,22.985l0.572,0.001v0.571H4.859V22.985z M4.854,24.853h0.571v0.572
		l-0.571-0.001V24.853z M4.851,28.599h0.571v0.571H4.851V28.599z M4.39,24.535H3.818v-0.571h0.572L4.39,24.535z M4.377,22.986v0.571
		H3.806v-0.571H4.377z"/>
	<path d="M15.73,22.624v-9.769h0.53l0.001-0.648c0,0-0.736-1.62-0.053-4.104c0-0.524,0-7.188,0-7.188h-0.002
		c0-0.006,0.002-0.013,0.002-0.018c0-0.493-0.399-0.894-0.893-0.894s-0.893,0.399-0.893,0.894c0,0.006,0.002,0.011,0.002,0.018
		h-0.002c0,0,0,6.562,0,7.17c0.518,3.007-0.115,4.123-0.115,4.123v0.647h0.531v9.77c-2.385,0.224-4.252,2.23-4.252,4.675
		c0,2.594,2.104,4.696,4.697,4.696s4.697-2.103,4.697-4.697C19.98,24.855,18.115,22.849,15.73,22.624z M14.121,26.479
		c-0.001-0.163,0.131-0.294,0.292-0.294c0.163,0,0.294,0.131,0.294,0.294c0,0.162-0.131,0.293-0.294,0.293
		C14.252,26.772,14.12,26.642,14.121,26.479z M14.267,27.422c-0.001,0.161-0.132,0.293-0.294,0.293s-0.295-0.131-0.293-0.293
		c-0.002-0.163,0.131-0.294,0.293-0.294S14.266,27.26,14.267,27.422z M14.334,24.566c0.16,0,0.293,0.131,0.293,0.294
		c0,0.162-0.133,0.293-0.293,0.293c-0.163-0.001-0.294-0.131-0.294-0.293C14.039,24.697,14.171,24.565,14.334,24.566z
		 M13.795,23.503c0.162,0,0.294,0.131,0.294,0.293c-0.001,0.162-0.132,0.294-0.294,0.294c-0.161-0.001-0.294-0.132-0.294-0.294
		S13.634,23.503,13.795,23.503z M13.501,25.092c0.163-0.001,0.294,0.131,0.294,0.293s-0.131,0.293-0.293,0.293
		s-0.295-0.131-0.295-0.292C13.207,25.223,13.34,25.091,13.501,25.092z M13.312,26.313c-0.001,0.161-0.132,0.293-0.295,0.293
		c-0.161,0-0.293-0.132-0.294-0.293c0-0.163,0.133-0.294,0.295-0.294S13.312,26.149,13.312,26.313z M13.018,27.3
		c0,0.161-0.131,0.293-0.295,0.293c-0.16,0-0.293-0.131-0.293-0.293c0-0.163,0.133-0.294,0.293-0.294
		C12.885,27.007,13.017,27.137,13.018,27.3z M12.666,24.385c0.16,0,0.293,0.132,0.293,0.294c0,0.161-0.131,0.294-0.293,0.293
		s-0.294-0.132-0.293-0.293C12.372,24.517,12.504,24.385,12.666,24.385z M11.85,25.646c0.163,0,0.294,0.133,0.295,0.294
		c-0.001,0.162-0.132,0.293-0.295,0.293c-0.161,0-0.293-0.13-0.293-0.293C11.557,25.778,11.688,25.646,11.85,25.646z M11.228,27.371
		c0-0.163,0.132-0.293,0.294-0.293c0.162-0.001,0.294,0.131,0.293,0.292c0,0.163-0.131,0.295-0.293,0.295
		S11.228,27.533,11.228,27.371z M11.865,29.229c-0.162,0-0.293-0.131-0.293-0.293s0.131-0.294,0.293-0.294s0.294,0.132,0.294,0.294
		C12.16,29.098,12.027,29.229,11.865,29.229z M12.643,30.269c-0.161,0-0.293-0.131-0.293-0.293
		c-0.001-0.162,0.132-0.295,0.293-0.294c0.162,0.001,0.294,0.131,0.294,0.294C12.938,30.138,12.805,30.27,12.643,30.269z
		 M12.836,28.534c-0.162,0-0.293-0.131-0.293-0.293c0-0.161,0.131-0.294,0.293-0.293c0.162-0.001,0.293,0.132,0.293,0.294
		C13.13,28.403,12.997,28.535,12.836,28.534z M13.207,29.229c0-0.162,0.132-0.293,0.294-0.293c0.163,0,0.294,0.131,0.294,0.293
		c0,0.163-0.131,0.293-0.294,0.294C13.339,29.522,13.207,29.392,13.207,29.229z M13.795,31.129
		c-0.162-0.001-0.294-0.131-0.294-0.294c0-0.161,0.133-0.293,0.294-0.293c0.162,0.001,0.293,0.131,0.293,0.293
		C14.089,30.998,13.957,31.13,13.795,31.129z M14.266,30.082c-0.161,0-0.293-0.132-0.293-0.294s0.132-0.293,0.293-0.293
		c0.162,0,0.295,0.131,0.295,0.293C14.561,29.951,14.428,30.082,14.266,30.082z M14.414,28.642c-0.162,0-0.294-0.131-0.294-0.293
		s0.132-0.293,0.293-0.293c0.163,0,0.294,0.131,0.294,0.293S14.576,28.642,14.414,28.642z M17.836,26.234
		c0.16-0.001,0.293,0.131,0.293,0.293s-0.133,0.293-0.295,0.293c-0.161,0-0.292-0.131-0.293-0.293
		C17.542,26.364,17.673,26.233,17.836,26.234z M16.846,23.55c0.162-0.001,0.295,0.131,0.294,0.293
		c0.001,0.162-0.132,0.293-0.294,0.294c-0.162-0.001-0.293-0.132-0.294-0.294C16.553,23.681,16.684,23.549,16.846,23.55z
		 M16.361,24.679c0.163,0,0.293,0.131,0.295,0.294c-0.002,0.161-0.132,0.293-0.295,0.293c-0.162,0-0.293-0.132-0.293-0.294
		S16.199,24.68,16.361,24.679z M16.721,27.078c0.162,0,0.295,0.13,0.293,0.293c0.002,0.162-0.131,0.294-0.293,0.294
		c-0.162-0.001-0.293-0.132-0.293-0.294S16.559,27.077,16.721,27.078z M16.279,26.135c0.162,0,0.294,0.132,0.293,0.294
		c0.001,0.162-0.131,0.293-0.293,0.293s-0.293-0.131-0.293-0.293S16.117,26.135,16.279,26.135z M15.356,0.509
		c0.276,0,0.501,0.224,0.501,0.501c0,0.276-0.225,1.219-0.502,1.219c-0.275,0-0.5-0.941-0.5-1.219
		C14.855,0.733,15.08,0.509,15.356,0.509z M15.345,24.961c-0.162,0-0.294-0.131-0.294-0.293c0-0.164,0.132-0.294,0.294-0.294
		c0.161-0.001,0.294,0.131,0.294,0.293C15.639,24.83,15.506,24.96,15.345,24.961z M15.578,26.077c0,0.162-0.131,0.293-0.293,0.293
		s-0.294-0.131-0.294-0.293c0-0.163,0.132-0.293,0.294-0.294C15.447,25.783,15.578,25.914,15.578,26.077z M14.991,23.466
		c0-0.161,0.132-0.292,0.294-0.293c0.162,0.001,0.293,0.132,0.294,0.294c-0.001,0.162-0.132,0.294-0.294,0.293
		C15.123,23.761,14.991,23.629,14.991,23.466z M15.344,26.95c0.232,0,0.421,0.188,0.421,0.421s-0.188,0.421-0.42,0.42
		c-0.232,0-0.421-0.188-0.421-0.421C14.924,27.138,15.112,26.949,15.344,26.95z M15.285,31.422c-0.162,0-0.294-0.131-0.294-0.293
		c0-0.161,0.133-0.294,0.294-0.294c0.162,0.001,0.293,0.132,0.293,0.294S15.447,31.423,15.285,31.422z M15.285,30.269
		c-0.162,0-0.294-0.131-0.294-0.293c0-0.163,0.132-0.293,0.294-0.294c0.162,0,0.293,0.131,0.293,0.294
		C15.578,30.138,15.447,30.269,15.285,30.269z M15.472,28.936c-0.161,0.001-0.294-0.131-0.294-0.294
		c0-0.162,0.131-0.293,0.295-0.293c0.161,0,0.292,0.131,0.293,0.293C15.765,28.805,15.634,28.936,15.472,28.936z M16.279,28.005
		c0.162,0,0.294,0.13,0.293,0.293c0.001,0.163-0.131,0.294-0.293,0.294s-0.293-0.131-0.293-0.294
		C15.986,28.136,16.117,28.005,16.279,28.005z M15.986,29.788c0-0.162,0.131-0.293,0.293-0.293s0.294,0.13,0.293,0.293
		c0.001,0.162-0.132,0.294-0.293,0.294C16.117,30.082,15.986,29.95,15.986,29.788z M16.722,31.229c-0.163,0-0.295-0.132-0.294-0.295
		c-0.001-0.161,0.131-0.292,0.294-0.292c0.161,0,0.294,0.131,0.294,0.293C17.014,31.097,16.883,31.229,16.722,31.229z M17.14,29.521
		c-0.163,0.001-0.294-0.13-0.294-0.293c0.001-0.162,0.131-0.293,0.295-0.293c0.161,0,0.292,0.131,0.292,0.293
		C17.433,29.392,17.302,29.521,17.14,29.521z M17.141,25.887c-0.164,0-0.294-0.132-0.295-0.293c0.001-0.163,0.131-0.294,0.295-0.294
		c0.161-0.001,0.292,0.131,0.292,0.293S17.301,25.887,17.141,25.887z M17.541,28.487c0.001-0.162,0.132-0.294,0.293-0.294
		c0.162,0,0.295,0.132,0.294,0.294c0.001,0.162-0.132,0.293-0.294,0.293C17.673,28.78,17.542,28.648,17.541,28.487z M18,30.375
		c-0.162,0-0.295-0.13-0.294-0.293c-0.001-0.162,0.132-0.294,0.294-0.294c0.161,0,0.293,0.132,0.294,0.294
		C18.293,30.244,18.161,30.375,18,30.375z M18,27.792c-0.162-0.001-0.295-0.132-0.294-0.293c0-0.163,0.132-0.294,0.294-0.294
		c0.161-0.001,0.293,0.131,0.294,0.293C18.293,27.661,18.161,27.791,18,27.792z M18.073,24.972c-0.163,0-0.295-0.131-0.294-0.293
		c-0.001-0.162,0.131-0.294,0.294-0.294c0.161,0,0.292,0.132,0.294,0.294C18.367,24.841,18.234,24.972,18.073,24.972z
		 M18.934,29.011c-0.161,0-0.293-0.132-0.293-0.294s0.132-0.293,0.293-0.293c0.163,0,0.295,0.13,0.294,0.293
		C19.229,28.879,19.097,29.011,18.934,29.011z M19.438,27.244c0,0.161-0.133,0.293-0.293,0.293
		c-0.162-0.001-0.294-0.132-0.294-0.293c0-0.163,0.132-0.295,0.294-0.294C19.305,26.95,19.438,27.081,19.438,27.244z M19.145,25.886
		c-0.002,0.163-0.132,0.294-0.294,0.294c-0.163,0.001-0.294-0.131-0.294-0.293c0-0.163,0.131-0.293,0.293-0.294
		C19.013,25.593,19.143,25.724,19.145,25.886z"/>
	<path d="M28.687,24.774c-0.004-0.575-2.401-2.525-2.703-2.768v-8.829h0.671v-0.665c0,0-0.754-1.662-0.053-4.209
		c0-0.538,0-7.37,0-7.37H26.6c0-0.007,0.003-0.013,0.003-0.019C26.602,0.409,26.191,0,25.687,0
		c-0.507-0.001-0.917,0.409-0.916,0.915c0,0.006,0.001,0.012,0.001,0.019H24.77c0,0,0.001,6.729,0.001,7.353
		c0.53,3.083-0.118,4.227-0.118,4.227v0.665h0.671v8.805c0,0-2.729,2.178-2.733,2.792c-0.003,0.614-0.02,3.002,0,3.267
		c0.018,0.266-0.1,3.958,1.549,3.958c0.471,0,1.318,0,1.484-0.001c0.018,0.001,0.03,0.002,0.03,0.002
		c0.163-0.001,0.995-0.001,1.483,0c1.558,0,1.531-3.693,1.55-3.959C28.704,27.775,28.689,25.389,28.687,24.774z M23.771,31.125
		h-0.369v-6.166h0.369V31.125z M24.829,31.263h-0.368v-5.23h0.368V31.263z M25.213,1.03c0-0.284,0.23-0.514,0.513-0.514
		c0.284,0,0.515,0.229,0.515,0.513c0,0.285-0.23,1.251-0.514,1.251C25.443,2.281,25.213,1.314,25.213,1.03z M25.469,31.263v-4.51
		h0.368l0.001,4.51H25.469z M26.792,31.263h-0.368v-5.23h0.369L26.792,31.263z M27.744,31.056h-0.369v-6.167l0.369,0.001V31.056z"/>
</g>
<g>
</g>
<g>
</g>
<g>
</g>
<g>
</g>
<g>
</g>
<g>
</g>
<g>
</g>
<g>
</g>
<g>
</g>
<g>
</g>
<g>
</g>
<g>
</g>
<g>
</g>
<g>
</g>
<g>
</g>
</svg>
