<?xml version="1.0" encoding="utf-8"?>
<!-- Generator: Adobe Illustrator 16.0.4, SVG Export Plug-In . SVG Version: 6.00 Build 0)  -->
<!DOCTYPE svg PUBLIC "-//W3C//DTD SVG 1.1//EN" "http://www.w3.org/Graphics/SVG/1.1/DTD/svg11.dtd">
<svg version="1.1" id="Layer_1" xmlns="http://www.w3.org/2000/svg" xmlns:xlink="http://www.w3.org/1999/xlink" x="0px" y="0px"
	 width="32px" height="31.297px" viewBox="0 0 32 31.297" enable-background="new 0 0 32 31.297" xml:space="preserve">
<path d="M28.005,8.665c-0.698,0.246-1.646,1.209-2.062,1.659c0-1.9,0-3.278,0-3.278L16.48,7V6.996l-0.481,0.002L15.52,6.996V7
	L6.057,7.046c0,0,0,1.378,0,3.277C5.64,9.873,4.693,8.911,3.995,8.665C3.075,8.34,0,8.665,0,8.665v1.244
	c0,0,3.021-0.105,3.671,0.271c0.65,0.378,1.353,3.571,1.894,3.571c0.12,0,0.295,0,0.492,0c0,3.438,0,7.03,0,7.613
	c0,1.164,1.112,2.937,3.238,2.937c1.55,0,4.653,0,6.225,0c0.582,0,0.961,0,0.961,0c1.57,0,4.675,0,6.225,0
	c2.125,0,3.237-1.771,3.237-2.937c0-0.583,0-4.175,0-7.613c0.197,0,0.373,0,0.492,0c0.541,0,1.244-3.193,1.895-3.571
	C28.979,9.803,32,9.909,32,9.909V8.665C32,8.665,28.925,8.34,28.005,8.665z M10.114,22.633c-0.412-0.058-1.082-0.164-1.675-0.808
	c-0.294-0.29-0.487-0.871-0.507-1.293c-0.037-0.401-0.06-0.825-0.078-1.265c-0.054-0.875-0.056-1.81-0.064-2.744
	c0.003-1.868,0.121-3.738,0.281-5.14c0.153-1.402,0.366-2.337,0.366-2.337s0.213,0.935,0.367,2.338
	c0.16,1.4,0.278,3.271,0.281,5.141c-0.009,0.935-0.011,1.869-0.064,2.744c-0.019,0.438-0.041,0.861-0.078,1.265
	c-0.023,0.383,0.012,0.562,0.135,0.836c0.262,0.493,0.771,0.815,1.118,1.001c0.355,0.189,0.586,0.271,0.586,0.271
	S10.541,22.684,10.114,22.633z"/>
</svg>
