<?xml version="1.0" encoding="utf-8"?>
<!-- Generator: Adobe Illustrator 16.0.4, SVG Export Plug-In . SVG Version: 6.00 Build 0)  -->
<!DOCTYPE svg PUBLIC "-//W3C//DTD SVG 1.1//EN" "http://www.w3.org/Graphics/SVG/1.1/DTD/svg11.dtd">
<svg version="1.1" id="Layer_1" xmlns="http://www.w3.org/2000/svg" xmlns:xlink="http://www.w3.org/1999/xlink" x="0px" y="0px"
	 width="24.268px" height="23.254px" viewBox="0 0 24.268 23.254" enable-background="new 0 0 24.268 23.254" xml:space="preserve">
<path d="M23.266,6.026c-0.919-0.679-2.169-0.544-3.098-0.321c0.024-0.725,0.021-1.37-0.004-1.871c-3.311,0-9.773,0-10.846,0
	c0,0-0.066,0-0.168,0c-0.932,0-5.871,0-9.135,0C-0.166,7.242,1.142,18.254,6.12,18.68c0,0.443,0,0.74,0,0.74H9.15h0.17h4.93
	c0,0,0-0.297,0-0.74c1.312-0.012,2.78-1.791,3.656-3.357c2.569-0.354,6.331-3.447,6.361-6.947
	C24.278,7.053,23.729,6.369,23.266,6.026z M3.669,14.272c-1.083-2.5-1.865-9.281-1.865-9.281s2.198,6.094,2.698,7.781
	c0.5,1.687,2.689,4.083,2.689,4.083S4.752,16.771,3.669,14.272z M18.935,12.986c0.588-1.732,0.919-3.6,1.092-5.271
	c1.087-0.328,1.808-0.391,2.114-0.163c0.195,0.144,0.233,0.518,0.23,0.804C22.354,10.3,20.514,12.147,18.935,12.986z"/>
</svg>
