<?xml version="1.0" encoding="iso-8859-1"?>
<!-- Generator: Adobe Illustrator 16.0.0, SVG Export Plug-In . SVG Version: 6.00 Build 0)  -->
<!DOCTYPE svg PUBLIC "-//W3C//DTD SVG 1.1//EN" "http://www.w3.org/Graphics/SVG/1.1/DTD/svg11.dtd">
<svg version="1.1" id="Layer_1" xmlns="http://www.w3.org/2000/svg" xmlns:xlink="http://www.w3.org/1999/xlink" x="0px" y="0px"
	 width="22.909px" height="31.697px" viewBox="0 0 22.909 31.697" style="enable-background:new 0 0 22.909 31.697;"
	 xml:space="preserve">
<g>
	<path d="M5.077,8.664c0.125,0.233,0.211,0.299,0.321,0.457L5.68,9.462C5.732,9.576,5.817,9.665,5.854,9.79
		c0.092,0.237,0.192,0.487,0.223,0.763c0.091,0.538,0.084,1.102,0.061,1.595c-0.066,0.985-0.161,1.706-0.161,1.706
		s0.527-0.511,0.946-1.521c0.104-0.251,0.207-0.534,0.273-0.847c0.066-0.314,0.132-0.657,0.117-1.028
		c0-0.365-0.045-0.769-0.19-1.161c-0.059-0.2-0.18-0.385-0.274-0.579C6.795,8.624,6.722,8.54,6.658,8.451L6.557,8.32L6.506,8.257
		L6.494,8.24C6.499,8.248,6.51,8.258,6.529,8.281L6.524,8.272L6.506,8.249c-0.089-0.12-0.263-0.292-0.283-0.367
		c-0.04-0.089-0.101-0.161-0.141-0.297C5.986,7.352,5.913,7.084,5.874,6.811C5.792,6.265,5.803,5.7,5.825,5.206
		c0.065-0.989,0.151-1.711,0.151-1.711s-0.521,0.517-0.94,1.523c-0.21,0.502-0.395,1.129-0.404,1.865
		C4.641,7.247,4.647,7.646,4.799,8.04C4.847,8.23,4.96,8.451,5.077,8.664z"/>
	<path d="M8.181,5.166c0.127,0.236,0.211,0.302,0.321,0.46l0.281,0.339C8.837,6.077,8.921,6.17,8.958,6.294
		C9.05,6.529,9.15,6.78,9.181,7.055c0.091,0.54,0.084,1.104,0.061,1.596c-0.064,0.987-0.16,1.706-0.16,1.706s0.526-0.511,0.944-1.52
		c0.105-0.253,0.208-0.533,0.274-0.851c0.067-0.312,0.132-0.653,0.118-1.025c-0.001-0.363-0.044-0.77-0.191-1.161
		c-0.059-0.199-0.18-0.386-0.274-0.579C9.897,5.127,9.825,5.043,9.76,4.953l-0.1-0.131L9.608,4.759L9.598,4.742
		C9.602,4.75,9.613,4.761,9.627,4.774L9.608,4.752C9.521,4.631,9.347,4.461,9.327,4.385c-0.041-0.088-0.102-0.16-0.142-0.298
		C9.09,3.854,9.016,3.586,8.979,3.314C8.897,2.767,8.907,2.203,8.93,1.708C8.994,0.72,9.081,0,9.081,0S8.559,0.516,8.14,1.521
		C7.932,2.021,7.745,2.65,7.735,3.386c0.01,0.362,0.016,0.764,0.166,1.159C7.951,4.735,8.063,4.955,8.181,5.166z"/>
	<path d="M12.017,8.338c0.125,0.234,0.21,0.301,0.319,0.458l0.281,0.339c0.053,0.113,0.137,0.204,0.175,0.33
		c0.093,0.236,0.192,0.486,0.223,0.761c0.091,0.54,0.084,1.104,0.061,1.595c-0.064,0.988-0.16,1.706-0.16,1.706
		s0.527-0.509,0.945-1.521c0.105-0.25,0.207-0.534,0.272-0.848c0.068-0.313,0.133-0.655,0.119-1.027
		c-0.001-0.364-0.044-0.768-0.191-1.16c-0.058-0.201-0.181-0.387-0.274-0.58c-0.055-0.093-0.127-0.176-0.19-0.266l-0.102-0.13
		L13.443,7.93l-0.012-0.017c0.007,0.007,0.016,0.019,0.034,0.042l-0.003-0.008l-0.02-0.026c-0.089-0.119-0.264-0.29-0.281-0.366
		c-0.043-0.087-0.102-0.161-0.143-0.298c-0.095-0.232-0.169-0.501-0.207-0.772c-0.082-0.547-0.071-1.112-0.049-1.606
		c0.063-0.987,0.151-1.708,0.151-1.708s-0.522,0.516-0.939,1.523c-0.21,0.502-0.396,1.128-0.404,1.863
		c0.007,0.363,0.013,0.765,0.164,1.157C11.785,7.904,11.897,8.126,12.017,8.338z"/>
	<path d="M22.42,18.467c-0.789-0.788-2.776-0.688-4.543-0.398c0-0.543,0-0.927,0-1.064c0-0.749-0.469-1.125-1.079-1.125
		c-0.611,0-15.102,0-15.704,0C0.49,15.879,0,16.35,0,16.779c0,0.429,0,8.83,0,11.124c0,2.25,1.029,3.794,3.022,3.794
		s9.773,0,11.832,0c2.058,0,3.022-1.286,3.022-3.923c0-0.201,0-0.454,0-0.749c0.486,0.041,0.915,0.062,1.277,0.062
		c1.861,0,2.229-0.461,2.393-0.665C22.138,25.684,23.697,19.745,22.42,18.467z M3.114,25.497c-0.023,0.693-0.077,1.342-0.112,1.893
		c-0.041,0.559-0.103,1.021-0.103,1.338c-0.022,0.338-0.036,0.531-0.036,0.531s-0.084-0.162-0.216-0.476
		c-0.058-0.155-0.16-0.357-0.211-0.581c-0.059-0.225-0.123-0.479-0.179-0.758c-0.135-0.56-0.22-1.212-0.288-1.912
		c-0.027-0.351-0.08-0.713-0.082-1.08c-0.012-0.368-0.024-0.741-0.036-1.114c0-0.748,0.019-1.493,0.07-2.192
		c0.045-0.698,0.124-1.35,0.211-1.907c0.166-1.116,0.397-1.854,0.397-1.854s0.203,0.748,0.346,1.862
		c0.081,0.558,0.141,1.207,0.188,1.902c0.059,0.695,0.06,1.438,0.087,2.177C3.148,24.064,3.141,24.806,3.114,25.497z M20.082,25.101
		c-0.392,0.071-1.274,0.063-2.205-0.016c0-1.586,0-3.488,0-5.057c1.275-0.221,2.606-0.301,3.111-0.187
		C21.136,20.828,20.488,24.11,20.082,25.101z"/>
</g>
<g>
</g>
<g>
</g>
<g>
</g>
<g>
</g>
<g>
</g>
<g>
</g>
<g>
</g>
<g>
</g>
<g>
</g>
<g>
</g>
<g>
</g>
<g>
</g>
<g>
</g>
<g>
</g>
<g>
</g>
</svg>
