<?xml version="1.0" encoding="utf-8"?>
<!-- Generator: Adobe Illustrator 16.0.4, SVG Export Plug-In . SVG Version: 6.00 Build 0)  -->
<!DOCTYPE svg PUBLIC "-//W3C//DTD SVG 1.1//EN" "http://www.w3.org/Graphics/SVG/1.1/DTD/svg11.dtd">
<svg version="1.1" id="Layer_1" xmlns="http://www.w3.org/2000/svg" xmlns:xlink="http://www.w3.org/1999/xlink" x="0px" y="0px"
	 width="27.77px" height="26.566px" viewBox="0 0 27.77 26.566" enable-background="new 0 0 27.77 26.566" xml:space="preserve">
<path d="M17.749,20.073c0-0.13,0-0.323,0-0.568c1.312-0.011,2.783-1.789,3.658-3.355c2.568-0.354,6.33-3.447,6.359-6.947
	c0.012-1.32-0.539-2.006-1.002-2.348c-0.918-0.679-2.168-0.544-3.098-0.321c0.025-0.725,0.021-1.37-0.004-1.871
	c-3.311,0-9.773,0-10.846,0c0,0-0.066,0-0.168,0C11.72,4.66,6.781,4.66,3.518,4.66C3.335,8.067,4.644,19.079,9.622,19.505
	c0,0.245,0,0.438,0,0.568H0v1.833h27.77v-1.833H17.749z M23.528,8.542c1.086-0.327,1.807-0.391,2.113-0.163
	c0.195,0.145,0.234,0.519,0.23,0.805c-0.018,1.942-1.857,3.79-3.438,4.629C23.024,12.08,23.354,10.213,23.528,8.542z M7.171,15.098
	c-1.084-2.5-1.865-9.28-1.865-9.28s2.198,6.094,2.698,7.781c0.5,1.687,2.688,4.083,2.688,4.083S8.254,17.598,7.171,15.098z"/>
</svg>
