<?xml version="1.0" encoding="iso-8859-1"?>
<!-- Generator: Adobe Illustrator 16.0.0, SVG Export Plug-In . SVG Version: 6.00 Build 0)  -->
<!DOCTYPE svg PUBLIC "-//W3C//DTD SVG 1.1//EN" "http://www.w3.org/Graphics/SVG/1.1/DTD/svg11.dtd">
<svg version="1.1" id="Layer_1" xmlns="http://www.w3.org/2000/svg" xmlns:xlink="http://www.w3.org/1999/xlink" x="0px" y="0px"
	 width="29.558px" height="32px" viewBox="0 0 29.558 32" style="enable-background:new 0 0 29.558 32;" xml:space="preserve">
<path d="M26.419,29.228l0.004-0.002l-4.848-6.199l0.408-0.579l0.009,0.007c0,0,7.376-10.466,7.555-10.721
	c0.181-0.256-2.266,0.967-2.266,0.967s-2.319,1.276-4.04,3.716c-0.646,0.916-1.746,2.438-2.158,3.023
	c0.128,0.273,1.114,0.902,0.384,2.201l-0.468,0.651l-4.252-3.868l-0.794-1.02l0.283-0.401l0.012,0.011
	c0,0,11.667-16.555,11.952-16.958c0.284-0.404-3.584,1.53-3.584,1.53s-3.669,2.017-6.392,5.879
	c-1.022,1.447-2.761,3.854-3.412,4.779c0.203,0.435,1.763,1.427,0.608,3.481l-0.373,0.52l-2.293-2.939
	c0.775-0.951,1.421-2.595,0.853-3.873c-0.681-1.533-7.779-9.206-7.779-9.206L5.346,0.605l6.322,8.307l-0.804,0.627L4.31,1.416
	L3.693,1.896l6.295,8.33l-0.306,0.239L9.647,10.49l-0.305,0.239L2.768,2.622l-0.654,0.51l6.351,8.284L7.63,12.068L1.2,3.849
	l-0.539,0.42c0,0,5.732,8.54,6.922,9.5c0.99,0.799,2.893,0.807,4.06,0.367l2.551,3.302l-0.192,0.27l-3.898,4.121l-0.481,0.684
	L7.647,19.98c0.491-0.602,0.899-1.641,0.539-2.449c-0.431-0.968-4.918-5.819-4.918-5.819l-0.305,0.239l3.997,5.251L6.451,17.6
	l-4.144-5.137l-0.391,0.303l3.982,5.268l-0.195,0.151l-0.021,0.018L5.49,18.352l-4.158-5.126l-0.415,0.321l4.017,5.239l-0.527,0.412
	L0.341,14L0,14.268c0,0,3.624,5.398,4.376,6.006c0.627,0.505,1.83,0.51,2.568,0.231l2.139,2.77l-4.107,5.826l0.003,0.003
	c-0.005,0.008-0.016,0.017-0.021,0.026c-0.523,0.74-0.638,1.559,0.102,2.082c0.039,0.026,0.478,0.334,0.515,0.361
	c0.741,0.522,1.473,0.138,1.994-0.604c0.008-0.01,0.011-0.021,0.016-0.028l0.004,0.001l3.298-4.68l0.341,0.595l3.467,4.434
	l0.001-0.002c0.005,0.007,0.007,0.013,0.012,0.019c0.234,0.299,0.523,0.477,0.821,0.474c0.367,0.086,0.71-0.131,0.974-0.501
	c0.005-0.007,0.007-0.014,0.011-0.02h0.001l3.204-4.545l0.258-0.54l3.926,5.019l0.003-0.003c0.008,0.01,0.009,0.019,0.017,0.029
	c0.559,0.713,1.311,1.062,2.024,0.503c0.036-0.029,0.459-0.359,0.495-0.388c0.715-0.559,0.558-1.372-0.001-2.087
	C26.436,29.24,26.428,29.236,26.419,29.228z M18.107,25.499l-2.548,3.614l-2.695-3.449l-0.947-0.861l0.74-1.05l2.451-5.131
	l0.495,0.641l2.82,4.921l0.42,0.538L18.107,25.499z"/>
<g>
</g>
<g>
</g>
<g>
</g>
<g>
</g>
<g>
</g>
<g>
</g>
<g>
</g>
<g>
</g>
<g>
</g>
<g>
</g>
<g>
</g>
<g>
</g>
<g>
</g>
<g>
</g>
<g>
</g>
</svg>
