<?xml version="1.0" encoding="iso-8859-1"?>
<!-- Generator: Adobe Illustrator 16.0.0, SVG Export Plug-In . SVG Version: 6.00 Build 0)  -->
<!DOCTYPE svg PUBLIC "-//W3C//DTD SVG 1.1//EN" "http://www.w3.org/Graphics/SVG/1.1/DTD/svg11.dtd">
<svg version="1.1" id="Layer_1" xmlns="http://www.w3.org/2000/svg" xmlns:xlink="http://www.w3.org/1999/xlink" x="0px" y="0px"
	 width="31.999px" height="32px" viewBox="0 0 31.999 32" style="enable-background:new 0 0 31.999 32;" xml:space="preserve">
<g>
	<path d="M25.301,9.94c0,0-0.409,0.142-1.036,0.446c-1.227-1.774-2.998-3.137-5.068-3.86c-0.657-1.521-1.898-2.746-3.559-2.771
		c0-0.001,0-0.002,0-0.002c-0.012,0-0.054,0-0.065,0c0,0,0,0.001,0,0.002c-1.788,0.026-3.117,1.368-3.743,3.005
		c-1.656,0.705-3.081,1.84-4.157,3.255c-1.006-0.88-1.805-1.558-1.805-1.558L5.582,8.743l1.724,1.771
		c-0.151,0.226-0.292,0.46-0.425,0.697L4.969,9.356L4.604,9.72l1.99,2.058c-0.104,0.217-0.203,0.435-0.293,0.659l-2.245-2.168
		l-0.386,0.387l2.391,2.438c-0.085,0.267-0.154,0.541-0.217,0.816L3.13,11.194l-0.317,0.318c0,0,1.469,1.699,2.879,3.242
		c-0.067,0.474-0.114,0.953-0.114,1.445c0,3.599,1.868,6.764,4.682,8.593l-0.793,0.793l0.002,0.002
		c-0.006,0.005-0.013,0.009-0.018,0.015c-0.422,0.422-0.59,0.939-0.167,1.362c0.022,0.021,0.27,0.271,0.293,0.292
		c0.422,0.424,0.94,0.255,1.361-0.167c0.007-0.005,0.011-0.012,0.016-0.017l0.001,0.001l1.285-1.285
		c0.762,0.287,1.563,0.489,2.398,0.587v0.767h0.003c-0.001,0.007-0.003,0.014-0.003,0.021c0,0.598,0.248,1.082,0.846,1.082
		c0.03,0,0.383,0,0.412,0c0.599,0,0.846-0.484,0.846-1.082c0-0.008-0.001-0.015-0.002-0.021h0.002v-0.737
		c0.739-0.065,1.457-0.205,2.144-0.419l1.271,1.271l0.002-0.001c0.005,0.005,0.007,0.01,0.014,0.015
		c0.422,0.422,0.94,0.59,1.363,0.168c0.021-0.021,0.271-0.271,0.292-0.292c0.423-0.423,0.255-0.942-0.167-1.364
		c-0.007-0.006-0.012-0.009-0.019-0.013l0.003-0.002l-0.698-0.698c3.064-1.774,5.136-5.082,5.136-8.87
		c0-1.504-0.334-2.929-0.918-4.217c1.44-1.441,2.558-2.558,2.635-2.635C28.029,9.118,25.301,9.94,25.301,9.94z M23.275,10.915
		c-0.849,0.494-1.851,1.189-2.782,2.121c-0.826,0.824-2.226,2.19-2.752,2.718c0.085,0.305,0.984,1.123,0.005,2.327l-1.145,1.125
		l-0.199,0.148l-0.296-1.739l0.006-4.291c0.006-0.043,0.009-0.088,0.009-0.137c0-0.494,3.603-1.115,3.603-4.18
		c0-0.368-0.041-0.745-0.111-1.121C21.084,8.56,22.346,9.608,23.275,10.915z M12.677,8.36c0.028,0.227,0.087,0.499,0.174,0.812
		c0.037,0.137,0.084,0.279,0.14,0.426c0.047,0.128,0.119,0.273,0.19,0.383c0.346,0.494,0.631,0.991,0.985,1.308
		c0.07,0.061,0.143,0.123,0.208,0.178c0.089,0.077,0.168,0.146,0.235,0.19c0.101,0.077,0.173,0.11,0.173,0.112
		c0.052,0.023,0.081,0.072,0.073,0.122c-0.012,0.046-0.057,0.085-0.111,0.086c-0.014,0.001-0.087-0.001-0.202-0.028
		c-0.028-0.009-0.057-0.018-0.089-0.027l-0.05-0.02c-0.144-0.052-0.341-0.121-0.549-0.247c-0.648-0.366-0.927-0.84-1.252-1.319
		c-0.104-0.169-0.176-0.323-0.238-0.509c-0.05-0.163-0.089-0.326-0.12-0.509c-0.056-0.349-0.056-0.674-0.049-0.92
		c0.006-0.259,0.055-0.474,0.096-0.626c0.11-0.047,0.226-0.082,0.338-0.124c-0.001,0.04-0.003,0.078-0.002,0.123
		C12.617,7.913,12.642,8.104,12.677,8.36z M11.479,8.161c-0.029,0.233-0.049,0.468-0.049,0.7c0,3.596,3.747,3.832,3.747,4.326
		c0,0.084,0.009,0.157,0.021,0.228l-0.027,4.169l-0.314,2.18l-0.399-0.282l-3.019-3.027c0.43-0.683,0.721-1.81,0.248-2.598
		c-0.288-0.481-1.779-1.861-3.181-3.105C9.299,9.688,10.309,8.797,11.479,8.161z M8.104,11.334l2.272,2.335l-0.475,0.474
		l-2.191-2.126C7.832,11.782,7.964,11.556,8.104,11.334z M7.416,12.627l1.968,2.034l-0.181,0.182l-0.021,0.02l-0.181,0.182
		L7.175,13.28C7.25,13.06,7.326,12.84,7.416,12.627z M6.964,14.013l1.52,1.549L7.99,16.056l-1.192-1.193
		C6.84,14.574,6.896,14.291,6.964,14.013z M6.688,16.2c0-0.119,0.014-0.235,0.018-0.354c0.626,0.657,1.15,1.174,1.39,1.323
		c0.711,0.444,1.956,0.297,2.683-0.083l2.997,3.034l0.574,0.769l-0.74,0.553l-2.544,2.544C8.445,22.377,6.688,19.493,6.688,16.2z
		 M13.104,24.925l1.534-1.534v1.863C14.112,25.185,13.598,25.08,13.104,24.925z M16.741,25.295v-1.452l1.233,1.233
		C17.572,25.174,17.162,25.253,16.741,25.295z M24.972,16.2c0,3.484-1.961,6.517-4.836,8.059l-2.587-2.587l-0.855-0.606
		l-0.056-0.326l0.604-0.852l0.889-0.887l0.008,0.009c0,0,3.411-3.411,6.181-6.182C24.735,13.873,24.972,15.009,24.972,16.2z"/>
	<path d="M16,0C7.178,0,0,7.178,0,16s7.178,16,16,16c8.821,0,15.999-7.178,15.999-16S24.821,0,16,0z M16,30.89
		C7.79,30.89,1.11,24.21,1.11,16S7.79,1.11,16,1.11S30.889,7.79,30.889,16S24.21,30.89,16,30.89z"/>
</g>
<g>
</g>
<g>
</g>
<g>
</g>
<g>
</g>
<g>
</g>
<g>
</g>
<g>
</g>
<g>
</g>
<g>
</g>
<g>
</g>
<g>
</g>
<g>
</g>
<g>
</g>
<g>
</g>
<g>
</g>
</svg>
