<?xml version="1.0" encoding="iso-8859-1"?>
<!-- Generator: Adobe Illustrator 16.0.0, SVG Export Plug-In . SVG Version: 6.00 Build 0)  -->
<!DOCTYPE svg PUBLIC "-//W3C//DTD SVG 1.1//EN" "http://www.w3.org/Graphics/SVG/1.1/DTD/svg11.dtd">
<svg version="1.1" id="Layer_1" xmlns="http://www.w3.org/2000/svg" xmlns:xlink="http://www.w3.org/1999/xlink" x="0px" y="0px"
	 width="26.167px" height="32px" viewBox="0 0 26.167 32" style="enable-background:new 0 0 26.167 32;" xml:space="preserve">
<path d="M15.38,15.606c0,0,9.812-13.864,10.659-15.053c0.576-0.827-0.925-0.612-1.86-0.103c-0.936,0.511-4.97,2.917-7.552,6.536
	c-0.968,1.358-2.287,3.148-2.904,4.016c-1.105,1.551,1.037,2.007-0.544,4.223l-0.57,0.718l-1.858-2.146c0,0,0.008-0.014,0.021-0.032
	c0.708-0.867,1.013-1.994,0.939-3.042c-0.096-1.316-7.084-8.181-7.084-8.181L4.116,2.94l5.597,7.188l-0.659,0.515L3.455,3.455
	L2.708,4.037l5.597,7.188l-0.659,0.514L2.047,4.551L1.328,5.113l5.597,7.187l-0.661,0.515L0.667,5.626L0,6.144
	c0,0,4.944,8.457,6.197,8.873c1.007,0.332,2.185,0.309,3.206-0.18l1.912,2.734l-3.764,4.741l-0.497-0.572
	c0,0,0.005-0.007,0.011-0.017c0.376-0.462,0.538-1.062,0.499-1.616c-0.051-0.7-3.766-4.351-3.766-4.351l-0.271,0.21l2.976,3.822
	l-0.352,0.274l-2.976-3.823l-0.398,0.311l2.976,3.822l-0.349,0.272l-2.976-3.82l-0.384,0.298l2.976,3.821l-0.352,0.273l-2.976-3.822
	l-0.354,0.276c0,0,2.629,4.496,3.296,4.718c0.536,0.176,1.161,0.163,1.704-0.096l0.575,0.822l-4.82,6.071l0.002,0.002
	c-0.006,0.008-0.015,0.013-0.021,0.021c-0.496,0.696-0.334,1.662,0.362,2.159c0.034,0.023,0.445,0.316,0.479,0.341
	c0.696,0.497,1.662,0.335,2.157-0.36c0.007-0.008,0.011-0.018,0.016-0.027l0.002,0.003l3.656-5.587l3.424,4.896l0.001-0.001
	c0.002,0.004,0.006,0.009,0.009,0.015c0.278,0.356,0.797,0.422,1.153,0.143c0.012-0.009,0.093-0.071,0.159-0.123
	c0.004-0.002,0.007-0.006,0.011-0.008c0.038-0.031,0.071-0.057,0.077-0.062c0.021-0.016,0.031-0.039,0.049-0.057
	c0.035-0.034,0.075-0.058,0.104-0.098c0.005-0.004,0.006-0.01,0.008-0.015l0.001,0.002l3.172-4.849l3.454,4.94l0.002-0.002
	c0.006,0.01,0.011,0.019,0.019,0.029c0.523,0.672,1.496,0.792,2.168,0.267c0.036-0.026,0.433-0.334,0.467-0.362
	c0.673-0.524,0.794-1.496,0.271-2.169c-0.009-0.01-0.016-0.017-0.022-0.023l0.002-0.001l-4.622-5.337l0.559-0.854l0.001,0.002
	c0,0,5.217-7.371,5.668-8.004c0.307-0.439-0.491-0.325-0.989-0.055c-0.499,0.272-2.643,1.552-4.016,3.475
	c-0.515,0.725-1.216,1.676-1.544,2.136c-0.587,0.825,0.551,1.068-0.29,2.246L17.9,22.053l-3.841-4.435l1.319-2.015L15.38,15.606z
	 M16.064,24.366l-3.222,4.059l-3.333-3.851l3.239-4.951L16.064,24.366z"/>
<g>
</g>
<g>
</g>
<g>
</g>
<g>
</g>
<g>
</g>
<g>
</g>
<g>
</g>
<g>
</g>
<g>
</g>
<g>
</g>
<g>
</g>
<g>
</g>
<g>
</g>
<g>
</g>
<g>
</g>
</svg>
