<?xml version="1.0" encoding="iso-8859-1"?>
<!-- Generator: Adobe Illustrator 16.0.0, SVG Export Plug-In . SVG Version: 6.00 Build 0)  -->
<!DOCTYPE svg PUBLIC "-//W3C//DTD SVG 1.1//EN" "http://www.w3.org/Graphics/SVG/1.1/DTD/svg11.dtd">
<svg version="1.1" id="Layer_1" xmlns="http://www.w3.org/2000/svg" xmlns:xlink="http://www.w3.org/1999/xlink" x="0px" y="0px"
	 width="31.828px" height="32px" viewBox="0 0 31.828 32" style="enable-background:new 0 0 31.828 32;" xml:space="preserve">
<path d="M29.066,10.756c0,0-2.823,1.483-4.951,4.383c-0.798,1.089-2.156,2.896-2.666,3.592c0.146,0.326,1.27,1.221,0.48,2.723
	l-0.373,0.515l-3.612-3.379l-0.874-1.068c0.125-0.171,0.309-0.42,0.542-0.736l4.046-5.449l-0.021-0.015
	c3.654-4.96,8.106-11.004,8.293-11.26c0.318-0.433-3.927,1.592-3.927,1.592s-4.032,2.119-7.073,6.263
	c-1.14,1.556-3.08,4.135-3.808,5.129c0.188,0.417,1.478,1.489,0.941,3.247l-1.87-2.287c0.468-0.843,0.653-2.095,0.755-3.176
	c0.094-1.002-7.468-8.533-7.468-8.533L6.901,2.774l6.117,7.387l-0.721,0.597L6.18,3.372L5.395,4.023l6.116,7.387l-0.276,0.228
	l-0.032,0.026l-0.274,0.228L4.812,4.506L4.026,5.157l6.116,7.386L9.42,13.141L3.305,5.755l-0.581,0.48c0,0,5.988,8.833,6.99,8.929
	c1.155,0.107,2.517,0.16,3.441-0.217l2.193,2.624l-0.462,0.635l-4.256,4.375l-2.601-3.178c0.329-0.59,0.457-1.467,0.529-2.223
	c0.066-0.702-5.228-5.974-5.228-5.974l-0.408,0.336l4.283,5.171l-0.503,0.417L2.419,11.96L1.87,12.417l4.28,5.171l-0.193,0.159
	l-0.021,0.018l-0.192,0.16l-4.283-5.17l-0.549,0.457l4.282,5.169l-0.506,0.418l-4.281-5.17L0,13.966c0,0,4.191,6.184,4.891,6.25
	c0.81,0.076,1.762,0.111,2.41-0.152l2.606,3.12l0.053,0.086l-4.743,4.875l0.003,0.003c-0.007,0.009-0.02,0.019-0.028,0.03
	c-0.687,0.936-0.483,2.253,0.455,2.941c0.046,0.034,0.598,0.438,0.646,0.475c0.936,0.686,2.254,0.484,2.94-0.452
	c0.009-0.013,0.015-0.025,0.021-0.036l0.005,0.002l2.618-4.729l2.362,3.829c0.004,0.447,0.187,0.89,0.577,1.175
	c0.033,0.025,0.419,0.308,0.453,0.332c0.041,0.029,0.088,0.035,0.13,0.061c0.075,0.044,0.149,0.074,0.228,0.105
	c0.096,0.036,0.188,0.069,0.289,0.084c0.095,0.017,0.188,0.015,0.286,0.012c0.084-0.004,0.166-0.006,0.249-0.025
	c0.11-0.021,0.211-0.063,0.315-0.111c0.066-0.031,0.129-0.061,0.19-0.103c0.045-0.029,0.097-0.039,0.139-0.074
	c0.032-0.027,0.401-0.333,0.433-0.358c0.363-0.303,0.521-0.74,0.509-1.178l2.58-4.661l3.54,5.74l0.005-0.003
	c0.006,0.011,0.013,0.023,0.023,0.036c0.74,0.895,2.066,1.019,2.962,0.276c0.045-0.037,0.573-0.474,0.619-0.512
	c0.895-0.74,1.02-2.066,0.278-2.961c-0.009-0.013-0.021-0.021-0.029-0.03l0.003-0.003l-5.766-5.392l0.425-0.575l0.004,0.002
	c0,0,0.188-0.256,0.513-0.696l2.834-3.814l-0.015-0.01c2.557-3.474,5.673-7.703,5.805-7.883
	C32.039,9.339,29.066,10.756,29.066,10.756z M8.356,30.28c-0.339,0.463-1.069,0.507-1.628,0.096
	c-0.559-0.409-0.739-1.119-0.398-1.582c0.34-0.465,1.07-0.508,1.63-0.098C8.519,29.107,8.697,29.815,8.356,30.28z M25.362,28.681
	c0.534-0.441,1.265-0.441,1.632,0.002c0.367,0.442,0.23,1.161-0.304,1.603c-0.535,0.443-1.265,0.444-1.633,0
	C24.69,29.843,24.827,29.125,25.362,28.681z M16.435,29.687c0.391,0.287,0.517,0.783,0.278,1.108
	c-0.043,0.06-0.104,0.098-0.163,0.137c-0.334,0.158-0.707,0.122-0.917-0.132c-0.256-0.31-0.161-0.812,0.214-1.122
	c0.08-0.065,0.168-0.111,0.258-0.149C16.218,29.561,16.331,29.611,16.435,29.687z M16.082,27.69l-3.248-3.039l3.105-5.608l0.3-0.405
	l0.64,0.767l2.819,4.57L16.082,27.69z"/>
<g>
</g>
<g>
</g>
<g>
</g>
<g>
</g>
<g>
</g>
<g>
</g>
<g>
</g>
<g>
</g>
<g>
</g>
<g>
</g>
<g>
</g>
<g>
</g>
<g>
</g>
<g>
</g>
<g>
</g>
</svg>
