<?xml version="1.0" encoding="iso-8859-1"?>
<!-- Generator: Adobe Illustrator 16.0.0, SVG Export Plug-In . SVG Version: 6.00 Build 0)  -->
<!DOCTYPE svg PUBLIC "-//W3C//DTD SVG 1.1//EN" "http://www.w3.org/Graphics/SVG/1.1/DTD/svg11.dtd">
<svg version="1.1" id="Layer_1" xmlns="http://www.w3.org/2000/svg" xmlns:xlink="http://www.w3.org/1999/xlink" x="0px" y="0px"
	 width="32px" height="29.021px" viewBox="0 0 32 29.021" style="enable-background:new 0 0 32 29.021;" xml:space="preserve">
<path d="M16.234,27.34c0,0,0-8.075-0.003-8.879c0.003-0.734-0.021-18.333-0.021-18.333L15.81,0.126c0,0-3.276,1.849-3.275,15.559
	c2.517,0.692,1.457,3.441,1.267,3.791c0,0.699,0.053,7.869,0.053,7.869l0.008-0.003c-0.003,0.007-0.005,0.014-0.004,0.023
	c-0.004,0.658,0.53,1.192,1.187,1.188c0.654,0.002,1.19-0.533,1.188-1.188c0.003-0.006,0.003-0.016-0.002-0.02L16.234,27.34z"/>
<path d="M11.294,1.101L10.582,1.1l0.212,7.458L9.938,8.557V1.099L9.313,1.101v7.504H8.604L8.603,1.101H7.914L7.913,8.604h-0.84
	l0.239-7.506H6.663l-0.79,6.35c0,0-0.02,0.238-0.02,0.329c0,0.979,0.453,1.854,1.163,2.424c2.34,2.642,0.743,5.334,0.743,5.975
	c0.002,0.708,0.002,11.612,0.002,11.612h0.001c0,0.008-0.002,0.015-0.003,0.023c0.001,0.669,0.543,1.209,1.21,1.21
	c0.667,0,1.211-0.543,1.211-1.21c-0.001-0.01-0.004-0.017-0.004-0.022h0.002c0,0,0.001-10.769,0.001-11.591
	c-0.001-0.743-1.352-3.84,0.904-6.143c0.002-0.004,0.007-0.011,0.011-0.014c0.55-0.521,0.913-1.24,0.968-2.048
	c0.004-0.058,0.002-0.199,0.002-0.199L11.294,1.101z"/>
<path d="M21.413,0.002c0-0.001,0-0.002,0-0.002c-0.012,0-0.056,0-0.067,0c0,0,0,0.001,0,0.002c-2.62,0.041-4.097,2.551-4.097,5.276
	c-0.001,2.75,1.653,4.711,3.095,5.146c0.789,1.107,0.269,3.723-0.289,5.23c0,0.722,0,11.774,0,11.774h0.002
	c-0.001,0.008-0.002,0.017-0.002,0.024c0,0.677,0.548,1.226,1.225,1.226c0.035,0,0.165-0.001,0.199,0
	c0.677-0.001,1.226-0.549,1.226-1.226c0-0.008-0.001-0.017-0.003-0.025l0.003,0.001c0,0,0-11.053,0-11.774
	c-0.558-1.508-1.077-4.123-0.289-5.229c1.442-0.437,3.094-2.397,3.095-5.147C25.51,2.553,24.033,0.043,21.413,0.002z M20.047,9.359
	c-0.163-0.125-0.372-0.327-0.591-0.593c-0.223-0.265-0.453-0.594-0.669-0.971c-0.105-0.19-0.205-0.394-0.297-0.607
	c-0.089-0.224-0.161-0.439-0.211-0.695c-0.091-0.489-0.075-0.959-0.024-1.39c0.048-0.433,0.14-0.824,0.242-1.152
	c0.1-0.33,0.214-0.596,0.309-0.775c0.093-0.185,0.169-0.271,0.169-0.271s-0.016,0.116-0.024,0.312
	c-0.007,0.193-0.016,0.473-0.026,0.807c-0.008,0.655-0.062,1.549,0.061,2.342c0.023,0.186,0.089,0.396,0.153,0.584
	c0.06,0.197,0.132,0.393,0.209,0.579c0.147,0.377,0.306,0.727,0.443,1.027c0.139,0.298,0.262,0.548,0.358,0.716
	c0.091,0.173,0.175,0.246,0.181,0.238C20.33,9.518,20.206,9.49,20.047,9.359z"/>
<path d="M5.125,7.453l-0.67-0.002l0.199,5.135l-0.806-0.002L3.85,7.451L3.259,7.453v5.176H2.591V7.453L1.942,7.452v5.176
	l-0.791,0.001l0.226-5.178H0.763l-0.744,4.088c0,0-0.019,0.227-0.019,0.31c0,0.923,0.429,1.748,1.098,2.285
	c2.201,2.487,0.699,5.024,0.699,5.627c0,0.668,0,8.099,0,8.099l0.004-0.001c-0.001,0.008-0.004,0.016-0.004,0.024
	c0,0.629,0.512,1.139,1.14,1.139c0.629,0,1.141-0.512,1.141-1.139c0-0.01-0.003-0.016-0.002-0.022l0,0c0,0,0.002-7.304,0.003-8.077
	c-0.004-0.699-1.273-3.619,0.851-5.788c0.002-0.003,0.007-0.01,0.009-0.013c0.521-0.491,0.862-1.168,0.911-1.929
	c0.004-0.053,0.005-0.188,0.005-0.188L5.125,7.453z"/>
<path d="M32,10.685c0-2.358-1.207-3.938-3.351-3.975c0.001-0.001,0-0.002,0-0.002c-0.009,0-0.045-0.001-0.054,0c0,0-0.001,0,0,0.003
	c-2.141,0.035-3.349,1.615-3.349,3.974c-0.001,2.093,1.047,3.655,2.102,4.258c1.302,2.205,0.125,4.281,0.124,4.818
	c0.001,0.668,0,8.099,0,8.099l0.004-0.001c-0.001,0.008-0.003,0.016-0.004,0.024c0.001,0.629,0.512,1.139,1.14,1.139
	c0.629,0,1.141-0.512,1.141-1.139c0-0.01-0.003-0.016-0.002-0.022c0,0,0.002-7.304,0.003-8.077c-0.004-0.603-0.934-2.855,0.17-4.855
	C30.969,14.315,32,12.76,32,10.685z M26.757,13.001c-0.157-0.246-0.321-0.504-0.443-0.827c-0.052-0.152-0.11-0.332-0.126-0.492
	c-0.02-0.162-0.043-0.32-0.035-0.472c-0.006-0.304,0.03-0.581,0.074-0.814c0.043-0.234,0.115-0.426,0.165-0.56
	c0.049-0.128,0.101-0.19,0.097-0.193c0,0,0.008,0.08,0.021,0.221c0.016,0.133,0.041,0.32,0.07,0.549
	c0.027,0.222,0.059,0.48,0.094,0.759c0.028,0.277,0.084,0.542,0.154,0.8c0.19,0.515,0.47,1.067,0.653,1.476
	c0.183,0.417,0.335,0.681,0.355,0.66c0.001,0.008-0.082-0.01-0.19-0.097c-0.104-0.085-0.247-0.215-0.405-0.384
	C27.086,13.454,26.921,13.242,26.757,13.001z"/>
<g>
</g>
<g>
</g>
<g>
</g>
<g>
</g>
<g>
</g>
<g>
</g>
<g>
</g>
<g>
</g>
<g>
</g>
<g>
</g>
<g>
</g>
<g>
</g>
<g>
</g>
<g>
</g>
<g>
</g>
</svg>
