<?xml version="1.0" encoding="iso-8859-1"?>
<!-- Generator: Adobe Illustrator 16.0.0, SVG Export Plug-In . SVG Version: 6.00 Build 0)  -->
<!DOCTYPE svg PUBLIC "-//W3C//DTD SVG 1.1//EN" "http://www.w3.org/Graphics/SVG/1.1/DTD/svg11.dtd">
<svg version="1.1" id="Layer_1" xmlns="http://www.w3.org/2000/svg" xmlns:xlink="http://www.w3.org/1999/xlink" x="0px" y="0px"
	 width="32.64px" height="29.5px" viewBox="0 0 32.64 29.5" style="enable-background:new 0 0 32.64 29.5;" xml:space="preserve">
<path d="M22.195,12.428c1.798,0.963,5.261,0.668,7.894-1.965c2.611-2.611,3.598-6.429,1.13-8.979c0,0,0.001-0.001,0.001-0.001
	c-0.011-0.011-0.053-0.053-0.064-0.064c0,0,0,0.001-0.001,0.001c-2.55-2.468-6.367-1.481-8.979,1.13
	c-2.633,2.633-2.928,6.096-1.965,7.894c-0.248,1.472-2.268,3.069-4.079,4.106c-1.397-0.862-3.159-2.385-3.344-5.447
	c0.134-1.223-0.269-2.494-1.205-3.43c-0.086-0.086-0.333-0.295-0.333-0.295L4.426,0.063L3.804,0.684l7.405,6.947l-0.803,0.803
	L3.232,1.26L2.573,1.918l7.173,7.175L9.068,9.771L1.895,2.598L1.295,3.193l7.13,7.13l-0.817,0.82L0.68,3.809L0,4.491l5.663,7.136
	c0,0,0.135,0.138,0.192,0.189c0.824,0.72,1.859,1.06,2.883,1.031c0.007,0,0.018,0.002,0.022,0.003
	c2.696,0.027,4.362,1.666,5.41,3.08C11.606,18.495,3.649,26.453,3.649,26.453l0.002,0.002c-0.008,0.006-0.018,0.013-0.026,0.021
	c-0.648,0.647-0.648,1.698,0,2.347c0.033,0.033,0.158,0.157,0.19,0.19c0.648,0.648,1.7,0.648,2.347,0.001
	c0.008-0.008,0.015-0.018,0.021-0.026l0.002,0.002c0,0,7.389-7.389,10.222-10.221c2.696,2.695,10.17,10.167,10.17,10.167
	l0.002-0.002c0.006,0.007,0.009,0.016,0.019,0.026c0.637,0.636,1.675,0.636,2.313-0.002c0.638-0.638,0.64-1.674,0.001-2.313
	c-0.01-0.009-0.019-0.012-0.027-0.021l0.001-0.002c0,0-8.254-8.254-10.544-10.546C19.376,14.391,20.839,12.656,22.195,12.428z
	 M21.319,7.497c0.039-0.438,0.127-0.942,0.272-1.475c0.077-0.265,0.168-0.538,0.278-0.814c0.122-0.28,0.25-0.541,0.437-0.814
	c0.359-0.524,0.795-0.931,1.23-1.273c0.43-0.346,0.867-0.615,1.254-0.819c0.385-0.208,0.729-0.343,0.975-0.42
	c0.25-0.082,0.396-0.093,0.396-0.093s-0.12,0.091-0.3,0.259c-0.182,0.169-0.44,0.411-0.751,0.701
	c-0.598,0.583-1.45,1.34-2.053,2.163c-0.146,0.188-0.276,0.436-0.389,0.663c-0.123,0.232-0.233,0.472-0.332,0.709
	c-0.207,0.472-0.378,0.929-0.525,1.323c-0.144,0.395-0.257,0.729-0.322,0.966c-0.073,0.238-0.063,0.379-0.052,0.379
	c-0.006,0.009-0.094-0.128-0.121-0.39C21.284,8.303,21.278,7.934,21.319,7.497z"/>
<g>
</g>
<g>
</g>
<g>
</g>
<g>
</g>
<g>
</g>
<g>
</g>
<g>
</g>
<g>
</g>
<g>
</g>
<g>
</g>
<g>
</g>
<g>
</g>
<g>
</g>
<g>
</g>
<g>
</g>
</svg>
