<?xml version="1.0" encoding="iso-8859-1"?>
<!-- Generator: Adobe Illustrator 16.0.0, SVG Export Plug-In . SVG Version: 6.00 Build 0)  -->
<!DOCTYPE svg PUBLIC "-//W3C//DTD SVG 1.1//EN" "http://www.w3.org/Graphics/SVG/1.1/DTD/svg11.dtd">
<svg version="1.1" id="Layer_1" xmlns="http://www.w3.org/2000/svg" xmlns:xlink="http://www.w3.org/1999/xlink" x="0px" y="0px"
	 width="32px" height="29.931px" viewBox="0 0 32 29.931" style="enable-background:new 0 0 32 29.931;" xml:space="preserve">
<path d="M29.409,26.114l0.01-0.004c0,0-7.08-7.186-7.774-7.881c-0.449-0.131-3.155-1.33-2.981-3.58
	c0.854-1.049,1.821-1.885,2.74-2.039c1.824,0.977,5.337,0.678,8.009-1.994c2.649-2.649,3.651-6.522,1.147-9.11
	c0,0,0.001-0.001,0.001-0.001c-0.011-0.012-0.054-0.054-0.065-0.065c0,0-0.001,0.001-0.002,0.002
	c-2.587-2.504-6.46-1.503-9.109,1.146c-2.671,2.671-2.971,6.185-1.993,8.009c-0.101,0.602-0.497,1.223-1.051,1.82
	C5.301-0.375,0.387,0.987,0.387,0.987L0,1.379c0,0,8.618,8.641,14.006,14.041c-0.84,0.84-11.419,11.419-11.419,11.419l0.003,0.003
	c-0.009,0.006-0.019,0.013-0.027,0.021c-0.657,0.657-0.657,1.723,0,2.381c0.034,0.033,0.161,0.159,0.193,0.193
	c0.658,0.657,1.725,0.658,2.382,0.001c0.008-0.009,0.015-0.018,0.021-0.027l0.002,0.002c0,0,10.56-10.559,11.417-11.416
	c0.909,0.911,1.515,1.517,1.638,1.639c0.797,0.802,8.831,8.835,8.831,8.835h0.009c0,0.009,0.009,0.018,0.018,0.023
	c0.649,0.653,1.715,0.653,2.363,0c0.658-0.649,0.658-1.71,0-2.363C29.428,26.123,29.418,26.118,29.409,26.114z M20.386,7.666
	c0.025-0.495,0.101-1.076,0.285-1.681c0.084-0.304,0.208-0.61,0.358-0.91c0.133-0.29,0.343-0.637,0.535-0.873
	c0.818-1.097,1.979-1.852,2.908-2.21c0.934-0.368,1.606-0.381,1.606-0.381s-0.595,0.289-1.383,0.813
	c-0.395,0.26-0.841,0.578-1.283,0.954c-0.222,0.186-0.448,0.382-0.659,0.601l-0.32,0.327l-0.147,0.156l-0.151,0.188
	c-0.213,0.266-0.351,0.469-0.507,0.742c-0.155,0.256-0.276,0.529-0.39,0.795c-0.222,0.535-0.375,1.065-0.477,1.529
	c-0.113,0.463-0.172,0.861-0.203,1.141c-0.038,0.28-0.048,0.443-0.048,0.443S20.354,8.661,20.386,7.666z"/>
<g>
</g>
<g>
</g>
<g>
</g>
<g>
</g>
<g>
</g>
<g>
</g>
<g>
</g>
<g>
</g>
<g>
</g>
<g>
</g>
<g>
</g>
<g>
</g>
<g>
</g>
<g>
</g>
<g>
</g>
</svg>
