<?xml version="1.0" encoding="iso-8859-1"?>
<!-- Generator: Adobe Illustrator 16.0.0, SVG Export Plug-In . SVG Version: 6.00 Build 0)  -->
<!DOCTYPE svg PUBLIC "-//W3C//DTD SVG 1.1//EN" "http://www.w3.org/Graphics/SVG/1.1/DTD/svg11.dtd">
<svg version="1.1" id="Layer_1" xmlns="http://www.w3.org/2000/svg" xmlns:xlink="http://www.w3.org/1999/xlink" x="0px" y="0px"
	 width="32px" height="31.993px" viewBox="0 0 32 31.993" style="enable-background:new 0 0 32 31.993;" xml:space="preserve">
<g>
	<path d="M10.642,4.561h-0.416l-0.096,7.087H9.438L9.331,4.561h-0.53l-0.117,7.087H8.419H8.39H8.125L8.002,4.561H7.439L7.37,11.648
		H6.649V4.561H6.186c0,0-0.506,6.964-0.271,7.977c0.193,0.834,1.192,1.627,1.995,1.886l-0.33,13.31l-0.578,1.674
		c0.102,0.09,0.23,0.189,0.332,0.269c0.151,0.117,0.323,0.249,0.479,0.391c0.244,0.22,0.589,0.454,0.711,0.608
		c0.106-0.164,0.424-0.412,0.632-0.636c0.172-0.186,0.357-0.346,0.521-0.486c0.041-0.034,0.084-0.072,0.128-0.11l-0.578-1.685
		L8.985,14.425c0.792-0.212,1.744-0.807,1.964-1.686C11.227,11.633,10.642,4.561,10.642,4.561z"/>
	<path d="M9.904,29.742c-0.162,0.14-0.347,0.298-0.513,0.477c-0.328,0.354-0.72,0.785-0.722,0.79l-0.117,0.204l-0.135-0.193
		c-0.003-0.004-0.429-0.403-0.816-0.754C7.449,30.127,7.285,30,7.126,29.878c-0.097-0.074-0.185-0.144-0.265-0.209l-0.181,0.526
		c0,0,0.655,0.543,1.146,1.061c0.27,0.286,0.6,0.693,0.676,0.689c0.079-0.004,0.404-0.392,0.656-0.696
		c0.421-0.51,0.959-1.043,0.959-1.043l-0.171-0.501C9.932,29.718,9.919,29.729,9.904,29.742z"/>
</g>
<g>
	<path d="M16.336,29.742c-0.162,0.14-0.347,0.298-0.513,0.477c-0.328,0.354-0.72,0.785-0.722,0.79l-0.116,0.204l-0.135-0.193
		c-0.003-0.004-0.43-0.403-0.817-0.754c-0.152-0.138-0.316-0.265-0.476-0.387c-0.096-0.074-0.185-0.144-0.264-0.209l-0.182,0.526
		c0,0,0.656,0.543,1.146,1.061c0.27,0.286,0.601,0.693,0.676,0.689c0.079-0.004,0.405-0.392,0.657-0.696
		c0.421-0.51,0.958-1.043,0.958-1.043l-0.171-0.501C16.364,29.718,16.351,29.729,16.336,29.742z"/>
	<path d="M15.659,27.757l-0.253-12.719c0.009-4.626,0.028-14.697,0.028-15.003c0-0.397-1.646,2.664-1.646,2.664
		s-1.478,3.024-1.478,6.823c0,1.424-0.028,3.81-0.028,4.72c0.359,0.204,2.031,0.263,1.999,3.197l0.009-0.001l-0.279,10.294
		l-0.577,1.674c0.101,0.09,0.229,0.189,0.332,0.269c0.151,0.117,0.323,0.249,0.479,0.391c0.244,0.22,0.589,0.454,0.711,0.608
		c0.106-0.164,0.424-0.412,0.632-0.636c0.172-0.186,0.358-0.346,0.521-0.486c0.041-0.034,0.085-0.072,0.128-0.11L15.659,27.757z"/>
</g>
<g>
	<path d="M4.451,9.937H4.065l-0.089,6.587H3.333l-0.1-6.587H2.74l-0.108,6.587H2.386H2.358H2.112L1.999,9.937H1.475L1.41,16.524
		H0.741V9.937H0.31c0,0-0.47,6.473-0.252,7.414c0.179,0.769,1.095,1.501,1.839,1.748l-0.312,8.634l-0.578,1.674
		c0.102,0.09,0.229,0.189,0.332,0.268c0.151,0.117,0.323,0.25,0.479,0.391c0.244,0.221,0.589,0.455,0.711,0.609
		c0.106-0.164,0.424-0.412,0.631-0.636c0.173-0.187,0.358-0.346,0.522-0.486c0.04-0.034,0.084-0.072,0.128-0.11l-0.578-1.685
		l-0.229-8.677c0.717-0.218,1.539-0.759,1.735-1.542C4.995,16.51,4.451,9.937,4.451,9.937z"/>
	<path d="M3.909,29.742c-0.163,0.14-0.347,0.298-0.513,0.477c-0.328,0.354-0.72,0.785-0.723,0.789l-0.116,0.205l-0.134-0.193
		c-0.003-0.004-0.43-0.404-0.817-0.754C1.454,30.127,1.29,30,1.131,29.877c-0.097-0.074-0.185-0.143-0.264-0.208l-0.182,0.525
		c0,0,0.655,0.544,1.145,1.062c0.271,0.286,0.601,0.693,0.676,0.689c0.08-0.004,0.405-0.392,0.657-0.696
		c0.422-0.51,0.959-1.044,0.959-1.044l-0.171-0.5C3.937,29.718,3.924,29.729,3.909,29.742z"/>
</g>
<g>
	<path d="M22.061,29.742c-0.163,0.14-0.347,0.298-0.513,0.477c-0.328,0.354-0.72,0.785-0.722,0.789l-0.116,0.205l-0.136-0.193
		c-0.002-0.004-0.429-0.404-0.816-0.754c-0.152-0.138-0.316-0.265-0.476-0.388c-0.096-0.074-0.185-0.143-0.264-0.208l-0.182,0.525
		c0,0,0.655,0.544,1.145,1.062c0.271,0.286,0.601,0.693,0.676,0.689c0.08-0.004,0.406-0.392,0.658-0.696
		c0.421-0.51,0.958-1.044,0.958-1.044l-0.171-0.5C22.088,29.718,22.075,29.729,22.061,29.742z"/>
	<path d="M24.888,10.426c0-3.17-1.377-6.385-4.259-6.435c0-0.001,0-0.002,0-0.003c-0.013,0-0.062,0-0.074,0c0,0.001,0,0.002,0,0.003
		c-2.881,0.05-4.322,3.072-4.322,6.242c0,3.281,3.3,4.282,3.804,5.403l-0.3,12.096l-0.577,1.674c0.101,0.09,0.229,0.189,0.331,0.268
		c0.152,0.117,0.323,0.25,0.479,0.391c0.244,0.221,0.589,0.455,0.711,0.609c0.106-0.164,0.424-0.412,0.632-0.636
		c0.172-0.187,0.357-0.346,0.521-0.486c0.04-0.034,0.084-0.072,0.128-0.11l-0.578-1.685l-0.212-11.66
		c0.005-0.057,0.01-0.115,0.01-0.179C21.182,14.652,24.888,13.319,24.888,10.426z M19.81,13.726
		c-0.014-0.001-0.095-0.011-0.219-0.054c-0.03-0.013-0.063-0.025-0.094-0.041l-0.054-0.026c-0.152-0.074-0.361-0.175-0.576-0.336
		c-0.673-0.48-0.924-1.034-1.227-1.601c-0.095-0.199-0.155-0.378-0.203-0.59c-0.036-0.187-0.061-0.37-0.074-0.574
		c-0.019-0.392,0.019-0.75,0.055-1.021c0.042-0.309,0.132-0.565,0.195-0.728c0.08-0.188,0.135-0.316,0.135-0.316
		c0.026-0.058,0.097-0.086,0.163-0.063c0.069,0.027,0.109,0.083,0.101,0.145c-0.001,0.003-0.03,0.158-0.044,0.32
		C17.939,9,17.944,9.213,17.952,9.5c0.007,0.252,0.038,0.559,0.1,0.914c0.023,0.153,0.058,0.317,0.103,0.485
		c0.037,0.146,0.1,0.315,0.165,0.443c0.323,0.587,0.58,1.168,0.933,1.559c0.07,0.074,0.145,0.151,0.209,0.219
		c0.091,0.096,0.169,0.182,0.237,0.238c0.104,0.096,0.179,0.143,0.179,0.144c0.054,0.032,0.08,0.09,0.064,0.144
		C19.924,13.696,19.87,13.732,19.81,13.726z"/>
</g>
<g>
	<path d="M29.892,29.789c-0.163,0.14-0.348,0.298-0.513,0.478c-0.328,0.354-0.72,0.784-0.723,0.788l-0.116,0.205l-0.135-0.193
		c-0.003-0.004-0.429-0.403-0.816-0.754c-0.152-0.138-0.316-0.265-0.476-0.388c-0.097-0.074-0.186-0.143-0.265-0.208l-0.182,0.525
		c0,0,0.656,0.544,1.146,1.062c0.271,0.286,0.601,0.693,0.676,0.689c0.08-0.004,0.405-0.392,0.657-0.696
		c0.421-0.51,0.959-1.044,0.959-1.044l-0.172-0.499C29.919,29.765,29.906,29.777,29.892,29.789z"/>
	<path d="M32,15.314c0-2.647-1.15-5.333-3.557-5.375V9.938c-0.011-0.001-0.051-0.001-0.062-0.001v0.002
		c-2.407,0.042-3.61,2.566-3.61,5.214c0,2.597,2.474,3.484,3.093,4.365l-0.298,8.262l-0.577,1.674
		c0.101,0.09,0.229,0.189,0.332,0.268c0.151,0.117,0.323,0.25,0.479,0.391c0.243,0.221,0.588,0.455,0.71,0.609
		c0.106-0.164,0.425-0.412,0.633-0.636c0.172-0.187,0.357-0.346,0.521-0.486c0.04-0.034,0.084-0.072,0.127-0.11l-0.577-1.685
		l-0.218-8.231C29.508,18.601,32,17.482,32,15.314z M27.737,17.993c-0.012,0-0.077-0.005-0.18-0.032
		c-0.025-0.009-0.051-0.017-0.078-0.028l-0.045-0.019c-0.127-0.053-0.301-0.122-0.482-0.242c-0.568-0.352-0.801-0.787-1.074-1.228
		c-0.086-0.156-0.145-0.298-0.194-0.467c-0.038-0.148-0.067-0.295-0.091-0.461c-0.034-0.314-0.037-0.894-0.023-1.115
		c0.02-0.252,0.078-0.464,0.121-0.598c0.055-0.156,0.092-0.262,0.092-0.262c0.02-0.049,0.074-0.075,0.129-0.061
		c0.057,0.02,0.093,0.063,0.09,0.111c-0.002,0.003-0.018,0.131-0.02,0.262c-0.015,0.128,0,0.301,0.021,0.532
		c0.018,0.204,0.074,0.739,0.143,1.023c0.027,0.123,0.063,0.252,0.107,0.386c0.037,0.116,0.097,0.25,0.156,0.351
		c0.291,0.457,0.53,0.912,0.835,1.211c0.062,0.057,0.124,0.114,0.181,0.165c0.077,0.073,0.146,0.138,0.203,0.18
		c0.088,0.072,0.152,0.104,0.152,0.106c0.045,0.023,0.068,0.068,0.059,0.112C27.828,17.962,27.786,17.994,27.737,17.993z"/>
</g>
<g>
</g>
<g>
</g>
<g>
</g>
<g>
</g>
<g>
</g>
<g>
</g>
<g>
</g>
<g>
</g>
<g>
</g>
<g>
</g>
<g>
</g>
<g>
</g>
<g>
</g>
<g>
</g>
<g>
</g>
</svg>
