<?xml version="1.0" encoding="iso-8859-1"?>
<!-- Generator: Adobe Illustrator 16.0.0, SVG Export Plug-In . SVG Version: 6.00 Build 0)  -->
<!DOCTYPE svg PUBLIC "-//W3C//DTD SVG 1.1//EN" "http://www.w3.org/Graphics/SVG/1.1/DTD/svg11.dtd">
<svg version="1.1" id="Layer_1" xmlns="http://www.w3.org/2000/svg" xmlns:xlink="http://www.w3.org/1999/xlink" x="0px" y="0px"
	 width="10.795px" height="32px" viewBox="0 0 10.795 32" style="enable-background:new 0 0 10.795 32;" xml:space="preserve">
<g>
	<path d="M3.273,8.807H2.719V4.675l-0.447,0.01v7.184H1.717V4.698L1.206,4.709v4.097H0.651V4.722L0,4.737c0,0,0,7.843,0,8.893
		c0,1.159,0.612,2.125,1.436,2.395C1.73,19.219,0.96,24.687,0.96,25.17c0,0.55,0,5.877,0,5.877h0.002
		c0,0.006-0.002,0.012-0.002,0.018C0.96,31.582,1.379,32,1.895,32c0.517,0,0.935-0.418,0.935-0.935c0-0.006-0.002-0.012-0.002-0.018
		H2.83c0,0,0-5.222,0-5.859c0-0.566-0.778-5.949-0.349-9.215c0.758-0.324,1.309-1.245,1.309-2.343c0-1.114,0-8.979,0-8.979
		L3.273,4.663V8.807z"/>
	<path d="M9.917,14.405l0.877-3.272V0H9.761L7.608,3.94v6.665l1.228,3.8h0.002c0.342,3.166-0.458,9.35-0.458,9.842
		c0,0.549,0,6.394,0,6.394h0.002c0,0.006-0.002,0.012-0.002,0.018c0,0.516,0.418,0.935,0.934,0.935c0.516,0,0.935-0.418,0.935-0.935
		c0-0.006-0.001-0.012-0.001-0.018h0.001c0,0,0-5.739,0-6.375c0-0.574-0.8-6.608-0.333-9.86H9.917z"/>
</g>
<g>
</g>
<g>
</g>
<g>
</g>
<g>
</g>
<g>
</g>
<g>
</g>
<g>
</g>
<g>
</g>
<g>
</g>
<g>
</g>
<g>
</g>
<g>
</g>
<g>
</g>
<g>
</g>
<g>
</g>
</svg>
