<?xml version="1.0" encoding="iso-8859-1"?>
<!-- Generator: Adobe Illustrator 16.0.0, SVG Export Plug-In . SVG Version: 6.00 Build 0)  -->
<!DOCTYPE svg PUBLIC "-//W3C//DTD SVG 1.1//EN" "http://www.w3.org/Graphics/SVG/1.1/DTD/svg11.dtd">
<svg version="1.1" id="Layer_1" xmlns="http://www.w3.org/2000/svg" xmlns:xlink="http://www.w3.org/1999/xlink" x="0px" y="0px"
	 width="31.999px" height="32px" viewBox="0 0 31.999 32" style="enable-background:new 0 0 31.999 32;" xml:space="preserve">
<g>
	<path d="M24.107,10.177c-1.432-1.963-3.539-3.398-5.981-3.961c-0.56-0.678-1.307-1.112-2.254-1.129c0-0.001,0-0.002,0-0.003
		c-0.011,0-0.051,0-0.062,0c0,0.001,0,0.002,0,0.003c-0.98,0.017-1.756,0.455-2.332,1.144c-2.417,0.57-4.502,1.995-5.924,3.941
		c-0.629-0.546-1.08-0.928-1.08-0.928L6.232,9.486l1.045,1.073c-0.132,0.198-0.254,0.402-0.371,0.61L5.71,10.009l-0.31,0.31
		l1.267,1.309C6.573,11.814,6.476,12,6.394,12.194l-1.459-1.409l-0.329,0.328l1.588,1.619c-0.079,0.222-0.154,0.444-0.219,0.672
		l-1.83-1.83l-0.271,0.271c0,0,0.919,1.063,1.937,2.193c-0.15,0.697-0.233,1.419-0.233,2.161c0,3.448,1.717,6.498,4.336,8.356
		c0.018,0.233,0.049,0.72,0.037,1.148c-0.01,0.324-0.054,0.756-0.008,0.797c0.048,0.044,0.465,0.008,0.79-0.022
		c0.543-0.052,1.168-0.05,1.168-0.05l0.192-0.393c-0.016,0-0.03-0.002-0.045-0.003c-0.177-0.014-0.377-0.029-0.578-0.021
		c-0.398,0.016-0.878,0.039-0.882,0.04L10.4,26.104l0.034-0.191c0.001-0.005-0.016-0.486-0.037-0.918
		c-0.002-0.042-0.01-0.083-0.013-0.125c0.084,0.053,0.169,0.104,0.255,0.155c0.016,0.267,0.075,0.591,0.058,0.748
		c0.158-0.034,0.487,0.006,0.74-0.003c0.209-0.008,0.411,0.008,0.588,0.021c0.044,0.004,0.092,0.008,0.139,0.011l0.017-0.034
		c0.742,0.284,1.522,0.485,2.335,0.59l-0.123,0.358c0,0,0.541,0.449,0.944,0.877c0.224,0.236,0.496,0.572,0.559,0.569
		c0.065-0.004,0.335-0.323,0.543-0.575c0.348-0.421,0.791-0.861,0.791-0.861l-0.124-0.362c0.774-0.097,1.52-0.282,2.23-0.543
		c0.123-0.016,0.247-0.032,0.375-0.038c0.271-0.015,0.609-0.079,0.771-0.061c-0.02-0.091-0.015-0.237-0.009-0.394
		c0.086-0.044,0.175-0.082,0.259-0.128c0.014,0.325,0.027,0.629,0.029,0.632l0.051,0.187l-0.191-0.033
		c-0.005-0.001-0.485,0.015-0.917,0.036c-0.169,0.009-0.339,0.03-0.503,0.053c-0.1,0.013-0.191,0.023-0.276,0.032l0.201,0.412
		c0,0,0.7-0.065,1.288-0.05c0.324,0.01,0.755,0.055,0.797,0.008c0.044-0.048,0.007-0.464-0.023-0.789
		c-0.024-0.253-0.036-0.521-0.042-0.738c2.954-1.801,4.938-5.044,4.938-8.749c0-1.521-0.342-2.96-0.938-4.26
		c1.603-1.563,2.886-2.809,2.973-2.896C28.274,8.886,26.167,9.234,24.107,10.177z M23.108,10.691
		c-0.595,0.343-1.153,0.737-1.608,1.192c-0.832,0.831-2.241,2.207-2.771,2.738c0.091,0.329,1.032,1.339-0.699,3.033l0.005,0.005
		l-1.64,1.552l-0.074-4.133c0.004-0.047,0.008-0.095,0.008-0.147c0-1.045,3.059-2.146,3.059-4.533c0-0.973-0.157-1.949-0.477-2.795
		C20.594,8.208,22.047,9.291,23.108,10.691z M16.495,24.704l-0.036-1.992l1.754,1.844l0.198,0.408
		c-0.552,0.163-1.123,0.277-1.713,0.333L16.495,24.704z M13.662,9.634c0.006,0.208,0.031,0.461,0.082,0.755
		c0.02,0.127,0.048,0.262,0.085,0.4c0.03,0.121,0.082,0.261,0.136,0.366c0.268,0.484,0.479,0.964,0.771,1.286
		c0.058,0.062,0.119,0.125,0.172,0.181c0.075,0.079,0.14,0.15,0.196,0.197c0.086,0.079,0.147,0.117,0.147,0.118
		c0.044,0.026,0.066,0.074,0.054,0.118c-0.015,0.041-0.06,0.071-0.109,0.066c-0.011-0.001-0.078-0.009-0.181-0.044
		c-0.024-0.011-0.052-0.021-0.077-0.034l-0.044-0.021c-0.126-0.062-0.299-0.145-0.476-0.277c-0.556-0.396-0.763-0.854-1.013-1.321
		c-0.078-0.165-0.128-0.313-0.168-0.487c-0.029-0.153-0.05-0.306-0.062-0.474c-0.015-0.323,0.016-0.619,0.046-0.843
		c0.034-0.255,0.108-0.467,0.161-0.601c0.065-0.155,0.111-0.261,0.111-0.261c0.021-0.048,0.079-0.071,0.134-0.052
		c0.058,0.022,0.091,0.068,0.083,0.119c0,0.003-0.024,0.131-0.036,0.265C13.651,9.221,13.655,9.397,13.662,9.634z M12.688,7.625
		c-0.295,0.79-0.445,1.693-0.445,2.614c0,2.709,2.724,3.535,3.14,4.46l-0.127,5.117l-3.99-3.848c0.339-0.586,0.548-1.489,0.163-2.13
		c-0.269-0.447-1.76-1.809-3.036-2.935C9.453,9.418,10.946,8.266,12.688,7.625z M8.076,11.381l2.236,2.298l-0.404,0.405
		l-2.176-2.112C7.839,11.77,7.955,11.574,8.076,11.381z M7.489,12.477l1.979,2.047l-0.154,0.154l-0.018,0.017L9.143,14.85
		l-1.878-1.813C7.335,12.847,7.407,12.66,7.489,12.477z M7.064,13.621l1.637,1.669l-0.42,0.421l-1.396-1.396
		C6.936,14.08,6.997,13.85,7.064,13.621z M6.688,16.2c0-0.379,0.03-0.751,0.075-1.118c0.715,0.769,1.352,1.416,1.608,1.576
		c0.6,0.374,1.645,0.254,2.265-0.063l4.04,4.245l-2.813,2.665l-0.883,0.43C8.407,22.315,6.688,19.458,6.688,16.2z M12.811,24.481
		l2.392-2.489l-0.067,2.692l-0.211,0.61c-0.785-0.077-1.538-0.264-2.253-0.528L12.811,24.481z M16.63,26.735
		c-0.271,0.293-0.594,0.648-0.596,0.651l-0.096,0.17l-0.112-0.16c-0.001-0.003-0.354-0.334-0.674-0.622
		c-0.125-0.113-0.261-0.219-0.393-0.32c-0.034-0.026-0.062-0.049-0.094-0.074c0.139,0.016,0.28,0.023,0.421,0.033
		c0.081,0.064,0.162,0.126,0.24,0.196c0.202,0.182,0.486,0.375,0.587,0.503c0.088-0.136,0.351-0.341,0.522-0.525
		c0.063-0.067,0.124-0.116,0.188-0.176c0.131-0.011,0.262-0.02,0.391-0.034C16.891,26.485,16.755,26.601,16.63,26.735z M24.972,16.2
		c0,3.412-1.883,6.388-4.66,7.958l-1.123-0.55l-2.762-2.663l-0.005-0.224l3.665-3.813c1.151-1.147,2.745-2.71,4.21-4.142
		C24.729,13.828,24.972,14.985,24.972,16.2z"/>
	<path d="M16,0C7.178,0,0,7.178,0,16s7.178,16,16,16c8.821,0,15.999-7.178,15.999-16S24.821,0,16,0z M16,30.89
		C7.79,30.89,1.11,24.21,1.11,16S7.79,1.11,16,1.11S30.889,7.79,30.889,16S24.21,30.89,16,30.89z"/>
</g>
<g>
</g>
<g>
</g>
<g>
</g>
<g>
</g>
<g>
</g>
<g>
</g>
<g>
</g>
<g>
</g>
<g>
</g>
<g>
</g>
<g>
</g>
<g>
</g>
<g>
</g>
<g>
</g>
<g>
</g>
</svg>
