<?xml version="1.0" encoding="iso-8859-1"?>
<!-- Generator: Adobe Illustrator 16.0.0, SVG Export Plug-In . SVG Version: 6.00 Build 0)  -->
<!DOCTYPE svg PUBLIC "-//W3C//DTD SVG 1.1//EN" "http://www.w3.org/Graphics/SVG/1.1/DTD/svg11.dtd">
<svg version="1.1" id="Layer_1" xmlns="http://www.w3.org/2000/svg" xmlns:xlink="http://www.w3.org/1999/xlink" x="0px" y="0px"
	 width="31.999px" height="32px" viewBox="0 0 31.999 32" style="enable-background:new 0 0 31.999 32;" xml:space="preserve">
<g>
	<path d="M25.302,8.828c0,0-0.609,0.271-1.499,0.94c-1.25-1.546-2.936-2.723-4.872-3.339c-0.467-1.517-1.508-1.94-3.03-1.965V4.464
		c-0.008,0-0.045,0-0.054,0v0.001c-1.515,0.024-2.553,0.437-3.022,1.934c-1.879,0.578-3.523,1.685-4.773,3.141
		C6.947,8.396,5.886,7.364,5.886,7.364L5.537,7.662l2.071,2.438c-0.116,0.157-0.234,0.313-0.342,0.477L5.103,8.029L4.628,8.433
		l2.298,2.705c-0.082,0.144-0.158,0.289-0.233,0.437L4.276,8.731L3.804,9.135l2.593,3.053c-0.085,0.2-0.155,0.407-0.228,0.613
		L3.367,9.503l-0.35,0.299c0,0,1.606,2.304,2.881,3.897c-0.202,0.803-0.321,1.637-0.321,2.501c0,4.251,2.602,7.904,6.297,9.455
		c0.054,0.215,0.154,0.42,0.338,0.573c0.022,0.019,0.112,0.094,0.136,0.113c0.441,0.371,1.084,0.319,1.478-0.09
		c0.286,0.057,0.577,0.101,0.871,0.133c0,0.276,0,0.438,0,0.438h0.002c0,0.006-0.002,0.014-0.002,0.021
		c0,0.601,0.487,1.089,1.088,1.089c0.032,0,0.146,0,0.179,0c0.602,0,1.089-0.488,1.089-1.089c0-0.008-0.002-0.016-0.003-0.021h0.003
		c0,0,0-0.166,0-0.452c0.289-0.034,0.576-0.074,0.856-0.133c0,0.001,0.005,0.006,0.005,0.006l0.002-0.001
		c0.004,0.006,0.007,0.013,0.012,0.019c0.39,0.458,1.077,0.513,1.535,0.124c0.023-0.02,0.112-0.095,0.136-0.112
		c0.217-0.186,0.336-0.438,0.368-0.701c3.597-1.594,6.116-5.191,6.116-9.372c0-1.61-0.384-3.129-1.048-4.486
		c1.464-1.791,2.699-3.329,2.983-3.668C27.402,7.576,25.302,8.828,25.302,8.828z M22.944,10.472
		c-0.466,0.418-0.97,0.926-1.487,1.543c-0.756,0.9-2.037,2.393-2.519,2.967c0.119,0.32,1.341,1.061,0.109,2.528l-0.803,0.961
		l-0.561-0.47c-0.104,0.122-0.333,0.396-0.633,0.755c0-0.225,0-0.441,0-0.644H16.32v-4.95c0.351-0.499,2.89-1.208,2.89-4.42
		c0-0.382-0.017-0.727-0.046-1.046C20.654,8.282,21.954,9.245,22.944,10.472z M18.225,19.855c-0.15,0.181-0.421,0.204-0.601,0.052
		c-0.181-0.151-0.204-0.42-0.054-0.601c0.152-0.183,0.422-0.205,0.602-0.055C18.353,19.404,18.377,19.674,18.225,19.855z
		 M13.244,8.425c0.028-0.259,0.098-0.476,0.147-0.613c0.062-0.158,0.104-0.267,0.104-0.267c0.021-0.049,0.08-0.074,0.136-0.056
		c0.059,0.021,0.093,0.066,0.088,0.118c-0.002,0.002-0.022,0.133-0.03,0.27c-0.02,0.132-0.012,0.309,0.002,0.549
		c0.012,0.21,0.045,0.466,0.105,0.762c0.022,0.127,0.056,0.265,0.097,0.402c0.034,0.123,0.09,0.262,0.147,0.367
		c0.284,0.483,0.513,0.963,0.815,1.28c0.062,0.061,0.124,0.124,0.18,0.179c0.078,0.078,0.146,0.147,0.204,0.192
		c0.088,0.079,0.152,0.115,0.152,0.116c0.045,0.026,0.069,0.074,0.059,0.118c-0.016,0.043-0.059,0.073-0.109,0.071
		c-0.012,0-0.079-0.008-0.185-0.04c-0.025-0.011-0.053-0.021-0.079-0.032l-0.046-0.021c-0.129-0.058-0.305-0.138-0.487-0.268
		c-0.574-0.385-0.798-0.842-1.063-1.307c-0.084-0.165-0.14-0.313-0.185-0.489c-0.032-0.154-0.059-0.309-0.075-0.479
		C13.198,8.952,13.222,8.651,13.244,8.425z M15.873,18.758c0.236,0,0.428,0.191,0.428,0.427s-0.191,0.427-0.428,0.427
		s-0.426-0.191-0.426-0.427S15.637,18.758,15.873,18.758z M12.585,7.663c-0.03,0.328-0.048,0.685-0.048,1.079
		c0,3.227,2.54,3.835,2.889,4.402v4.968h-0.729c0,0.127,0,0.378,0,0.708c-0.223-0.262-0.436-0.511-0.628-0.739l-0.558,0.475
		l-3.464-4.077c0.295-0.518,0.399-1.299,0.454-1.974c0.021-0.251-0.761-1.168-1.685-2.159C9.813,9.154,11.109,8.227,12.585,7.663z
		 M14.142,19.987c-0.179,0.153-0.45,0.131-0.602-0.049c-0.153-0.18-0.131-0.448,0.048-0.603c0.179-0.152,0.449-0.131,0.602,0.049
		C14.344,19.564,14.322,19.835,14.142,19.987z M8.345,10.967l0.975,1.147l-0.434,0.369l-0.862-1.016
		C8.126,11.298,8.231,11.13,8.345,10.967z M7.696,12.046l0.714,0.841l-0.166,0.14l-0.018,0.018l-0.166,0.14l-0.582-0.685
		C7.547,12.346,7.62,12.195,7.696,12.046z M7.221,13.156l0.364,0.43L7.15,13.957l-0.132-0.155
		C7.078,13.583,7.146,13.368,7.221,13.156z M6.688,16.2c0-0.489,0.05-0.966,0.124-1.435c0.24,0.25,0.432,0.413,0.533,0.421
		c0.676,0.055,1.463,0.077,2.021-0.13l3.464,4.077l-0.557,0.473c0.232,0.274,1.079,1.271,2.046,2.409
		c-0.994,1.188-1.878,2.243-2.142,2.559C8.95,23.161,6.688,19.941,6.688,16.2z M14.676,25.26c0.008-0.009,0.013-0.016,0.021-0.024
		c0,0.01,0,0.018,0,0.027C14.689,25.262,14.683,25.261,14.676,25.26z M16.301,26.815c0,0.236-0.191,0.428-0.428,0.428
		s-0.426-0.191-0.426-0.428c0-0.163,0.094-0.3,0.229-0.372c0.052,0.001,0.103,0.008,0.154,0.008c0.079,0,0.156-0.01,0.234-0.012
		C16.203,26.51,16.301,26.649,16.301,26.815z M17.052,25.249c0-0.006,0-0.012,0-0.019c0.005,0.006,0.009,0.011,0.015,0.017
		C17.062,25.248,17.057,25.249,17.052,25.249z M24.972,16.2c0,3.713-2.229,6.91-5.417,8.339c-0.329-0.387-1.17-1.376-2.153-2.533
		c0.757-0.901,1.504-1.793,2.089-2.492l-0.561-0.469l3.689-4.401l-0.003-0.002c0.539-0.643,1.097-1.317,1.642-1.98
		C24.717,13.75,24.972,14.946,24.972,16.2z"/>
	<path d="M16,0C7.178,0,0,7.178,0,16s7.178,16,16,16c8.821,0,15.999-7.178,15.999-16S24.821,0,16,0z M16,30.89
		C7.79,30.89,1.11,24.21,1.11,16S7.79,1.11,16,1.11S30.889,7.79,30.889,16S24.21,30.89,16,30.89z"/>
</g>
<g>
</g>
<g>
</g>
<g>
</g>
<g>
</g>
<g>
</g>
<g>
</g>
<g>
</g>
<g>
</g>
<g>
</g>
<g>
</g>
<g>
</g>
<g>
</g>
<g>
</g>
<g>
</g>
<g>
</g>
</svg>
