<?xml version="1.0" encoding="iso-8859-1"?>
<!-- Generator: Adobe Illustrator 16.0.0, SVG Export Plug-In . SVG Version: 6.00 Build 0)  -->
<!DOCTYPE svg PUBLIC "-//W3C//DTD SVG 1.1//EN" "http://www.w3.org/Graphics/SVG/1.1/DTD/svg11.dtd">
<svg version="1.1" id="Layer_1" xmlns="http://www.w3.org/2000/svg" xmlns:xlink="http://www.w3.org/1999/xlink" x="0px" y="0px"
	 width="29.217px" height="32px" viewBox="0 0 29.217 32" style="enable-background:new 0 0 29.217 32;" xml:space="preserve">
<g>
	<path d="M23.262,30.661c0.418,0.018,0.947-0.035,1.193,0.016c-0.03-0.248,0.08-0.748,0.101-1.138
		c0.018-0.321,0.068-0.63,0.115-0.902c0.012-0.066,0.023-0.14,0.035-0.212l-1.94-1.178L19.959,24l1.948-2.655
		c2.251-2.931,7.151-9.314,7.3-9.508c0.193-0.252-2.338,0.893-2.338,0.893s-2.404,1.202-4.25,3.613
		c-0.69,0.903-1.866,2.404-2.309,2.981c0.128,0.304,1.162,1.151-0.282,2.998l0.006,0.005L19.3,23.235l-4.417-5.113l2.122-2.892
		c3.592-4.678,11.412-14.862,11.649-15.173c0.308-0.401-3.73,1.424-3.73,1.424s-3.838,1.92-6.782,5.767
		c-1.101,1.44-2.978,3.837-3.683,4.758c0.206,0.485,1.854,1.839-0.452,4.785l0.01,0.007l-0.133,0.166l-2.231-2.584
		c0.604-0.854,1.051-2.212,0.549-3.253c-0.63-1.312-6.972-7.764-6.972-7.764L4.819,3.702l5.689,7.023l-0.68,0.564L3.943,4.432
		L3.424,4.865l5.667,7.04L8.831,12.12l-0.028,0.023L8.543,12.36L2.641,5.518L2.089,5.976l5.714,7.001l-0.705,0.588L1.316,6.62
		L0.861,6.998c0,0,5.185,7.237,6.242,8.037c0.87,0.66,2.495,0.621,3.494,0.219l2.309,2.918l-4.129,5.104l-2.015-2.333
		c0.377-0.534,0.659-1.386,0.344-2.037c-0.395-0.823-4.369-4.866-4.369-4.866l-0.255,0.213l3.563,4.401l-0.426,0.353L1.931,14.71
		l-0.325,0.271l3.55,4.411l-0.162,0.135l-0.017,0.015l-0.163,0.136L1.115,15.39L0.77,15.678l3.581,4.388l-0.442,0.367l-3.623-4.352
		L0,16.317c0,0,3.25,4.536,3.911,5.036c0.545,0.415,1.565,0.39,2.19,0.139l2.037,2.573l-2.379,2.941l-1.88,1.247
		c0.034,0.17,0.084,0.37,0.128,0.53c0.063,0.235,0.135,0.502,0.182,0.766c0.077,0.411,0.245,0.916,0.25,1.167
		c0.233-0.083,0.749-0.089,1.132-0.154c0.317-0.055,0.63-0.073,0.905-0.089c0.067-0.003,0.141-0.008,0.214-0.014l0.72-2.152
		l1.965-2.678l3.327,4.203l0.083,0.217l0,0l0,0l0.379,0.999c0.033,0.311,0.188,0.764,0.238,0.797
		c0.03,0.021,0.173-0.001,0.346-0.034c0.249,0.007,0.59,0.022,0.907,0.06c0.313,0.038,0.723,0.119,0.77,0.078
		c0.044-0.043,0.046-0.448,0.046-0.763c0-0.133,0.002-0.268,0.007-0.398l0.418-1.248l2.89-3.939l2.346,2.965l0.799,2.113
		c0.172,0.005,0.38-0.003,0.544-0.008C22.717,30.661,22.994,30.649,23.262,30.661z M14.86,28.725l-0.765,0.507l-0.37-0.225
		l-3.693-4.275l3.879-5.287l4.181,5.283L14.86,28.725z"/>
	<path d="M25.047,28.638c-0.044,0.27-0.097,0.576-0.113,0.885c-0.033,0.616-0.064,1.357-0.064,1.363l0.052,0.296l-0.289-0.079
		c-0.007-0.001-0.75-0.046-1.416-0.073c-0.261-0.01-0.525-0.001-0.782,0.01c-0.155,0.005-0.298,0.009-0.43,0.01l0.253,0.663
		c0,0,1.085-0.002,1.987,0.105c0.498,0.062,1.153,0.19,1.225,0.125c0.074-0.069,0.076-0.714,0.075-1.218
		c-0.002-0.843,0.088-1.805,0.088-1.805l-0.575-0.351C25.055,28.593,25.049,28.614,25.047,28.638z"/>
	<path d="M5.668,30.927c-0.606,0.104-1.337,0.238-1.343,0.239L4.05,31.283l0.014-0.299c0-0.006-0.122-0.742-0.244-1.396
		c-0.047-0.258-0.115-0.515-0.183-0.76c-0.039-0.15-0.075-0.289-0.104-0.417l-0.591,0.394c0,0,0.244,1.057,0.338,1.962
		c0.051,0.497,0.072,1.165,0.152,1.221c0.083,0.057,0.711-0.083,1.204-0.196c0.82-0.191,1.778-0.313,1.778-0.313l0.214-0.642
		c-0.024,0.003-0.046,0.004-0.07,0.004C6.285,30.855,5.975,30.874,5.668,30.927z"/>
</g>
<g>
</g>
<g>
</g>
<g>
</g>
<g>
</g>
<g>
</g>
<g>
</g>
<g>
</g>
<g>
</g>
<g>
</g>
<g>
</g>
<g>
</g>
<g>
</g>
<g>
</g>
<g>
</g>
<g>
</g>
</svg>
