<?xml version="1.0" encoding="iso-8859-1"?>
<!-- Generator: Adobe Illustrator 16.0.0, SVG Export Plug-In . SVG Version: 6.00 Build 0)  -->
<!DOCTYPE svg PUBLIC "-//W3C//DTD SVG 1.1//EN" "http://www.w3.org/Graphics/SVG/1.1/DTD/svg11.dtd">
<svg version="1.1" id="Layer_1" xmlns="http://www.w3.org/2000/svg" xmlns:xlink="http://www.w3.org/1999/xlink" x="0px" y="0px"
	 width="32px" height="31.24px" viewBox="0 0 32 31.24" style="enable-background:new 0 0 32 31.24;" xml:space="preserve">
<g>
	<path d="M11.688,4.426h-0.516v7.26h-0.667v-7.26H9.75v7.26H9.083v-7.26H8.355v7.26H7.689v-7.26H7.016c0,0-1.033,7.736-0.448,8.61
		c0.471,0.702,1.223,1.265,2.102,1.458l-0.786,15.23h0.003c-0.001,0.008-0.003,0.016-0.003,0.025c0,0.68,0.552,1.231,1.233,1.231
		c0.034,0,0.436,0,0.47,0c0.681,0,1.232-0.552,1.232-1.231c0-0.01-0.001-0.018-0.002-0.025h0.002L10.027,14.5
		c0,0,0.011-0.005,0.028-0.011c0.87-0.198,1.614-0.757,2.08-1.453C12.72,12.163,11.688,4.426,11.688,4.426z"/>
	<path d="M5.147,9.209H4.618v6.887H4.074V9.209H3.195v6.887H2.694V9.209H1.871v6.887H1.333V9.209h-0.69c0,0-1.058,7.375-0.458,8.271
		c0.481,0.72,1.108,1.296,2.009,1.494L1.502,29.327h0.003c-0.001,0.008-0.003,0.017-0.003,0.025c0,0.697,0.451,1.218,1.149,1.218
		c0.035,0,0.446,0,0.481,0c0.698,0,1.157-0.521,1.157-1.218c0-0.009-0.001-0.018-0.002-0.025h0.002L3.583,18.979
		c0,0,0.011-0.004,0.028-0.01c0.891-0.203,1.515-0.775,1.994-1.489C6.205,16.584,5.147,9.209,5.147,9.209z"/>
	<path d="M16.984,29.983l-0.602-14.959h0.001c0,0-0.049-13.533-0.049-14.697c-0.009-0.802-0.884,0.031-1.255,0.796
		c-0.371,0.764-1.875,4.191-1.875,7.733c0,1.329-0.027,3.101-0.027,3.949c0,1.518,1.603,0.822,1.603,2.99l0,0l-0.732,14.188h0.003
		c-0.001,0.008-0.003,0.016-0.003,0.024c0,0.681,0.552,1.232,1.233,1.232c0.034,0,0.435,0,0.47,0c0.68,0,1.232-0.552,1.232-1.232
		c0-0.009-0.002-0.017-0.003-0.024H16.984z"/>
	<path d="M24.572,9.585c0-2.484-1.927-4.625-3.791-4.644c-0.001,0-0.002,0-0.003,0c-0.001,0-0.002,0-0.003,0
		c-1.864,0.019-3.791,2.159-3.791,4.644c0,2.277,0.983,4.032,2.335,4.628c0.14,0.068,0.777,0.278,0.777,0.278l-0.786,15.233h0.003
		c-0.001,0.008-0.003,0.016-0.003,0.025c0,0.68,0.552,1.231,1.233,1.231c0.034,0,0.435,0,0.469,0c0.681,0,1.233-0.552,1.233-1.231
		c0-0.01-0.002-0.018-0.003-0.025h0.003L21.454,14.5c0,0,0.774-0.281,0.783-0.286C23.589,13.618,24.572,11.863,24.572,9.585z
		 M19.788,13.532c-0.024,0.047-0.083,0.074-0.142,0.06c-0.014-0.003-0.092-0.025-0.208-0.087c-0.028-0.017-0.058-0.034-0.087-0.055
		l-0.049-0.034c-0.139-0.097-0.33-0.228-0.518-0.42c-0.592-0.577-0.756-1.163-0.969-1.769c-0.062-0.212-0.095-0.397-0.11-0.614
		c-0.007-0.189-0.003-0.375,0.014-0.579c0.042-0.39,0.133-0.738,0.209-1c0.089-0.299,0.217-0.539,0.305-0.689
		c0.107-0.174,0.181-0.292,0.181-0.292c0.035-0.053,0.109-0.07,0.17-0.037c0.064,0.038,0.096,0.099,0.079,0.158
		c-0.001,0.003-0.055,0.152-0.093,0.311c-0.052,0.15-0.08,0.362-0.116,0.647c-0.032,0.25-0.047,0.559-0.042,0.919
		c0,0.155,0.009,0.322,0.028,0.495c0.014,0.15,0.05,0.327,0.095,0.464c0.229,0.629,0.396,1.242,0.684,1.683
		c0.059,0.084,0.12,0.171,0.173,0.248c0.074,0.108,0.14,0.205,0.199,0.271c0.086,0.11,0.154,0.168,0.154,0.169
		C19.794,13.42,19.812,13.482,19.788,13.532z"/>
	<path d="M32,14.149c0-2.484-1.927-4.404-3.791-4.423V9.725c-0.001,0-0.002,0-0.003,0c-0.001,0-0.002,0-0.003,0v0.001
		c-1.864,0.019-3.791,1.938-3.791,4.423c0,2.229,0.943,3.955,2.252,4.586h-0.007c0.14,0.069,0.833,0.452,0.833,0.452L26.916,29.63
		h0.003c-0.001,0.009-0.003,0.017-0.003,0.025c0,0.68,0.34,1.24,1.021,1.24c0.034,0,0.435,0,0.47,0c0.681,0,1.038-0.543,1.038-1.224
		c0-0.009-0.001-0.017-0.002-0.024h0.002l-0.598-10.452c0,0,0.866-0.44,0.875-0.444h-0.005C31.042,18.133,32,16.397,32,14.149z
		 M27.38,17.877c-0.012,0-0.078-0.005-0.18-0.032c-0.025-0.009-0.051-0.017-0.078-0.028l-0.046-0.019
		c-0.126-0.053-0.3-0.122-0.482-0.242c-0.568-0.352-0.801-0.787-1.074-1.228c-0.086-0.156-0.145-0.298-0.194-0.467
		c-0.039-0.148-0.067-0.295-0.09-0.461c-0.035-0.314-0.038-0.894-0.023-1.115c0.019-0.252,0.078-0.464,0.121-0.598
		c0.054-0.156,0.092-0.262,0.092-0.262c0.019-0.049,0.074-0.075,0.128-0.061c0.058,0.02,0.093,0.063,0.09,0.111
		c-0.001,0.003-0.017,0.131-0.019,0.262c-0.015,0.128,0,0.301,0.021,0.532c0.018,0.204,0.074,0.739,0.142,1.023
		c0.027,0.123,0.063,0.252,0.108,0.386c0.037,0.116,0.096,0.25,0.156,0.351c0.291,0.457,0.53,0.912,0.834,1.211
		c0.062,0.057,0.125,0.114,0.181,0.165c0.077,0.073,0.146,0.138,0.204,0.18c0.088,0.072,0.151,0.104,0.151,0.106
		c0.046,0.023,0.069,0.068,0.06,0.112C27.471,17.847,27.429,17.878,27.38,17.877z"/>
</g>
<g>
</g>
<g>
</g>
<g>
</g>
<g>
</g>
<g>
</g>
<g>
</g>
<g>
</g>
<g>
</g>
<g>
</g>
<g>
</g>
<g>
</g>
<g>
</g>
<g>
</g>
<g>
</g>
<g>
</g>
</svg>
