<?xml version="1.0" encoding="iso-8859-1"?>
<!-- Generator: Adobe Illustrator 16.0.0, SVG Export Plug-In . SVG Version: 6.00 Build 0)  -->
<!DOCTYPE svg PUBLIC "-//W3C//DTD SVG 1.1//EN" "http://www.w3.org/Graphics/SVG/1.1/DTD/svg11.dtd">
<svg version="1.1" id="Layer_1" xmlns="http://www.w3.org/2000/svg" xmlns:xlink="http://www.w3.org/1999/xlink" x="0px" y="0px"
	 width="31.999px" height="29.813px" viewBox="0 0 31.999 29.813" style="enable-background:new 0 0 31.999 29.813;"
	 xml:space="preserve">
<path d="M16.3,17.748h-0.875v-6.871H15.42c0-4.289,0-10.067,0-10.877c-0.927,0.042-1.89,2.806-1.89,2.806s-1.191,2.807-1.191,6.554
	c0,1.405-0.028,3.759-0.028,4.656c0.354,0.202,2.045-0.059,2.045,2.234v1.498H13.48c0,1.154,0,10.422,0,10.422h0.003
	c-0.001,0.009-0.003,0.018-0.003,0.026c0,0.72,0.584,1.303,1.304,1.303c0.036,0,0.176,0,0.212,0c0.72,0,1.304-0.583,1.304-1.303
	c0-0.009-0.002-0.018-0.003-0.026H16.3C16.3,28.17,16.3,21.334,16.3,17.748z M14.89,28.674c-0.281,0-0.511-0.229-0.511-0.512
	s0.229-0.511,0.511-0.511c0.283,0,0.512,0.229,0.512,0.511S15.173,28.674,14.89,28.674z M14.89,19.543
	c-0.281,0-0.511-0.229-0.511-0.511s0.229-0.512,0.511-0.512c0.283,0,0.512,0.229,0.512,0.512S15.173,19.543,14.89,19.543z"/>
<path d="M10.842,9.901c0.519-0.519-0.226-8.265-0.226-8.265h-0.55v6.991H9.385V1.637H8.64v6.991H8.379H8.35H8.089V1.637H7.344v6.991
	H6.661V1.637H6.112c0,0-0.744,7.746-0.227,8.265c0.573,0.572,1.275,1.203,1.943,1.447v6.399H6.955c0,1.154,0,10.422,0,10.422h0.003
	c-0.001,0.009-0.003,0.018-0.003,0.026c0,0.72,0.583,1.303,1.304,1.303c0.036,0,0.175,0,0.211,0c0.72,0,1.304-0.583,1.304-1.303
	c0-0.009-0.002-0.018-0.003-0.026h0.003c0,0,0-6.836,0-10.422H8.899v-6.399C9.566,11.104,10.27,10.474,10.842,9.901z M8.364,28.674
	c-0.282,0-0.511-0.229-0.511-0.512s0.229-0.511,0.511-0.511s0.511,0.229,0.511,0.511S8.646,28.674,8.364,28.674z M8.364,19.543
	c-0.282,0-0.511-0.229-0.511-0.511c0-0.283,0.229-0.512,0.511-0.512s0.511,0.229,0.511,0.512
	C8.875,19.314,8.646,19.543,8.364,19.543z"/>
<path d="M4.713,14.888c0.476-0.476-0.207-7.579-0.207-7.579H4.002v6.412H3.376V7.309H2.692v6.412H2.453H2.427H2.188V7.309H1.505
	v6.412H0.879V7.309H0.375c0,0-0.683,7.104-0.207,7.579c0.512,0.513,1.139,1.076,1.737,1.312v3.573H1.031c0,1.155,0,8.711,0,8.711
	h0.002C1.032,28.491,1.031,28.5,1.031,28.51c0,0.719,0.583,1.303,1.304,1.303c0.036,0,0.175,0,0.211,0
	c0.72,0,1.304-0.584,1.304-1.303c0-0.01-0.002-0.019-0.003-0.026H3.85c0,0,0-5.125,0-8.711H2.976v-3.573
	C3.574,15.964,4.201,15.399,4.713,14.888z M2.44,28.986c-0.282,0-0.512-0.229-0.512-0.512c0-0.281,0.229-0.511,0.512-0.511
	s0.511,0.229,0.511,0.511C2.951,28.758,2.723,28.986,2.44,28.986z M2.44,21.567c-0.282,0-0.512-0.229-0.512-0.511
	s0.229-0.512,0.512-0.512s0.511,0.229,0.511,0.512S2.723,21.567,2.44,21.567z"/>
<path d="M24.876,6.647c0-4.129-1.428-5.077-3.959-5.118V1.527c-0.011,0-0.054,0-0.064,0v0.002c-2.531,0.041-3.959,0.973-3.959,5.118
	c0,3.859,3.038,4.589,3.456,5.267v5.943h-0.874c0,1.155,0,10.423,0,10.423h0.003c-0.001,0.009-0.003,0.017-0.003,0.026
	c0,0.719,0.584,1.303,1.304,1.303c0.036,0,0.175,0,0.212,0c0.72,0,1.304-0.584,1.304-1.303c0-0.01-0.002-0.018-0.003-0.026h0.003
	c0,0,0-6.836,0-10.423H21.42v-5.923C21.839,11.338,24.876,10.491,24.876,6.647z M20.249,10.441c-0.014,0-0.095-0.009-0.221-0.048
	c-0.03-0.012-0.063-0.023-0.095-0.038l-0.055-0.025c-0.153-0.069-0.365-0.164-0.584-0.319c-0.687-0.461-0.953-1.008-1.271-1.565
	c-0.1-0.197-0.166-0.374-0.22-0.584c-0.04-0.186-0.07-0.369-0.09-0.572c-0.029-0.391-0.002-0.75,0.025-1.021
	c0.034-0.31,0.116-0.569,0.176-0.733c0.074-0.19,0.126-0.319,0.126-0.319c0.024-0.059,0.095-0.089,0.161-0.067
	c0.07,0.025,0.111,0.08,0.105,0.142c-0.002,0.003-0.026,0.159-0.036,0.322c-0.023,0.157-0.013,0.37,0.003,0.657
	c0.014,0.252,0.054,0.559,0.125,0.912c0.027,0.152,0.066,0.315,0.116,0.481c0.041,0.146,0.108,0.313,0.178,0.439
	c0.339,0.577,0.612,1.15,0.975,1.532c0.073,0.071,0.149,0.146,0.216,0.212c0.093,0.094,0.174,0.177,0.244,0.231
	c0.105,0.094,0.182,0.138,0.182,0.139c0.055,0.031,0.083,0.088,0.069,0.142C20.362,10.408,20.31,10.445,20.249,10.441z
	 M20.885,28.783c-0.282,0-0.511-0.229-0.511-0.511s0.229-0.511,0.511-0.511s0.512,0.229,0.512,0.511S21.167,28.783,20.885,28.783z
	 M20.885,19.652c-0.282,0-0.511-0.229-0.511-0.511s0.229-0.511,0.511-0.511s0.512,0.229,0.512,0.511S21.167,19.652,20.885,19.652z"
	/>
<path d="M31.999,10.961c0-3.514-1.215-4.321-3.369-4.356V6.604c-0.01,0-0.046,0-0.056,0v0.001c-2.153,0.035-3.369,0.828-3.369,4.356
	c0,3.101,2.304,3.828,2.862,4.385v4.113h-0.875c0,1.155,0,8.711,0,8.711h0.003c-0.001,0.009-0.003,0.018-0.003,0.026
	c0,0.72,0.584,1.303,1.304,1.303c0.036,0,0.176,0,0.212,0c0.72,0,1.304-0.583,1.304-1.303c0-0.009-0.002-0.018-0.003-0.026h0.003
	c0,0,0-5.125,0-8.711h-0.875v-4.085C29.695,14.864,31.999,14.05,31.999,10.961z M28.011,14.199c-0.026-0.01-0.051-0.018-0.078-0.03
	l-0.045-0.019c-0.126-0.056-0.298-0.129-0.479-0.252c-0.562-0.36-0.785-0.801-1.051-1.246c-0.083-0.158-0.14-0.302-0.187-0.471
	c-0.035-0.148-0.061-0.296-0.082-0.463c-0.027-0.314-0.021-0.894-0.003-1.115c0.024-0.252,0.088-0.462,0.133-0.596
	c0.057-0.154,0.097-0.26,0.097-0.26c0.021-0.049,0.075-0.073,0.129-0.059c0.058,0.021,0.092,0.064,0.088,0.113
	c-0.001,0.003-0.02,0.132-0.023,0.262c-0.018,0.127-0.006,0.301,0.012,0.532c0.014,0.204,0.061,0.74,0.123,1.026
	c0.025,0.123,0.058,0.252,0.102,0.388c0.034,0.116,0.092,0.252,0.149,0.353c0.281,0.464,0.514,0.922,0.812,1.226
	c0.062,0.06,0.122,0.118,0.178,0.17c0.076,0.074,0.145,0.141,0.2,0.184c0.087,0.072,0.15,0.105,0.15,0.107
	c0.045,0.025,0.067,0.069,0.056,0.114c-0.01,0.042-0.053,0.072-0.102,0.071C28.178,14.234,28.111,14.228,28.011,14.199z
	 M28.603,28.674c-0.283,0-0.512-0.229-0.512-0.512s0.229-0.511,0.512-0.511c0.281,0,0.511,0.229,0.511,0.511
	S28.884,28.674,28.603,28.674z M28.603,21.255c-0.283,0-0.512-0.229-0.512-0.512s0.229-0.511,0.512-0.511
	c0.281,0,0.511,0.229,0.511,0.511S28.884,21.255,28.603,21.255z"/>
<g>
</g>
<g>
</g>
<g>
</g>
<g>
</g>
<g>
</g>
<g>
</g>
<g>
</g>
<g>
</g>
<g>
</g>
<g>
</g>
<g>
</g>
<g>
</g>
<g>
</g>
<g>
</g>
<g>
</g>
</svg>
