<?xml version="1.0" encoding="iso-8859-1"?>
<!-- Generator: Adobe Illustrator 16.0.0, SVG Export Plug-In . SVG Version: 6.00 Build 0)  -->
<!DOCTYPE svg PUBLIC "-//W3C//DTD SVG 1.1//EN" "http://www.w3.org/Graphics/SVG/1.1/DTD/svg11.dtd">
<svg version="1.1" id="Layer_1" xmlns="http://www.w3.org/2000/svg" xmlns:xlink="http://www.w3.org/1999/xlink" x="0px" y="0px"
	 width="31.999px" height="32px" viewBox="0 0 31.999 32" style="enable-background:new 0 0 31.999 32;" xml:space="preserve">
<g>
	<path d="M25.438,9.498c0,0-0.564,0.145-1.42,0.559c-1.382-1.838-3.361-3.192-5.651-3.779c-0.564-1.205-1.503-2.058-2.836-2.081
		V4.194c-0.01,0-0.05,0-0.061,0v0.002c-1.464,0.025-2.472,0.99-3.025,2.338c-1.779,0.625-3.34,1.718-4.52,3.144
		C7.221,9.079,6.714,8.66,6.714,8.66L6.35,9.024l1.181,1.181c-0.127,0.176-0.249,0.354-0.365,0.538L5.898,9.477L5.405,9.97
		l1.391,1.391c-0.086,0.16-0.16,0.327-0.238,0.492L5.04,10.335l-0.493,0.493l1.716,1.716c-0.084,0.22-0.169,0.439-0.238,0.666
		l-1.93-1.93l-0.365,0.364c0,0,0.961,1.164,2.072,2.433c-0.146,0.686-0.225,1.395-0.225,2.123c0,3.351,1.624,6.322,4.118,8.193
		l-0.582,0.439l0.002,0.003c-0.006,0.005-0.015,0.011-0.022,0.018c-0.561,0.561-0.56,1.472,0.002,2.032
		c0.027,0.028,0.358,0.358,0.387,0.387c0.561,0.563,1.471,0.563,2.031,0.001c0.008-0.007,0.014-0.016,0.019-0.022l0.002,0.003
		l1.038-1.343c0.43,0.145,0.87,0.264,1.322,0.351l-0.131,0.94h0.003c-0.001,0.009-0.003,0.018-0.003,0.028
		c0,0.793,0.644,1.437,1.438,1.437c0.04,0,0.508,0,0.548,0c0.793,0,1.438-0.644,1.438-1.437c0-0.011-0.002-0.02-0.003-0.028h0.003
		l-0.106-0.835c0.637-0.078,1.258-0.209,1.854-0.399l0.97,1.285l0.002-0.003c0.007,0.007,0.011,0.016,0.019,0.023
		c0.561,0.562,1.471,0.561,2.032-0.001c0.027-0.028,0.358-0.36,0.388-0.388c0.561-0.561,0.562-1.471,0-2.031
		c-0.007-0.008-0.015-0.013-0.022-0.019l0.002-0.002l-0.465-0.359c2.555-1.866,4.225-4.875,4.225-8.273
		c0-1.511-0.337-2.941-0.927-4.234c1.699-1.711,3.003-3.037,3.1-3.134C28.514,8.573,25.438,9.498,25.438,9.498z M11.01,26.602
		c-0.277,0.277-0.773,0.23-1.109-0.104c-0.335-0.336-0.383-0.832-0.104-1.109c0.278-0.278,0.775-0.232,1.11,0.104
		C11.241,25.826,11.288,26.323,11.01,26.602z M21.566,26.466c-0.335,0.335-0.832,0.382-1.11,0.104
		c-0.278-0.278-0.23-0.775,0.104-1.11c0.334-0.335,0.831-0.382,1.109-0.104C21.948,25.634,21.9,26.131,21.566,26.466z
		 M23.034,10.592c-0.777,0.47-1.668,1.118-2.561,2.011c-0.932,0.932-2.509,2.472-3.104,3.066c0.093,0.337,1.044,1.367,0.058,2.698
		l-0.755,0.762l-0.473,0.357l-0.208-1.627l0.024-4.108c0.331-0.981,2.995-2.078,2.995-4.296c0-0.642-0.069-1.285-0.209-1.892
		C20.491,8.146,21.955,9.209,23.034,10.592z M13.499,7.443c-0.002,0.003-0.034,0.14-0.053,0.282
		c-0.032,0.138-0.037,0.326-0.042,0.58c-0.005,0.224,0.01,0.496,0.049,0.813c0.015,0.138,0.038,0.283,0.07,0.434
		c0.026,0.131,0.075,0.283,0.128,0.399c0.26,0.531,0.463,1.057,0.757,1.417c0.06,0.068,0.121,0.14,0.176,0.203
		c0.075,0.088,0.142,0.167,0.2,0.22c0.087,0.089,0.151,0.133,0.151,0.134c0.046,0.031,0.067,0.084,0.051,0.13
		c-0.018,0.044-0.067,0.072-0.119,0.065c-0.014-0.001-0.084-0.014-0.192-0.057c-0.026-0.012-0.054-0.024-0.081-0.04l-0.046-0.025
		c-0.131-0.073-0.312-0.17-0.495-0.322c-0.574-0.452-0.772-0.953-1.017-1.466c-0.075-0.18-0.12-0.341-0.154-0.53
		c-0.023-0.166-0.037-0.33-0.041-0.511c0-0.347,0.049-0.662,0.091-0.899c0.052-0.271,0.142-0.495,0.204-0.636
		c0.039-0.08,0.072-0.146,0.096-0.194c0.083-0.025,0.169-0.043,0.253-0.065C13.497,7.396,13.504,7.419,13.499,7.443z M12.06,7.881
		c-0.081,0.458-0.122,0.936-0.122,1.417c0,2.704,2.74,3.514,3.118,4.438l0.019,4.087l-0.177,1.267l-0.025-0.02l-2.844-2.877
		c0.265-0.604,0.31-1.466,0.31-2.207c0-0.407-1.963-2.191-3.57-3.585C9.651,9.327,10.779,8.464,12.06,7.881z M8.322,10.997
		l2.659,2.659l-0.452,0.451l-2.557-2.557C8.084,11.362,8.198,11.177,8.322,10.997z M7.627,12.191l2.409,2.41l-0.173,0.173
		l-0.019,0.02l-0.173,0.173l-2.279-2.279C7.463,12.518,7.546,12.355,7.627,12.191z M7.128,13.408l2.051,2.051l-0.452,0.453
		l-1.791-1.791C6.992,13.881,7.053,13.642,7.128,13.408z M6.688,16.2c0-0.357,0.025-0.708,0.065-1.055
		c1.039,1.141,2.015,2.123,2.302,2.123c0.792-0.001,1.722-0.052,2.325-0.367l2.818,2.793l0.518,0.687l-0.036,0.25l-4.064,3.067
		C8.246,22.045,6.688,19.303,6.688,16.2z M13.294,24.976l0.951-1.23l-0.198,1.418C13.792,25.113,13.542,25.047,13.294,24.976z
		 M15.496,27.821c-0.475,0-0.859-0.317-0.859-0.711c0-0.347,0.304-0.62,0.699-0.685c0.153,0.008,0.305,0.023,0.46,0.023
		c0.324,0.102,0.558,0.355,0.558,0.661C16.354,27.504,15.97,27.821,15.496,27.821z M16.938,25.267l-0.299-2.339l1.575,2.087
		C17.799,25.127,17.374,25.214,16.938,25.267z M24.972,16.2c0,3.146-1.598,5.925-4.023,7.569l-4.205-3.252l0.552-0.715l0.765-0.756
		l0.004,0.001c0,0,0.221-0.22,0.598-0.595l3.299-3.258l-0.014-0.014c0.797-0.792,1.604-1.603,2.367-2.368
		C24.734,13.862,24.972,15.003,24.972,16.2z"/>
	<path d="M16,0C7.178,0,0,7.178,0,16s7.178,16,16,16c8.821,0,15.999-7.178,15.999-16S24.821,0,16,0z M16,30.89
		C7.79,30.89,1.11,24.21,1.11,16S7.79,1.11,16,1.11S30.889,7.79,30.889,16S24.21,30.89,16,30.89z"/>
</g>
<g>
</g>
<g>
</g>
<g>
</g>
<g>
</g>
<g>
</g>
<g>
</g>
<g>
</g>
<g>
</g>
<g>
</g>
<g>
</g>
<g>
</g>
<g>
</g>
<g>
</g>
<g>
</g>
<g>
</g>
</svg>
