<?xml version="1.0" encoding="iso-8859-1"?>
<!-- Generator: Adobe Illustrator 16.0.0, SVG Export Plug-In . SVG Version: 6.00 Build 0)  -->
<!DOCTYPE svg PUBLIC "-//W3C//DTD SVG 1.1//EN" "http://www.w3.org/Graphics/SVG/1.1/DTD/svg11.dtd">
<svg version="1.1" id="Layer_1" xmlns="http://www.w3.org/2000/svg" xmlns:xlink="http://www.w3.org/1999/xlink" x="0px" y="0px"
	 width="32px" height="31.579px" viewBox="0 0 32 31.579" style="enable-background:new 0 0 32 31.579;" xml:space="preserve">
<path d="M31.453,7.88l-5.571,5.898l-0.657-0.66l5.733-5.733l-0.482-0.479l-5.769,5.768l-0.545-0.545l5.769-5.769l-0.53-0.53
	l-5.769,5.769l-0.646-0.646l5.954-5.586l-0.5-0.5l-5.488,4.274c0,0-0.199,0.168-0.269,0.237c-0.752,0.752-1.076,1.775-0.968,2.758
	c-0.166,2.734-1.893,3.943-3.047,4.591C18.581,2.013,15.025,0,15.025,0L14.59,0.003c0,0-0.016,11.778-0.021,17.43
	c-0.191-0.19-0.323-0.323-0.377-0.376c-1.585-0.729-3.991-2.337-4.235-3.791c0.771-1.441,0.535-4.215-1.574-6.324
	C6.291,4.85,3.232,4.059,1.189,6.037c0,0-0.001-0.001-0.001-0.001C1.179,6.044,1.146,6.078,1.136,6.086c0,0,0.001,0,0.001,0.001
	c-1.977,2.042-1.187,5.101,0.906,7.193c2.109,2.109,4.883,2.346,6.324,1.574c1.454,0.245,3.062,2.65,3.791,4.235
	c0.15,0.15,0.886,0.885,1.875,1.874c-2.467,2.467-5.262,5.262-5.262,5.262l0.001,0.001c-0.006,0.006-0.014,0.009-0.021,0.017
	c-0.513,0.514-0.512,1.346,0.001,1.859c0.513,0.513,1.348,0.513,1.859,0.001c0.008-0.008,0.011-0.016,0.015-0.021l0.001,0.002
	c0,0,1.893-1.892,3.937-3.936c-0.001,2.793-0.001,6.081-0.001,6.081l0.005,0.005c-0.005,0.005-0.005,0.015-0.002,0.023
	c-0.003,0.727,0.593,1.322,1.319,1.319c0.729,0.005,1.322-0.588,1.319-1.319c0-0.01-0.002-0.018-0.005-0.026l0.008,0.003
	c0,0,0.026-3.471,0.043-6.054c2.053,2.053,3.941,3.941,3.941,3.941l0.002-0.002c0.005,0.006,0.01,0.014,0.017,0.021
	c0.519,0.519,1.36,0.519,1.88,0c0.026-0.026,0.126-0.126,0.153-0.152c0.519-0.52,0.519-1.361,0-1.881
	c-0.007-0.006-0.014-0.012-0.021-0.017l0.002-0.002c0,0-2.81-2.81-5.3-5.301c0.84-0.84,1.457-1.457,1.612-1.612
	c0.569-0.572,1.913-3.992,5.417-4.027c0.004-0.001,0.012-0.003,0.018-0.003c0.824,0.022,1.656-0.25,2.319-0.83
	c0.046-0.041,0.155-0.152,0.155-0.152L32,8.429L31.453,7.88z M6.578,14.062C6.346,14.08,6,14.104,5.601,14.028
	c-0.403-0.061-0.86-0.187-1.333-0.403c-0.25-0.095-0.468-0.217-0.686-0.349l-0.334-0.193c-0.142-0.086-0.235-0.165-0.351-0.252
	c-0.441-0.346-0.814-0.778-1.073-1.231c-0.26-0.453-0.415-0.915-0.49-1.315C1.255,9.883,1.262,9.543,1.268,9.312
	c0.013-0.234,0.047-0.364,0.047-0.364s0.101,0.528,0.417,1.213c0.3,0.692,0.857,1.505,1.621,2.083l0.279,0.203l0.327,0.206
	c0.218,0.135,0.427,0.279,0.625,0.379c0.393,0.226,0.79,0.424,1.137,0.569c0.691,0.305,1.22,0.392,1.22,0.392
	S6.813,14.041,6.578,14.062z"/>
<g>
</g>
<g>
</g>
<g>
</g>
<g>
</g>
<g>
</g>
<g>
</g>
<g>
</g>
<g>
</g>
<g>
</g>
<g>
</g>
<g>
</g>
<g>
</g>
<g>
</g>
<g>
</g>
<g>
</g>
</svg>
