<?xml version="1.0" encoding="iso-8859-1"?>
<!-- Generator: Adobe Illustrator 16.0.0, SVG Export Plug-In . SVG Version: 6.00 Build 0)  -->
<!DOCTYPE svg PUBLIC "-//W3C//DTD SVG 1.1//EN" "http://www.w3.org/Graphics/SVG/1.1/DTD/svg11.dtd">
<svg version="1.1" id="Layer_1" xmlns="http://www.w3.org/2000/svg" xmlns:xlink="http://www.w3.org/1999/xlink" x="0px" y="0px"
	 width="27.881px" height="32px" viewBox="0 0 27.881 32" style="enable-background:new 0 0 27.881 32;" xml:space="preserve">
<path d="M25.055,14.523c0,0-1.968,1.21-3.611,3.521c-0.605,0.85-1.623,2.244-2.035,2.821c-0.772-0.944-1.503-1.84-2.12-2.594
	l-0.899,0.733l-1.034-1.265l4.167-5.858l-0.006-0.001c3.299-4.637,7.74-10.882,8.365-11.756c-1.035-0.669-4.199,1.577-4.199,1.577
	s-3.447,2.119-6.328,6.169c-1.08,1.518-2.921,4.039-3.611,5.01c0.218,0.473,2.092,1.435,0.67,3.708l-3.396-4.153
	c0.479-0.812,0.672-2.05,0.779-3.117c0.098-0.969-7.171-8.296-7.171-8.296L4.06,1.483l5.872,7.179L9.23,9.233L3.36,2.055
	L2.595,2.681l5.87,7.179l-0.267,0.219l-0.03,0.024L7.9,10.322L2.028,3.144L1.264,3.769l5.87,7.179L6.434,11.52L0.562,4.342L0,4.804
	c0,0,5.741,8.577,6.707,8.675c1.07,0.107,2.32,0.165,3.209-0.146l3.654,4.466l-0.487,0.687l-0.947-0.672
	c-0.375,0.527-1.864,2.62-3.457,4.86l-1.657-2.026c0.273-0.462,0.383-1.17,0.444-1.778c0.056-0.553-4.093-4.735-4.093-4.735
	l-0.322,0.263l3.352,4.099l-0.4,0.325l-3.351-4.096l-0.437,0.355l3.351,4.099l-0.152,0.124l-0.017,0.015l-0.153,0.124l-3.352-4.097
	l-0.436,0.357l3.35,4.097l-0.399,0.327l-3.352-4.098l-0.32,0.265c0,0,3.276,4.895,3.828,4.95c0.61,0.063,1.324,0.095,1.832-0.083
	l1.798,2.197c-2.031,2.855-4.069,5.72-4.069,5.72l0.003,0.001c-0.008,0.01-0.016,0.018-0.022,0.027
	c-0.555,0.776-0.372,1.857,0.407,2.411c0.037,0.026,0.188,0.133,0.229,0.164c0.777,0.552,1.857,0.369,2.411-0.407
	c0.005-0.01,0.012-0.021,0.017-0.03l0.004,0.002c0,0,1.371-1.927,3.078-4.327c1.496,1.83,3.695,4.52,3.695,4.52l0.003-0.002
	c0.004,0.007,0.006,0.012,0.01,0.019c0.206,0.251,0.509,0.357,0.811,0.342c0.324,0.016,0.649-0.111,0.851-0.396
	c0.003-0.005,0.007-0.011,0.009-0.017l0.002,0.002c0,0,1.935-2.722,3.513-4.939c2.062,2.522,4,4.892,4,4.892l0.004-0.003
	c0.006,0.01,0.012,0.021,0.02,0.031c0.604,0.738,1.691,0.847,2.432,0.242c0.037-0.032,0.179-0.147,0.216-0.178
	c0.738-0.604,0.849-1.694,0.244-2.433c-0.008-0.009-0.016-0.017-0.024-0.024l0.004-0.003c0,0-2.512-3.069-5.083-6.215l1.724-2.423
	l-0.004-0.002c1.883-2.646,4.418-6.21,4.774-6.709C26.86,13.241,25.055,14.523,25.055,14.523z M6.206,30.545
	c-0.217,0.306-0.64,0.378-0.947,0.16c-0.303-0.216-0.374-0.641-0.158-0.946c0.217-0.306,0.64-0.375,0.944-0.159
	C6.352,29.817,6.422,30.241,6.206,30.545z M24.156,29.622c0.29-0.237,0.716-0.194,0.953,0.096c0.237,0.289,0.196,0.718-0.095,0.955
	c-0.29,0.236-0.716,0.192-0.953-0.098C23.824,30.286,23.867,29.859,24.156,29.622z M16.489,20.248
	c0.29-0.237,0.716-0.194,0.954,0.096c0.237,0.29,0.194,0.718-0.095,0.954c-0.29,0.236-0.716,0.193-0.953-0.095
	C16.157,20.911,16.2,20.485,16.489,20.248z M15.292,19.903l-0.123,0.101c0.005-0.007,0.01-0.015,0.016-0.021l-0.947-0.672
	l0.264-0.372L15.292,19.903z M12.121,19.894c0.216-0.307,0.641-0.378,0.946-0.163c0.306,0.221,0.375,0.643,0.159,0.948
	c-0.218,0.303-0.64,0.376-0.947,0.156C11.976,20.623,11.904,20.199,12.121,19.894z M14.909,30.427
	c0.036,0.016,0.071,0.028,0.102,0.056c0.044,0.04,0.069,0.09,0.09,0.143c0.015,0.039,0.034,0.075,0.035,0.116
	c0.002,0.051-0.016,0.101-0.034,0.149c-0.017,0.044-0.032,0.087-0.064,0.122c-0.034,0.034-0.075,0.053-0.116,0.072
	c-0.049,0.021-0.098,0.044-0.151,0.045c-0.038,0-0.074-0.014-0.111-0.025c-0.056-0.019-0.11-0.04-0.154-0.083
	c-0.027-0.027-0.042-0.061-0.06-0.096c-0.026-0.052-0.046-0.105-0.048-0.161c0-0.044,0.014-0.083,0.028-0.124
	c0.016-0.048,0.037-0.095,0.071-0.134c0.037-0.037,0.081-0.061,0.127-0.08c0.041-0.017,0.081-0.033,0.123-0.036
	C14.802,30.388,14.855,30.405,14.909,30.427z M14.708,29c-0.833-1.019-2.105-2.573-3.176-3.884c1.049-1.476,2.127-2.988,3.035-4.266
	c0.524,0.641,1.774,2.17,3.177,3.885C16.901,25.918,15.567,27.792,14.708,29z"/>
<g>
</g>
<g>
</g>
<g>
</g>
<g>
</g>
<g>
</g>
<g>
</g>
<g>
</g>
<g>
</g>
<g>
</g>
<g>
</g>
<g>
</g>
<g>
</g>
<g>
</g>
<g>
</g>
<g>
</g>
</svg>
