<?xml version="1.0" encoding="iso-8859-1"?>
<!-- Generator: Adobe Illustrator 16.0.0, SVG Export Plug-In . SVG Version: 6.00 Build 0)  -->
<!DOCTYPE svg PUBLIC "-//W3C//DTD SVG 1.1//EN" "http://www.w3.org/Graphics/SVG/1.1/DTD/svg11.dtd">
<svg version="1.1" id="Layer_1" xmlns="http://www.w3.org/2000/svg" xmlns:xlink="http://www.w3.org/1999/xlink" x="0px" y="0px"
	 width="32px" height="30.862px" viewBox="0 0 32 30.862" style="enable-background:new 0 0 32 30.862;" xml:space="preserve">
<g>
	<path d="M4.889,16.609C5.382,16.117,4.674,8.75,4.674,8.75H4.151v6.649H3.502V8.75H2.794v6.649H2.545H2.518H2.27V8.75H1.562v6.649
		H0.912V8.75H0.39c0,0-0.708,7.367-0.215,7.859c0.571,0.571,1.278,1.204,1.94,1.408L2.08,20.465l-1.331,8.333h0.003
		c-0.001,0.01-0.003,0.021-0.003,0.032c0,0.896,0.576,1.623,1.473,1.623c0.046,0,0.574,0,0.619,0c0.897,0,1.474-0.727,1.474-1.623
		c0-0.012-0.002-0.022-0.004-0.032h0.004l-1.199-8.293l0.098-2.59C3.795,17.646,4.394,17.104,4.889,16.609z M3.375,28.694
		c0,0.444-0.283,0.804-0.819,0.804c-0.535,0-0.97-0.359-0.97-0.804s0.435-0.804,0.97-0.804C3.092,27.891,3.375,28.25,3.375,28.694z"
		/>
	<path d="M11.353,12.561c0.55-0.55-0.239-8.75-0.239-8.75h-0.581v7.402H9.81V3.811H9.021v7.402H8.745H8.714H8.438V3.811H7.649v7.402
		H6.927V3.811H6.345c0,0-0.788,8.2-0.239,8.75c0.634,0.633,1.417,1.334,2.152,1.564l0.02,4.483L6.795,29.207h0.004
		c-0.001,0.01-0.004,0.021-0.004,0.032c0,0.896,0.728,1.623,1.625,1.623c0.045,0,0.574,0,0.619,0c0.896,0,1.624-0.727,1.624-1.623
		c0-0.012-0.002-0.022-0.003-0.032h0.003l-1.35-10.559l0.027-4.572C10.034,13.806,10.76,13.153,11.353,12.561z M9.724,29.104
		c0,0.444-0.435,0.804-0.97,0.804c-0.536,0-0.971-0.359-0.971-0.804S8.218,28.3,8.754,28.3C9.289,28.3,9.724,28.659,9.724,29.104z"
		/>
	<path d="M17.071,28.798l-1.35-10.559l0.007-1.215l0.004-0.002c0,0,0-0.353,0.002-0.954l0.032-5.238h-0.021
		C15.757,6.076,15.77,0.281,15.77,0.037c0-0.415-1.719,2.783-1.719,2.783s-1.543,3.159-1.543,7.126c0,1.488-0.03,3.979-0.03,4.931
		c0.343,0.194,1.927,0.258,2.202,2.109l0.006,1.213l-1.482,10.599h0.004c-0.001,0.01-0.004,0.021-0.004,0.032
		c0,0.896,0.729,1.623,1.625,1.623c0.045,0,0.573,0,0.619,0c0.896,0,1.624-0.727,1.624-1.623c0-0.012-0.002-0.022-0.004-0.032
		H17.071z M15.162,29.498c-0.536,0-0.971-0.359-0.971-0.804s0.435-0.804,0.971-0.804c0.535,0,0.97,0.359,0.97,0.804
		S15.697,29.498,15.162,29.498z"/>
	<path d="M25.065,8.742c0-2.927-1.272-5.897-3.934-5.943V2.797c-0.012,0-0.057,0-0.068,0v0.002
		c-2.662,0.046-3.992,2.838-3.992,5.766c0,3.056,3.097,3.971,3.524,5.016l0.021,4.619l-1.482,10.599h0.004
		c-0.001,0.01-0.004,0.021-0.004,0.032c0,0.896,0.728,1.623,1.625,1.623c0.045,0,0.574,0,0.619,0c0.896,0,1.624-0.727,1.624-1.623
		c0-0.012-0.002-0.022-0.003-0.032h0.003l-1.35-10.559l0.028-4.643C22.055,12.487,25.065,11.248,25.065,8.742z M22.063,28.694
		c0,0.444-0.435,0.804-0.97,0.804c-0.536,0-0.971-0.359-0.971-0.804s0.435-0.804,0.971-0.804
		C21.628,27.891,22.063,28.25,22.063,28.694z"/>
	<path d="M32,13.789c0-2.68-1.164-5.398-3.6-5.44c0,0,0-0.001,0-0.002c-0.012,0-0.052,0-0.063,0c0,0.001,0,0.002,0,0.002
		c-2.437,0.042-3.654,2.598-3.654,5.277c0,2.727,2.693,3.592,3.192,4.519l0.014,2.281l-1.331,8.334h0.004
		c-0.001,0.01-0.004,0.021-0.004,0.032c0,0.896,0.577,1.623,1.474,1.623c0.045,0,0.574,0,0.619,0c0.896,0,1.474-0.727,1.474-1.623
		c0-0.012-0.003-0.022-0.004-0.032h0.004l-1.199-8.293l0.02-2.338C29.428,17.139,32,16.005,32,13.789z M29.186,28.656
		c0,0.443-0.284,0.804-0.819,0.804c-0.536,0-0.97-0.36-0.97-0.804c0-0.444,0.434-0.804,0.97-0.804
		C28.901,27.853,29.186,28.212,29.186,28.656z"/>
</g>
<path d="M20.371,11.667c0-0.001-0.072-0.051-0.171-0.151c-0.065-0.06-0.141-0.149-0.226-0.249c-0.062-0.071-0.132-0.151-0.199-0.229
	c-0.332-0.407-0.562-1.001-0.855-1.602c-0.06-0.132-0.114-0.304-0.145-0.452c-0.036-0.169-0.063-0.334-0.079-0.489
	c-0.044-0.357-0.061-0.666-0.056-0.918c0.006-0.287,0.012-0.501,0.048-0.656c0.021-0.161,0.058-0.315,0.06-0.318
	c0.011-0.061-0.026-0.118-0.095-0.149c-0.064-0.026-0.137-0.001-0.165,0.056c0,0-0.061,0.125-0.15,0.309
	c-0.071,0.159-0.173,0.412-0.23,0.719c-0.048,0.268-0.103,0.624-0.103,1.017c0.004,0.204,0.02,0.389,0.046,0.577
	c0.038,0.214,0.09,0.396,0.174,0.599c0.276,0.58,0.501,1.146,1.149,1.657c0.207,0.172,0.411,0.281,0.56,0.363l0.052,0.029
	c0.031,0.018,0.062,0.031,0.092,0.045c0.122,0.049,0.202,0.063,0.217,0.064c0.059,0.008,0.115-0.024,0.135-0.074
	C20.447,11.762,20.424,11.702,20.371,11.667z"/>
<path d="M27.629,16.264c0.001-0.002-0.063-0.037-0.147-0.112c-0.055-0.044-0.122-0.112-0.195-0.188
	c-0.055-0.054-0.113-0.114-0.173-0.173c-0.292-0.313-0.512-0.777-0.782-1.246c-0.057-0.103-0.109-0.238-0.143-0.356
	c-0.037-0.136-0.068-0.267-0.089-0.39c-0.057-0.288-0.091-0.824-0.1-1.028c-0.011-0.233-0.019-0.406,0.002-0.532
	c0.007-0.132,0.028-0.26,0.03-0.262c0.005-0.048-0.029-0.094-0.084-0.115c-0.055-0.017-0.111,0.008-0.132,0.055
	c0,0-0.043,0.104-0.104,0.258c-0.048,0.132-0.116,0.341-0.146,0.592c-0.024,0.222-0.046,0.8-0.025,1.116
	c0.016,0.165,0.039,0.313,0.071,0.464c0.042,0.171,0.094,0.314,0.174,0.474c0.255,0.452,0.468,0.897,1.021,1.273
	c0.177,0.127,0.347,0.204,0.472,0.263l0.044,0.021c0.027,0.013,0.052,0.021,0.077,0.031c0.102,0.031,0.166,0.039,0.178,0.04
	c0.049,0.003,0.092-0.027,0.104-0.067C27.694,16.335,27.674,16.289,27.629,16.264z"/>
<g>
</g>
<g>
</g>
<g>
</g>
<g>
</g>
<g>
</g>
<g>
</g>
<g>
</g>
<g>
</g>
<g>
</g>
<g>
</g>
<g>
</g>
<g>
</g>
<g>
</g>
<g>
</g>
<g>
</g>
</svg>
