<?xml version="1.0" encoding="iso-8859-1"?>
<!-- Generator: Adobe Illustrator 16.0.0, SVG Export Plug-In . SVG Version: 6.00 Build 0)  -->
<!DOCTYPE svg PUBLIC "-//W3C//DTD SVG 1.1//EN" "http://www.w3.org/Graphics/SVG/1.1/DTD/svg11.dtd">
<svg version="1.1" id="Layer_1" xmlns="http://www.w3.org/2000/svg" xmlns:xlink="http://www.w3.org/1999/xlink" x="0px" y="0px"
	 width="31.999px" height="32px" viewBox="0 0 31.999 32" style="enable-background:new 0 0 31.999 32;" xml:space="preserve">
<g>
	<path d="M16,0C7.178,0,0,7.178,0,16s7.178,16,16,16c8.821,0,15.999-7.178,15.999-16S24.821,0,16,0z M16,30.89
		C7.79,30.89,1.11,24.21,1.11,16S7.79,1.11,16,1.11S30.889,7.79,30.889,16S24.21,30.89,16,30.89z"/>
	<path d="M27.631,8.862c-0.521,0.18-1.899,0.385-3.47,1.386c-1.324-1.849-3.243-3.239-5.479-3.889
		c-0.649-1.171-1.75-1.981-2.832-1.987c0,0-0.002,0-0.004,0.001c0,0,0-0.001-0.003-0.001c-1.066,0.016-2.148,0.814-2.789,1.968
		c-1.536,0.434-2.923,1.216-4.076,2.256c-0.996-0.96-1.796-1.694-1.796-1.694l-0.35,0.298l1.616,1.903
		C8.311,9.247,8.175,9.395,8.045,9.547L6.38,7.588l-0.515,0.44l1.751,2.062c-0.122,0.164-0.243,0.327-0.356,0.499L5.413,8.416
		L4.919,8.84l1.984,2.335c-0.105,0.187-0.201,0.38-0.295,0.574L4.467,9.228L4.01,9.62c0,0,1.026,1.562,2.168,3.158
		c-0.382,1.072-0.601,2.221-0.601,3.422c0,3.624,1.896,6.807,4.742,8.63l-0.204,0.185l0.003,0.002
		c-0.006,0.004-0.013,0.008-0.019,0.013c-0.415,0.417-0.415,1.093,0.002,1.511c0.02,0.02,0.266,0.267,0.286,0.286
		c0.418,0.418,1.094,0.418,1.51,0c0.005-0.004,0.011-0.011,0.014-0.016l0.002,0.002l0.788-0.854
		c0.626,0.201,1.276,0.341,1.947,0.419l-0.008,0.168l0.001-0.001c0,0.009-0.001,0.015-0.001,0.023
		c0.001,0.608,0.497,1.1,1.107,1.097c0.031,0,0.388-0.002,0.419-0.003c0.61-0.002,1.102-0.499,1.098-1.106
		c0-0.008-0.002-0.015-0.002-0.021h0.002l-0.011-0.193c0.615-0.087,1.215-0.223,1.79-0.413l0.612,0.793l0.001-0.001
		c0.004,0.005,0.008,0.012,0.013,0.02c0.397,0.462,1.093,0.515,1.554,0.118c0.024-0.02,0.297-0.253,0.321-0.274
		c0.462-0.396,0.515-1.092,0.119-1.554c-0.007-0.006-0.012-0.01-0.017-0.016l0.003-0.001l-0.224-0.235
		c2.799-1.832,4.655-4.989,4.655-8.577c0-1.269-0.242-2.479-0.666-3.603c1.648-1.639,3.167-3.151,3.47-3.454
		C29.371,8.646,28.326,8.621,27.631,8.862z M23.267,10.903c-0.242,0.198-0.485,0.409-0.728,0.652
		c-0.813,0.815-1.914,1.884-2.435,2.404c-0.929,0.929,0.477,1.483-0.85,2.813l-2.42,2.182l-0.343-6.035c0,0,0.692-0.256,0.698-0.259
		c1.208-0.539,2.079-2.113,2.07-4.15c-0.001-0.275-0.029-0.545-0.08-0.808C20.833,8.356,22.248,9.477,23.267,10.903z M13.97,7.271
		c-0.004,0.003-0.049,0.136-0.082,0.277c-0.045,0.135-0.07,0.326-0.102,0.581c-0.028,0.223-0.04,0.5-0.033,0.822
		c0,0.139,0.009,0.287,0.026,0.442c0.014,0.135,0.047,0.292,0.089,0.413c0.206,0.563,0.358,1.11,0.619,1.503
		c0.052,0.075,0.106,0.152,0.154,0.222c0.069,0.096,0.124,0.184,0.179,0.242c0.078,0.099,0.14,0.149,0.14,0.15
		c0.044,0.036,0.06,0.09,0.038,0.135c-0.022,0.043-0.074,0.066-0.127,0.054c-0.013-0.002-0.082-0.022-0.187-0.077
		c-0.026-0.014-0.052-0.03-0.077-0.047l-0.044-0.031c-0.125-0.086-0.297-0.202-0.467-0.373c-0.531-0.514-0.68-1.037-0.873-1.578
		c-0.058-0.19-0.088-0.356-0.101-0.55c-0.008-0.169-0.006-0.335,0.01-0.518c0.035-0.35,0.115-0.661,0.184-0.895
		c0.077-0.268,0.19-0.483,0.27-0.618c0.023-0.039,0.037-0.062,0.057-0.094c0.109-0.026,0.214-0.061,0.325-0.083
		C13.967,7.257,13.972,7.264,13.97,7.271z M12.561,7.672c-0.056,0.283-0.089,0.572-0.088,0.869c0.01,2.038,0.897,3.603,2.108,4.129
		c0.126,0.063,0.697,0.248,0.697,0.248l-0.241,5.148l-2.79-2.93c0,0,0.006-0.011,0.012-0.024c0.476-0.641,0.656-1.453,0.566-2.198
		c-0.059-0.487-1.598-2.106-3.053-3.543C10.586,8.648,11.527,8.07,12.561,7.672z M9.173,9.954l2.211,2.604l-0.45,0.388L8.77,10.399
		C8.897,10.245,9.035,10.101,9.173,9.954z M8.353,10.956l2.065,2.431l-0.45,0.388l-1.951-2.296
		C8.124,11.302,8.233,11.126,8.353,10.956z M7.678,12.086l1.796,2.112L9.02,14.587l-1.623-1.911
		C7.481,12.474,7.579,12.279,7.678,12.086z M6.688,16.2c0-0.797,0.113-1.566,0.306-2.305c0.882,1.177,1.704,2.163,2.051,2.26
		c0.729,0.203,1.567,0.148,2.278-0.232l3.596,4.66l-0.004,0.104l-3.736,3.369C8.496,22.461,6.688,19.541,6.688,16.2z M13.549,25.041
		l1.225-1.327l-0.073,1.55C14.308,25.215,13.924,25.138,13.549,25.041z M17.19,25.229l-0.104-1.839l1.233,1.598
		C17.952,25.092,17.575,25.17,17.19,25.229z M24.972,16.2c0,3.272-1.735,6.141-4.327,7.756l-3.097-3.251l3.159-3.424h0.001
		c0,0,1.88-1.869,3.843-3.822C24.823,14.325,24.972,15.245,24.972,16.2z"/>
</g>
<g>
</g>
<g>
</g>
<g>
</g>
<g>
</g>
<g>
</g>
<g>
</g>
<g>
</g>
<g>
</g>
<g>
</g>
<g>
</g>
<g>
</g>
<g>
</g>
<g>
</g>
<g>
</g>
<g>
</g>
</svg>
