<?xml version="1.0" encoding="iso-8859-1"?>
<!-- Generator: Adobe Illustrator 16.0.0, SVG Export Plug-In . SVG Version: 6.00 Build 0)  -->
<!DOCTYPE svg PUBLIC "-//W3C//DTD SVG 1.1//EN" "http://www.w3.org/Graphics/SVG/1.1/DTD/svg11.dtd">
<svg version="1.1" id="Layer_1" xmlns="http://www.w3.org/2000/svg" xmlns:xlink="http://www.w3.org/1999/xlink" x="0px" y="0px"
	 width="32px" height="22.059px" viewBox="0 0 32 22.059" style="enable-background:new 0 0 32 22.059;" xml:space="preserve">
<path d="M22.489,20.231l5.389-7.436l-2.847-1.955l0.322-0.443c0,0,0.348-1.71,2.32-3.289c0.303-0.417,4.135-5.704,4.135-5.704
	l-0.001-0.001c0.005-0.006,0.009-0.009,0.012-0.014c0.284-0.393,0.196-0.939-0.194-1.223c-0.392-0.284-0.939-0.196-1.224,0.195
	c-0.003,0.004-0.006,0.01-0.008,0.015l-0.003-0.001c0,0-3.775,5.209-4.125,5.691c-1.318,2.685-2.463,3.207-2.463,3.207L23.43,9.789
	c-0.406,0.448-5.736,6.313-6.313,6.945c-0.598,0.658-0.941,1.543-0.193,2.087c0.197,0.131,1.01,0.749,1.871,1.41h-2.826v-1.219
	h-4.74c0.208-0.487,0.323-1.023,0.323-1.587c0-2.24-1.815-4.056-4.056-4.056S3.44,15.186,3.44,17.426
	c0,1.09,0.433,2.076,1.131,2.806H0v1.827h32v-1.827H22.489z M18.223,18.055c-0.154,0.214-0.453,0.261-0.668,0.106
	c-0.213-0.155-0.261-0.454-0.106-0.668c0.156-0.214,0.455-0.262,0.669-0.106C18.33,17.541,18.378,17.841,18.223,18.055z"/>
<g>
</g>
<g>
</g>
<g>
</g>
<g>
</g>
<g>
</g>
<g>
</g>
<g>
</g>
<g>
</g>
<g>
</g>
<g>
</g>
<g>
</g>
<g>
</g>
<g>
</g>
<g>
</g>
<g>
</g>
</svg>
