<?xml version="1.0" encoding="iso-8859-1"?>
<!-- Generator: Adobe Illustrator 16.0.0, SVG Export Plug-In . SVG Version: 6.00 Build 0)  -->
<!DOCTYPE svg PUBLIC "-//W3C//DTD SVG 1.1//EN" "http://www.w3.org/Graphics/SVG/1.1/DTD/svg11.dtd">
<svg version="1.1" id="Layer_1" xmlns="http://www.w3.org/2000/svg" xmlns:xlink="http://www.w3.org/1999/xlink" x="0px" y="0px"
	 width="19.727px" height="32px" viewBox="0 0 19.727 32" style="enable-background:new 0 0 19.727 32;" xml:space="preserve">
<path d="M18.399,7.126h-5.065c0.2-1.686,0.562-4.73,0.627-5.277C14.051,1.085,14.494,0,12.956,0C11.417,0,7.36,0,6.802,0
	c-0.56,0-1.33,0.036-1.132,1.361c0.142,0.949,0.498,4.067,0.69,5.765H1.327C0.595,7.126,0,7.72,0,8.453v22.22
	C0,31.406,0.595,32,1.327,32h17.072c0.733,0,1.327-0.594,1.327-1.327V8.453C19.727,7.72,19.133,7.126,18.399,7.126z M9.991,1.999
	c0.69,0,1.252,0.56,1.252,1.251c0,0.69-0.562,1.251-1.252,1.251C9.3,4.501,8.739,3.94,8.739,3.25C8.739,2.559,9.3,1.999,9.991,1.999
	z"/>
<g>
</g>
<g>
</g>
<g>
</g>
<g>
</g>
<g>
</g>
<g>
</g>
<g>
</g>
<g>
</g>
<g>
</g>
<g>
</g>
<g>
</g>
<g>
</g>
<g>
</g>
<g>
</g>
<g>
</g>
</svg>
