<?xml version="1.0" encoding="iso-8859-1"?>
<!-- Generator: Adobe Illustrator 16.0.0, SVG Export Plug-In . SVG Version: 6.00 Build 0)  -->
<!DOCTYPE svg PUBLIC "-//W3C//DTD SVG 1.1//EN" "http://www.w3.org/Graphics/SVG/1.1/DTD/svg11.dtd">
<svg version="1.1" id="Layer_1" xmlns="http://www.w3.org/2000/svg" xmlns:xlink="http://www.w3.org/1999/xlink" x="0px" y="0px"
	 width="18.511px" height="32px" viewBox="0 0 18.511 32" style="enable-background:new 0 0 18.511 32;" xml:space="preserve">
<g>
	<path d="M3.08,0v0.134v0.134c0,0.241,0,0.796,0,1.507c0,0-1.436,0-1.691,0C1.135,1.774,0,1.975,0,3.247
		c0,1.271,1.154,1.531,1.531,1.531c0.308,0,1.223,0,1.549,0c0,1.436,0,2.722,0,3.021c0,0.748,0.045,1.172,0.803,1.507
		c0.398,0.147,2.41,0.669,2.41,2.778c0,2.108-0.982,2.242-1.271,2.756c-0.291,0.514-0.215,1.238-0.102,1.997
		c0.115,0.759,1.641,10.834,1.775,11.782c0.133,0.945,1.109,3.36,4.083,3.379V32c0.006,0,0.011-0.001,0.017-0.001
		S10.807,32,10.813,32v-0.002c2.974-0.019,3.949-2.434,4.083-3.379c0.134-0.948,1.659-11.023,1.774-11.782
		c0.113-0.759,0.189-1.483-0.101-1.997s-1.272-0.647-1.272-2.756c0-2.109,2.012-2.631,2.41-2.778
		c0.759-0.335,0.804-0.759,0.804-1.507c0-0.687,0-6.578,0-7.531V0.134V0H3.08z M12.988,24.502l-0.016,0.08
		c-0.009,0.085-0.025,0.167-0.044,0.248l-0.81,4.492h-0.002c-0.105,0.57-0.604,1.004-1.205,1.004s-1.1-0.434-1.204-1.004H9.686
		l-0.732-4.298c-0.074-0.213-0.116-0.44-0.116-0.679c0-1.146,0.929-2.075,2.075-2.075s2.076,0.93,2.076,2.075
		c0,0.053-0.005,0.104-0.008,0.156H12.988z M14.326,14.572c-0.625,0-5.98,0-6.895,0c-0.916,0,1.127-3.638,1.685-3.638
		s2.956,0,3.581,0S14.951,14.572,14.326,14.572z M18.02,2.912h-7.207h-0.034H3.57V0.268H18.02V2.912z"/>
	<path d="M17.818,4.11V2.227H6.17V4.11H17.818z M6.438,3.842V3.437h11.113v0.405H6.438z M17.551,2.495V2.9H6.438V2.495H17.551z"/>
</g>
<g>
</g>
<g>
</g>
<g>
</g>
<g>
</g>
<g>
</g>
<g>
</g>
<g>
</g>
<g>
</g>
<g>
</g>
<g>
</g>
<g>
</g>
<g>
</g>
<g>
</g>
<g>
</g>
<g>
</g>
</svg>
