<?xml version="1.0" encoding="iso-8859-1"?>
<!-- Generator: Adobe Illustrator 16.0.0, SVG Export Plug-In . SVG Version: 6.00 Build 0)  -->
<!DOCTYPE svg PUBLIC "-//W3C//DTD SVG 1.1//EN" "http://www.w3.org/Graphics/SVG/1.1/DTD/svg11.dtd">
<svg version="1.1" id="Layer_1" xmlns="http://www.w3.org/2000/svg" xmlns:xlink="http://www.w3.org/1999/xlink" x="0px" y="0px"
	 width="23.198px" height="31.699px" viewBox="0 0 23.198 31.699" style="enable-background:new 0 0 23.198 31.699;"
	 xml:space="preserve">
<path d="M22.5,0.004L11.599,0.3L0.698,0.004c0,0-0.814-0.093-0.684,0.584c0.162,1.495,1.843,5.211,4.975,5.587
	c-0.313,6.013,5.644,11.316,5.644,12.037c0,0.722,0.055,4.091-0.007,6.784c0,3.532-3.891,5.574-5.743,6.345
	c-0.399,0.179-0.281,0.357,0.001,0.357c0.268,0,6.097,0,6.686,0c0.031,0,0.059,0,0.059,0c0.589,0,6.419,0,6.687,0
	c0.282,0,0.399-0.179,0-0.357c-1.853-0.771-5.743-2.813-5.743-6.345c-0.063-2.693-0.007-6.063-0.007-6.784
	c0-0.721,5.957-6.024,5.644-12.037c3.132-0.376,4.813-4.092,4.975-5.587C23.313-0.088,22.5,0.004,22.5,0.004z M10.52,15.226
	c-0.174-0.193-0.34-0.396-0.498-0.603c-0.321-0.411-0.604-0.849-0.867-1.296c-0.525-0.896-0.972-1.837-1.344-2.811
	C7.44,9.544,7.145,8.537,6.959,7.5C6.8,6.62,6.733,5.714,6.796,4.804c-0.328-0.029-0.624-0.131-0.889-0.24
	c-0.42-0.18-0.784-0.427-1.132-0.68c-0.351-0.252-0.662-0.547-0.969-0.84C3.501,2.75,3.21,2.443,2.949,2.11
	C3.645,2.585,4.342,3.045,5.07,3.417c0.36,0.189,0.731,0.351,1.094,0.467C6.523,4,6.901,4.037,7.141,3.949l0.578-0.213L7.688,4.401
	c-0.044,0.966,0.062,1.948,0.245,2.92c0.184,0.973,0.448,1.937,0.747,2.893c0.307,0.954,0.651,1.901,1.035,2.835
	c0.194,0.466,0.397,0.93,0.611,1.389c0.108,0.229,0.226,0.452,0.353,0.671c0.136,0.21,0.246,0.449,0.458,0.596
	C10.89,15.614,10.693,15.415,10.52,15.226z"/>
<g>
</g>
<g>
</g>
<g>
</g>
<g>
</g>
<g>
</g>
<g>
</g>
<g>
</g>
<g>
</g>
<g>
</g>
<g>
</g>
<g>
</g>
<g>
</g>
<g>
</g>
<g>
</g>
<g>
</g>
</svg>
