<?xml version="1.0" encoding="iso-8859-1"?>
<!-- Generator: Adobe Illustrator 16.0.0, SVG Export Plug-In . SVG Version: 6.00 Build 0)  -->
<!DOCTYPE svg PUBLIC "-//W3C//DTD SVG 1.1//EN" "http://www.w3.org/Graphics/SVG/1.1/DTD/svg11.dtd">
<svg version="1.1" id="Layer_1" xmlns="http://www.w3.org/2000/svg" xmlns:xlink="http://www.w3.org/1999/xlink" x="0px" y="0px"
	 width="29.405px" height="32px" viewBox="0 0 29.405 32" style="enable-background:new 0 0 29.405 32;" xml:space="preserve">
<g>
	<path d="M17.319,2.521c0.016-0.102,0.031-0.203,0.031-0.31C17.35,0.99,16.36,0,15.139,0s-2.212,0.99-2.212,2.211
		c0,0.148,0.017,0.292,0.044,0.432C9.224,3.591,7.724,6.504,7.724,6.504h15.35C23.074,6.504,21.447,3.315,17.319,2.521z"/>
	<polygon points="14.662,23.038 17.255,23.038 17.255,22.253 14.662,22.253 14.662,20.742 17.255,20.742 17.255,19.958 
		14.662,19.958 14.662,18.255 17.255,18.255 17.255,17.47 14.662,17.47 14.662,15.93 17.255,15.93 17.255,15.145 14.662,15.145 
		14.662,13.791 17.255,13.791 17.255,13.007 14.662,13.007 14.662,11.287 13.794,11.287 13.794,24.758 14.662,24.758 	"/>
	<path d="M17.784,27.751c4.208,0,7.925,0,8.673,0c0.693-8.933-0.954-14.743-0.954-14.743s3.382-2.168,3.902-5.463
		c-4.249,0-22.2,0-22.2,0S6.849,8.191,6.387,9.56c-2.611,0.812-6.269,3.023-6.384,7.296c-0.118,4.41,2.77,7.455,4.244,8.719
		c-0.004,0.706-0.006,1.423,0.008,2.177c1.084,0,4.444,0,8.238,0v0.954H3.345V32h24.108v-3.295h-9.67V27.751z M2.779,16.931
		c0.054-2.009,1.386-3.241,2.69-3.97C5,15.125,4.57,17.993,4.368,21.65C3.5,20.465,2.727,18.86,2.779,16.931z M15.271,8.962
		c2.457,0,4.451,3.922,4.451,8.759c0,4.836-1.994,8.758-4.451,8.758c-2.459,0-4.452-3.922-4.452-8.758
		C10.819,12.884,12.812,8.962,15.271,8.962z"/>
</g>
<g>
</g>
<g>
</g>
<g>
</g>
<g>
</g>
<g>
</g>
<g>
</g>
<g>
</g>
<g>
</g>
<g>
</g>
<g>
</g>
<g>
</g>
<g>
</g>
<g>
</g>
<g>
</g>
<g>
</g>
</svg>
