<?xml version="1.0" encoding="iso-8859-1"?>
<!-- Generator: Adobe Illustrator 16.0.0, SVG Export Plug-In . SVG Version: 6.00 Build 0)  -->
<!DOCTYPE svg PUBLIC "-//W3C//DTD SVG 1.1//EN" "http://www.w3.org/Graphics/SVG/1.1/DTD/svg11.dtd">
<svg version="1.1" id="Layer_1" xmlns="http://www.w3.org/2000/svg" xmlns:xlink="http://www.w3.org/1999/xlink" x="0px" y="0px"
	 width="10.705px" height="21.781px" viewBox="0 0 10.705 21.781" style="enable-background:new 0 0 10.705 21.781;"
	 xml:space="preserve">
<path d="M9.475,21.562c-1.137-0.474-3.525-1.727-3.525-3.896h0.002c0,0,0-2.277,0-3.777c0.463-0.225,0.786-0.695,0.786-1.244
	c0-0.22-0.057-0.427-0.149-0.611c0.574-0.399,1.377-0.983,1.727-1.959c0.563-1.57,0-3.407,0-4.622S11.218,0,10.625,0
	c-0.451,0-2.866,0.196-5.273,0.196C2.945,0.196,0.538,0,0.08,0c-0.594,0,2.311,4.237,2.311,5.452s-0.563,3.052,0,4.622
	c0.35,0.976,1.152,1.559,1.725,1.959c-0.092,0.185-0.148,0.391-0.148,0.611c0,0.549,0.322,1.021,0.787,1.244
	c0,1.501,0,3.777,0,3.777c0,2.169-2.389,3.422-3.527,3.896c-0.244,0.109-0.172,0.22,0.001,0.22c0.164,0,3.744,0,4.105,0
	c0.02,0,0.036,0,0.036,0c0.361,0,3.941,0,4.105,0C9.648,21.781,9.721,21.671,9.475,21.562z M4.107,10.87
	c-0.206-0.213-0.541-0.488-0.777-1.002c-0.059-0.122-0.1-0.296-0.112-0.45c-0.01-0.135-0.019-0.273-0.029-0.417
	c-0.016-0.286-0.032-0.588-0.05-0.9C3.106,7.477,3.102,6.81,3.094,6.144C3.099,5.811,3.103,5.478,3.107,5.15l0.011-0.454
	C3.11,4.508,3.087,4.442,3.051,4.312c-0.169-0.532-0.468-1.04-0.705-1.467C2.097,2.419,1.889,2.054,1.729,1.81
	c-0.153-0.252-0.24-0.396-0.24-0.396s0.535,0.415,1.206,1.183C3.021,2.99,3.399,3.449,3.671,4.091C3.738,4.253,3.8,4.496,3.811,4.63
	C3.83,4.856,3.827,4.972,3.83,5.15c0.005,0.327,0.009,0.66,0.014,0.993C3.836,6.81,3.831,7.477,3.799,8.101
	c-0.018,0.313-0.034,0.614-0.05,0.9C3.738,9.145,3.729,9.283,3.72,9.418c-0.01,0.115-0.009,0.201,0.02,0.313
	c0.11,0.429,0.329,0.805,0.48,1.045c0.158,0.247,0.249,0.388,0.249,0.388S4.326,11.07,4.107,10.87z"/>
<g>
</g>
<g>
</g>
<g>
</g>
<g>
</g>
<g>
</g>
<g>
</g>
<g>
</g>
<g>
</g>
<g>
</g>
<g>
</g>
<g>
</g>
<g>
</g>
<g>
</g>
<g>
</g>
<g>
</g>
</svg>
