<?xml version="1.0" encoding="iso-8859-1"?>
<!-- Generator: Adobe Illustrator 16.0.0, SVG Export Plug-In . SVG Version: 6.00 Build 0)  -->
<!DOCTYPE svg PUBLIC "-//W3C//DTD SVG 1.1//EN" "http://www.w3.org/Graphics/SVG/1.1/DTD/svg11.dtd">
<svg version="1.1" id="Layer_1" xmlns="http://www.w3.org/2000/svg" xmlns:xlink="http://www.w3.org/1999/xlink" x="0px" y="0px"
	 width="8.878px" height="20.3px" viewBox="0 0 8.878 20.3" style="enable-background:new 0 0 8.878 20.3;" xml:space="preserve">
<path d="M8.714,20.132c-1.159-0.357-3.568-1.293-3.648-2.903c0,0,0.013-2.039,0.015-3.703c0.415-0.228,0.698-0.663,0.698-1.169
	c0-0.272-0.082-0.525-0.222-0.737C6.21,10.53,7.408,9.498,8.29,8.217C9.554,6.379,8.093,0,8.093,0S5.506,0.276,4.36,0.276
	C3.214,0.276,0.804,0,0.804,0s-1.461,6.379-0.197,8.217c0.877,1.275,2.068,2.303,2.725,3.387c-0.146,0.215-0.232,0.474-0.232,0.753
	c0,0.514,0.293,0.954,0.717,1.179c0,1.532,0,3.373,0,3.653c-0.04,1.635-2.482,2.583-3.652,2.943c-0.254,0.084-0.179,0.168,0,0.168
	c0.171,0,3.882,0,4.257,0c0.021,0,0.038,0,0.038,0c0.375,0,4.086,0,4.256,0C8.894,20.3,8.969,20.216,8.714,20.132z M1.278,6.502
	C1.023,4.736,1.7,1.127,1.7,1.127S1.742,4.566,2.091,6.33s1.734,4.438,1.734,4.438S1.533,8.268,1.278,6.502z"/>
<g>
</g>
<g>
</g>
<g>
</g>
<g>
</g>
<g>
</g>
<g>
</g>
<g>
</g>
<g>
</g>
<g>
</g>
<g>
</g>
<g>
</g>
<g>
</g>
<g>
</g>
<g>
</g>
<g>
</g>
</svg>
