<?xml version="1.0" encoding="utf-8"?>
<!-- Generator: Adobe Illustrator 16.0.4, SVG Export Plug-In . SVG Version: 6.00 Build 0)  -->
<!DOCTYPE svg PUBLIC "-//W3C//DTD SVG 1.1//EN" "http://www.w3.org/Graphics/SVG/1.1/DTD/svg11.dtd">
<svg version="1.1" id="Layer_1" xmlns="http://www.w3.org/2000/svg" xmlns:xlink="http://www.w3.org/1999/xlink" x="0px" y="0px"
	 width="32.008px" height="34.493px" viewBox="0 0 32.008 34.493" enable-background="new 0 0 32.008 34.493" xml:space="preserve">
<path d="M31.398,14.256c-0.528-0.067-6.153,0.938-7.133,1.174c-0.979,0.236-2.92,0.898-2.92,0.898l0.004,0.107l-0.895,0.068
	c0.011-0.271-0.066-0.548-0.275-0.827c-1.082,0-9.947,0-9.947,0s-8.864,0-9.948,0c-1.145,1.527,1.516,3.797,1.516,3.797H1.399v0.767
	h18.055v-0.764h-0.957c0,0,1.401-1.49,1.829-2.444l1.033-0.079l0.002,0.149c0,0,1.875-0.567,3.027-0.682
	c1.152-0.113,6.272-0.457,7.027-0.518C32.173,15.845,32.241,14.361,31.398,14.256z M2.951,18.976
	c-0.364-0.148-0.812-0.416-1.192-0.789c-0.369-0.37-0.698-0.871-0.692-1.358c-0.013-0.224,0.121-0.465,0.196-0.516
	c0.09-0.074,0.149-0.111,0.149-0.111s-0.003,0.069-0.023,0.184c-0.028,0.132,0.032,0.223,0.1,0.364
	c0.02,0.062,0.1,0.134,0.137,0.206c0.06,0.069,0.123,0.146,0.188,0.223c0.149,0.149,0.298,0.318,0.474,0.478
	c0.331,0.332,0.675,0.679,0.917,0.972c0.239,0.297,0.39,0.526,0.39,0.526S3.319,19.119,2.951,18.976z"/>
</svg>
