<?xml version="1.0" encoding="utf-8"?>
<!-- Generator: Adobe Illustrator 16.0.4, SVG Export Plug-In . SVG Version: 6.00 Build 0)  -->
<!DOCTYPE svg PUBLIC "-//W3C//DTD SVG 1.1//EN" "http://www.w3.org/Graphics/SVG/1.1/DTD/svg11.dtd">
<svg version="1.1" id="Layer_1" xmlns="http://www.w3.org/2000/svg" xmlns:xlink="http://www.w3.org/1999/xlink" x="0px" y="0px"
	 width="32px" height="33px" viewBox="0 0 32 33" enable-background="new 0 0 32 33" xml:space="preserve">
<g>
	<path d="M18.938,15.723c0-0.659,0.155-1.365-1.612-1.365c-0.532,0-2.027,0-3.895,0c-0.512-0.253-1.133-0.449-1.829-0.573
		c0.012-0.36-0.033-1.009-0.443-1.48c-0.207-0.24-0.593-0.524-1.257-0.524s-1.045,0.285-1.248,0.524
		c-0.399,0.473-0.433,1.115-0.415,1.48c-0.698,0.123-1.32,0.319-1.832,0.573c-2.302,0-4.189,0-4.703,0
		c-1.451,0-1.275,0.82-1.275,1.365C1.085,15.723,18.461,15.723,18.938,15.723z M9.26,12.814c0.139-0.163,0.349-0.242,0.642-0.242
		c0.296,0,0.51,0.08,0.654,0.246c0.199,0.229,0.249,0.595,0.252,0.859c-0.29-0.025-0.586-0.043-0.891-0.043s-0.6,0.018-0.89,0.043
		C9.024,13.412,9.065,13.044,9.26,12.814z"/>
	<path d="M31.309,15.01c-0.603-0.067-7.004,0.938-8.115,1.176c-1.113,0.237-3.321,0.9-3.321,0.9l0.003,0.106l-0.619,0.042
		c-0.035-0.271-0.094-0.505-0.148-0.646h0.242v-0.44H0v0.44h0.258c-0.116,0.296-0.239,0.963-0.164,1.586
		c0.09,0.752,0.693,2.206,0.802,2.463H0.421v0.584H0.9h17.547h0.494v-0.584h-0.477c0.098-0.229,0.711-1.7,0.805-2.464
		c0.017-0.142,0.021-0.281,0.02-0.422l0.596-0.04l0.004,0.148c0,0,2.135-0.567,3.445-0.684c1.312-0.113,7.137-0.457,7.996-0.519
		C32.188,16.602,32.266,15.115,31.309,15.01z M1.411,17.97c0.017-0.242,0.098-0.459,0.158-0.641
		c0.138-0.359,0.326-0.546,0.326-0.546s-0.031,0.255-0.044,0.608c-0.014,0.352,0.009,0.818,0.071,1.25
		c0.038,0.249,0.09,0.466,0.136,0.667c0.055,0.21,0.104,0.411,0.166,0.579c0.061,0.167,0.1,0.315,0.142,0.416
		c0.036,0.104,0.058,0.162,0.058,0.162S2.21,20.32,1.98,20.014c-0.105-0.156-0.228-0.343-0.331-0.562
		c-0.097-0.231-0.173-0.483-0.213-0.715c-0.035-0.143-0.026-0.264-0.039-0.394C1.381,18.218,1.403,18.092,1.411,17.97z"/>
</g>
</svg>
