<?xml version="1.0" encoding="iso-8859-1"?>
<!-- Generator: Adobe Illustrator 16.0.0, SVG Export Plug-In . SVG Version: 6.00 Build 0)  -->
<!DOCTYPE svg PUBLIC "-//W3C//DTD SVG 1.1//EN" "http://www.w3.org/Graphics/SVG/1.1/DTD/svg11.dtd">
<svg version="1.1" id="Layer_1" xmlns="http://www.w3.org/2000/svg" xmlns:xlink="http://www.w3.org/1999/xlink" x="0px" y="0px"
	 width="32px" height="23.212px" viewBox="0 0 32 23.212" style="enable-background:new 0 0 32 23.212;" xml:space="preserve">
<g>
	<path d="M0,18.08v1.66c0,0,4.84-0.093,5.914-0.093c1.073,0,2.693,3.564,3.726,3.564c1.033,0,11.079,0,12.456,0
		s3.221-3.564,4.477-3.564s5.428,0,5.428,0v-1.661L0,18.08z"/>
	<path d="M11.215,9.498c0.137,0.256,0.23,0.328,0.352,0.502l0.309,0.373c0.058,0.125,0.15,0.223,0.191,0.359
		c0.101,0.261,0.211,0.535,0.244,0.836c0.1,0.591,0.092,1.208,0.066,1.749c-0.072,1.08-0.177,1.87-0.177,1.87
		s0.578-0.56,1.037-1.667c0.114-0.275,0.228-0.585,0.3-0.929c0.073-0.344,0.145-0.72,0.129-1.127c0-0.4-0.049-0.843-0.209-1.272
		c-0.063-0.22-0.197-0.422-0.301-0.635c-0.059-0.104-0.139-0.195-0.209-0.293l-0.111-0.144L12.78,9.052l-0.013-0.018
		c0.006,0.008,0.018,0.019,0.039,0.044l-0.006-0.009L12.78,9.043c-0.097-0.131-0.288-0.32-0.31-0.402
		c-0.045-0.097-0.11-0.177-0.154-0.325c-0.105-0.256-0.186-0.549-0.229-0.849c-0.09-0.599-0.078-1.218-0.054-1.76
		C12.106,4.623,12.2,3.832,12.2,3.832s-0.571,0.565-1.03,1.67c-0.23,0.55-0.433,1.237-0.443,2.045
		c0.01,0.398,0.017,0.836,0.183,1.268C10.962,9.023,11.086,9.265,11.215,9.498z"/>
	<path d="M14.617,5.664c0.139,0.259,0.23,0.33,0.352,0.504l0.309,0.371c0.059,0.123,0.15,0.226,0.191,0.361
		c0.101,0.258,0.211,0.533,0.244,0.833c0.1,0.593,0.092,1.211,0.066,1.75c-0.07,1.082-0.176,1.87-0.176,1.87s0.577-0.56,1.036-1.666
		c0.115-0.276,0.228-0.584,0.3-0.933c0.074-0.341,0.146-0.716,0.13-1.123c-0.001-0.399-0.048-0.844-0.21-1.273
		c-0.063-0.219-0.197-0.423-0.301-0.635c-0.06-0.104-0.139-0.195-0.211-0.293l-0.109-0.144l-0.057-0.07L16.17,5.198
		c0.005,0.009,0.018,0.021,0.032,0.036L16.182,5.21c-0.095-0.133-0.287-0.319-0.308-0.403c-0.045-0.096-0.111-0.175-0.155-0.326
		c-0.105-0.255-0.187-0.549-0.228-0.847c-0.089-0.601-0.078-1.219-0.054-1.762C15.509,0.789,15.604,0,15.604,0
		s-0.572,0.565-1.031,1.667c-0.229,0.549-0.433,1.239-0.443,2.045c0.011,0.397,0.017,0.837,0.182,1.271
		C14.365,5.191,14.488,5.433,14.617,5.664z"/>
	<path d="M18.822,9.141c0.137,0.257,0.229,0.33,0.35,0.502l0.309,0.372c0.058,0.124,0.15,0.224,0.191,0.361
		c0.102,0.259,0.211,0.533,0.244,0.834c0.1,0.592,0.092,1.21,0.066,1.748c-0.07,1.084-0.176,1.871-0.176,1.871
		s0.578-0.559,1.037-1.667c0.115-0.274,0.227-0.586,0.299-0.93c0.074-0.344,0.145-0.718,0.13-1.126
		c-0.001-0.399-0.048-0.842-0.21-1.271C21,9.614,20.865,9.411,20.762,9.199c-0.06-0.103-0.139-0.193-0.209-0.292l-0.11-0.143
		l-0.057-0.071l-0.013-0.019c0.008,0.008,0.018,0.021,0.038,0.046l-0.004-0.008l-0.021-0.029c-0.097-0.131-0.288-0.317-0.308-0.401
		c-0.047-0.096-0.111-0.177-0.156-0.326c-0.104-0.255-0.186-0.55-0.228-0.848c-0.09-0.6-0.078-1.219-0.054-1.761
		c0.07-1.083,0.166-1.873,0.166-1.873s-0.572,0.566-1.029,1.671c-0.23,0.55-0.434,1.236-0.443,2.042
		c0.008,0.398,0.014,0.839,0.18,1.27C18.568,8.666,18.691,8.908,18.822,9.141z"/>
</g>
<g>
</g>
<g>
</g>
<g>
</g>
<g>
</g>
<g>
</g>
<g>
</g>
<g>
</g>
<g>
</g>
<g>
</g>
<g>
</g>
<g>
</g>
<g>
</g>
<g>
</g>
<g>
</g>
<g>
</g>
</svg>
