<?xml version="1.0" encoding="utf-8"?>
<!-- Generator: Adobe Illustrator 16.0.4, SVG Export Plug-In . SVG Version: 6.00 Build 0)  -->
<!DOCTYPE svg PUBLIC "-//W3C//DTD SVG 1.1//EN" "http://www.w3.org/Graphics/SVG/1.1/DTD/svg11.dtd">
<svg version="1.1" id="Layer_1" xmlns="http://www.w3.org/2000/svg" xmlns:xlink="http://www.w3.org/1999/xlink" x="0px" y="0px"
	 width="32px" height="33.961px" viewBox="0 0 32 33.961" enable-background="new 0 0 32 33.961" xml:space="preserve">
<path d="M31.307,14.522c-0.604-0.066-7.021,0.943-8.138,1.18c-1.116,0.237-3.329,0.903-3.329,0.903l0.002,0.115l-0.357,0.024
	c0.096-0.158-0.014-0.278-0.182-0.299c-2.654,0-18.939,0-19.046,0c-0.117,0-0.331,0.041-0.231,0.37
	c0.078,0.256,0.426,1.889,0.584,2.167H0.354v0.459h0.318h17.854h0.435v-0.459h-0.34c0.116-0.163,0.315-1.438,0.5-1.701l0.733-0.05
	l0.004,0.15c0,0,2.139-0.571,3.453-0.685c1.313-0.114,7.155-0.459,8.019-0.519C32.191,16.118,32.266,14.628,31.307,14.522z"/>
</svg>
