<?xml version="1.0" encoding="iso-8859-1"?>
<!-- Generator: Adobe Illustrator 16.0.0, SVG Export Plug-In . SVG Version: 6.00 Build 0)  -->
<!DOCTYPE svg PUBLIC "-//W3C//DTD SVG 1.1//EN" "http://www.w3.org/Graphics/SVG/1.1/DTD/svg11.dtd">
<svg version="1.1" id="Layer_1" xmlns="http://www.w3.org/2000/svg" xmlns:xlink="http://www.w3.org/1999/xlink" x="0px" y="0px"
	 width="32px" height="31.812px" viewBox="0 0 32 31.812" style="enable-background:new 0 0 32 31.812;" xml:space="preserve">
<path d="M13.311,15.508l0.698-0.698l6.634,6.634l-0.439,0.44l2.738,2.739l0.587,0.587l6.603,6.602l0.621-0.622l-6.602-6.602
	l0.625-0.625l6.602,6.602L32,29.942l-6.603-6.602l-0.587-0.588l-2.738-2.738l-0.622,0.622l-6.635-6.635l0.622-0.622l-0.707-0.707
	c0,0-2.568-0.963-4.529-4.417C9.629,7.684,2.368,0.423,2.368,0.423L2.365,0.425C2.359,0.418,2.355,0.41,2.35,0.403
	c-0.538-0.537-1.41-0.537-1.947,0c-0.537,0.538-0.537,1.409,0,1.947c0.007,0.006,0.014,0.011,0.021,0.018L0.422,2.369
	c0,0,7.151,7.152,7.814,7.815c3.84,2.711,4.367,4.616,4.367,4.616L13.311,15.508z"/>
<g>
</g>
<g>
</g>
<g>
</g>
<g>
</g>
<g>
</g>
<g>
</g>
<g>
</g>
<g>
</g>
<g>
</g>
<g>
</g>
<g>
</g>
<g>
</g>
<g>
</g>
<g>
</g>
<g>
</g>
</svg>
