<?xml version="1.0" encoding="iso-8859-1"?>
<!-- Generator: Adobe Illustrator 16.0.0, SVG Export Plug-In . SVG Version: 6.00 Build 0)  -->
<!DOCTYPE svg PUBLIC "-//W3C//DTD SVG 1.1//EN" "http://www.w3.org/Graphics/SVG/1.1/DTD/svg11.dtd">
<svg version="1.1" id="Layer_1" xmlns="http://www.w3.org/2000/svg" xmlns:xlink="http://www.w3.org/1999/xlink" x="0px" y="0px"
	 width="21.082px" height="32.081px" viewBox="0 0 21.082 32.081" style="enable-background:new 0 0 21.082 32.081;"
	 xml:space="preserve">
<g>
	<path d="M7.122,0.804l0.139,5.859H5.584V0.134C5.566,0.13,5.55,0.12,5.531,0.116C5.275,0.048,5.012,0.008,4.74,0.003V0
		C4.729,0,4.719,0,4.714,0v0.001C4.707,0.001,4.699,0,4.693,0c-0.01,0-0.02,0.002-0.029,0.003C4.655,0.002,4.646,0,4.637,0
		C4.629,0,4.623,0.001,4.615,0.001V0C4.611,0,4.6,0,4.59,0v0.003C4.319,0.008,4.057,0.048,3.802,0.116v6.547H2.125l0.24-5.93
		C0.943,1.651,0,3.327,0,5.101C0,7.497,2.131,9.127,2.818,9.58c0.226,0.149,0.614,0.264,1.061,0.338
		c0.006,0.001,0.012,0.005,0.02,0.006c0.396,3.737-0.086,5.927-0.371,6.694c0,0.652,0,14.332,0,14.332h0.002
		c0,0.008-0.002,0.014-0.002,0.021c0,0.612,0.497,1.109,1.108,1.109c0.011,0,0.019-0.004,0.028-0.006
		c0.01,0.002,0.02,0.006,0.029,0.006c0.611,0,1.108-0.497,1.108-1.109c0-0.008-0.002-0.014-0.003-0.021h0.003c0,0,0-13.68,0-14.332
		c-0.286-0.768-0.767-2.957-0.37-6.694c0.006-0.001,0.012-0.005,0.02-0.006C5.896,9.844,6.285,9.729,6.512,9.58
		c0.688-0.453,3.03-2.124,3.03-4.521C9.542,3.336,8.536,1.726,7.122,0.804z"/>
	<path d="M17.671,0.116c-0.256-0.068-0.521-0.108-0.792-0.113V0c-0.01,0-0.021,0-0.025,0v0.001C16.846,0.001,16.839,0,16.832,0
		c-0.01,0-0.02,0.002-0.028,0.003C16.795,0.002,16.785,0,16.775,0c-0.007,0-0.014,0.001-0.021,0.001V0c-0.004,0-0.016,0-0.025,0
		v0.003c-0.271,0.005-0.536,0.045-0.792,0.113c-2.19,0.5-3.411,2.649-3.411,4.969c0,2.396,1.744,4.042,2.432,4.495
		c0.227,0.149,0.615,0.264,1.061,0.338c0.007,0.001,0.013,0.005,0.02,0.006c0.396,3.737-0.085,5.927-0.371,6.694
		c0,0.652,0,14.332,0,14.332h0.003c-0.001,0.008-0.003,0.014-0.003,0.021c0,0.612,0.498,1.109,1.109,1.109
		c0.01,0,0.019-0.004,0.028-0.006c0.01,0.002,0.019,0.006,0.028,0.006c0.611,0,1.109-0.497,1.109-1.109
		c0-0.008-0.002-0.014-0.003-0.021h0.003c0,0,0-13.68,0-14.332c-0.286-0.768-0.768-2.957-0.371-6.694
		c0.007-0.001,0.013-0.005,0.02-0.006c0.445-0.074,0.834-0.188,1.061-0.338c0.688-0.453,2.432-2.099,2.432-4.495
		C21.082,2.766,19.861,0.616,17.671,0.116z M15.309,8.358c-0.137-0.127-0.339-0.309-0.529-0.563
		c-0.395-0.502-0.875-1.214-1.107-2.083c-0.05-0.236-0.072-0.438-0.076-0.667c0-0.221,0.017-0.429,0.041-0.63
		c0.054-0.402,0.154-0.765,0.252-1.07C13.987,3.039,14.117,2.8,14.22,2.64c0.103-0.168,0.228-0.197,0.222-0.195
		c0.002,0.001-0.09,0.062-0.138,0.238c-0.062,0.167-0.101,0.424-0.149,0.727s-0.075,0.662-0.086,1.041
		c-0.01,0.188-0.006,0.386,0.006,0.574c0.006,0.184,0.037,0.397,0.08,0.568c0.208,0.748,0.586,1.496,0.864,2.045
		c0.151,0.27,0.263,0.506,0.366,0.656c0.091,0.152,0.166,0.232,0.166,0.232S15.451,8.487,15.309,8.358z"/>
</g>
<g>
</g>
<g>
</g>
<g>
</g>
<g>
</g>
<g>
</g>
<g>
</g>
<g>
</g>
<g>
</g>
<g>
</g>
<g>
</g>
<g>
</g>
<g>
</g>
<g>
</g>
<g>
</g>
<g>
</g>
</svg>
