<?xml version="1.0" encoding="iso-8859-1"?>
<!-- Generator: Adobe Illustrator 16.0.0, SVG Export Plug-In . SVG Version: 6.00 Build 0)  -->
<!DOCTYPE svg PUBLIC "-//W3C//DTD SVG 1.1//EN" "http://www.w3.org/Graphics/SVG/1.1/DTD/svg11.dtd">
<svg version="1.1" id="Layer_1" xmlns="http://www.w3.org/2000/svg" xmlns:xlink="http://www.w3.org/1999/xlink" x="0px" y="0px"
	 width="32px" height="31.928px" viewBox="0 0 32 31.928" style="enable-background:new 0 0 32 31.928;" xml:space="preserve">
<g>
	<path d="M18.845,4.623c-0.024-0.06-0.066-0.114-0.102-0.171c-0.012-0.013-0.027-0.024-0.038-0.038L18.845,4.623z"/>
	<path d="M17.675,10.483c-0.366,4.838-4.553,5.92-5.18,6.547C11.788,17.736,0.52,29.007,0.52,29.007l0.003,0.001
		c-0.008,0.01-0.016,0.015-0.026,0.021c-0.661,0.661-0.663,1.739,0,2.399c0.662,0.665,1.739,0.665,2.399,0.002
		c0.011-0.008,0.016-0.018,0.024-0.025c0.016-0.018,11.136-11.136,11.952-11.952c0.697-0.696,2.291-4.655,6.276-5.141
		c0.474,0.271,0.931,0.439,1.325,0.446c6.818-2.264,9.644-10.069,9.522-10.252c-0.122-0.183-7.253,6.918-7.253,6.918
		s6.402-7.769,6.205-7.966c-0.198-0.197-7.716,6.804-7.716,6.804s6.679-7.811,6.506-8.014s-7.964,6.556-7.964,6.556
		s7.107-7.503,6.85-7.67s-8.208,5.961-8.208,5.961s7.281-6.888,7.084-7.085s-7.532,2.248-10.146,9.355
		C17.381,9.707,17.499,10.088,17.675,10.483z"/>
</g>
<g>
</g>
<g>
</g>
<g>
</g>
<g>
</g>
<g>
</g>
<g>
</g>
<g>
</g>
<g>
</g>
<g>
</g>
<g>
</g>
<g>
</g>
<g>
</g>
<g>
</g>
<g>
</g>
<g>
</g>
</svg>
