<?xml version="1.0" encoding="iso-8859-1"?>
<!-- Generator: Adobe Illustrator 16.0.0, SVG Export Plug-In . SVG Version: 6.00 Build 0)  -->
<!DOCTYPE svg PUBLIC "-//W3C//DTD SVG 1.1//EN" "http://www.w3.org/Graphics/SVG/1.1/DTD/svg11.dtd">
<svg version="1.1" id="Layer_1" xmlns="http://www.w3.org/2000/svg" xmlns:xlink="http://www.w3.org/1999/xlink" x="0px" y="0px"
	 width="32px" height="29.438px" viewBox="0 0 32 29.438" style="enable-background:new 0 0 32 29.438;" xml:space="preserve">
<path d="M28.939,26.237l0.01-0.004c0,0-6.967-7.071-7.65-7.755c-0.424-0.124-2.902-1.215-2.946-3.263
	c1.058-1.212,2.596-2.376,4.867-2.399c0.005-0.002,0.016-0.003,0.022-0.003c1.027,0.028,2.064-0.313,2.89-1.034
	c0.058-0.051,0.193-0.189,0.193-0.189L32,4.438l-0.681-0.684l-6.943,7.35l-0.819-0.822l7.145-7.145L30.102,2.54l-7.188,7.189
	l-0.68-0.68l7.189-7.189L28.762,1.2l-7.189,7.188l-0.805-0.804l7.42-6.961L27.565,0l-6.839,5.327c0,0-0.248,0.209-0.334,0.296
	c-0.938,0.938-1.341,2.211-1.207,3.437c-0.094,1.555-0.597,2.71-1.25,3.588C5.188,0.177,0.381,1.511,0.381,1.511L0,1.897
	c0,0,8.572,8.595,13.868,13.902C12.01,17.659,3.051,26.618,3.051,26.618l0.001,0.002c-0.008,0.008-0.018,0.011-0.027,0.021
	c-0.64,0.64-0.638,1.678,0.001,2.317c0.639,0.64,1.679,0.64,2.317,0.002c0.01-0.01,0.013-0.02,0.019-0.026l0.002,0.002
	c0,0,8.97-8.968,10.818-10.815c0.968,0.97,1.615,1.617,1.742,1.744c0.785,0.789,8.69,8.694,8.69,8.694h0.009
	c0,0.009,0.009,0.018,0.018,0.022c0.638,0.643,1.687,0.643,2.325,0c0.647-0.638,0.647-1.683,0-2.325
	C28.958,26.246,28.949,26.242,28.939,26.237z"/>
<g>
</g>
<g>
</g>
<g>
</g>
<g>
</g>
<g>
</g>
<g>
</g>
<g>
</g>
<g>
</g>
<g>
</g>
<g>
</g>
<g>
</g>
<g>
</g>
<g>
</g>
<g>
</g>
<g>
</g>
</svg>
