<?xml version="1.0" encoding="iso-8859-1"?>
<!-- Generator: Adobe Illustrator 16.0.0, SVG Export Plug-In . SVG Version: 6.00 Build 0)  -->
<!DOCTYPE svg PUBLIC "-//W3C//DTD SVG 1.1//EN" "http://www.w3.org/Graphics/SVG/1.1/DTD/svg11.dtd">
<svg version="1.1" id="Layer_1" xmlns="http://www.w3.org/2000/svg" xmlns:xlink="http://www.w3.org/1999/xlink" x="0px" y="0px"
	 width="19.284px" height="19.274px" viewBox="0 0 19.284 19.274" style="enable-background:new 0 0 19.284 19.274;"
	 xml:space="preserve">
<path d="M19.284,3.475l-0.532-0.536l-3.928,4.246l-0.641-0.644l4.086-4.084l-0.471-0.469l-4.12,4.12l-0.531-0.532l4.12-4.119
	l-0.517-0.518l-4.12,4.12l-0.63-0.629l4.301-3.941L15.813,0l-3.846,2.662c0,0-0.194,0.165-0.261,0.232
	c-0.734,0.733-1.05,1.731-0.945,2.691c-0.228,3.731-3.442,4.556-3.922,5.034c-0.531,0.532-6.446,6.446-6.446,6.446l0.004,0.003
	c-0.007,0.006-0.015,0.009-0.022,0.016c-0.5,0.501-0.499,1.313,0.001,1.813c0.501,0.501,1.315,0.501,1.814,0.002
	c0.008-0.008,0.01-0.015,0.016-0.02l0,0c0,0,5.815-5.812,6.432-6.427c0.554-0.56,1.866-3.894,5.283-3.93
	c0.005,0,0.013-0.002,0.018-0.003c0.805,0.023,1.615-0.243,2.261-0.81c0.045-0.039,0.153-0.146,0.153-0.146L19.284,3.475z"/>
<g>
</g>
<g>
</g>
<g>
</g>
<g>
</g>
<g>
</g>
<g>
</g>
<g>
</g>
<g>
</g>
<g>
</g>
<g>
</g>
<g>
</g>
<g>
</g>
<g>
</g>
<g>
</g>
<g>
</g>
</svg>
