<?xml version="1.0" encoding="iso-8859-1"?>
<!-- Generator: Adobe Illustrator 16.0.0, SVG Export Plug-In . SVG Version: 6.00 Build 0)  -->
<!DOCTYPE svg PUBLIC "-//W3C//DTD SVG 1.1//EN" "http://www.w3.org/Graphics/SVG/1.1/DTD/svg11.dtd">
<svg version="1.1" id="Layer_1" xmlns="http://www.w3.org/2000/svg" xmlns:xlink="http://www.w3.org/1999/xlink" x="0px" y="0px"
	 width="32px" height="31.983px" viewBox="0 0 32 31.983" style="enable-background:new 0 0 32 31.983;" xml:space="preserve">
<path d="M32,4.822l-0.74-0.743l-7.543,7.985l-0.89-0.893l7.763-7.763L29.938,2.76l-7.811,7.811l-0.738-0.738L29.2,2.021
	l-0.718-0.717l-7.811,7.811L19.796,8.24l8.063-7.563L27.182,0l-7.431,5.787c0,0-0.27,0.228-0.363,0.322
	c-1.019,1.019-1.458,2.403-1.312,3.734c-0.313,5.183-4.779,6.325-5.444,6.99C11.896,17.572,0.548,28.92,0.548,28.92l0.002,0.002
	c-0.009,0.009-0.019,0.012-0.029,0.022c-0.695,0.695-0.693,1.823,0.001,2.518c0.694,0.695,1.825,0.695,2.518,0.002
	c0.01-0.011,0.014-0.021,0.021-0.028l0.002,0.002c0,0,11.209-11.206,12.065-12.062c0.771-0.775,2.59-5.405,7.334-5.453
	c0.005-0.002,0.017-0.004,0.024-0.004c1.116,0.031,2.242-0.339,3.14-1.123c0.063-0.056,0.209-0.206,0.209-0.206L32,4.822z"/>
<g>
</g>
<g>
</g>
<g>
</g>
<g>
</g>
<g>
</g>
<g>
</g>
<g>
</g>
<g>
</g>
<g>
</g>
<g>
</g>
<g>
</g>
<g>
</g>
<g>
</g>
<g>
</g>
<g>
</g>
</svg>
