<?xml version="1.0" encoding="iso-8859-1"?>
<!-- Generator: Adobe Illustrator 16.0.0, SVG Export Plug-In . SVG Version: 6.00 Build 0)  -->
<!DOCTYPE svg PUBLIC "-//W3C//DTD SVG 1.1//EN" "http://www.w3.org/Graphics/SVG/1.1/DTD/svg11.dtd">
<svg version="1.1" id="Layer_1" xmlns="http://www.w3.org/2000/svg" xmlns:xlink="http://www.w3.org/1999/xlink" x="0px" y="0px"
	 width="14.972px" height="32px" viewBox="0 0 14.972 32" style="enable-background:new 0 0 14.972 32;" xml:space="preserve">
<g>
	<path d="M6.235,0.002L5.419,0l0.243,8.549L4.681,8.547V0L3.964,0.002l0.001,8.599l-0.813,0L3.15,0.001L2.362,0.002l-0.003,8.6
		l-0.961,0L1.673,0L0.928,0L0.023,7.277c0,0-0.023,0.273-0.023,0.377c-0.001,1.122,0.52,2.125,1.333,2.778
		c2.681,3.025,0.852,6.113,0.852,6.845c0.001,0.813,0.001,13.309,0.001,13.309l0.001,0c0,0.01-0.002,0.018-0.002,0.029
		C2.185,31.38,2.807,32,3.571,32c0.766,0,1.389-0.623,1.389-1.385c-0.002-0.012-0.006-0.021-0.006-0.027l0.004,0
		c0,0,0.001-12.341,0-13.284c-0.002-0.851-1.549-4.401,1.037-7.04c0.002-0.004,0.007-0.011,0.011-0.015
		c0.631-0.598,1.047-1.421,1.11-2.348C7.12,7.837,7.118,7.674,7.118,7.674L6.235,0.002z"/>
	<path d="M14.972,16.359l-0.663-4.022l-0.611-0.002l0.182,4.681l-0.733-0.001l-0.001-4.68l-0.537,0.001v4.72l-0.609-0.001
		l0.001-4.719l-0.592,0v4.719h-0.723l0.206-4.721l-0.56,0l-0.678,3.727c0,0-0.017,0.206-0.016,0.283c0,0.841,0.391,1.592,1,2.082
		c2.006,2.268,0.637,4.581,0.637,5.129c0,0.61-0.001,7.384-0.001,7.384l0.004,0c0,0.008-0.003,0.013-0.004,0.021
		C11.274,31.535,11.741,32,12.313,32c0.575,0,1.04-0.466,1.041-1.039c0-0.008-0.003-0.014-0.002-0.019c0,0,0.002-6.66,0.003-7.365
		c-0.003-0.638-1.161-3.298,0.774-5.276c0.003-0.002,0.005-0.008,0.008-0.011c0.476-0.448,0.787-1.065,0.833-1.76
		C14.973,16.483,14.972,16.359,14.972,16.359z"/>
</g>
<g>
</g>
<g>
</g>
<g>
</g>
<g>
</g>
<g>
</g>
<g>
</g>
<g>
</g>
<g>
</g>
<g>
</g>
<g>
</g>
<g>
</g>
<g>
</g>
<g>
</g>
<g>
</g>
<g>
</g>
</svg>
