<?xml version="1.0" encoding="iso-8859-1"?>
<!-- Generator: Adobe Illustrator 16.0.0, SVG Export Plug-In . SVG Version: 6.00 Build 0)  -->
<!DOCTYPE svg PUBLIC "-//W3C//DTD SVG 1.1//EN" "http://www.w3.org/Graphics/SVG/1.1/DTD/svg11.dtd">
<svg version="1.1" id="Layer_1" xmlns="http://www.w3.org/2000/svg" xmlns:xlink="http://www.w3.org/1999/xlink" x="0px" y="0px"
	 width="8.979px" height="32px" viewBox="0 0 8.979 32" style="enable-background:new 0 0 8.979 32;" xml:space="preserve">
<g>
	<path d="M1.633,7.811H0.662V0H0v7.811v4.547v0.438h0.066c1.006,2.632,0.06,5.874,0.06,6.379c0,0.563,0,11.849,0,11.849h0.002
		c0,0.006-0.002,0.012-0.002,0.018C0.126,31.57,0.555,32,1.084,32c0.528,0,0.957-0.43,0.957-0.959c0-0.006-0.002-0.012-0.002-0.018
		h0.002c0,0,0-11.178,0-11.83c0-0.588-0.658-4.287,0.188-6.397h0.066v-0.438V7.811V0H1.633V7.811z"/>
	<path d="M8.355,10.063v4.061H7.44v-4.061H6.816v4.061v2.912v0.438c1.008,2.632,0.061,5.874,0.061,6.379c0,0.563,0,7.082,0,7.082
		h0.002c0,0.007-0.002,0.013-0.002,0.019c0,0.529,0.429,0.958,0.957,0.958c0.529,0,0.958-0.429,0.958-0.958
		c0-0.006-0.002-0.012-0.002-0.019h0.002c0,0,0-6.411,0-7.063c0-0.588-0.658-4.287,0.188-6.397v-0.438v-2.912v-4.061H8.355z"/>
</g>
<g>
</g>
<g>
</g>
<g>
</g>
<g>
</g>
<g>
</g>
<g>
</g>
<g>
</g>
<g>
</g>
<g>
</g>
<g>
</g>
<g>
</g>
<g>
</g>
<g>
</g>
<g>
</g>
<g>
</g>
</svg>
