<?xml version="1.0" encoding="iso-8859-1"?>
<!-- Generator: Adobe Illustrator 16.0.0, SVG Export Plug-In . SVG Version: 6.00 Build 0)  -->
<!DOCTYPE svg PUBLIC "-//W3C//DTD SVG 1.1//EN" "http://www.w3.org/Graphics/SVG/1.1/DTD/svg11.dtd">
<svg version="1.1" id="Layer_1" xmlns="http://www.w3.org/2000/svg" xmlns:xlink="http://www.w3.org/1999/xlink" x="0px" y="0px"
	 width="22.241px" height="32.016px" viewBox="0 0 22.241 32.016" style="enable-background:new 0 0 22.241 32.016;"
	 xml:space="preserve">
<g>
	<path d="M22.241,10.631c0-0.911,0-2.495,0-3.356s-0.787-2.643-0.787-2.643h-0.237v5.034h-0.698V4.632h-0.445h-0.386v5.034h-0.698
		V4.632h-0.297c0,0-0.787,1.782-0.787,2.643s0,2.326,0,3.356c0,0.983,1.434,2.443,1.562,2.571c0.462,2.601-0.074,10.7-0.591,12.097
		c0,0.752,0,4.913,0,4.913l0.003,0c-0.001,0.008-0.003,0.017-0.003,0.026c0,0.705,0.4,1.297,1.106,1.298
		c0.036-0.001,0.172-0.001,0.208-0.001c0.706,0,1.082-0.572,1.082-1.277c0-0.009-0.001-0.018-0.002-0.026h0.002c0,0,0-4.16,0-4.912
		c-0.52-1.403-1.039-9.587-0.56-12.152C20.957,12.898,22.241,11.455,22.241,10.631z"/>
	<path d="M14.732,3.102v7.187h-0.535V3.102c-0.222,0-0.396,0-0.396,0s-0.125,0-0.297,0v7.187H12.97V3.102c-0.23,0-0.435,0-0.495,0
		c-0.158,0-0.97,7.701-0.594,8.394c0.26,0.479,0.937,1.317,1.329,1.79c0.437,2.689-0.095,10.632-0.606,12.014
		c0,0.752,0,4.913,0,4.913l0.003,0c-0.001,0.008-0.003,0.017-0.003,0.026c0,0.705,0.4,1.297,1.107,1.298
		c0.036-0.001,0.172-0.001,0.207-0.001c0.707,0,1.082-0.572,1.082-1.277c0-0.009-0.001-0.018-0.002-0.026h0.002c0,0,0-4.16,0-4.912
		c-0.514-1.388-1.028-9.42-0.575-12.072c0.397-0.478,1.044-1.284,1.298-1.751c0.376-0.693-0.436-8.394-0.594-8.394
		C15.077,3.102,14.92,3.102,14.732,3.102z"/>
	<path d="M8.887,0.169c-0.07,0-0.204,0-0.367,0v9.06H7.808v-9.06c-0.193,0-0.38,0-0.535,0v9.06H6.561v-9.06
		c-0.161,0-0.363,0-0.574,0v8.996H5.274V0.169c-0.163,0-0.296,0-0.366,0c-0.327,0-1.366,9.443-0.95,10.592
		c0.256,0.707,1.095,1.581,1.704,2.149H5.619c0.023,0.009,0.046,0.017,0.07,0.025c0.079,0.073,0.151,0.139,0.219,0.2
		c0.685,1.225,0.167,3.792-0.392,5.3c0,0.752,0,12.278,0,12.278l0.003-0.001c-0.001,0.008-0.003,0.017-0.003,0.026
		c0,0.706,0.572,1.277,1.278,1.278c0.036,0,0.172,0,0.208,0c0.706,0,1.279-0.572,1.279-1.277c0-0.009-0.001-0.018-0.003-0.026h0.003
		c0,0,0-11.525,0-12.277c-0.559-1.508-1.077-4.075-0.393-5.3c0.068-0.062,0.141-0.127,0.219-0.2c0.023-0.009,0.046-0.016,0.07-0.025
		H8.133c0.609-0.569,1.448-1.443,1.704-2.149C10.253,9.612,9.214,0.169,8.887,0.169z"/>
	<path d="M1.321,11.93c0.03-0.568-1.19-1.403-1.22-2.218C0.072,8.898,0.025,6.667,0,5.711c-0.024-0.956,1.612-5.369,1.701-5.613
		c0.089-0.243,0.496-0.003,0.4,0.389C2.004,0.878,0.975,5.014,1.002,6.107C1.03,7.2,1.058,8.324,1.088,9.51
		c0.03,1.187,1.151,1.352,1.175,2.308c0.025,0.956-0.5,4.726-0.607,8.943c-0.106,4.218,0.703,11,0.283,11.223
		c-0.419,0.224-1.407-1.027-1.379-4.145C0.586,24.721,1.293,12.498,1.321,11.93z"/>
</g>
<g>
</g>
<g>
</g>
<g>
</g>
<g>
</g>
<g>
</g>
<g>
</g>
<g>
</g>
<g>
</g>
<g>
</g>
<g>
</g>
<g>
</g>
<g>
</g>
<g>
</g>
<g>
</g>
<g>
</g>
</svg>
