<?xml version="1.0" encoding="iso-8859-1"?>
<!-- Generator: Adobe Illustrator 16.0.0, SVG Export Plug-In . SVG Version: 6.00 Build 0)  -->
<!DOCTYPE svg PUBLIC "-//W3C//DTD SVG 1.1//EN" "http://www.w3.org/Graphics/SVG/1.1/DTD/svg11.dtd">
<svg version="1.1" id="Layer_1" xmlns="http://www.w3.org/2000/svg" xmlns:xlink="http://www.w3.org/1999/xlink" x="0px" y="0px"
	 width="32px" height="32px" viewBox="0 0 32 32" style="enable-background:new 0 0 32 32;" xml:space="preserve">
<g>
	<path d="M16.001,2.506C8.548,2.506,2.507,8.547,2.507,16c0,5.538,3.339,10.291,8.111,12.37l0.176-3.406
		c0-2.71-2.003-1.842-2.003-3.738c0-1.062,0.033-3.276,0.033-4.938c0-4.429,1.881-8.714,2.343-9.67
		c0.465-0.955,1.558-1.997,1.57-0.994c0,1.455,0.062,18.375,0.062,18.375h-0.003l0.207,5.148c0.966,0.22,1.966,0.346,2.998,0.346
		c0.565,0,1.118-0.046,1.666-0.113l0.446-8.649c-1.102-0.242-2.041-0.943-2.63-1.823c-0.73-1.093,0.561-10.764,0.561-10.764h0.841
		v9.076h0.834V8.144h0.911v9.076h0.831V8.144h0.946v9.076h0.833V8.144h0.645c0,0,1.29,9.671,0.56,10.764
		c-0.583,0.871-1.514,1.57-2.601,1.818c-0.02,0.007-0.037,0.014-0.037,0.014l0.421,8.069c5.38-1.775,9.267-6.834,9.267-12.809
		C29.494,8.547,23.453,2.506,16.001,2.506z"/>
	<path d="M16.001,0C7.179,0,0,7.178,0,16c0,8.821,7.179,16,16.001,16C24.822,32,32,24.821,32,16C32,7.178,24.822,0,16.001,0z
		 M16.001,30.807C7.836,30.807,1.193,24.164,1.193,16c0-8.165,6.643-14.808,14.808-14.808c8.164,0,14.807,6.643,14.807,14.808
		C30.808,24.164,24.165,30.807,16.001,30.807z"/>
</g>
<g>
</g>
<g>
</g>
<g>
</g>
<g>
</g>
<g>
</g>
<g>
</g>
<g>
</g>
<g>
</g>
<g>
</g>
<g>
</g>
<g>
</g>
<g>
</g>
<g>
</g>
<g>
</g>
<g>
</g>
</svg>
