<?xml version="1.0" encoding="iso-8859-1"?>
<!-- Generator: Adobe Illustrator 16.0.0, SVG Export Plug-In . SVG Version: 6.00 Build 0)  -->
<!DOCTYPE svg PUBLIC "-//W3C//DTD SVG 1.1//EN" "http://www.w3.org/Graphics/SVG/1.1/DTD/svg11.dtd">
<svg version="1.1" id="Layer_1" xmlns="http://www.w3.org/2000/svg" xmlns:xlink="http://www.w3.org/1999/xlink" x="0px" y="0px"
	 width="32.001px" height="29.374px" viewBox="0 0 32.001 29.374" style="enable-background:new 0 0 32.001 29.374;"
	 xml:space="preserve">
<g>
	<path d="M4.672,20.856v-8.875l0.482,0.001l0.001-0.59c0,0-0.67-1.472-0.047-3.729C5.107,7.187,5.107,1.135,5.107,1.135H5.105
		c0-0.007,0.003-0.012,0.002-0.018C5.108,0.67,4.745,0.307,4.297,0.307S3.486,0.669,3.486,1.117c0,0.007,0.001,0.011,0.001,0.017
		L3.486,1.135c0,0,0,5.961,0,6.514c0.469,2.731-0.105,3.745-0.105,3.745v0.588l0.482,0.001v8.874C1.697,21.061,0,22.883,0,25.104
		c0.002,2.356,1.912,4.267,4.268,4.267c2.356,0,4.268-1.91,4.268-4.268C8.535,22.883,6.839,21.061,4.672,20.856z M3.403,22.62
		c0.147,0,0.267,0.119,0.267,0.267s-0.12,0.267-0.267,0.267c-0.147,0-0.267-0.119-0.267-0.267C3.136,22.74,3.256,22.62,3.403,22.62z
		 M2.914,21.654c0.147,0,0.268,0.119,0.268,0.267c-0.001,0.147-0.12,0.267-0.267,0.267c-0.147-0.001-0.267-0.119-0.267-0.268
		C2.647,21.773,2.768,21.653,2.914,21.654z M3.343,25.214c-0.001,0.147-0.12,0.267-0.267,0.267c-0.147,0-0.268-0.119-0.267-0.267
		c-0.001-0.147,0.119-0.266,0.267-0.266C3.223,24.948,3.342,25.067,3.343,25.214z M2.648,23.098c0.146,0,0.266,0.119,0.267,0.267
		c-0.001,0.146-0.12,0.266-0.267,0.266c-0.147,0-0.268-0.119-0.267-0.266C2.381,23.217,2.501,23.098,2.648,23.098z M2.475,24.207
		c0,0.146-0.119,0.267-0.268,0.267c-0.146,0-0.266-0.12-0.267-0.267c0-0.147,0.12-0.267,0.268-0.267S2.475,24.06,2.475,24.207z
		 M2.208,25.104c0,0.146-0.119,0.267-0.268,0.267c-0.146,0-0.267-0.119-0.267-0.267s0.12-0.267,0.267-0.267
		C2.089,24.837,2.207,24.956,2.208,25.104z M1.889,22.456c0.146,0,0.267,0.119,0.267,0.267c0.001,0.146-0.119,0.267-0.267,0.267
		c-0.147-0.001-0.268-0.12-0.267-0.267C1.621,22.575,1.742,22.456,1.889,22.456z M1.147,23.603c0.147,0,0.267,0.119,0.268,0.266
		c-0.001,0.147-0.12,0.268-0.268,0.268c-0.146,0-0.267-0.119-0.267-0.268C0.881,23.722,1.001,23.603,1.147,23.603z M0.582,25.169
		c0-0.148,0.12-0.267,0.267-0.267c0.148-0.001,0.268,0.119,0.267,0.266c0,0.147-0.119,0.268-0.267,0.268
		C0.702,25.436,0.582,25.315,0.582,25.169z M1.162,26.856c-0.147-0.001-0.268-0.119-0.267-0.267c0-0.147,0.119-0.267,0.267-0.267
		c0.146,0,0.266,0.119,0.266,0.267C1.429,26.737,1.309,26.856,1.162,26.856z M1.868,27.801c-0.147,0-0.267-0.119-0.267-0.267
		c0-0.146,0.119-0.268,0.267-0.267s0.267,0.119,0.267,0.267C2.136,27.682,2.016,27.802,1.868,27.801z M2.043,26.226
		c-0.146,0-0.267-0.119-0.267-0.267c0-0.146,0.12-0.267,0.267-0.266C2.19,25.692,2.31,25.813,2.31,25.96
		C2.311,26.106,2.189,26.227,2.043,26.226z M2.382,26.856c0-0.147,0.119-0.267,0.267-0.267c0.146-0.001,0.266,0.119,0.266,0.267
		s-0.119,0.266-0.267,0.267C2.501,27.123,2.381,27.004,2.382,26.856z M2.914,28.582c-0.146-0.001-0.266-0.119-0.266-0.267
		c-0.001-0.146,0.119-0.267,0.266-0.267c0.147,0.001,0.267,0.119,0.267,0.267C3.182,28.463,3.062,28.583,2.914,28.582z
		 M3.342,27.631c-0.146,0-0.267-0.119-0.267-0.267c0.001-0.147,0.12-0.267,0.267-0.267c0.148,0,0.268,0.119,0.268,0.267
		C3.609,27.513,3.49,27.631,3.342,27.631z M3.477,26.323c-0.146,0-0.268-0.119-0.267-0.267c-0.001-0.147,0.12-0.267,0.267-0.267
		s0.267,0.119,0.267,0.267S3.623,26.323,3.477,26.323z M3.477,24.625c-0.146,0-0.267-0.119-0.267-0.267
		c-0.001-0.147,0.12-0.267,0.267-0.267s0.267,0.119,0.267,0.267S3.623,24.625,3.477,24.625z M6.585,24.136
		c0.147,0,0.267,0.119,0.267,0.266c0,0.147-0.119,0.267-0.268,0.267c-0.146,0-0.266-0.119-0.267-0.267
		C6.318,24.254,6.438,24.136,6.585,24.136z M5.686,21.697c0.147-0.001,0.268,0.118,0.268,0.266s-0.12,0.267-0.268,0.268
		c-0.146-0.001-0.266-0.12-0.267-0.268C5.42,21.815,5.539,21.696,5.686,21.697z M5.246,22.723c0.147,0,0.267,0.119,0.268,0.267
		c-0.001,0.147-0.12,0.267-0.268,0.267s-0.267-0.119-0.267-0.267S5.099,22.723,5.246,22.723z M5.573,24.902
		c0.146,0,0.267,0.118,0.267,0.267c0,0.146-0.12,0.267-0.267,0.267c-0.148-0.001-0.267-0.119-0.267-0.267S5.425,24.901,5.573,24.902
		z M5.171,24.046c0.147,0,0.268,0.118,0.268,0.267c0,0.147-0.12,0.267-0.268,0.267c-0.146,0-0.266-0.119-0.267-0.267
		C4.905,24.165,5.025,24.046,5.171,24.046z M4.333,0.765c0.252,0,0.455,0.203,0.455,0.455c0,0.251-0.205,1.107-0.455,1.107
		c-0.252,0-0.455-0.855-0.455-1.107S4.081,0.765,4.333,0.765z M4.322,22.979c-0.147,0-0.267-0.119-0.267-0.266
		c0-0.148,0.119-0.268,0.267-0.268s0.267,0.119,0.267,0.267S4.47,22.979,4.322,22.979z M4.535,23.992
		c0,0.147-0.119,0.267-0.267,0.267c-0.148,0-0.267-0.119-0.268-0.266c0.001-0.148,0.12-0.267,0.268-0.268
		C4.416,23.726,4.535,23.845,4.535,23.992z M4.002,21.621c-0.001-0.146,0.119-0.266,0.267-0.267c0.146,0.001,0.266,0.12,0.267,0.268
		c0,0.147-0.12,0.267-0.267,0.266C4.121,21.889,4.001,21.77,4.002,21.621z M4.269,28.849c-0.147-0.001-0.267-0.119-0.267-0.267
		c-0.001-0.146,0.119-0.267,0.267-0.267c0.146,0.001,0.267,0.119,0.267,0.267S4.415,28.85,4.269,28.849z M4.269,27.801
		c-0.148,0-0.267-0.119-0.268-0.266c0.001-0.148,0.12-0.267,0.268-0.268c0.147,0,0.267,0.119,0.267,0.267S4.416,27.801,4.269,27.801
		z M4.438,26.59c-0.147,0-0.267-0.119-0.267-0.267s0.119-0.267,0.267-0.267s0.267,0.119,0.267,0.267S4.585,26.589,4.438,26.59z
		 M4.322,25.55c-0.212,0-0.383-0.171-0.383-0.382c0-0.212,0.171-0.383,0.383-0.382c0.211,0,0.382,0.171,0.382,0.383
		C4.704,25.38,4.533,25.551,4.322,25.55z M5.172,25.744c0.146,0,0.267,0.118,0.267,0.267c0,0.147-0.12,0.267-0.267,0.267
		s-0.267-0.118-0.268-0.267C4.905,25.863,5.025,25.744,5.172,25.744z M4.905,27.364c0-0.147,0.12-0.267,0.267-0.267
		s0.267,0.119,0.267,0.267s-0.12,0.267-0.267,0.267S4.905,27.511,4.905,27.364z M5.573,28.673c-0.148,0-0.269-0.119-0.267-0.268
		c-0.002-0.146,0.118-0.266,0.267-0.266c0.146,0,0.267,0.119,0.267,0.267C5.84,28.553,5.72,28.673,5.573,28.673z M5.952,27.122
		c-0.146,0.001-0.267-0.118-0.267-0.267c0.001-0.146,0.12-0.266,0.268-0.266c0.147-0.001,0.267,0.119,0.267,0.267
		S6.101,27.122,5.952,27.122z M5.953,23.819c-0.147,0-0.267-0.119-0.268-0.266c0.001-0.148,0.12-0.268,0.268-0.268
		s0.267,0.119,0.267,0.267S6.1,23.819,5.953,23.819z M6.317,26.183c0.001-0.147,0.12-0.267,0.267-0.267
		c0.148,0,0.268,0.119,0.267,0.267c0.001,0.147-0.118,0.267-0.267,0.267C6.438,26.449,6.318,26.329,6.317,26.183z M6.734,27.897
		c-0.147,0-0.268-0.118-0.267-0.267c-0.001-0.147,0.119-0.267,0.267-0.267S7,27.483,7.001,27.631
		C7.001,27.778,6.882,27.897,6.734,27.897z M6.734,25.551c-0.147-0.001-0.268-0.12-0.267-0.267c0-0.148,0.119-0.267,0.267-0.267
		c0.147-0.001,0.267,0.118,0.267,0.266C7.001,25.432,6.882,25.55,6.734,25.551z M6.801,22.989c-0.147,0-0.268-0.119-0.267-0.267
		c-0.001-0.147,0.119-0.267,0.267-0.267c0.146,0,0.267,0.119,0.267,0.267S6.947,22.989,6.801,22.989z M7.583,26.657
		c-0.146,0-0.266-0.119-0.267-0.267c0.001-0.147,0.12-0.267,0.267-0.267c0.148,0,0.268,0.119,0.267,0.267
		C7.851,26.538,7.731,26.657,7.583,26.657z M8.041,25.053c0,0.146-0.12,0.267-0.267,0.267c-0.147-0.001-0.268-0.12-0.267-0.267
		c0-0.147,0.119-0.268,0.267-0.267C7.921,24.786,8.041,24.905,8.041,25.053z M7.774,23.819c-0.002,0.147-0.12,0.267-0.268,0.267
		c-0.147,0.001-0.267-0.119-0.267-0.267s0.119-0.266,0.267-0.267C7.654,23.553,7.772,23.672,7.774,23.819z"/>
	<path d="M13.104,20.296v-8.021h0.609v-0.604c0,0-0.685-1.51-0.048-3.823c0-0.489,0-6.696,0-6.696h-0.002
		c0-0.006,0.003-0.011,0.003-0.017c-0.001-0.459-0.374-0.832-0.832-0.832c-0.46,0-0.833,0.373-0.832,0.832c0,0.006,0,0.011,0,0.017
		h-0.001c0,0,0.001,6.113,0.001,6.68c0.48,2.801-0.107,3.84-0.107,3.84v0.604h0.609v7.999c0,0-2.479,1.978-2.483,2.535
		c-0.003,0.559-0.018,2.728,0,2.968c0.016,0.241-0.091,3.596,1.406,3.596c0.429,0,1.198,0,1.35-0.001
		c0.016,0.001,0.026,0.002,0.026,0.002c0.148-0.001,0.905-0.001,1.35,0c1.413,0,1.391-3.355,1.406-3.597
		c0.017-0.24,0.003-2.409,0-2.968C15.558,22.287,13.378,20.517,13.104,20.296z M11.094,28.579h-0.333l-0.002-5.602h0.335V28.579z
		 M12.056,28.705l-0.334-0.001v-4.751l0.334-0.001V28.705z M12.404,1.239c0-0.258,0.209-0.467,0.466-0.466
		c0.259,0,0.469,0.208,0.467,0.466c0.002,0.258-0.208,1.136-0.466,1.136C12.613,2.376,12.404,1.497,12.404,1.239z M12.637,28.704
		v-4.097h0.334l0.002,4.098L12.637,28.704z M13.84,28.705h-0.336v-4.753l0.336,0.001V28.705z M14.704,28.517h-0.336v-5.603
		l0.336,0.001V28.517z"/>
	<path d="M21.496,14.417h0.317v-0.71c0,0-0.808-1.774-0.057-4.494c0-0.574,0-7.87,0-7.87l-0.002-0.001
		c0-0.006,0.002-0.012,0.002-0.019c0-0.539-0.438-0.978-0.978-0.978c-0.54,0-0.979,0.438-0.979,0.978
		c0,0.007,0.002,0.012,0.002,0.02h-0.002c0,0,0,7.186,0,7.851c0.567,3.292-0.126,4.514-0.126,4.514v0.71h0.391
		c-0.061,1.189-0.717,3.099-1.417,5.125c-0.841,2.432-1.71,4.948-1.584,6.424c0.136,1.595,0.854,2.418,1.433,2.828
		c0.495,0.351,1.086,0.537,1.661,0.537c0.214,0,0.429-0.025,0.635-0.08l0.291-0.075c0.104,0.013,0.207,0.019,0.312,0.02
		c0.576-0.001,1.164-0.187,1.659-0.538c0.579-0.409,1.298-1.232,1.435-2.828c0.126-1.475-0.744-3.99-1.586-6.424
		C22.229,17.455,21.597,15.614,21.496,14.417z M20.821,0.897c0.305,0,0.55,0.246,0.55,0.548c0,0.305-0.246,1.336-0.549,1.336
		s-0.549-1.031-0.549-1.335C20.273,1.144,20.52,0.897,20.821,0.897z M18.725,28.473c-0.511-0.361-1.146-1.096-1.269-2.541
		c-0.119-1.393,0.736-3.868,1.564-6.262c0.17-0.491,0.338-0.977,0.496-1.448c-0.678,3.069-1.497,6.858-1.536,7.394
		c-0.06,1.764,1.275,2.833,2.088,3.318C19.602,28.914,19.122,28.754,18.725,28.473z M18.373,25.635
		c0.031-0.416,0.595-3.073,1.172-5.711c-0.341,2.633-0.664,5.263-0.664,5.828c0,0.756,0.721,2.048,1.338,2.816
		C19.478,28.118,18.321,27.167,18.373,25.635z M19.273,25.752c0-0.642,0.447-4.166,0.846-7.181c-0.204,4.55-0.182,5.372-0.156,6.233
		c0.009,0.278,0.017,0.562,0.017,0.98c0,1.104,0.281,1.937,0.519,2.493C19.981,27.616,19.273,26.488,19.273,25.752z M20.749,27.846
		c-0.191-0.51-0.377-1.197-0.377-2.062c0-0.425-0.009-0.709-0.016-0.991c-0.031-1.055-0.059-2.055,0.341-10.066
		c0.029-0.135,0.054-0.236,0.068-0.31h0.052c0.012,0.053,0.023,0.108,0.039,0.173c0.398,8.014,0.371,9.013,0.341,10.066
		c-0.009,0.283-0.017,0.569-0.017,0.993C21.181,26.593,20.959,27.325,20.749,27.846z M21.055,28.143
		c0.237-0.556,0.519-1.39,0.519-2.493c0.001-0.42,0.009-0.702,0.017-0.981c0.023-0.86,0.049-1.683-0.157-6.233
		c0.399,3.017,0.847,6.54,0.847,7.182C22.279,26.353,21.571,27.48,21.055,28.143z M21.33,28.433c0.217-0.271,0.405-0.552,0.47-0.65
		c0.325-0.497,0.872-1.441,0.871-2.167c0.001-0.565-0.322-3.196-0.663-5.828c0.575,2.637,1.141,5.291,1.171,5.704
		C23.231,27.028,22.068,27.983,21.33,28.433z M24.098,25.797c-0.124,1.445-0.759,2.178-1.269,2.54
		c-0.398,0.281-0.877,0.441-1.345,0.461c0.812-0.485,2.148-1.558,2.088-3.328c-0.04-0.528-0.859-4.315-1.536-7.382
		c0.158,0.469,0.325,0.955,0.496,1.446C23.36,21.928,24.216,24.404,24.098,25.797z"/>
	<path d="M31.986,27.017l0.006-0.004c-0.003-0.005-0.006-0.012-0.009-0.018c-0.015-0.05-0.043-0.1-0.075-0.146
		c-1.517-2.895-2.741-7.793-2.828-9.819v-2.27h0.704v-0.745c0,0-0.847-1.86-0.059-4.714c0-0.604,0-8.255,0-8.255h-0.003
		c0-0.007,0.003-0.013,0.003-0.02c0-0.567-0.46-1.027-1.026-1.026c-0.565-0.001-1.025,0.459-1.025,1.025
		c0,0.008,0.002,0.013,0.002,0.021h-0.002c0,0,0,7.536,0,8.234c0.594,3.453-0.131,4.734-0.131,4.734l-0.001,0.745h0.628v2.045
		c0,1.861-1.254,7.001-2.82,10.009c-0.074,0.096-0.117,0.195-0.117,0.298c0,0.636,1.515,1.151,3.385,1.151
		c1.868,0,3.384-0.516,3.384-1.152C32,27.079,31.995,27.048,31.986,27.017z M28.745,0.579c0.318,0,0.576,0.257,0.576,0.575
		s-0.259,1.4-0.577,1.4c-0.317,0-0.574-1.082-0.574-1.4C28.169,0.837,28.427,0.579,28.745,0.579z M28.617,25.96
		c-1.041,0-1.97,0.16-2.591,0.411c1.277-2.749,2.295-6.734,2.511-8.845h0.166c0.217,2.111,1.234,6.1,2.513,8.85
		C30.595,26.122,29.661,25.961,28.617,25.96z"/>
</g>
<g>
</g>
<g>
</g>
<g>
</g>
<g>
</g>
<g>
</g>
<g>
</g>
<g>
</g>
<g>
</g>
<g>
</g>
<g>
</g>
<g>
</g>
<g>
</g>
<g>
</g>
<g>
</g>
<g>
</g>
</svg>
