<?xml version="1.0" encoding="iso-8859-1"?>
<!-- Generator: Adobe Illustrator 16.0.0, SVG Export Plug-In . SVG Version: 6.00 Build 0)  -->
<!DOCTYPE svg PUBLIC "-//W3C//DTD SVG 1.1//EN" "http://www.w3.org/Graphics/SVG/1.1/DTD/svg11.dtd">
<svg version="1.1" id="Layer_1" xmlns="http://www.w3.org/2000/svg" xmlns:xlink="http://www.w3.org/1999/xlink" x="0px" y="0px"
	 width="25.077px" height="32.001px" viewBox="0 0 25.077 32.001" style="enable-background:new 0 0 25.077 32.001;"
	 xml:space="preserve">
<path d="M9.964,12.483L9.008,11.01c0.313-0.41,0.355-0.986,0.06-1.443L3.233,0.573c-0.378-0.582-1.156-0.748-1.738-0.37L0.573,0.802
	C-0.009,1.179-0.176,1.957,0.202,2.54l5.833,8.993c0.297,0.456,0.84,0.652,1.342,0.534l0.955,1.472
	c-4.155,3.269-5.207,9.225-2.274,13.747c3.108,4.791,9.513,6.156,14.304,3.048c4.792-3.108,6.156-9.512,3.049-14.304
	C20.483,11.52,14.637,10.047,9.964,12.483z M1.654,1.308C2.076,1.034,2.64,1.154,2.913,1.575c0.273,0.422,0.153,0.985-0.269,1.259
	C2.224,3.107,1.66,2.987,1.387,2.565C1.113,2.145,1.233,1.581,1.654,1.308z"/>
<g>
</g>
<g>
</g>
<g>
</g>
<g>
</g>
<g>
</g>
<g>
</g>
<g>
</g>
<g>
</g>
<g>
</g>
<g>
</g>
<g>
</g>
<g>
</g>
<g>
</g>
<g>
</g>
<g>
</g>
</svg>
