<?xml version="1.0" encoding="iso-8859-1"?>
<!-- Generator: Adobe Illustrator 16.0.0, SVG Export Plug-In . SVG Version: 6.00 Build 0)  -->
<!DOCTYPE svg PUBLIC "-//W3C//DTD SVG 1.1//EN" "http://www.w3.org/Graphics/SVG/1.1/DTD/svg11.dtd">
<svg version="1.1" id="Layer_1" xmlns="http://www.w3.org/2000/svg" xmlns:xlink="http://www.w3.org/1999/xlink" x="0px" y="0px"
	 width="16.842px" height="21.002px" viewBox="0 0 16.842 21.002" style="enable-background:new 0 0 16.842 21.002;"
	 xml:space="preserve">
<path d="M11.134,13.454c1.772-0.991,5.796-1.441,5.706-5.977C16.749,2.942,13.386,0,13.386,0S9.693,0.236,8.421,0.236
	S3.455,0,3.455,0S0.092,2.942,0.002,7.478s3.934,4.985,5.705,5.977c1.735,0.971,1.996,2.563,2.007,2.63
	c0,0.014-0.001,0.028-0.001,0.042c0,2.57-3.552,4.056-4.899,4.616c-0.29,0.13-0.205,0.26,0.001,0.26c0.193,0,5.156,0,5.585,0
	c0.022,0,0.043,0,0.043,0c0.429,0,5.391,0,5.586,0c0.205,0,0.29-0.13,0-0.26c-1.348-0.561-4.899-2.046-4.899-4.616
	c0-0.014-0.001-0.028-0.001-0.042C9.139,16.018,9.399,14.425,11.134,13.454z M4.725,11.436c-0.592-0.257-1.271-0.648-1.852-1.267
	c-0.589-0.61-1.02-1.475-1.096-2.417C1.746,7.323,1.78,6.86,1.819,6.445C1.865,6.019,1.95,5.604,2.05,5.21
	c0.206-0.789,0.513-1.489,0.839-2.046c0.657-1.121,1.336-1.657,1.336-1.657s-0.507,0.69-0.957,1.842
	C3.04,3.923,2.824,4.605,2.687,5.354C2.613,5.727,2.567,6.116,2.537,6.513C2.509,6.92,2.485,7.3,2.522,7.707
	c0.033,0.355,0.122,0.743,0.272,1.08c0.152,0.34,0.346,0.66,0.578,0.941c0.465,0.565,1.037,0.993,1.555,1.32
	c0.523,0.32,0.987,0.563,1.325,0.704c0.335,0.147,0.534,0.223,0.534,0.223S5.926,11.941,4.725,11.436z"/>
<g>
</g>
<g>
</g>
<g>
</g>
<g>
</g>
<g>
</g>
<g>
</g>
<g>
</g>
<g>
</g>
<g>
</g>
<g>
</g>
<g>
</g>
<g>
</g>
<g>
</g>
<g>
</g>
<g>
</g>
</svg>
