<?xml version="1.0" encoding="iso-8859-1"?>
<!-- Generator: Adobe Illustrator 16.0.0, SVG Export Plug-In . SVG Version: 6.00 Build 0)  -->
<!DOCTYPE svg PUBLIC "-//W3C//DTD SVG 1.1//EN" "http://www.w3.org/Graphics/SVG/1.1/DTD/svg11.dtd">
<svg version="1.1" id="Layer_1" xmlns="http://www.w3.org/2000/svg" xmlns:xlink="http://www.w3.org/1999/xlink" x="0px" y="0px"
	 width="13.349px" height="31.744px" viewBox="0 0 13.349 31.744" style="enable-background:new 0 0 13.349 31.744;"
	 xml:space="preserve">
<path d="M13.102,31.402c-1.771-0.737-5.496-1.744-5.496-5.125c0,0,0-0.459,0-0.993c0.559-0.323,0.938-0.92,0.938-1.612
	c0-0.145-0.021-0.284-0.051-0.42c1.411-0.798,4.017-2.272,4.017-5.948c0-5.037-2.963-8.948-2.963-11.378S13.517,0,12.51,0
	c-1.008,0-5.836,0-5.836,0S1.847,0,0.839,0c-1.007,0,2.963,3.496,2.963,5.926s-2.963,6.341-2.963,11.378
	c0,3.676,2.605,5.15,4.017,5.948c-0.03,0.136-0.051,0.275-0.051,0.42c0,0.692,0.38,1.289,0.938,1.612c0,0.534,0,0.993,0,0.993
	c0,3.381-3.725,4.388-5.498,5.125c-0.382,0.171-0.269,0.342,0,0.342c0.257,0,5.837,0,6.4,0c0.03,0,0.057,0,0.057,0
	c0.563,0,6.145,0,6.399,0C13.372,31.744,13.484,31.573,13.102,31.402z M5.692,5.685C5.691,5.826,5.69,5.971,5.669,6.136
	C5.61,6.787,5.497,7.379,5.366,8.024c-0.253,1.274-0.596,2.606-0.926,3.938c-0.344,1.327-0.697,2.653-0.988,3.888
	c-0.131,0.62-0.282,1.214-0.279,1.736c0.015,0.531,0.15,1.025,0.332,1.493c0.366,0.923,0.823,1.657,1.16,2.148
	c0.336,0.496,0.549,0.77,0.549,0.77s-0.273-0.214-0.695-0.651c-0.407-0.446-1.013-1.085-1.521-2.032
	c-0.244-0.465-0.493-1.041-0.554-1.692c-0.048-0.657,0.046-1.299,0.155-1.94c0.216-1.291,0.547-2.628,0.875-3.965
	c0.35-1.324,0.7-2.649,1.027-3.892C4.652,7.215,4.817,6.59,4.914,6.07c0.03-0.126,0.045-0.271,0.058-0.416l0.01-0.107
	C4.986,5.558,4.98,5.497,4.98,5.476L4.974,5.293C4.952,5.047,4.907,4.8,4.841,4.564C4.562,3.622,4.175,2.843,3.888,2.322
	C3.601,1.795,3.422,1.498,3.422,1.498s0.251,0.239,0.632,0.713c0.363,0.483,0.926,1.16,1.342,2.162
	C5.5,4.624,5.59,4.898,5.652,5.201l0.03,0.235c0.003,0.049,0.014,0.06,0.011,0.141L5.692,5.685z"/>
<g>
</g>
<g>
</g>
<g>
</g>
<g>
</g>
<g>
</g>
<g>
</g>
<g>
</g>
<g>
</g>
<g>
</g>
<g>
</g>
<g>
</g>
<g>
</g>
<g>
</g>
<g>
</g>
<g>
</g>
</svg>
