<?xml version="1.0" encoding="iso-8859-1"?>
<!-- Generator: Adobe Illustrator 16.0.0, SVG Export Plug-In . SVG Version: 6.00 Build 0)  -->
<!DOCTYPE svg PUBLIC "-//W3C//DTD SVG 1.1//EN" "http://www.w3.org/Graphics/SVG/1.1/DTD/svg11.dtd">
<svg version="1.1" id="Layer_1" xmlns="http://www.w3.org/2000/svg" xmlns:xlink="http://www.w3.org/1999/xlink" x="0px" y="0px"
	 width="21.641px" height="32px" viewBox="0 0 21.641 32" style="enable-background:new 0 0 21.641 32;" xml:space="preserve">
<g>
	<path d="M20.305,23.086c-1.188,0.576-5.325,2.069-5.325,2.069l-4.891-0.307c0,0,2.797-0.778,3.882-1.021
		c1.086-0.243,0.614-1.469,0.013-1.469c-0.6,0-5.835,0.218-5.835,0.218l-3.475,1.251l0.92,5.822c0,0,0.716-1.225,1.43-1.225
		c0.716,0,6.922,0.165,7.765,0c0.843-0.167,5.977-3.679,6.59-4.088C21.99,23.928,21.493,22.509,20.305,23.086z"/>
	<polygon points="0,24.452 0,32 5.325,31.003 3.993,23.751 	"/>
	<path d="M15.921,13.888c0,1.455,0,4.528,0,4.528c0,1.552-2.835,2.497-4.044,2.836c-0.259,0.078-0.184,0.156,0,0.156
		c0.176,0,3.978,0,4.361,0c0.021,0,0.04,0,0.04,0c0.383,0,4.186,0,4.358,0c0.186,0,0.26-0.078,0-0.156
		c-1.207-0.339-3.908-1.284-3.908-2.836c-0.001-0.03-0.002-0.062-0.003-0.092h-0.004c0-0.5,0-3.124,0-4.437
		c0-1.452,2.57-2.967,3.984-5.289C22.12,6.277,19.596,0,19.596,0s-1.979,0.191-3.274,0.191C15.025,0.191,13.048,0,13.048,0
		s-2.524,6.277-1.11,8.599C13.351,10.921,15.921,12.436,15.921,13.888z M12.721,4.495c0.115-0.677,0.264-1.297,0.409-1.822
		c0.289-1.054,0.554-1.734,0.554-1.734s-0.063,0.728-0.179,1.804c-0.061,0.538-0.129,1.164-0.204,1.833
		c-0.068,0.666-0.146,1.382-0.134,2.064c-0.021,0.108,0.028,0.352,0.051,0.493c0.043,0.142,0.074,0.282,0.146,0.439
		c0.119,0.307,0.273,0.607,0.435,0.892c0.327,0.568,0.688,1.081,1,1.517c0.632,0.873,1.087,1.445,1.087,1.445
		s-0.598-0.422-1.377-1.199c-0.386-0.39-0.814-0.873-1.207-1.453c-0.187-0.295-0.39-0.603-0.532-0.959
		c-0.079-0.166-0.139-0.372-0.196-0.578c-0.035-0.209-0.074-0.325-0.068-0.579C12.504,5.895,12.596,5.168,12.721,4.495z"/>
</g>
<g>
</g>
<g>
</g>
<g>
</g>
<g>
</g>
<g>
</g>
<g>
</g>
<g>
</g>
<g>
</g>
<g>
</g>
<g>
</g>
<g>
</g>
<g>
</g>
<g>
</g>
<g>
</g>
<g>
</g>
</svg>
