<?xml version="1.0" encoding="iso-8859-1"?>
<!-- Generator: Adobe Illustrator 16.0.0, SVG Export Plug-In . SVG Version: 6.00 Build 0)  -->
<!DOCTYPE svg PUBLIC "-//W3C//DTD SVG 1.1//EN" "http://www.w3.org/Graphics/SVG/1.1/DTD/svg11.dtd">
<svg version="1.1" id="Layer_1" xmlns="http://www.w3.org/2000/svg" xmlns:xlink="http://www.w3.org/1999/xlink" x="0px" y="0px"
	 width="7.625px" height="10.36px" viewBox="0 0 7.625 10.36" style="enable-background:new 0 0 7.625 10.36;" xml:space="preserve"
	>
<path d="M0,0l1,10h0.625v0.36h4.297V10h0.703l1-10H0z M2.502,7.962c-0.02,0.804-0.084,1.344-0.084,1.344S2.25,8.788,2.073,8.004
	C1.9,7.22,1.734,6.168,1.627,5.11C1.526,4.052,1.484,2.987,1.5,2.185c0.02-0.804,0.083-1.344,0.083-1.344S1.75,1.358,1.927,2.143
	C2.1,2.927,2.267,3.979,2.374,5.036C2.476,6.095,2.519,7.159,2.502,7.962z"/>
<g>
</g>
<g>
</g>
<g>
</g>
<g>
</g>
<g>
</g>
<g>
</g>
<g>
</g>
<g>
</g>
<g>
</g>
<g>
</g>
<g>
</g>
<g>
</g>
<g>
</g>
<g>
</g>
<g>
</g>
</svg>
