<?xml version="1.0" encoding="iso-8859-1"?>
<!-- Generator: Adobe Illustrator 16.0.0, SVG Export Plug-In . SVG Version: 6.00 Build 0)  -->
<!DOCTYPE svg PUBLIC "-//W3C//DTD SVG 1.1//EN" "http://www.w3.org/Graphics/SVG/1.1/DTD/svg11.dtd">
<svg version="1.1" id="Layer_1" xmlns="http://www.w3.org/2000/svg" xmlns:xlink="http://www.w3.org/1999/xlink" x="0px" y="0px"
	 width="8.972px" height="23.548px" viewBox="0 0 8.972 23.548" style="enable-background:new 0 0 8.972 23.548;"
	 xml:space="preserve">
<path d="M7.764,23.373c-0.904-0.377-2.803-1.374-2.803-3.097c0-0.025-0.001-0.051-0.001-0.075c0-0.538,0-3.759,0-5.214
	c0.212-0.153,0.36-0.392,0.36-0.676c0-0.104-0.024-0.203-0.059-0.296c0.936-0.706,3.777-1.505,3.711-6.459
	C8.893,1.631,7.552,0,7.552,0L4.406,0.139L1.344,0c0,0-1.264,1.521-1.343,7.447c-0.066,5.023,2.854,5.774,3.749,6.488
	c-0.057,0.114-0.097,0.238-0.097,0.376c0,0.285,0.148,0.523,0.361,0.677c0,1.642,0,5.188,0,5.188
	c-0.001,0.033-0.001,0.067-0.002,0.101c0,1.723-1.899,2.72-2.803,3.097c-0.195,0.087-0.138,0.175,0,0.175c0.131,0,2.976,0,3.264,0
	c0.015,0,0.029,0,0.029,0c0.287,0,3.132,0,3.263,0C7.901,23.548,7.958,23.46,7.764,23.373z M1.422,8.014
	C1.297,4.993,2.083,1.136,2.083,1.136s0,5.148,0.229,7.003s1.729,4.685,1.729,4.685S1.547,11.034,1.422,8.014z"/>
<g>
</g>
<g>
</g>
<g>
</g>
<g>
</g>
<g>
</g>
<g>
</g>
<g>
</g>
<g>
</g>
<g>
</g>
<g>
</g>
<g>
</g>
<g>
</g>
<g>
</g>
<g>
</g>
<g>
</g>
</svg>
