<?xml version="1.0" encoding="iso-8859-1"?>
<!-- Generator: Adobe Illustrator 16.0.0, SVG Export Plug-In . SVG Version: 6.00 Build 0)  -->
<!DOCTYPE svg PUBLIC "-//W3C//DTD SVG 1.1//EN" "http://www.w3.org/Graphics/SVG/1.1/DTD/svg11.dtd">
<svg version="1.1" id="Layer_1" xmlns="http://www.w3.org/2000/svg" xmlns:xlink="http://www.w3.org/1999/xlink" x="0px" y="0px"
	 width="12.956px" height="21.956px" viewBox="0 0 12.956 21.956" style="enable-background:new 0 0 12.956 21.956;"
	 xml:space="preserve">
<path d="M12.944,4.048C13.09,1.438,11.823,0,11.823,0L6.478,0.163L1.134,0c0,0-1.268,1.438-1.122,4.048
	C0.158,6.656,5.81,8.046,5.81,9.655c0,1.566,0,9.597,0,10.018c-0.058,1.254-2.397,1.876-3.839,2.153c-0.314,0.063-0.222,0.13,0,0.13
	c0.211,0,4.022,0,4.486,0c0.025,0,0.046,0,0.046,0c0.465,0,4.275,0,4.486,0c0.222,0,0.315-0.066,0.001-0.13
	c-1.46-0.28-3.833-0.914-3.833-2.198c0,0-0.011-8.443-0.011-9.973C7.146,8.046,12.798,6.656,12.944,4.048z M4.072,6.709
	C3.47,6.353,2.702,5.835,2.005,5.18L1.746,4.917C1.658,4.814,1.554,4.703,1.502,4.614c-0.161-0.239-0.249-0.52-0.285-0.752
	C1.148,3.38,1.193,2.96,1.255,2.605c0.137-0.706,0.37-1.132,0.37-1.132s0.049,0.462,0.124,1.154
	c0.038,0.333,0.073,0.726,0.171,1.091c0.042,0.19,0.103,0.342,0.201,0.476c0.126,0.178,0.236,0.291,0.4,0.466
	C3.17,5.294,3.822,5.927,4.31,6.402c0.484,0.497,0.799,0.847,0.799,0.847S4.679,7.058,4.072,6.709z"/>
<g>
</g>
<g>
</g>
<g>
</g>
<g>
</g>
<g>
</g>
<g>
</g>
<g>
</g>
<g>
</g>
<g>
</g>
<g>
</g>
<g>
</g>
<g>
</g>
<g>
</g>
<g>
</g>
<g>
</g>
</svg>
