<?xml version="1.0" encoding="iso-8859-1"?>
<!-- Generator: Adobe Illustrator 16.0.0, SVG Export Plug-In . SVG Version: 6.00 Build 0)  -->
<!DOCTYPE svg PUBLIC "-//W3C//DTD SVG 1.1//EN" "http://www.w3.org/Graphics/SVG/1.1/DTD/svg11.dtd">
<svg version="1.1" id="Layer_1" xmlns="http://www.w3.org/2000/svg" xmlns:xlink="http://www.w3.org/1999/xlink" x="0px" y="0px"
	 width="19.19px" height="32px" viewBox="0 0 19.19 32" style="enable-background:new 0 0 19.19 32;" xml:space="preserve">
<path d="M8.936,6.563C8.66,5.002,8.356,3.52,8.038,2.337C7.616,0.774,6.743,0.244,6.083,0.075C3.656-0.538,0.366,2.785,0,3.167
	l1.059,1.017C2.035,3.167,4.458,1.18,5.719,1.497C5.871,1.536,6.334,1.654,6.621,2.72c0.288,1.069,0.565,2.413,0.822,3.843H6.124
	l1.538,25.006h0.807V32h8.397v-0.432h0.807L19.19,6.563H8.936z M7.424,12.922L7.088,7.471h0.512c0.317,1.873,0.594,3.821,0.81,5.451
	H7.424z M8.362,17.986c-0.183-0.368-0.032-0.813,0.336-0.996l2.166-1.075c0.367-0.184,0.814-0.032,0.997,0.335l1.076,2.168
	c0.182,0.368,0.03,0.812-0.336,0.995l-2.167,1.077c-0.366,0.181-0.813,0.031-0.995-0.337L8.362,17.986z M13.014,17.831l-0.892-1.796
	c-0.111-0.223-0.308-0.379-0.531-0.468l0.093-1.165c0.034-0.431,0.409-0.749,0.836-0.717l0.009,0.001
	c0.002,0,0.004-0.001,0.006-0.001l2.527,0.2c0.429,0.034,0.749,0.409,0.715,0.838l-0.199,2.528
	c-0.034,0.428-0.409,0.747-0.837,0.714l-0.009-0.001c-0.002,0-0.004,0.001-0.005,0.001L13.014,17.831z M13.714,23.076
	c0.001,0.41-0.331,0.744-0.742,0.745l-0.901,0.004l0,0l-1.522,0.005c-0.41,0.001-0.746-0.331-0.747-0.742l-0.007-2.209
	c0.092,0.027,0.188,0.043,0.288,0.043c0.155,0,0.303-0.035,0.443-0.104l1.825-0.905l0.609-0.002c0.411-0.001,0.745,0.33,0.746,0.742
	L13.714,23.076z M13.861,28.568l-1.997,1.373c-0.338,0.232-0.802,0.147-1.034-0.191l-1.374-1.997
	c-0.233-0.339-0.147-0.802,0.191-1.035l1.997-1.372c0.007-0.005,0.016-0.005,0.023-0.01l0.001,0.419
	c0.001,0.634,0.519,1.15,1.153,1.15l0.796-0.003l0.435,0.631C14.286,27.872,14.2,28.336,13.861,28.568z M15.247,26.487l-1.909,0.007
	l0,0l-0.514,0.002c0,0-0.001,0-0.002,0c-0.057,0-0.108-0.021-0.162-0.032c-0.042-0.01-0.087-0.009-0.126-0.026
	c-0.041-0.017-0.072-0.048-0.108-0.071c-0.044-0.028-0.093-0.051-0.129-0.087c-0.021-0.021-0.032-0.05-0.05-0.073
	c-0.041-0.052-0.084-0.102-0.11-0.163c-0.038-0.089-0.059-0.187-0.059-0.289l-0.002-0.526l0,0l-0.003-0.994l0.901-0.004
	c0.308-0.001,0.597-0.121,0.814-0.339c0.217-0.219,0.336-0.508,0.335-0.815l-0.001-0.495l1.113-0.003
	c0.411-0.002,0.745,0.329,0.746,0.741l0.008,2.424C15.99,26.152,15.658,26.486,15.247,26.487z M9.894,12.922
	c-0.21-1.609-0.484-3.554-0.802-5.451h9.135l-0.331,5.451H9.894z"/>
<g>
</g>
<g>
</g>
<g>
</g>
<g>
</g>
<g>
</g>
<g>
</g>
<g>
</g>
<g>
</g>
<g>
</g>
<g>
</g>
<g>
</g>
<g>
</g>
<g>
</g>
<g>
</g>
<g>
</g>
</svg>
