<?xml version="1.0" encoding="iso-8859-1"?>
<!-- Generator: Adobe Illustrator 16.0.0, SVG Export Plug-In . SVG Version: 6.00 Build 0)  -->
<!DOCTYPE svg PUBLIC "-//W3C//DTD SVG 1.1//EN" "http://www.w3.org/Graphics/SVG/1.1/DTD/svg11.dtd">
<svg version="1.1" id="Layer_1" xmlns="http://www.w3.org/2000/svg" xmlns:xlink="http://www.w3.org/1999/xlink" x="0px" y="0px"
	 width="12.854px" height="22.078px" viewBox="0 0 12.854 22.078" style="enable-background:new 0 0 12.854 22.078;"
	 xml:space="preserve">
<path d="M10.796,21.951c-1.416-0.271-3.719-0.886-3.719-2.132c0.018-0.104-0.302-2.603-0.302-4.943s1.7-4.117,2.625-4.849
	c0.926-0.731,3.501-2.838,3.453-5.676C12.807,1.514,11.152,0,11.152,0S7.868,0.244,6.427,0.244S1.703,0,1.703,0S0.047,1.514,0,4.352
	s2.527,4.944,3.453,5.676c0.925,0.731,2.625,2.508,2.625,4.849s-0.318,4.84-0.302,4.943c0,1.246-2.314,1.86-3.729,2.132
	c-0.307,0.063-0.215,0.127,0.001,0.127c0.203,0,3.899,0,4.351,0c0.024,0,0.045,0,0.045,0c0.451,0,4.146,0,4.352,0
	C11.011,22.078,11.101,22.015,10.796,21.951z M1.714,5.466C1.386,3.528,2.391,1.197,2.391,1.197S2.207,3.875,2.644,5.281
	s2.242,4.185,2.242,4.185S1.964,7.06,1.714,5.466z"/>
<g>
</g>
<g>
</g>
<g>
</g>
<g>
</g>
<g>
</g>
<g>
</g>
<g>
</g>
<g>
</g>
<g>
</g>
<g>
</g>
<g>
</g>
<g>
</g>
<g>
</g>
<g>
</g>
<g>
</g>
</svg>
