<?xml version="1.0" encoding="iso-8859-1"?>
<!-- Generator: Adobe Illustrator 16.0.0, SVG Export Plug-In . SVG Version: 6.00 Build 0)  -->
<!DOCTYPE svg PUBLIC "-//W3C//DTD SVG 1.1//EN" "http://www.w3.org/Graphics/SVG/1.1/DTD/svg11.dtd">
<svg version="1.1" id="Layer_1" xmlns="http://www.w3.org/2000/svg" xmlns:xlink="http://www.w3.org/1999/xlink" x="0px" y="0px"
	 width="9.404px" height="23.798px" viewBox="0 0 9.404 23.798" style="enable-background:new 0 0 9.404 23.798;"
	 xml:space="preserve">
<path d="M8.673,23.587c-1.095-0.456-3.396-1.663-3.396-3.751c-0.001-0.041-0.002-0.082-0.002-0.122c0,0,0-2.901,0-4.565
	c0.233-0.18,0.395-0.45,0.395-0.768c0-0.207-0.079-0.388-0.188-0.545c0.832-0.902,3.922-1.914,3.922-6.804
	C9.404,1.383,7.745,0,7.745,0S5.561,0.232,4.612,0.232S1.659,0,1.659,0S0,1.383,0,7.032c0,4.854,3.042,5.886,3.9,6.783
	c-0.117,0.161-0.2,0.351-0.2,0.565c0,0.333,0.176,0.612,0.429,0.79c0,1.669,0,4.543,0,4.543c0,0.04-0.002,0.081-0.002,0.122
	c0,2.088-2.301,3.295-3.396,3.751c-0.236,0.105-0.167,0.211,0,0.211c0.158,0,3.604,0,3.953,0c0.019,0,0.035,0,0.035,0
	c0.349,0,3.795,0,3.953,0C8.84,23.798,8.909,23.692,8.673,23.587z M1.521,8.31C1.078,6.507,1.787,2.872,1.787,2.872
	S1.943,6.638,2.24,7.856c0.212,0.87,0.413,1.071,1.531,4.297C3.771,12.153,1.965,10.112,1.521,8.31z"/>
<g>
</g>
<g>
</g>
<g>
</g>
<g>
</g>
<g>
</g>
<g>
</g>
<g>
</g>
<g>
</g>
<g>
</g>
<g>
</g>
<g>
</g>
<g>
</g>
<g>
</g>
<g>
</g>
<g>
</g>
</svg>
