<?xml version="1.0" encoding="iso-8859-1"?>
<!-- Generator: Adobe Illustrator 16.0.0, SVG Export Plug-In . SVG Version: 6.00 Build 0)  -->
<!DOCTYPE svg PUBLIC "-//W3C//DTD SVG 1.1//EN" "http://www.w3.org/Graphics/SVG/1.1/DTD/svg11.dtd">
<svg version="1.1" id="Layer_1" xmlns="http://www.w3.org/2000/svg" xmlns:xlink="http://www.w3.org/1999/xlink" x="0px" y="0px"
	 width="14.581px" height="32px" viewBox="0 0 14.581 32" style="enable-background:new 0 0 14.581 32;" xml:space="preserve">
<path d="M10.729,5.562c0-1.889,2.514-3.063,1.539-4.478S2.837-0.426,2.096,1.18C1.354,2.786,3.853,3.696,3.853,5.584
	s-4.063,24.033-3.844,25.261c0.099,0.552,3.833,1.175,7.495,1.154c3.521-0.02,6.976-0.661,7.068-1.178
	C14.792,29.594,10.729,7.449,10.729,5.562z M6.312,5.939C6.307,6.606,6.236,7.339,6.158,8.115C6.08,8.887,6.014,9.722,5.896,10.546
	c-0.202,1.667-0.462,3.438-0.74,5.205c-0.571,3.532-1.275,7.04-1.886,9.657c-0.295,1.31-0.603,2.391-0.788,3.152
	C2.28,29.319,2.147,29.75,2.147,29.75s0.02-0.45,0.084-1.232c0.076-0.78,0.151-1.9,0.302-3.234c0.284-2.671,0.777-6.212,1.34-9.739
	c0.305-1.761,0.583-3.522,0.894-5.168c0.149-0.815,0.292-1.604,0.429-2.352c0.132-0.746,0.288-1.448,0.374-2.12
	c0.048-0.323,0.094-0.633,0.138-0.928c-0.02-0.282,0.014-0.564-0.045-0.814C5.589,3.65,5.434,3.211,5.258,2.874
	C4.919,2.187,4.585,1.866,4.585,1.866s0.094,0.06,0.259,0.196C5,2.203,5.243,2.41,5.474,2.742c0.24,0.322,0.483,0.761,0.657,1.31
	c0.108,0.271,0.127,0.579,0.198,0.9C6.343,5.311,6.316,5.593,6.312,5.939z"/>
<g>
</g>
<g>
</g>
<g>
</g>
<g>
</g>
<g>
</g>
<g>
</g>
<g>
</g>
<g>
</g>
<g>
</g>
<g>
</g>
<g>
</g>
<g>
</g>
<g>
</g>
<g>
</g>
<g>
</g>
</svg>
