<?xml version="1.0" encoding="iso-8859-1"?>
<!-- Generator: Adobe Illustrator 16.0.0, SVG Export Plug-In . SVG Version: 6.00 Build 0)  -->
<!DOCTYPE svg PUBLIC "-//W3C//DTD SVG 1.1//EN" "http://www.w3.org/Graphics/SVG/1.1/DTD/svg11.dtd">
<svg version="1.1" id="Layer_1" xmlns="http://www.w3.org/2000/svg" xmlns:xlink="http://www.w3.org/1999/xlink" x="0px" y="0px"
	 width="21.868px" height="31.729px" viewBox="0 0 21.868 31.729" style="enable-background:new 0 0 21.868 31.729;"
	 xml:space="preserve">
<path d="M20.93,0.02c-0.981,0-5.609,0.344-9.996,0.344S1.875,0,0.938,0c-0.982,0-1.281,0.451-0.47,1.147
	c1.938,1.665,4.773,4.175,6.011,5.808c1.754,2.315,3.635,8.548,3.635,10.057c0,1.322,0,7.406,0,8.896
	c0,0.042-0.001,0.084-0.002,0.126c0,3.001-4.148,4.737-5.723,5.391c-0.339,0.151-0.239,0.305,0,0.305c0.228,0,6.023,0,6.524,0
	c0.026,0,0.05,0,0.05,0c0.502,0,5.456,0,5.683,0c0.239,0,0.34-0.153,0.001-0.305c-1.574-0.653-4.881-2.39-4.881-5.391
	c-0.001-0.042-0.002-0.084-0.003-0.126h-0.009c0-1.521,0-7.56,0-8.876c0-1.509,1.713-7.49,3.467-9.806
	c1.236-1.632,4.241-4.396,6.18-6.061C22.212,0.471,21.912,0.02,20.93,0.02z M3.881,1.896c0,0,3.896,1.958,5.271,4.208
	s1.479,6.104,1.479,6.104s-1.313-3.791-2.375-5.5S3.881,1.896,3.881,1.896z"/>
<g>
</g>
<g>
</g>
<g>
</g>
<g>
</g>
<g>
</g>
<g>
</g>
<g>
</g>
<g>
</g>
<g>
</g>
<g>
</g>
<g>
</g>
<g>
</g>
<g>
</g>
<g>
</g>
<g>
</g>
</svg>
