<?xml version="1.0" encoding="iso-8859-1"?>
<!-- Generator: Adobe Illustrator 16.0.0, SVG Export Plug-In . SVG Version: 6.00 Build 0)  -->
<!DOCTYPE svg PUBLIC "-//W3C//DTD SVG 1.1//EN" "http://www.w3.org/Graphics/SVG/1.1/DTD/svg11.dtd">
<svg version="1.1" id="Layer_1" xmlns="http://www.w3.org/2000/svg" xmlns:xlink="http://www.w3.org/1999/xlink" x="0px" y="0px"
	 width="16.858px" height="30.696px" viewBox="0 0 16.858 30.696" style="enable-background:new 0 0 16.858 30.696;"
	 xml:space="preserve">
<path d="M0,0l1.228,29.945h1.034v0.751h12.593v-0.751h1.066L16.858,0H0z M4.324,23.746c-0.079,2.397-0.264,4.002-0.264,4.002
	s-0.318-1.583-0.596-3.967c-0.147-1.191-0.285-2.582-0.4-4.074c-0.126-1.491-0.202-3.085-0.284-4.678
	c-0.05-1.595-0.105-3.188-0.104-4.686C2.667,8.848,2.688,7.449,2.735,6.25c0.078-2.397,0.262-4.002,0.262-4.002
	s0.317,1.583,0.594,3.967c0.146,1.191,0.285,2.582,0.4,4.074c0.126,1.491,0.204,3.085,0.286,4.678
	c0.051,1.595,0.107,3.188,0.106,4.686C4.394,21.148,4.372,22.547,4.324,23.746z"/>
<g>
</g>
<g>
</g>
<g>
</g>
<g>
</g>
<g>
</g>
<g>
</g>
<g>
</g>
<g>
</g>
<g>
</g>
<g>
</g>
<g>
</g>
<g>
</g>
<g>
</g>
<g>
</g>
<g>
</g>
</svg>
