<?xml version="1.0" encoding="iso-8859-1"?>
<!-- Generator: Adobe Illustrator 16.0.0, SVG Export Plug-In . SVG Version: 6.00 Build 0)  -->
<!DOCTYPE svg PUBLIC "-//W3C//DTD SVG 1.1//EN" "http://www.w3.org/Graphics/SVG/1.1/DTD/svg11.dtd">
<svg version="1.1" id="Layer_1" xmlns="http://www.w3.org/2000/svg" xmlns:xlink="http://www.w3.org/1999/xlink" x="0px" y="0px"
	 width="10.846px" height="24.115px" viewBox="0 0 10.846 24.115" style="enable-background:new 0 0 10.846 24.115;"
	 xml:space="preserve">
<path d="M10.284,23.938c-1.36-0.382-4.402-1.445-4.402-3.194c-0.001-0.034-0.003-0.068-0.004-0.103H5.873c0-0.563,0-3.52,0-4.997
	c0-1.637,2.896-3.343,4.488-5.958S9.11,0,9.11,0S6.881,0.216,5.422,0.216C3.964,0.216,1.735,0,1.735,0s-2.843,7.071-1.251,9.687
	s4.487,4.321,4.487,5.958c0,1.638,0,5.1,0,5.1c0,1.749-3.193,2.813-4.555,3.194c-0.292,0.088-0.207,0.177,0,0.177
	c0.197,0,4.479,0,4.912,0c0.023,0,0.044,0,0.044,0c0.432,0,4.715,0,4.911,0C10.492,24.115,10.577,24.026,10.284,23.938z M3.38,11.52
	c-0.435-0.439-0.918-0.982-1.359-1.637c-0.212-0.333-0.439-0.678-0.6-1.08C1.331,8.616,1.264,8.383,1.2,8.151
	C1.16,7.916,1.116,7.785,1.122,7.5c0-0.86,0.104-1.678,0.245-2.438c0.131-0.761,0.298-1.459,0.461-2.052
	c0.327-1.187,0.625-1.953,0.625-1.953S2.381,1.877,2.25,3.091C2.183,3.695,2.104,4.399,2.02,5.154
	C1.943,5.904,1.856,6.71,1.871,7.479C1.847,7.602,1.9,7.875,1.927,8.035C1.976,8.194,2.01,8.353,2.091,8.529
	C2.224,8.875,2.398,9.214,2.58,9.533c0.369,0.641,0.775,1.218,1.127,1.71c0.709,0.983,1.224,1.627,1.224,1.627
	S4.257,12.396,3.38,11.52z"/>
<g>
</g>
<g>
</g>
<g>
</g>
<g>
</g>
<g>
</g>
<g>
</g>
<g>
</g>
<g>
</g>
<g>
</g>
<g>
</g>
<g>
</g>
<g>
</g>
<g>
</g>
<g>
</g>
<g>
</g>
</svg>
