<?xml version="1.0" encoding="iso-8859-1"?>
<!-- Generator: Adobe Illustrator 16.0.0, SVG Export Plug-In . SVG Version: 6.00 Build 0)  -->
<!DOCTYPE svg PUBLIC "-//W3C//DTD SVG 1.1//EN" "http://www.w3.org/Graphics/SVG/1.1/DTD/svg11.dtd">
<svg version="1.1" id="Layer_1" xmlns="http://www.w3.org/2000/svg" xmlns:xlink="http://www.w3.org/1999/xlink" x="0px" y="0px"
	 width="32px" height="27.825px" viewBox="0 0 32 27.825" style="enable-background:new 0 0 32 27.825;" xml:space="preserve">
<g>
	<path d="M21.815,8.049c-8.157-0.643-9.987,4.055-9.987,4.055H9.752V5.156h0.396V4.415H5.229v0.741h0.568v6.947h-1.78v5.339h5.735
		v10.383h4.846v-1.879h13.349v1.879H32c0,0,0-3.609,0-6.773S29.973,8.691,21.815,8.049z"/>
	<rect x="1.248" y="11.757" width="2.077" height="5.933"/>
	<path d="M5.793,3.995h3.945v-0.45c0,0,4.43-0.012,6.012-3.545C14.353,0,2.247,0,0,0c0.549,2.048,5.793,3.545,5.793,3.545V3.995z"/>
</g>
<g>
</g>
<g>
</g>
<g>
</g>
<g>
</g>
<g>
</g>
<g>
</g>
<g>
</g>
<g>
</g>
<g>
</g>
<g>
</g>
<g>
</g>
<g>
</g>
<g>
</g>
<g>
</g>
<g>
</g>
</svg>
