<?xml version="1.0" encoding="iso-8859-1"?>
<!-- Generator: Adobe Illustrator 16.0.0, SVG Export Plug-In . SVG Version: 6.00 Build 0)  -->
<!DOCTYPE svg PUBLIC "-//W3C//DTD SVG 1.1//EN" "http://www.w3.org/Graphics/SVG/1.1/DTD/svg11.dtd">
<svg version="1.1" id="Layer_1" xmlns="http://www.w3.org/2000/svg" xmlns:xlink="http://www.w3.org/1999/xlink" x="0px" y="0px"
	 width="28.004px" height="31.904px" viewBox="0 0 28.004 31.904" style="enable-background:new 0 0 28.004 31.904;"
	 xml:space="preserve">
<g>
	<path d="M9.636,8.664c0.125,0.233,0.211,0.299,0.321,0.457l0.281,0.341c0.053,0.114,0.138,0.203,0.175,0.328
		c0.092,0.237,0.192,0.487,0.223,0.763c0.091,0.538,0.084,1.102,0.061,1.595c-0.066,0.985-0.161,1.706-0.161,1.706
		s0.527-0.511,0.946-1.521c0.104-0.251,0.207-0.534,0.273-0.847c0.066-0.314,0.132-0.657,0.117-1.028
		c0-0.365-0.045-0.769-0.19-1.161c-0.059-0.2-0.18-0.385-0.274-0.579c-0.054-0.094-0.127-0.178-0.19-0.267L11.115,8.32l-0.051-0.063
		L11.053,8.24c0.005,0.008,0.016,0.018,0.035,0.041l-0.005-0.009l-0.019-0.023c-0.089-0.12-0.263-0.292-0.283-0.367
		c-0.04-0.089-0.101-0.161-0.141-0.297c-0.096-0.233-0.169-0.501-0.208-0.774c-0.082-0.546-0.071-1.11-0.049-1.604
		c0.065-0.989,0.151-1.711,0.151-1.711s-0.521,0.517-0.94,1.523C9.385,5.521,9.2,6.147,9.19,6.884
		C9.199,7.247,9.206,7.646,9.357,8.04C9.405,8.23,9.519,8.451,9.636,8.664z"/>
	<path d="M12.739,5.166c0.127,0.236,0.211,0.302,0.321,0.46l0.281,0.339c0.054,0.112,0.138,0.205,0.175,0.329
		c0.092,0.235,0.192,0.486,0.223,0.761c0.091,0.54,0.084,1.104,0.061,1.596c-0.064,0.987-0.16,1.706-0.16,1.706
		s0.526-0.511,0.944-1.52c0.105-0.253,0.208-0.533,0.274-0.851c0.067-0.312,0.132-0.653,0.118-1.025
		c-0.001-0.363-0.044-0.77-0.191-1.161c-0.059-0.199-0.18-0.386-0.274-0.579c-0.055-0.094-0.127-0.178-0.192-0.268l-0.1-0.131
		l-0.052-0.063l-0.011-0.017c0.004,0.008,0.016,0.019,0.029,0.032l-0.019-0.022c-0.087-0.121-0.262-0.291-0.281-0.367
		c-0.041-0.088-0.102-0.16-0.142-0.298c-0.096-0.232-0.17-0.501-0.207-0.772c-0.081-0.548-0.071-1.111-0.049-1.606
		C13.553,0.72,13.64,0,13.64,0s-0.522,0.516-0.941,1.521c-0.208,0.501-0.395,1.13-0.404,1.865c0.01,0.362,0.016,0.764,0.166,1.159
		C12.51,4.735,12.622,4.955,12.739,5.166z"/>
	<path d="M16.575,8.338c0.125,0.234,0.21,0.301,0.319,0.458l0.281,0.339c0.053,0.113,0.137,0.204,0.175,0.33
		c0.093,0.236,0.192,0.486,0.223,0.761c0.091,0.54,0.084,1.104,0.061,1.595c-0.064,0.988-0.16,1.706-0.16,1.706
		s0.527-0.509,0.945-1.521c0.105-0.25,0.207-0.534,0.272-0.848c0.068-0.313,0.133-0.655,0.119-1.027
		c-0.001-0.364-0.044-0.768-0.191-1.16c-0.058-0.201-0.181-0.387-0.274-0.58c-0.055-0.093-0.127-0.176-0.19-0.266l-0.102-0.13
		L18.002,7.93L17.99,7.913c0.007,0.007,0.016,0.019,0.034,0.042l-0.003-0.008l-0.02-0.026c-0.089-0.119-0.264-0.29-0.281-0.366
		c-0.043-0.087-0.102-0.161-0.143-0.298c-0.095-0.232-0.169-0.501-0.207-0.772c-0.082-0.547-0.071-1.112-0.049-1.606
		c0.063-0.987,0.151-1.708,0.151-1.708s-0.522,0.516-0.939,1.523c-0.21,0.502-0.396,1.128-0.404,1.863
		c0.007,0.363,0.013,0.765,0.164,1.157C16.344,7.904,16.456,8.126,16.575,8.338z"/>
	<path d="M28.004,15.381H0v2.793h1.125C0.107,24.948,6.983,29.032,9.66,30.349v1.556h8.685v-1.556
		c2.677-1.317,9.552-5.4,8.533-12.175h1.126V15.381z M8.687,27.166C8.161,26.87,7.566,26.486,6.983,26
		c-0.6-0.467-1.16-1.063-1.688-1.691c-0.256-0.319-0.473-0.675-0.706-1.006c-0.203-0.355-0.387-0.714-0.545-1.068
		c-0.138-0.368-0.282-0.717-0.356-1.068c-0.072-0.355-0.148-0.68-0.168-0.997c-0.016-0.321-0.01-0.612-0.005-0.861
		c0.005-0.248,0.077-0.448,0.105-0.622c0.076-0.342,0.132-0.537,0.132-0.537s0.053,0.196,0.125,0.539
		c0.042,0.168,0.063,0.387,0.133,0.611c0.077,0.222,0.163,0.463,0.237,0.722c0.09,0.258,0.243,0.532,0.353,0.824
		c0.12,0.291,0.322,0.57,0.466,0.879c0.169,0.3,0.394,0.584,0.574,0.896c0.225,0.289,0.427,0.598,0.672,0.88
		c0.236,0.288,0.457,0.589,0.716,0.854c0.249,0.273,0.482,0.557,0.734,0.809c0.485,0.52,0.965,0.99,1.372,1.407
		c0.838,0.835,1.397,1.392,1.397,1.392S9.739,27.76,8.687,27.166z"/>
</g>
<g>
</g>
<g>
</g>
<g>
</g>
<g>
</g>
<g>
</g>
<g>
</g>
<g>
</g>
<g>
</g>
<g>
</g>
<g>
</g>
<g>
</g>
<g>
</g>
<g>
</g>
<g>
</g>
<g>
</g>
</svg>
