<?xml version="1.0" encoding="iso-8859-1"?>
<!-- Generator: Adobe Illustrator 16.0.0, SVG Export Plug-In . SVG Version: 6.00 Build 0)  -->
<!DOCTYPE svg PUBLIC "-//W3C//DTD SVG 1.1//EN" "http://www.w3.org/Graphics/SVG/1.1/DTD/svg11.dtd">
<svg version="1.1" id="Layer_1" xmlns="http://www.w3.org/2000/svg" xmlns:xlink="http://www.w3.org/1999/xlink" x="0px" y="0px"
	 width="24.531px" height="31.711px" viewBox="0 0 24.531 31.711" style="enable-background:new 0 0 24.531 31.711;"
	 xml:space="preserve">
<g>
	<path d="M15.679,30.092c0-0.115,0-0.286,0-0.502c1.161-0.01,2.459-1.582,3.232-2.966c2.271-0.312,5.593-3.046,5.619-6.138
		c0.01-1.167-0.477-1.771-0.886-2.073c-0.811-0.6-1.915-0.48-2.736-0.284c0.024-0.64,0.021-1.21-0.003-1.652
		c-0.574,0-1.259,0-1.991,0c0.262-0.517,0.603-1.011,0.931-1.348c0.188-0.422,2.164-4.886,2.164-4.886h-0.002
		c0.003-0.004,0.005-0.009,0.008-0.014c0.175-0.396,0.179-0.778-0.219-0.952c-0.019-0.01-0.096-0.043-0.115-0.052
		c-0.396-0.176-0.766,0.045-0.94,0.439c-0.002,0.006-0.003,0.011-0.005,0.016L20.734,9.68c0,0-1.978,4.462-2.164,4.885
		c-0.034,0.558-0.191,1.287-0.445,1.912c-2.843,0-6.104,0-6.799,0c0,0-0.061,0-0.148,0c-0.825,0-5.188,0-8.07,0
		C2.946,19.486,4.102,29.214,8.5,29.59c0,0.216,0,0.387,0,0.502H0v1.619h24.531v-1.619H15.679z M6.335,25.697
		c-0.958-2.208-1.648-8.199-1.648-8.199s1.942,5.384,2.384,6.874c0.441,1.491,2.377,3.607,2.377,3.607S7.291,27.905,6.335,25.697z
		 M20.784,19.905c0.959-0.29,1.595-0.345,1.867-0.145c0.172,0.127,0.207,0.458,0.203,0.711c-0.014,1.716-1.641,3.348-3.034,4.09
		C20.339,23.03,20.631,21.381,20.784,19.905z"/>
	<polygon points="12.091,3.303 12.091,3.306 12.096,3.312 	"/>
	<path d="M7.017,8.391c0.12,0.226,0.203,0.29,0.311,0.443L7.6,9.163C7.65,9.273,7.732,9.36,7.769,9.48
		c0.089,0.23,0.187,0.473,0.216,0.738c0.088,0.522,0.081,1.067,0.059,1.546c-0.064,0.954-0.156,1.651-0.156,1.651
		s0.511-0.494,0.916-1.473c0.101-0.243,0.201-0.517,0.265-0.82c0.064-0.304,0.128-0.636,0.114-0.995
		c0-0.354-0.043-0.745-0.185-1.124C8.94,8.81,8.822,8.631,8.731,8.443C8.68,8.352,8.608,8.271,8.547,8.185L8.448,8.058L8.399,7.996
		L8.388,7.98C8.393,7.987,8.403,7.997,8.422,8.02L8.417,8.012L8.399,7.988C8.313,7.873,8.145,7.705,8.126,7.633
		c-0.04-0.085-0.098-0.156-0.137-0.287C7.896,7.12,7.825,6.86,7.787,6.596C7.708,6.067,7.719,5.521,7.74,5.041
		c0.063-0.957,0.146-1.656,0.146-1.656s-0.505,0.5-0.91,1.476C6.772,5.346,6.595,5.953,6.585,6.667
		C6.594,7.019,6.6,7.405,6.746,7.786C6.793,7.971,6.902,8.185,7.017,8.391z"/>
	<path d="M10.021,5.004c0.123,0.229,0.204,0.291,0.311,0.444l0.272,0.328c0.052,0.108,0.133,0.199,0.17,0.319
		c0.088,0.228,0.186,0.471,0.215,0.735c0.088,0.524,0.081,1.07,0.059,1.546c-0.062,0.956-0.155,1.652-0.155,1.652
		s0.51-0.494,0.916-1.472c0.102-0.244,0.2-0.516,0.265-0.824c0.065-0.301,0.128-0.632,0.114-0.991
		c-0.001-0.354-0.042-0.746-0.186-1.125c-0.056-0.193-0.174-0.374-0.266-0.562c-0.053-0.091-0.122-0.172-0.186-0.259l-0.097-0.126
		l-0.051-0.063l-0.01-0.017c0.004,0.008,0.016,0.019,0.028,0.032l-0.019-0.021C11.32,4.485,11.15,4.32,11.132,4.246
		c-0.04-0.085-0.099-0.154-0.137-0.288c-0.094-0.226-0.165-0.485-0.201-0.748c-0.079-0.53-0.069-1.076-0.048-1.557
		C10.81,0.697,10.893,0,10.893,0s-0.505,0.499-0.91,1.473C9.78,1.957,9.6,2.567,9.591,3.279C9.6,3.63,9.604,4.019,9.751,4.401
		C9.799,4.586,9.908,4.799,10.021,5.004z"/>
	<path d="M13.736,8.074c0.121,0.228,0.203,0.292,0.309,0.443l0.272,0.329c0.051,0.109,0.133,0.197,0.17,0.319
		c0.089,0.229,0.186,0.471,0.215,0.736c0.088,0.523,0.081,1.069,0.059,1.544c-0.062,0.958-0.155,1.653-0.155,1.653
		s0.511-0.493,0.917-1.473c0.102-0.242,0.2-0.518,0.264-0.821c0.065-0.304,0.128-0.634,0.114-0.994
		c-0.001-0.354-0.042-0.744-0.186-1.124c-0.055-0.194-0.174-0.374-0.266-0.562c-0.052-0.09-0.122-0.17-0.185-0.258l-0.097-0.126
		L15.117,7.68l-0.011-0.017c0.007,0.007,0.016,0.019,0.033,0.041l-0.003-0.008l-0.02-0.025c-0.085-0.115-0.254-0.28-0.271-0.354
		c-0.041-0.085-0.099-0.156-0.138-0.288c-0.093-0.226-0.164-0.486-0.201-0.749c-0.079-0.529-0.069-1.076-0.048-1.556
		c0.063-0.956,0.146-1.654,0.146-1.654s-0.505,0.5-0.909,1.477c-0.203,0.485-0.383,1.092-0.392,1.804
		c0.007,0.352,0.013,0.74,0.159,1.121C13.512,7.655,13.621,7.869,13.736,8.074z"/>
</g>
<g>
</g>
<g>
</g>
<g>
</g>
<g>
</g>
<g>
</g>
<g>
</g>
<g>
</g>
<g>
</g>
<g>
</g>
<g>
</g>
<g>
</g>
<g>
</g>
<g>
</g>
<g>
</g>
<g>
</g>
</svg>
