<?xml version="1.0" encoding="iso-8859-1"?>
<!-- Generator: Adobe Illustrator 16.0.0, SVG Export Plug-In . SVG Version: 6.00 Build 0)  -->
<!DOCTYPE svg PUBLIC "-//W3C//DTD SVG 1.1//EN" "http://www.w3.org/Graphics/SVG/1.1/DTD/svg11.dtd">
<svg version="1.1" id="Layer_1" xmlns="http://www.w3.org/2000/svg" xmlns:xlink="http://www.w3.org/1999/xlink" x="0px" y="0px"
	 width="30.879px" height="28.646px" viewBox="0 0 30.879 28.646" style="enable-background:new 0 0 30.879 28.646;"
	 xml:space="preserve">
<polygon points="15.747,3.739 15.747,3.742 15.753,3.749 "/>
<g>
	<path d="M10.002,9.498c0.137,0.256,0.23,0.328,0.351,0.502l0.309,0.373c0.058,0.125,0.15,0.223,0.191,0.359
		c0.101,0.261,0.212,0.535,0.245,0.836c0.099,0.591,0.091,1.208,0.065,1.749c-0.071,1.08-0.176,1.87-0.176,1.87
		s0.578-0.56,1.037-1.667c0.115-0.275,0.228-0.585,0.299-0.929c0.074-0.344,0.146-0.72,0.129-1.127c0-0.4-0.049-0.843-0.209-1.272
		c-0.063-0.22-0.197-0.422-0.301-0.635c-0.059-0.104-0.139-0.195-0.209-0.293l-0.111-0.144l-0.056-0.069l-0.013-0.018
		c0.007,0.008,0.018,0.019,0.04,0.044l-0.006-0.009l-0.021-0.026c-0.096-0.131-0.289-0.32-0.309-0.402
		c-0.045-0.097-0.111-0.177-0.155-0.325c-0.105-0.256-0.186-0.549-0.229-0.849c-0.089-0.599-0.078-1.218-0.054-1.76
		c0.072-1.084,0.166-1.875,0.166-1.875s-0.571,0.565-1.03,1.67c-0.23,0.55-0.433,1.237-0.443,2.045
		c0.01,0.398,0.016,0.836,0.182,1.268C9.75,9.023,9.873,9.265,10.002,9.498z"/>
	<path d="M13.405,5.664c0.138,0.259,0.23,0.33,0.351,0.504l0.308,0.371c0.059,0.123,0.151,0.226,0.192,0.361
		c0.101,0.258,0.211,0.533,0.245,0.833c0.099,0.593,0.091,1.211,0.066,1.75c-0.071,1.082-0.177,1.87-0.177,1.87
		s0.578-0.56,1.037-1.666c0.115-0.276,0.228-0.584,0.299-0.933c0.074-0.341,0.146-0.716,0.13-1.123c0-0.399-0.048-0.844-0.21-1.273
		c-0.063-0.219-0.197-0.423-0.301-0.635c-0.059-0.104-0.138-0.195-0.21-0.293l-0.11-0.144l-0.056-0.07l-0.013-0.019
		c0.005,0.009,0.018,0.021,0.033,0.036L14.969,5.21c-0.095-0.133-0.287-0.319-0.308-0.403c-0.045-0.096-0.111-0.175-0.156-0.326
		c-0.104-0.255-0.186-0.549-0.227-0.847c-0.089-0.601-0.078-1.219-0.054-1.762C14.296,0.789,14.391,0,14.391,0
		s-0.571,0.565-1.031,1.667c-0.229,0.549-0.432,1.239-0.442,2.045c0.01,0.397,0.016,0.837,0.182,1.271
		C13.152,5.191,13.276,5.433,13.405,5.664z"/>
	<path d="M17.61,9.141c0.137,0.257,0.229,0.33,0.35,0.502l0.309,0.372c0.057,0.124,0.15,0.224,0.191,0.361
		c0.101,0.259,0.21,0.533,0.244,0.834c0.1,0.592,0.091,1.21,0.067,1.748c-0.071,1.084-0.176,1.871-0.176,1.871
		s0.577-0.559,1.036-1.667c0.116-0.274,0.227-0.586,0.299-0.93c0.074-0.344,0.145-0.718,0.13-1.126
		c-0.001-0.399-0.048-0.842-0.209-1.271c-0.063-0.221-0.197-0.424-0.301-0.636c-0.06-0.103-0.138-0.193-0.209-0.292l-0.11-0.143
		l-0.057-0.071L19.16,8.675c0.008,0.008,0.019,0.021,0.039,0.046l-0.004-0.008l-0.021-0.029c-0.096-0.131-0.288-0.317-0.308-0.401
		c-0.046-0.096-0.111-0.177-0.156-0.326c-0.104-0.255-0.186-0.55-0.227-0.848c-0.09-0.6-0.078-1.219-0.054-1.761
		c0.071-1.083,0.167-1.873,0.167-1.873s-0.572,0.566-1.03,1.671c-0.229,0.55-0.434,1.236-0.443,2.042
		c0.008,0.398,0.014,0.839,0.18,1.27C17.356,8.666,17.479,8.908,17.61,9.141z"/>
	<path d="M26.239,14.854c-0.466,0.161-1.444,0.429-1.01,1.683c0.119,0.342,0.476,1.372,0.884,2.554
		c-0.11,0.33-0.174,0.684-0.183,1.09c-0.219,0.013-0.415,0.035-0.541,0.08c-0.426,0.15-0.988,0.704-1.283,1.017
		c-0.397-1.8-1.817-3.027-2.653-3.609h0.432v-0.787H6.213v0.787h0.511c-0.859,0.6-2.34,1.879-2.688,3.764
		c-0.201-0.225-0.913-0.99-1.426-1.171c-0.602-0.212-2.61,0-2.61,0v0.813c0,0,1.974-0.069,2.398,0.179
		c0.425,0.246,0.884,2.333,1.237,2.333c0.123,0,0.334,0,0.556,0c0.829,2.519,3.687,4.275,3.687,4.275H7.296v0.786h13.488V27.86H20.3
		c0,0,2.856-1.757,3.687-4.275c0.152,0,0.288,0,0.378,0c0.226,0,0.494-0.847,0.769-1.525c-0.004,0.162,0.022,0.334,0.085,0.516
		c0.136,0.392,0.365,0.65,0.681,0.77c0.325,0.124,0.664,0.059,0.896-0.018c0.388,0.701,0.902,1.378,1.369,1.686
		c0.512,1.477,0.882,2.546,0.997,2.878c0.356,1.027,1.333,0.497,1.718,0.363C30.718,27.788,26.356,15.191,26.239,14.854z
		 M8.096,26.056c-0.202-0.143-0.416-0.304-0.619-0.505c-0.211-0.191-0.438-0.393-0.628-0.648c-0.199-0.243-0.422-0.486-0.584-0.831
		l-0.258-0.489c-0.057-0.155-0.096-0.305-0.144-0.458l-0.061-0.231l-0.03-0.115c-0.04-0.157-0.013-0.122-0.022-0.192l-0.004-0.54
		c-0.035-0.364,0.122-0.685,0.179-1.008c0.2-0.624,0.511-1.137,0.812-1.535c0.614-0.794,1.191-1.134,1.191-1.134
		s-0.076,0.144-0.21,0.394c-0.129,0.25-0.299,0.608-0.488,1.031c-0.081,0.214-0.168,0.445-0.26,0.69
		c-0.056,0.251-0.146,0.507-0.194,0.772c-0.017,0.267-0.107,0.541-0.065,0.81l0.016,0.406c0,0.004,0.001,0.037,0.001,0.057
		l0.031,0.102l0.07,0.229c0.043,0.151,0.078,0.313,0.126,0.456l0.187,0.347c0.103,0.228,0.252,0.479,0.414,0.712
		c0.302,0.474,0.642,0.901,0.938,1.266c0.596,0.728,1.024,1.229,1.024,1.229S8.891,26.643,8.096,26.056z M26.094,22.829
		c-0.158-0.06-0.274-0.201-0.355-0.435s-0.078-0.418,0.01-0.569c0.078-0.133,0.217-0.226,0.35-0.286
		c0.054,0.215,0.115,0.434,0.191,0.652c0.077,0.223,0.164,0.432,0.256,0.635C26.403,22.863,26.237,22.883,26.094,22.829z"/>
</g>
<g>
</g>
<g>
</g>
<g>
</g>
<g>
</g>
<g>
</g>
<g>
</g>
<g>
</g>
<g>
</g>
<g>
</g>
<g>
</g>
<g>
</g>
<g>
</g>
<g>
</g>
<g>
</g>
<g>
</g>
</svg>
