<?xml version="1.0" encoding="iso-8859-1"?>
<!-- Generator: Adobe Illustrator 16.0.0, SVG Export Plug-In . SVG Version: 6.00 Build 0)  -->
<!DOCTYPE svg PUBLIC "-//W3C//DTD SVG 1.1//EN" "http://www.w3.org/Graphics/SVG/1.1/DTD/svg11.dtd">
<svg version="1.1" id="Layer_1" xmlns="http://www.w3.org/2000/svg" xmlns:xlink="http://www.w3.org/1999/xlink" x="0px" y="0px"
	 width="19.53px" height="30.913px" viewBox="0 0 19.53 30.913" style="enable-background:new 0 0 19.53 30.913;"
	 xml:space="preserve">
<path d="M19.323,11.389c-0.122,0-0.254,0-0.38,0c0.171-0.479,0.285-0.98,0.285-1.513c0-2.48-1.967-4.497-4.542-4.732
	c-0.47-2.204-2.521-3.822-4.921-3.822c-1.971,0-3.679,1.075-4.507,2.647C4.446,2.626,3.062,0.336,3.062,0.336L3.061,0.337
	C3.058,0.332,3.057,0.329,3.055,0.325C2.863,0.007,2.45-0.094,2.133,0.097C2.116,0.107,2.055,0.145,2.04,0.154
	C1.722,0.347,1.62,0.76,1.813,1.076c0.003,0.003,0.005,0.007,0.008,0.01L1.819,1.088c0,0,2.555,4.224,2.759,4.561
	c0.03,0.024,0.065,0.059,0.098,0.085c-2.403,0.374-4.227,2.349-4.227,4.714c0,0.253,0.008,0.595,0.148,0.941
	c-0.142,0-0.291,0-0.427,0c-1.629,5.91,8.905,8.656,8.905,9.208s0.043,3.13-0.005,5.189c0,2.702-2.976,4.265-4.393,4.854
	c-0.306,0.137-0.216,0.273,0,0.273c0.205,0,4.664,0,5.115,0c0.023,0,0.045,0,0.045,0c0.45,0,4.91,0,5.114,0
	c0.216,0,0.306-0.137,0.001-0.273c-1.418-0.589-4.395-2.151-4.395-4.854c-0.047-2.06-0.005-4.638-0.005-5.189
	S21.129,17.299,19.323,11.389z M7.303,18.15c-0.866-0.336-1.975-0.905-2.977-1.661c-0.493-0.386-0.97-0.806-1.359-1.266
	c-0.392-0.452-0.704-0.939-0.881-1.402c-0.188-0.461-0.218-0.888-0.178-1.175c0.003-0.061,0.015-0.107,0.025-0.153
	c0.043,0.016,0.096,0.027,0.142,0.042c0.009,0.034,0.017,0.066,0.028,0.104c0.071,0.241,0.227,0.572,0.481,0.911
	c0.511,0.685,1.398,1.438,2.343,2.147c0.939,0.715,1.922,1.404,2.652,1.953c0.732,0.539,1.212,0.949,1.212,0.949
	S8.168,18.493,7.303,18.15z M1.676,11.389c-0.342-0.274-0.344-0.612-0.343-0.978c0-1.063,0.606-2.848,2.801-3.676
	S7.9,6.864,8.249,7.193c0.63,0.597,1.233,2.164,1.014,2.92s0.273,0.905,0.438-0.047s0.219-2.422-0.844-3.514
	C8.021,5.762,6.877,5.587,6.001,5.58C5.926,5.343,5.864,5.111,5.824,4.908c0.533-1.564,2.09-2.704,3.941-2.704
	c1.92,0,3.552,1.248,4.001,2.962c-0.465,0.025-0.953,0.184-1.429,0.498c-0.84,0.554-1.575,1.754-1.567,2.219
	s0.288,0.632,0.461,0.043s1.047-1.219,1.593-1.524c0.534-0.299,2.137-0.564,3.551,0.195c1.186,0.639,1.971,2.324,1.971,3.279
	c0,0.536-0.117,1.048-0.329,1.513C13.024,11.389,6.238,11.389,1.676,11.389z"/>
<g>
</g>
<g>
</g>
<g>
</g>
<g>
</g>
<g>
</g>
<g>
</g>
<g>
</g>
<g>
</g>
<g>
</g>
<g>
</g>
<g>
</g>
<g>
</g>
<g>
</g>
<g>
</g>
<g>
</g>
</svg>
