<?xml version="1.0" encoding="iso-8859-1"?>
<!-- Generator: Adobe Illustrator 16.0.0, SVG Export Plug-In . SVG Version: 6.00 Build 0)  -->
<!DOCTYPE svg PUBLIC "-//W3C//DTD SVG 1.1//EN" "http://www.w3.org/Graphics/SVG/1.1/DTD/svg11.dtd">
<svg version="1.1" id="Layer_1" xmlns="http://www.w3.org/2000/svg" xmlns:xlink="http://www.w3.org/1999/xlink" x="0px" y="0px"
	 width="20.125px" height="21.996px" viewBox="0 0 20.125 21.996" style="enable-background:new 0 0 20.125 21.996;"
	 xml:space="preserve">
<path d="M13.846,3.538C13.707,1.42,13.501,0,13.288,0C12.449,0,1.354,0,0.774,0S0,6.516,0,10.998s0.774,10.998,0.774,10.998h12.514
	c0,0,0.11-1.003,0.245-2.578c2.711-0.51,6.593-1.652,6.593-4.028V6.853C20.125,5.152,18.014,4.041,13.846,3.538z M2.996,17.743
	c-0.052,0.898-0.139,1.646-0.18,2.171c-0.05,0.523-0.093,0.823-0.093,0.823L2.4,19.706c0,0-0.315-1.12-0.375-2.018
	c-0.069-0.897-0.127-1.944-0.168-3.066c-0.051-1.119-0.054-2.326-0.082-3.51C1.734,8.719,1.774,6.323,1.867,4.525
	c0.04-0.898,0.116-1.648,0.149-2.173c0.043-0.524,0.082-0.824,0.082-0.824s0.446,0.356,0.508,0.879
	C2.659,2.93,2.762,3.676,2.835,4.573c0.16,1.793,0.288,4.185,0.335,6.578C3.192,13.56,3.112,15.944,2.996,17.743z M17.545,15.266
	c-0.375,0.44-2.002,1.056-3.808,1.47c0.118-1.735,0.222-3.736,0.26-5.737c0.032-1.657,0.018-3.313-0.028-4.818
	c1.658,0.248,3.087,0.611,3.576,0.938V15.266z"/>
<g>
</g>
<g>
</g>
<g>
</g>
<g>
</g>
<g>
</g>
<g>
</g>
<g>
</g>
<g>
</g>
<g>
</g>
<g>
</g>
<g>
</g>
<g>
</g>
<g>
</g>
<g>
</g>
<g>
</g>
</svg>
