<?xml version="1.0" encoding="iso-8859-1"?>
<!-- Generator: Adobe Illustrator 16.0.0, SVG Export Plug-In . SVG Version: 6.00 Build 0)  -->
<!DOCTYPE svg PUBLIC "-//W3C//DTD SVG 1.1//EN" "http://www.w3.org/Graphics/SVG/1.1/DTD/svg11.dtd">
<svg version="1.1" id="Layer_1" xmlns="http://www.w3.org/2000/svg" xmlns:xlink="http://www.w3.org/1999/xlink" x="0px" y="0px"
	 width="27.825px" height="32px" viewBox="0 0 27.825 32" style="enable-background:new 0 0 27.825 32;" xml:space="preserve">
<path d="M21.553,0.169c-9.803-1.791-9.591,11.278-9.591,11.278s-1.371-7.482-4.954-6.429c-3.584,1.054-0.147,9.694,0,12.964
	c0.085,1.89,0.282,6.269,0.435,9.636c-1.614-0.392-4.518-0.793-6.699,0.61c-0.739,0.475-0.797,0.947-0.716,1.26
	c0.344,1.315,4.584,1.862,7.593,2.085C7.633,31.841,7.64,32,7.64,32h16.232c0,0,1.333-14.317,2.214-17.18
	C26.967,11.959,31.354,1.96,21.553,0.169z M0.945,29.3c0,0,0.039-0.1,0.312-0.273c1.993-1.282,4.839-0.778,6.229-0.414
	c0.035,0.775,0.065,1.454,0.091,2.005C4.142,30.343,1.2,29.748,0.945,29.3z"/>
<g>
</g>
<g>
</g>
<g>
</g>
<g>
</g>
<g>
</g>
<g>
</g>
<g>
</g>
<g>
</g>
<g>
</g>
<g>
</g>
<g>
</g>
<g>
</g>
<g>
</g>
<g>
</g>
<g>
</g>
</svg>
