<?xml version="1.0" encoding="iso-8859-1"?>
<!-- Generator: Adobe Illustrator 16.0.0, SVG Export Plug-In . SVG Version: 6.00 Build 0)  -->
<!DOCTYPE svg PUBLIC "-//W3C//DTD SVG 1.1//EN" "http://www.w3.org/Graphics/SVG/1.1/DTD/svg11.dtd">
<svg version="1.1" id="Layer_1" xmlns="http://www.w3.org/2000/svg" xmlns:xlink="http://www.w3.org/1999/xlink" x="0px" y="0px"
	 width="29.639px" height="18.341px" viewBox="0 0 29.639 18.341" style="enable-background:new 0 0 29.639 18.341;"
	 xml:space="preserve">
<g>
	<path d="M22.48,4.22c-0.401,0-1.109,0-2.009,0c-0.565-0.437-1.346-0.797-2.272-1.045c0.02-0.554-0.052-1.522-0.688-2.268
		C16.999,0.305,16.256,0,15.302,0c-1.189,0-1.851,0.495-2.195,0.909c-0.599,0.718-0.669,1.638-0.645,2.203
		c-1.025,0.249-1.879,0.636-2.49,1.107c-1.501,0-2.675,0-3.158,0c-1.822,0-2.248,1.031-2.248,1.714c0.826,0,19.946,0,20.545,0
		C25.11,5.106,24.703,4.22,22.48,4.22z M15.222,2.796c-0.487,0-0.956,0.036-1.412,0.088c0.009-0.356,0.084-0.807,0.336-1.108
		c0.236-0.284,0.615-0.423,1.156-0.423c0.545,0,0.93,0.14,1.178,0.428c0.265,0.309,0.351,0.766,0.366,1.128
		C16.326,2.84,15.785,2.796,15.222,2.796z"/>
	<path d="M27.122,8.413c-0.402,0.141-0.927,0.652-1.217,0.958c-0.035-1.557-0.492-2.806-0.492-2.806H14.968h-0.169H4.353
		c0,0-0.481,1.321-0.492,2.94c-0.228-0.25-0.871-0.927-1.343-1.093C1.938,8.208,0,8.413,0,8.413v0.783c0,0,1.903-0.066,2.313,0.172
		c0.409,0.237,0.852,2.251,1.192,2.251c0.144,0,0.407,0,0.664,0c0.156,0.475,0.374,0.939,0.689,1.371
		c1.792,2.453,3.12,4.271,3.278,4.487H7.104v0.863h1.065h13.598h0.754v-0.863h-0.754v-0.183h-0.005
		c0.409-0.562,1.604-2.196,3.145-4.305c0.315-0.432,0.533-0.896,0.689-1.371c0.213,0,0.417,0,0.537,0
		c0.341,0,0.783-2.014,1.193-2.251c0.409-0.238,2.313-0.172,2.313-0.172V8.413C29.639,8.413,27.701,8.208,27.122,8.413z
		 M6.402,12.316c-0.125-0.32-0.204-0.592-0.295-0.879c-0.144-0.57-0.247-1.104-0.292-1.568C5.711,8.944,5.78,8.322,5.78,8.322
		s0.202,0.575,0.505,1.44c0.149,0.427,0.333,0.917,0.544,1.43c0.105,0.247,0.221,0.533,0.338,0.759
		c0.149,0.254,0.268,0.553,0.425,0.788c0.3,0.509,0.6,1.017,0.88,1.493c0.293,0.481,0.552,0.943,0.771,1.345
		c0.441,0.798,0.688,1.376,0.688,1.376s-0.5-0.381-1.126-1.06c-0.635-0.682-1.387-1.623-2.008-2.751
		C6.636,12.861,6.527,12.593,6.402,12.316z"/>
</g>
<g>
</g>
<g>
</g>
<g>
</g>
<g>
</g>
<g>
</g>
<g>
</g>
<g>
</g>
<g>
</g>
<g>
</g>
<g>
</g>
<g>
</g>
<g>
</g>
<g>
</g>
<g>
</g>
<g>
</g>
</svg>
