<?xml version="1.0" encoding="iso-8859-1"?>
<!-- Generator: Adobe Illustrator 16.0.0, SVG Export Plug-In . SVG Version: 6.00 Build 0)  -->
<!DOCTYPE svg PUBLIC "-//W3C//DTD SVG 1.1//EN" "http://www.w3.org/Graphics/SVG/1.1/DTD/svg11.dtd">
<svg version="1.1" id="Layer_1" xmlns="http://www.w3.org/2000/svg" xmlns:xlink="http://www.w3.org/1999/xlink" x="0px" y="0px"
	 width="9.633px" height="32.501px" viewBox="0 0 9.633 32.501" style="enable-background:new 0 0 9.633 32.501;"
	 xml:space="preserve">
<path d="M7.191,14.512c-0.09-0.082-0.184-0.153-0.278-0.211v-0.917c0.412-0.343,0.852-1.115,0.852-2.852
	c0-1.593-0.444-6.111-1.268-7.535c0.1-0.531,0.012-1.325-0.214-1.869C6.009,0.469,5.53,0.073,4.951,0.015
	C4.935,0.011,4.9,0.001,4.856,0.001L4.789,0L4.701,0.013c-0.597,0.061-1.077,0.457-1.35,1.116C3.125,1.673,3.037,2.467,3.137,2.998
	C2.313,4.421,1.869,8.94,1.869,10.533c0,1.736,0.44,2.509,0.852,2.852v0.917c-0.095,0.058-0.188,0.128-0.278,0.211
	c-1.215,1.104-2.622,5.016-2.424,17.384c0.005,0.334,0.281,0.605,0.625,0.605c0.338-0.007,0.609-0.287,0.604-0.625
	c-0.248-15.548,2.119-16.53,2.097-16.531c0.143,0,0.289-0.057,0.4-0.157c0.13-0.116,0.205-0.283,0.205-0.458v-1.725
	c0-0.11,0.001-0.277-0.141-0.416c-0.086-0.083-0.175-0.144-0.312-0.162c-0.074-0.075-0.398-0.488-0.398-1.895
	c0-2.532,0.677-6.122,1.022-6.83h1.383c0.381,0.773,1.03,4.423,1.03,6.83c0,1.262-0.271,1.787-0.365,1.888
	c-0.127,0.017-0.231,0.069-0.331,0.166c-0.156,0.15-0.156,0.347-0.156,0.44v1.703c0,0.175,0.075,0.342,0.205,0.459
	c0.097,0.086,0.218,0.14,0.371,0.151c0.031,0.022,0.071,0.052,0.105,0.082c0.528,0.48,2.234,3.085,2.021,16.454
	c-0.006,0.338,0.266,0.618,0.609,0.625H9c0.334,0,0.61-0.271,0.615-0.605C9.812,19.527,8.405,15.615,7.191,14.512z M5.307,2.473
	H4.326c0.005-0.335,0.077-0.784,0.257-1.059C4.684,1.26,4.77,1.238,4.817,1.233C4.864,1.238,4.95,1.26,5.051,1.415
	C5.23,1.689,5.302,2.138,5.307,2.473z M4.886,0.257L4.886,0.257L4.886,0.257L4.886,0.257z"/>
<g>
</g>
<g>
</g>
<g>
</g>
<g>
</g>
<g>
</g>
<g>
</g>
<g>
</g>
<g>
</g>
<g>
</g>
<g>
</g>
<g>
</g>
<g>
</g>
<g>
</g>
<g>
</g>
<g>
</g>
</svg>
