<?xml version="1.0" encoding="iso-8859-1"?>
<!-- Generator: Adobe Illustrator 16.0.0, SVG Export Plug-In . SVG Version: 6.00 Build 0)  -->
<!DOCTYPE svg PUBLIC "-//W3C//DTD SVG 1.1//EN" "http://www.w3.org/Graphics/SVG/1.1/DTD/svg11.dtd">
<svg version="1.1" id="Layer_1" xmlns="http://www.w3.org/2000/svg" xmlns:xlink="http://www.w3.org/1999/xlink" x="0px" y="0px"
	 width="31.956px" height="32px" viewBox="0 0 31.956 32" style="enable-background:new 0 0 31.956 32;" xml:space="preserve">
<path d="M16.585,8.096l-0.008-0.01c0.004,0.006,0.006,0.015,0.009,0.021c0.037,0.678,0.161,1.35,0.376,2.001
	c0.047,0.185,0.112,0.361,0.191,0.531c0.039,0.094,0.087,0.187,0.13,0.279c0,0.003,0,0.006,0.001,0.008
	c-0.295,4.833-4.458,5.898-5.075,6.518C11.518,18.134,0.507,29.146,0.507,29.146l0.004,0.001c-0.008,0.01-0.016,0.016-0.025,0.022
	c-0.646,0.646-0.648,1.699-0.001,2.344c0.647,0.649,1.699,0.649,2.345,0.002c0.01-0.008,0.016-0.018,0.023-0.026
	c0.017-0.016,10.881-10.879,11.678-11.678c0.709-0.706,2.357-4.874,6.604-5.071c0.19,0.104,0.417,0.176,0.651,0.233
	c0.464,0.156,0.937,0.268,1.415,0.334c0.008,0.004,0.019,0.007,0.026,0.012l-0.008-0.01c2.301,0.313,4.714-0.405,6.482-2.174
	c1.903-1.903,2.601-4.556,2.093-7.007c-0.294-1.42-6.433,2.668-7.534,1.565c-0.817-0.817,3.668-6.853,2.648-7.226
	c-2.725-0.996-5.902-0.401-8.089,1.785C17.216,3.857,16.477,5.994,16.585,8.096z"/>
<g>
</g>
<g>
</g>
<g>
</g>
<g>
</g>
<g>
</g>
<g>
</g>
<g>
</g>
<g>
</g>
<g>
</g>
<g>
</g>
<g>
</g>
<g>
</g>
<g>
</g>
<g>
</g>
<g>
</g>
</svg>
