<?xml version="1.0" encoding="iso-8859-1"?>
<!-- Generator: Adobe Illustrator 16.0.0, SVG Export Plug-In . SVG Version: 6.00 Build 0)  -->
<!DOCTYPE svg PUBLIC "-//W3C//DTD SVG 1.1//EN" "http://www.w3.org/Graphics/SVG/1.1/DTD/svg11.dtd">
<svg version="1.1" id="Layer_1" xmlns="http://www.w3.org/2000/svg" xmlns:xlink="http://www.w3.org/1999/xlink" x="0px" y="0px"
	 width="32px" height="24.857px" viewBox="0 0 32 24.857" style="enable-background:new 0 0 32 24.857;" xml:space="preserve">
<g>
	<path d="M4.262,1.66c-0.956,0-3.226,0.488-3.912,2.553c-1.247,3.745,1.168,10.104,2.065,10.45c0,0.004,0,0.007,0,0.012
		c1.462,0.4,0.848,1.998,0.735,2.201c0,0.407,0.032,7.175,0.032,7.175h0.002c0,0.004-0.002,0.008-0.002,0.014
		c0,0.38,0.309,0.69,0.69,0.69c0.381,0,0.69-0.31,0.69-0.69c0-0.005-0.001-0.009-0.001-0.014h0.001c0,0,0-7.296,0-7.766
		c0-0.108-0.001-0.857-0.002-1.91C5.565,12.42,6.751,1.66,4.262,1.66z"/>
	<path d="M10.033,0C7.362,0,5.268,12.284,7.816,12.284c0.384,0,0.7,0,0.969,0c0.005,0.004,0.009,0.009,0.014,0.013
		c1.526,1.722,0.486,3.479,0.486,3.895c0,0.464,0,7.863,0,7.863h0.001c0,0.005-0.001,0.01-0.001,0.015
		c0,0.435,0.353,0.788,0.787,0.788c0.436,0,0.789-0.354,0.789-0.788c0-0.005-0.001-0.01-0.001-0.015h0.001c0,0,0-7.311,0-7.848
		c0-0.475-0.847-2.43,0.513-3.922c0.243,0,0.528,0,0.874,0C14.549,12.284,12.704,0,10.033,0z"/>
	<path d="M21.435,5.605c0.027-3.054-1.556-4.917-2.466-5.127c-0.02-0.012-0.04-0.021-0.06-0.021c-0.016,0-0.035,0.005-0.052,0.007
		c-0.017-0.001-0.036-0.007-0.052-0.007c-0.02,0-0.04,0.009-0.06,0.021c-0.91,0.21-2.493,2.073-2.466,5.127
		c0.028,3.245-1.808,2.489-1.808,4.476c0,1.763,1.536,2.511,3.408,2.656c1.179,1.6,0.266,3.168,0.266,3.554c0,0.455,0,7.708,0,7.708
		h0.001c0,0.005-0.001,0.009-0.001,0.015c0,0.426,0.346,0.773,0.772,0.773c0.427,0,0.773-0.347,0.773-0.773
		c0-0.005-0.001-0.009-0.001-0.015h0.001c0,0,0-7.166,0-7.693c0-0.438-0.734-2.161,0.29-3.581c1.805-0.173,3.262-0.927,3.262-2.644
		C23.243,8.095,21.407,8.85,21.435,5.605z"/>
	<path d="M28.263,0.007C28.251,0.003,28.239,0,28.226,0c-0.007,0-0.015,0.002-0.023,0.002C28.194,0.002,28.186,0,28.176,0
		c-0.015,0-0.028,0.003-0.042,0.007c-2.122,0.153-3.846,5.48-3.725,8.093c0.121,2.651,0.364,4.986,2.991,4.986
		c0.002,0,0.007,0,0.009,0c0.89,1.499,0.082,2.911,0.082,3.275c0,0.455,0,7.708,0,7.708h0.001c0,0.005-0.001,0.009-0.001,0.015
		c0,0.426,0.346,0.772,0.772,0.772c0.427,0,0.773-0.347,0.773-0.772c0-0.005-0.001-0.009-0.001-0.015h0.001c0,0,0-7.167,0-7.693
		c0-0.409-0.64-1.94,0.11-3.298c2.488-0.087,2.73-2.377,2.849-4.978C32.115,5.485,30.388,0.151,28.263,0.007z"/>
</g>
<g>
</g>
<g>
</g>
<g>
</g>
<g>
</g>
<g>
</g>
<g>
</g>
<g>
</g>
<g>
</g>
<g>
</g>
<g>
</g>
<g>
</g>
<g>
</g>
<g>
</g>
<g>
</g>
<g>
</g>
</svg>
