<?xml version="1.0" encoding="iso-8859-1"?>
<!-- Generator: Adobe Illustrator 16.0.0, SVG Export Plug-In . SVG Version: 6.00 Build 0)  -->
<!DOCTYPE svg PUBLIC "-//W3C//DTD SVG 1.1//EN" "http://www.w3.org/Graphics/SVG/1.1/DTD/svg11.dtd">
<svg version="1.1" id="Layer_1" xmlns="http://www.w3.org/2000/svg" xmlns:xlink="http://www.w3.org/1999/xlink" x="0px" y="0px"
	 width="31.999px" height="32px" viewBox="0 0 31.999 32" style="enable-background:new 0 0 31.999 32;" xml:space="preserve">
<path d="M26.695,11.219c2.627-3.191,7.085-7.977,4.551-10.464c0,0-0.001,0-0.002,0c0,0,0-0.001,0-0.001
	c-2.487-2.534-7.273,1.923-10.464,4.551c-3.191,2.628-10.745,8.962-10.98,9.197C9.564,14.736,0,25.24,0,25.24l1.313,1.314
	c0,0,9.402-11.186,15.973-12.64c0.751-0.752,1.642-1.643,2.157-2.158c-0.587-1.009,1.76-5.468,5.067-4.646
	c0.682-0.68,0.398-0.445,1.033-1.079c-0.352-0.728,0.756-3.646,3.496-3.073c0.012-0.012,0.014-0.01,0.002,0.001
	c0.572,2.74-2.346,3.849-3.074,3.497c-0.633,0.635-0.398,0.352-1.078,1.032c0.82,3.309-3.637,5.653-4.646,5.067
	c-0.516,0.517-1.406,1.406-2.158,2.159c-1.453,6.569-12.639,15.97-12.639,15.97L6.76,32c0,0,10.504-9.565,10.738-9.801
	C17.732,21.965,24.067,14.41,26.695,11.219z"/>
<g>
</g>
<g>
</g>
<g>
</g>
<g>
</g>
<g>
</g>
<g>
</g>
<g>
</g>
<g>
</g>
<g>
</g>
<g>
</g>
<g>
</g>
<g>
</g>
<g>
</g>
<g>
</g>
<g>
</g>
</svg>
