<?xml version="1.0" encoding="iso-8859-1"?>
<!-- Generator: Adobe Illustrator 16.0.0, SVG Export Plug-In . SVG Version: 6.00 Build 0)  -->
<!DOCTYPE svg PUBLIC "-//W3C//DTD SVG 1.1//EN" "http://www.w3.org/Graphics/SVG/1.1/DTD/svg11.dtd">
<svg version="1.1" id="Layer_1" xmlns="http://www.w3.org/2000/svg" xmlns:xlink="http://www.w3.org/1999/xlink" x="0px" y="0px"
	 width="31.16px" height="32px" viewBox="0 0 31.16 32" style="enable-background:new 0 0 31.16 32;" xml:space="preserve">
<g>
	<path d="M23.76,14.529c-0.014-0.01-0.023-0.022-0.034-0.033c-0.052-0.033-0.1-0.068-0.153-0.092L23.76,14.529z"/>
	<path d="M16.811,7.642c-0.021-0.054-0.059-0.102-0.09-0.152c-0.012-0.011-0.024-0.021-0.034-0.033L16.811,7.642z"/>
	<path d="M11.96,6.793c3.817,5.93,0.037,0.089,3.817,5.93c-0.001,0.014,0,0.024,0.002,0.037c-0.268,4.413-4.068,5.386-4.633,5.95
		c-0.63,0.63-10.684,10.684-10.684,10.684l0.003,0.002c-0.007,0.008-0.015,0.013-0.023,0.02c-0.59,0.59-0.591,1.551,0,2.14
		c0.591,0.594,1.551,0.593,2.141,0.002c0.009-0.008,0.014-0.017,0.021-0.023v0.001c0,0,9.935-9.934,10.663-10.663
		c0.646-0.645,2.152-4.451,6.029-4.631c6.197,3.414,0,0,6.197,3.414c2.986,1.154,5.828-12.861,5.659-13.607s-5.239-5.77-5.674-6.034
		C25.047-0.251,10.564,3.566,11.96,6.793z M16.093,6.627l0.373,0.501c0.079,0.122,0.174,0.24,0.255,0.361
		c0.263,0.296,0.553,0.563,0.828,0.848l0.871,0.871l1.743,1.742l0.019,0.02l0.063,0.063l0.02,0.02l1.742,1.742l0.872,0.872
		c0.282,0.274,0.551,0.563,0.847,0.828c0.121,0.081,0.238,0.174,0.362,0.253l0.501,0.375c0.334,0.252,0.662,0.514,0.99,0.784
		c-0.421-0.048-0.837-0.108-1.251-0.175l-0.617-0.105c-0.201-0.045-0.421-0.053-0.607-0.135l-0.121-0.053l-0.063-0.072
		c-0.273-0.308-0.576-0.584-0.863-0.879l-0.872-0.871l-1.742-1.742l-0.019-0.02l-0.064-0.063l-0.019-0.021l-1.742-1.741
		l-0.872-0.872c-0.294-0.287-0.571-0.59-0.88-0.863l-0.072-0.063l-0.053-0.122c-0.081-0.186-0.089-0.406-0.134-0.606l-0.106-0.618
		c-0.065-0.412-0.126-0.829-0.174-1.25C15.579,5.962,15.84,6.293,16.093,6.627z"/>
</g>
<g>
</g>
<g>
</g>
<g>
</g>
<g>
</g>
<g>
</g>
<g>
</g>
<g>
</g>
<g>
</g>
<g>
</g>
<g>
</g>
<g>
</g>
<g>
</g>
<g>
</g>
<g>
</g>
<g>
</g>
</svg>
