<?xml version="1.0" encoding="iso-8859-1"?>
<!-- Generator: Adobe Illustrator 16.0.0, SVG Export Plug-In . SVG Version: 6.00 Build 0)  -->
<!DOCTYPE svg PUBLIC "-//W3C//DTD SVG 1.1//EN" "http://www.w3.org/Graphics/SVG/1.1/DTD/svg11.dtd">
<svg version="1.1" id="Layer_1" xmlns="http://www.w3.org/2000/svg" xmlns:xlink="http://www.w3.org/1999/xlink" x="0px" y="0px"
	 width="30.461px" height="31.227px" viewBox="0 0 30.461 31.227" style="enable-background:new 0 0 30.461 31.227;"
	 xml:space="preserve">
<g>
	<path d="M27.713,2.894C28.331,2.894,31.679,0,29.991,0C28.302,0,1.718,0,0.362,0S1.839,2.894,2.7,2.894c0.284,0,3.034,0,6.614,0
		V6.39H2.502L1.417,31.227h27.127L27.458,6.39h-5.606V2.894C25.109,2.894,27.522,2.894,27.713,2.894z M23.962,18.988
		c0,4.628-3.751,8.38-8.379,8.38s-8.379-3.752-8.379-8.38c0-4.627,3.751-8.379,8.379-8.379S23.962,14.361,23.962,18.988z"/>
	<path d="M17.414,18.53l-0.012-0.036c-0.026-0.109-0.06-0.217-0.105-0.317l-1.352-4.071h-0.874l-1.08,4.244
		c-0.028,0.084-0.051,0.17-0.066,0.259l-0.012,0.047h0.007c-0.011,0.08-0.024,0.159-0.024,0.243c0,0.982,0.796,1.777,1.778,1.777
		c0.983,0,1.779-0.795,1.779-1.777C17.452,18.771,17.438,18.649,17.414,18.53L17.414,18.53z"/>
</g>
<g>
</g>
<g>
</g>
<g>
</g>
<g>
</g>
<g>
</g>
<g>
</g>
<g>
</g>
<g>
</g>
<g>
</g>
<g>
</g>
<g>
</g>
<g>
</g>
<g>
</g>
<g>
</g>
<g>
</g>
</svg>
