<?xml version="1.0" encoding="iso-8859-1"?>
<!-- Generator: Adobe Illustrator 16.0.0, SVG Export Plug-In . SVG Version: 6.00 Build 0)  -->
<!DOCTYPE svg PUBLIC "-//W3C//DTD SVG 1.1//EN" "http://www.w3.org/Graphics/SVG/1.1/DTD/svg11.dtd">
<svg version="1.1" id="Layer_1" xmlns="http://www.w3.org/2000/svg" xmlns:xlink="http://www.w3.org/1999/xlink" x="0px" y="0px"
	 width="27.452px" height="16.523px" viewBox="0 0 27.452 16.523" style="enable-background:new 0 0 27.452 16.523;"
	 xml:space="preserve">
<g>
	<path d="M25.195,7.191c-0.486,0.172-1.177,0.948-1.267,1.05c0.021-0.677,0.021-1.233,0.019-1.57h0.608V5.769H2.853v0.902h0.592
		c-0.01,0.315-0.02,0.82-0.016,1.438C3.199,7.86,2.658,7.306,2.257,7.164c-0.52-0.185-2.257,0-2.257,0v0.702
		c0,0,1.707-0.06,2.074,0.154c0.366,0.213,0.764,2.018,1.069,2.018c0.082,0,0.207,0,0.348,0c0.139,2.336,0.556,5.004,1.718,5.548
		H4.693v0.938h17.989v-0.938h-0.682c1.169-0.542,1.641-3.19,1.828-5.52c0.19,0,0.373,0,0.479,0c0.306,0,0.702-1.804,1.069-2.019
		c0.368-0.213,2.074-0.153,2.074-0.153V7.191C27.452,7.191,25.715,7.008,25.195,7.191z M5.949,13.976
		c-0.201-0.353-0.406-0.778-0.572-1.263c-0.085-0.236-0.154-0.498-0.216-0.777c-0.07-0.28-0.094-0.545-0.116-0.803
		c-0.008-0.064-0.013-0.13-0.015-0.196l-0.006-0.125l0.003-0.103l0.01-0.408c-0.006-0.271,0.044-0.532,0.07-0.785
		c0.064-0.504,0.176-0.962,0.281-1.352C5.604,7.39,5.857,6.907,5.857,6.907s-0.005,0.53-0.015,1.325
		C5.838,8.625,5.841,9.079,5.85,9.559c0.017,0.239,0.013,0.488,0.036,0.733l0.027,0.371l0.008,0.094
		c-0.001-0.019,0.011,0.051,0.016,0.07c0.015,0.066,0.026,0.131,0.035,0.195c0.033,0.265,0.081,0.52,0.14,0.74
		c0.04,0.231,0.09,0.463,0.153,0.697c0.095,0.466,0.203,0.905,0.279,1.29c0.158,0.768,0.21,1.324,0.21,1.324
		S6.35,14.683,5.949,13.976z"/>
	<path d="M21.944,3.354c-0.484,0-1.846,0-3.591,0c-0.454-0.38-1.081-0.693-1.828-0.905c0.008-0.439-0.055-1.192-0.538-1.757
		C15.596,0.231,15.028,0,14.303,0c-0.728,0-1.292,0.233-1.677,0.694c-0.453,0.542-0.517,1.256-0.504,1.704
		c-0.822,0.213-1.511,0.546-1.997,0.955c-2.229,0-4.017,0-4.493,0c-1.43,0-1.763,1.215-1.763,1.798c0.646,0,19.667,0,20.138,0
		C24.007,4.446,23.688,3.354,21.944,3.354z M14.238,2.141c-0.398,0-0.78,0.032-1.152,0.08c0.01-0.298,0.076-0.664,0.283-0.911
		c0.195-0.23,0.501-0.345,0.934-0.345c0.435,0,0.745,0.115,0.949,0.351c0.217,0.253,0.291,0.627,0.308,0.927
		C15.139,2.179,14.697,2.141,14.238,2.141z"/>
</g>
<g>
</g>
<g>
</g>
<g>
</g>
<g>
</g>
<g>
</g>
<g>
</g>
<g>
</g>
<g>
</g>
<g>
</g>
<g>
</g>
<g>
</g>
<g>
</g>
<g>
</g>
<g>
</g>
<g>
</g>
</svg>
