<?xml version="1.0" encoding="iso-8859-1"?>
<!-- Generator: Adobe Illustrator 16.0.0, SVG Export Plug-In . SVG Version: 6.00 Build 0)  -->
<!DOCTYPE svg PUBLIC "-//W3C//DTD SVG 1.1//EN" "http://www.w3.org/Graphics/SVG/1.1/DTD/svg11.dtd">
<svg version="1.1" id="Layer_1" xmlns="http://www.w3.org/2000/svg" xmlns:xlink="http://www.w3.org/1999/xlink" x="0px" y="0px"
	 width="32px" height="19.829px" viewBox="0 0 32 19.829" style="enable-background:new 0 0 32 19.829;" xml:space="preserve">
<g>
	<path d="M27.057,5.12c0-0.764,0.18-1.815-1.87-1.815c-0.577,0-2.166,0-4.188,0c-0.679-0.522-1.695-0.929-2.901-1.144
		C18.091,1.729,18,1.089,17.582,0.606C17.344,0.33,16.896,0,16.127,0c-0.771,0-1.212,0.331-1.447,0.608
		c-0.408,0.481-0.487,1.119-0.486,1.553c-1.206,0.215-2.223,0.621-2.9,1.144c-2.316,0-4.139,0-4.667,0
		c-1.682,0-1.479,1.185-1.479,1.815C5.91,5.12,26.504,5.12,27.057,5.12z M15.383,1.202c0.16-0.189,0.403-0.281,0.744-0.281
		c0.343,0,0.59,0.094,0.757,0.285c0.191,0.22,0.264,0.551,0.284,0.833c-0.332-0.029-0.673-0.047-1.022-0.047
		c-0.352,0-0.693,0.018-1.026,0.047C15.133,1.758,15.196,1.423,15.383,1.202z"/>
	<path d="M29.014,7.937c-0.368,0.13-0.828,0.525-1.177,0.866c0.018-0.84-0.124-1.632-0.46-2.322h0.463V5.68H4.377V6.48h0.304
		C4.299,7.266,4.169,8.182,4.236,9.149c-0.355-0.354-0.855-0.799-1.25-0.938C2.298,7.969,0,8.212,0,8.212v0.93
		c0,0,2.258-0.08,2.743,0.203c0.485,0.282,1.011,2.67,1.415,2.67c0.164,0,0.46,0,0.755,0c1.175,3.029,3.607,6.763,5.489,6.763H8.146
		v1.052h15.938v-1.052h-2.429c1.938,0,4.461-3.901,5.591-7.038c0.238,0,0.461,0,0.596,0c0.404,0,0.93-2.388,1.415-2.67
		C29.742,8.786,32,8.866,32,8.866v-0.93C32,7.937,29.702,7.693,29.014,7.937z M9.689,16.315c-0.431-0.335-0.905-0.777-1.318-1.329
		c-0.215-0.27-0.416-0.564-0.596-0.88c-0.189-0.309-0.332-0.649-0.499-0.978c-0.124-0.346-0.251-0.691-0.359-1.035
		c-0.09-0.349-0.163-0.696-0.229-1.03c-0.095-0.677-0.141-1.313-0.103-1.861C6.58,8.654,6.688,8.228,6.734,7.917
		c0.058-0.307,0.1-0.482,0.1-0.482S6.875,7.61,6.932,7.917c0.064,0.304,0.103,0.758,0.224,1.258c0.051,0.25,0.106,0.521,0.165,0.809
		c0.075,0.285,0.159,0.582,0.226,0.892c0.185,0.608,0.387,1.248,0.65,1.864c0.145,0.3,0.261,0.616,0.424,0.901
		s0.296,0.584,0.474,0.844c0.322,0.542,0.678,1.015,0.995,1.419c0.645,0.798,1.182,1.281,1.182,1.281S10.557,16.994,9.689,16.315z"
		/>
</g>
<g>
</g>
<g>
</g>
<g>
</g>
<g>
</g>
<g>
</g>
<g>
</g>
<g>
</g>
<g>
</g>
<g>
</g>
<g>
</g>
<g>
</g>
<g>
</g>
<g>
</g>
<g>
</g>
<g>
</g>
</svg>
