<?xml version="1.0" encoding="iso-8859-1"?>
<!-- Generator: Adobe Illustrator 16.0.0, SVG Export Plug-In . SVG Version: 6.00 Build 0)  -->
<!DOCTYPE svg PUBLIC "-//W3C//DTD SVG 1.1//EN" "http://www.w3.org/Graphics/SVG/1.1/DTD/svg11.dtd">
<svg version="1.1" id="Layer_1" xmlns="http://www.w3.org/2000/svg" xmlns:xlink="http://www.w3.org/1999/xlink" x="0px" y="0px"
	 width="32px" height="20.337px" viewBox="0 0 32 20.337" style="enable-background:new 0 0 32 20.337;" xml:space="preserve">
<g>
	<path d="M27.035,6.699c0-1.094,0.259-2.265-2.676-2.265c-0.597,0-1.137,0-2.321,0c-0.81-0.399-1.787-0.713-2.878-0.92
		c0.022-0.621-0.05-1.759-0.772-2.594C18.024,0.501,17.348,0,16.187,0c-1.165,0-1.835,0.503-2.192,0.925
		c-0.705,0.833-0.76,1.964-0.727,2.589c-1.093,0.206-2.071,0.521-2.882,0.921c-1.293,0-2.771,0-3.311,0
		c-2.407,0-2.117,1.361-2.117,2.265C6.05,6.699,26.245,6.699,27.035,6.699z M15.24,1.981c0.073-0.086,0.295-0.348,0.946-0.348
		c0.44,0,0.756,0.115,0.963,0.353c0.297,0.341,0.37,0.892,0.376,1.302c-0.428-0.033-0.866-0.052-1.313-0.052
		c-0.448,0-0.887,0.019-1.315,0.052C14.893,2.889,14.952,2.321,15.24,1.981z"/>
	<path d="M28.959,8.373c-0.686,0.241-1.683,1.386-1.723,1.433l-0.07-0.854l-0.007,0.001c-0.022-0.19-0.047-0.357-0.07-0.494h0.283
		v-1.16H4.597v1.16h0.303C4.847,8.768,4.791,9.235,4.75,9.785C4.641,9.66,3.7,8.601,3.041,8.369c-0.7-0.248-3.041,0-3.041,0v0.946
		c0,0,2.3-0.081,2.794,0.207c0.494,0.287,1.029,2.719,1.441,2.719c0.108,0,0.273,0,0.458,0c0.004,0.13,0.007,0.261,0.014,0.39
		c0.109,2.038,0.861,6.04,0.957,6.55H4.51v1.156h22.813v-1.156h-0.998v-0.002c0.097-0.511,0.847-4.511,0.957-6.548
		c0.006-0.129,0.003-0.257,0.006-0.386c0.192,0,0.366,0,0.478,0c0.412,0,0.947-2.431,1.441-2.718C29.7,9.239,32,9.319,32,9.319
		V8.373C32,8.373,29.659,8.125,28.959,8.373z M6.61,12.924c0.036-0.341,0.07-0.676,0.104-1.002c0.107-0.644,0.255-1.233,0.426-1.725
		c0.335-0.986,0.748-1.559,0.748-1.559s-0.058,0.674-0.146,1.684c-0.03,0.499-0.058,1.073-0.08,1.685
		c-0.005,0.614-0.009,1.261,0.029,1.907c0.007,0.279,0.049,0.655,0.072,0.973c0.021,0.341,0.074,0.62,0.104,0.924
		c0.079,0.593,0.179,1.163,0.272,1.649c0.193,0.97,0.375,1.643,0.375,1.643s-0.512-0.493-0.973-1.435
		c-0.112-0.235-0.247-0.489-0.336-0.774c-0.1-0.283-0.224-0.574-0.287-0.904c-0.067-0.319-0.186-0.674-0.206-0.995
		c-0.032-0.343-0.093-0.634-0.106-1.027C6.608,13.617,6.61,13.268,6.61,12.924z"/>
</g>
<g>
</g>
<g>
</g>
<g>
</g>
<g>
</g>
<g>
</g>
<g>
</g>
<g>
</g>
<g>
</g>
<g>
</g>
<g>
</g>
<g>
</g>
<g>
</g>
<g>
</g>
<g>
</g>
<g>
</g>
</svg>
