<?xml version="1.0" encoding="utf-8"?>
<!-- Generator: Adobe Illustrator 16.0.4, SVG Export Plug-In . SVG Version: 6.00 Build 0)  -->
<!DOCTYPE svg PUBLIC "-//W3C//DTD SVG 1.1//EN" "http://www.w3.org/Graphics/SVG/1.1/DTD/svg11.dtd">
<svg version="1.1" id="Layer_1" xmlns="http://www.w3.org/2000/svg" xmlns:xlink="http://www.w3.org/1999/xlink" x="0px" y="0px"
	 width="32px" height="25.773px" viewBox="0 0 32 25.773" enable-background="new 0 0 32 25.773" xml:space="preserve">
<path d="M28.005,7.974c-0.704,0.247-1.657,1.222-2.069,1.666c0-1.774,0-3.053,0-3.053l-9.461-0.046V6.537L15.993,6.54l-0.481-0.003
	v0.005L6.049,6.588c0,0,0,1.269,0,3.035C5.628,9.17,4.689,8.219,3.995,7.974c-0.92-0.326-3.995,0-3.995,0v1.243
	c0,0,3.021-0.105,3.671,0.272c0.65,0.377,1.353,3.57,1.894,3.57c0.119,0,0.29,0,0.484,0c0,3.268,0,2.661,0,3.241
	c0,1.162,1.112,2.936,3.238,2.936c1.55,0,4.653,0,6.225,0c0.583,0,0.961,0,0.961,0c1.57,0,4.675,0,6.225,0
	c2.125,0,3.237-1.771,3.237-2.936c0-0.58,0,0.025,0-3.241c0.201,0,0.379,0,0.5,0c0.541,0,1.244-3.193,1.895-3.57
	C28.979,9.111,32,9.218,32,9.218V7.974C32,7.974,28.925,7.647,28.005,7.974z M9.988,17.953c-0.34-0.021-0.844-0.146-1.34-0.533
	c-0.243-0.193-0.489-0.457-0.649-0.805c-0.173-0.35-0.229-0.809-0.229-1.121c-0.043-0.695-0.055-1.439-0.063-2.185
	c0.001-1.486,0.083-2.976,0.211-4.093c0.119-1.117,0.288-1.862,0.288-1.862s0.169,0.742,0.288,1.856
	c0.128,1.115,0.21,2.602,0.211,4.089c-0.01,0.746-0.021,1.49-0.064,2.187c-0.021,0.385-0.037,0.609,0.04,0.857
	c0.075,0.248,0.2,0.48,0.358,0.672c0.318,0.385,0.706,0.629,0.994,0.75c0.291,0.127,0.484,0.152,0.484,0.152
	S10.334,17.975,9.988,17.953z"/>
</svg>
