<?xml version="1.0" encoding="iso-8859-1"?>
<!-- Generator: Adobe Illustrator 16.0.0, SVG Export Plug-In . SVG Version: 6.00 Build 0)  -->
<!DOCTYPE svg PUBLIC "-//W3C//DTD SVG 1.1//EN" "http://www.w3.org/Graphics/SVG/1.1/DTD/svg11.dtd">
<svg version="1.1" id="Layer_1" xmlns="http://www.w3.org/2000/svg" xmlns:xlink="http://www.w3.org/1999/xlink" x="0px" y="0px"
	 width="32px" height="31.726px" viewBox="0 0 32 31.726" style="enable-background:new 0 0 32 31.726;" xml:space="preserve">
<g>
	<path d="M24.177,4.613c-0.022-0.02-0.039-0.033-0.039-0.033s-0.014,0.018-0.033,0.04C24.129,4.617,24.153,4.615,24.177,4.613z"/>
	<path d="M23.25,4.856c-0.041-0.014-0.071-0.022-0.071-0.022s-0.01,0.03-0.022,0.072C23.188,4.89,23.218,4.872,23.25,4.856z"/>
	<polygon points="26.027,5.085 26.025,5.079 26.021,5.08 	"/>
	<path d="M25.138,4.689c-0.008-0.014-0.014-0.024-0.014-0.024S25.114,4.67,25.1,4.678C25.112,4.682,25.125,4.687,25.138,4.689z"/>
	<path d="M19.383,1.869c0,0-0.015,0.184-0.029,0.367c-0.008,0.179-0.016,0.355-0.016,0.355s0.024,0.001,0.057,0.002
		c-0.009,0.01-0.019,0.018-0.028,0.026c-0.009,0.009-0.017,0.02-0.026,0.029c-0.001-0.033-0.002-0.058-0.002-0.058
		S19.16,2.6,18.982,2.607c-0.184,0.015-0.368,0.029-0.368,0.029s0.002,0.184,0.018,0.364c0.023,0.182,0.047,0.363,0.047,0.363
		c-0.001-0.002,0.024-0.007,0.059-0.011c-0.017,0.021-0.034,0.045-0.049,0.066c-0.006-0.031-0.01-0.056-0.01-0.056
		S18.5,3.395,18.32,3.425c-0.186,0.031-0.362,0.08-0.362,0.08s0.04,0.182,0.079,0.363c0.045,0.174,0.089,0.348,0.089,0.348
		s0.023-0.006,0.055-0.014c-0.012,0.023-0.027,0.045-0.04,0.068c-0.009-0.032-0.015-0.055-0.015-0.055s-0.179,0.047-0.345,0.112
		c-0.169,0.066-0.341,0.134-0.341,0.134s0.06,0.172,0.12,0.344c0.064,0.17,0.146,0.335,0.146,0.335s0.021-0.011,0.052-0.024
		c-0.01,0.025-0.018,0.05-0.026,0.076c-0.015-0.03-0.025-0.052-0.025-0.052s-0.162,0.08-0.324,0.16
		c-0.163,0.085-0.328,0.178-0.328,0.178s0.091,0.164,0.181,0.327c0.093,0.154,0.186,0.31,0.186,0.31s0.021-0.013,0.049-0.029
		c-0.006,0.025-0.014,0.052-0.02,0.078c-0.017-0.028-0.029-0.049-0.029-0.049c0-0.001-0.162,0.094-0.301,0.204
		c-0.145,0.111-0.288,0.225-0.288,0.225s0.106,0.147,0.213,0.296c0.104,0.144,0.232,0.28,0.233,0.28c0,0,0.018-0.018,0.042-0.039
		c-0.003,0.027-0.003,0.053-0.005,0.08c-0.021-0.023-0.037-0.041-0.037-0.041s-0.134,0.122-0.266,0.244
		c-0.133,0.132-0.266,0.263-0.266,0.263s0.133,0.132,0.265,0.264c0.134,0.122,0.266,0.244,0.266,0.244s0.017-0.018,0.038-0.042
		c0.002,0.027,0.002,0.055,0.005,0.081c-0.025-0.022-0.043-0.039-0.043-0.039s-0.127,0.137-0.232,0.28
		c-0.106,0.148-0.213,0.297-0.213,0.297s0.144,0.112,0.289,0.224c0.032,0.026,0.065,0.051,0.098,0.073
		c-0.33,0.645-0.68,1.562-0.336,2.091c-0.002,0.015,0,0.026,0.003,0.04c-0.287,4.722-4.354,5.762-4.957,6.366
		C11.252,18.18,0.496,28.937,0.496,28.937L0.5,28.938c-0.008,0.009-0.016,0.015-0.026,0.021c-0.631,0.631-0.632,1.66,0,2.29
		c0.632,0.635,1.66,0.635,2.291,0.002c0.01-0.008,0.015-0.018,0.022-0.025c0.016-0.016,10.63-10.627,11.408-11.408
		c0.692-0.689,2.303-4.762,6.451-4.954c0.313,0.172,0.932,0.05,1.471-0.113c0.059,0.109,0.108,0.196,0.108,0.196
		s0.162-0.09,0.326-0.181c0.154-0.093,0.309-0.185,0.309-0.185s-0.013-0.021-0.03-0.05c0.027,0.006,0.054,0.014,0.081,0.02
		c-0.028,0.018-0.051,0.03-0.051,0.03s0.095,0.162,0.205,0.3c0.111,0.145,0.224,0.288,0.224,0.288s0.148-0.105,0.297-0.213
		c0.144-0.104,0.279-0.232,0.28-0.232c0,0-0.017-0.019-0.039-0.043c0.026,0.002,0.054,0.002,0.081,0.004
		c-0.024,0.022-0.042,0.039-0.042,0.039s0.122,0.133,0.244,0.265c0.132,0.134,0.264,0.267,0.264,0.267s0.131-0.133,0.263-0.266
		c0.122-0.133,0.244-0.266,0.244-0.266s-0.019-0.016-0.043-0.039c0.028-0.002,0.055-0.002,0.082-0.004
		c-0.021,0.025-0.039,0.043-0.039,0.043s0.137,0.129,0.28,0.232c0.148,0.107,0.297,0.213,0.297,0.213s0.112-0.144,0.224-0.288
		c0.11-0.138,0.205-0.3,0.205-0.3s-0.021-0.013-0.05-0.03c0.026-0.006,0.053-0.013,0.079-0.02c-0.018,0.028-0.029,0.05-0.029,0.05
		s0.154,0.092,0.31,0.185c0.163,0.091,0.325,0.181,0.325,0.181s0.095-0.165,0.179-0.328c0.08-0.162,0.16-0.324,0.16-0.324
		s-0.021-0.011-0.052-0.025c0.025-0.009,0.052-0.018,0.076-0.027c-0.015,0.03-0.024,0.053-0.024,0.053s0.166,0.082,0.334,0.146
		c0.173,0.06,0.345,0.12,0.345,0.12s0.067-0.171,0.134-0.342c0.065-0.164,0.111-0.344,0.111-0.344s-0.023-0.006-0.055-0.014
		c0.023-0.014,0.046-0.029,0.069-0.042c-0.008,0.032-0.015,0.056-0.015,0.056s0.175,0.045,0.349,0.089
		c0.182,0.039,0.363,0.078,0.363,0.078s0.049-0.176,0.08-0.361c0.03-0.179,0.06-0.358,0.06-0.358s-0.023-0.004-0.056-0.01
		c0.022-0.016,0.045-0.032,0.067-0.05c-0.005,0.034-0.009,0.06-0.012,0.06c0,0,0.183,0.023,0.364,0.047
		c0.182,0.015,0.364,0.018,0.363,0.017c0,0,0.016-0.183,0.029-0.366c0.008-0.179,0.017-0.356,0.017-0.356s-0.025-0.001-0.059-0.002
		c0.01-0.01,0.02-0.018,0.029-0.026c0.01-0.01,0.018-0.021,0.027-0.029c0,0.033,0.002,0.058,0.002,0.058s0.177-0.008,0.355-0.016
		c0.184-0.015,0.367-0.029,0.367-0.029s-0.002-0.183-0.018-0.364c-0.023-0.182-0.046-0.363-0.046-0.363
		c0,0.003-0.026,0.007-0.06,0.012c0.017-0.022,0.033-0.046,0.05-0.068c0.006,0.033,0.01,0.057,0.01,0.057s0.179-0.03,0.357-0.061
		c0.186-0.031,0.361-0.079,0.361-0.079s-0.038-0.183-0.078-0.364c-0.044-0.174-0.088-0.348-0.088-0.348s-0.024,0.006-0.056,0.015
		c0.012-0.023,0.027-0.046,0.04-0.069c0.009,0.031,0.016,0.055,0.016,0.055s0.179-0.047,0.343-0.111
		c0.171-0.067,0.342-0.135,0.342-0.135s-0.061-0.171-0.12-0.344c-0.063-0.169-0.145-0.334-0.145-0.334s-0.023,0.01-0.053,0.024
		c0.01-0.025,0.018-0.051,0.026-0.077c0.015,0.03,0.026,0.053,0.026,0.053s0.161-0.08,0.323-0.16
		c0.162-0.085,0.328-0.179,0.328-0.179s-0.091-0.163-0.181-0.326c-0.093-0.154-0.186-0.31-0.186-0.31s-0.021,0.013-0.048,0.029
		c0.005-0.026,0.013-0.053,0.019-0.079c0.017,0.028,0.029,0.05,0.029,0.05c0.001,0,0.162-0.094,0.301-0.204
		c0.145-0.112,0.289-0.225,0.289-0.225s-0.107-0.147-0.215-0.296c-0.104-0.145-0.231-0.28-0.231-0.28s-0.018,0.017-0.042,0.038
		c0.002-0.026,0.002-0.053,0.004-0.08c0.022,0.024,0.038,0.041,0.038,0.041s0.133-0.122,0.266-0.243C31.867,7.759,32,7.627,32,7.627
		s-0.133-0.132-0.265-0.263C31.603,7.242,31.47,7.12,31.47,7.12s-0.016,0.018-0.038,0.041c-0.002-0.027-0.002-0.054-0.004-0.08
		C31.452,7.103,31.47,7.12,31.47,7.12s0.128-0.138,0.231-0.28c0.107-0.149,0.214-0.298,0.214-0.298s-0.144-0.111-0.288-0.224
		c-0.138-0.11-0.301-0.204-0.301-0.204s-0.013,0.021-0.029,0.049c-0.006-0.026-0.014-0.052-0.019-0.078
		c0.027,0.017,0.048,0.029,0.048,0.029s0.093-0.155,0.186-0.31c0.09-0.164,0.181-0.326,0.181-0.326S31.526,5.384,31.364,5.3
		c-0.162-0.08-0.324-0.16-0.324-0.16s-0.011,0.022-0.024,0.052c-0.01-0.025-0.018-0.051-0.027-0.076
		C31.018,5.129,31.04,5.14,31.04,5.14s0.082-0.166,0.146-0.334c0.06-0.172,0.119-0.345,0.119-0.345s-0.17-0.066-0.341-0.134
		c-0.164-0.065-0.343-0.111-0.343-0.111s-0.007,0.023-0.016,0.055c-0.012-0.023-0.027-0.045-0.04-0.069
		c0.032,0.009,0.056,0.015,0.056,0.015s0.043-0.174,0.088-0.348c0.039-0.182,0.078-0.364,0.078-0.364s-0.176-0.048-0.361-0.079
		c-0.179-0.03-0.358-0.061-0.358-0.061s-0.004,0.023-0.01,0.056c-0.016-0.022-0.032-0.045-0.049-0.067
		c0.033,0.005,0.06,0.009,0.059,0.012c0,0,0.023-0.182,0.047-0.364c0.016-0.181,0.018-0.363,0.018-0.363s-0.184-0.015-0.368-0.029
		c-0.178-0.008-0.355-0.016-0.355-0.016s-0.001,0.024-0.002,0.058c-0.01-0.01-0.017-0.021-0.026-0.029
		c-0.01-0.01-0.02-0.017-0.028-0.026c0.032-0.002,0.057-0.002,0.057-0.002S29.4,2.414,29.393,2.236
		c-0.015-0.185-0.029-0.367-0.029-0.367S29.181,1.87,29,1.886c-0.183,0.023-0.364,0.047-0.364,0.047
		c0.002,0,0.007,0.023,0.012,0.058c-0.022-0.017-0.045-0.032-0.067-0.048c0.031-0.006,0.056-0.01,0.056-0.01s-0.03-0.179-0.06-0.358
		c-0.031-0.186-0.08-0.361-0.08-0.361s-0.183,0.039-0.364,0.078c-0.174,0.044-0.348,0.089-0.348,0.089s0.007,0.023,0.014,0.055
		c-0.022-0.013-0.045-0.027-0.067-0.04c0.031-0.008,0.054-0.015,0.054-0.015s-0.046-0.18-0.111-0.344
		c-0.067-0.171-0.134-0.342-0.134-0.342s-0.173,0.061-0.345,0.12c-0.169,0.064-0.335,0.146-0.335,0.146s0.011,0.021,0.024,0.052
		c-0.024-0.01-0.05-0.019-0.075-0.027c0.029-0.014,0.051-0.024,0.051-0.024s-0.08-0.162-0.159-0.324
		c-0.085-0.162-0.179-0.327-0.179-0.327s-0.163,0.09-0.327,0.181c-0.154,0.093-0.31,0.185-0.31,0.185s0.013,0.021,0.029,0.048
		c-0.025-0.006-0.051-0.013-0.077-0.019c0.028-0.017,0.048-0.029,0.048-0.029s-0.094-0.162-0.203-0.3
		c-0.112-0.145-0.225-0.289-0.225-0.289s-0.148,0.106-0.296,0.214c-0.144,0.104-0.28,0.231-0.28,0.231s0.016,0.018,0.038,0.042
		C24.893,0.57,24.865,0.57,24.84,0.568c0.022-0.021,0.041-0.038,0.041-0.038s-0.123-0.133-0.245-0.265
		C24.504,0.133,24.373,0,24.373,0s-0.132,0.133-0.263,0.266c-0.123,0.132-0.245,0.265-0.245,0.265s0.018,0.016,0.042,0.038
		c-0.026,0.001-0.054,0.002-0.08,0.005c0.021-0.025,0.038-0.043,0.038-0.043s-0.137-0.127-0.28-0.231
		c-0.148-0.107-0.296-0.214-0.296-0.214s-0.112,0.145-0.225,0.289c-0.11,0.138-0.204,0.3-0.204,0.3s0.021,0.013,0.049,0.029
		c-0.026,0.006-0.053,0.013-0.078,0.019c0.017-0.027,0.029-0.048,0.029-0.048s-0.154-0.093-0.31-0.185
		c-0.163-0.09-0.327-0.181-0.327-0.181s-0.093,0.165-0.178,0.327c-0.08,0.162-0.159,0.324-0.159,0.324s0.021,0.011,0.05,0.025
		c-0.024,0.009-0.05,0.017-0.074,0.025c0.013-0.028,0.024-0.051,0.024-0.051s-0.166-0.081-0.336-0.145
		c-0.171-0.061-0.344-0.12-0.344-0.12s-0.067,0.17-0.134,0.341c-0.065,0.165-0.111,0.344-0.111,0.344s0.022,0.007,0.053,0.015
		c-0.022,0.013-0.044,0.028-0.067,0.04c0.008-0.031,0.015-0.055,0.015-0.055s-0.175-0.044-0.348-0.088
		c-0.183-0.039-0.364-0.079-0.364-0.079s-0.049,0.176-0.08,0.362c-0.029,0.179-0.061,0.357-0.061,0.357s0.024,0.004,0.057,0.01
		c-0.022,0.016-0.045,0.032-0.067,0.049c0.005-0.034,0.009-0.059,0.011-0.059c0,0-0.181-0.022-0.363-0.047
		C19.565,1.871,19.383,1.869,19.383,1.869z M22.456,4.665c0,0,0.046,0.004,0.115,0.01c0.072,0.012,0.169,0.033,0.261,0.056
		c0.185,0.046,0.347,0.104,0.347,0.104s0.051-0.188,0.143-0.336c0.086-0.158,0.195-0.322,0.195-0.322s0.174,0.071,0.328,0.178
		c0.158,0.112,0.293,0.227,0.293,0.227s0.112-0.139,0.248-0.277c0.134-0.115,0.292-0.228,0.292-0.228s0.137,0.141,0.249,0.278
		c0.113,0.145,0.197,0.312,0.197,0.312s0.152-0.088,0.326-0.167c0.176-0.091,0.356-0.124,0.356-0.124s0.078,0.184,0.134,0.355
		c0.028,0.088,0.053,0.172,0.068,0.234c0.011,0.069,0.017,0.115,0.017,0.115c-0.02-0.016,0.728-0.061,0.745-0.042
		c0.018,0.017-0.024,0.731-0.04,0.741c0,0.002,0.002,0.003,0.004,0.004c0.006,0.002,0.046,0.008,0.109,0.017
		c0.063,0.016,0.147,0.04,0.233,0.068c0.173,0.055,0.357,0.134,0.357,0.134S27.4,6.181,27.31,6.357
		c-0.067,0.149-0.138,0.275-0.158,0.311c0.003,0.008,0.005,0.016,0.008,0.022c0.035,0.02,0.171,0.092,0.295,0.19
		c0.139,0.112,0.278,0.248,0.278,0.248s-0.111,0.158-0.227,0.292c-0.114,0.113-0.224,0.204-0.261,0.234
		c-0.001,0.011-0.002,0.021-0.002,0.031c0.029,0.037,0.12,0.146,0.211,0.276c0.107,0.154,0.179,0.327,0.179,0.327
		S27.469,8.4,27.31,8.486c-0.13,0.08-0.281,0.126-0.319,0.138c-0.003,0.007-0.007,0.014-0.01,0.02
		c0.012,0.035,0.058,0.173,0.098,0.332c0.022,0.092,0.044,0.188,0.057,0.262c0.006,0.068,0.009,0.114,0.009,0.114
		c-0.015,0.021-0.736,0.114-0.729,0.097c0,0.001,0,0.001-0.001,0.001c0.018-0.009-0.075,0.716-0.096,0.729
		c0,0-0.047-0.004-0.116-0.009c-0.072-0.013-0.169-0.034-0.26-0.057c-0.185-0.046-0.348-0.103-0.348-0.103s-0.051,0.186-0.143,0.335
		c-0.086,0.158-0.195,0.322-0.195,0.322s-0.174-0.071-0.328-0.178c-0.158-0.111-0.292-0.227-0.292-0.227s-0.112,0.139-0.249,0.277
		c-0.134,0.115-0.293,0.228-0.292,0.228c0,0-0.138-0.141-0.249-0.278c-0.113-0.145-0.197-0.312-0.197-0.312
		s-0.151,0.088-0.326,0.167c-0.177,0.091-0.355,0.124-0.355,0.124s-0.078-0.183-0.135-0.355c-0.028-0.088-0.053-0.172-0.068-0.234
		c-0.01-0.069-0.017-0.115-0.017-0.115c0.02,0.016-0.728,0.061-0.745,0.042c-0.018-0.018,0.026-0.765,0.042-0.745
		c0,0-0.046-0.007-0.114-0.016c-0.063-0.017-0.147-0.041-0.235-0.069c-0.172-0.056-0.355-0.134-0.355-0.134s0.033-0.18,0.124-0.356
		c0.079-0.175,0.167-0.325,0.167-0.325c-0.001,0-0.167-0.084-0.312-0.197c-0.138-0.112-0.279-0.249-0.279-0.249
		s0.113-0.159,0.228-0.292c0.14-0.137,0.278-0.249,0.278-0.249S21.43,7.04,21.318,6.882c-0.106-0.155-0.179-0.328-0.179-0.328
		s0.165-0.11,0.323-0.195c0.148-0.093,0.335-0.143,0.335-0.143s-0.059-0.164-0.104-0.348c-0.022-0.092-0.043-0.188-0.057-0.262
		c-0.005-0.068-0.009-0.114-0.009-0.114c0.015-0.021,0.747-0.116,0.73-0.097C22.341,5.412,22.436,4.68,22.456,4.665z"/>
	<path d="M22.365,5.495c0.022-0.023,0.037-0.052,0.062-0.075c0.007-0.008,0.017-0.013,0.024-0.021
		c-0.051-0.004-0.088-0.007-0.092-0.004C22.355,5.4,22.358,5.44,22.365,5.495z"/>
	<path d="M21.626,7.108c-0.049,0.037-0.081,0.065-0.081,0.065s0.027,0.032,0.067,0.077C21.615,7.203,21.62,7.157,21.626,7.108z"/>
	<path d="M21.679,8.073c-0.03,0.052-0.049,0.088-0.049,0.088s0.037,0.02,0.089,0.047C21.706,8.163,21.689,8.118,21.679,8.073z"/>
	<path d="M21.895,6.186c-0.057,0.018-0.097,0.03-0.097,0.03c-0.001-0.001,0.011,0.037,0.031,0.093
		C21.848,6.266,21.873,6.228,21.895,6.186z"/>
	<polygon points="25.585,10.008 25.594,10.011 25.597,10.001 	"/>
	<path d="M22.059,8.977c-0.008,0.05-0.015,0.085-0.015,0.085c0.003,0.004,0.041,0.009,0.092,0.013
		C22.111,9.041,22.08,9.011,22.059,8.977z"/>
	<path d="M22.734,9.683c0.005,0.045,0.009,0.079,0.013,0.082c0,0,0.031-0.005,0.074-0.012C22.791,9.731,22.764,9.705,22.734,9.683z"
		/>
	<path d="M23.622,10.13c0.015,0.027,0.026,0.049,0.026,0.049s0.021-0.011,0.049-0.026C23.672,10.145,23.646,10.137,23.622,10.13z"/>
	<path d="M24.612,10.244c0.014,0.012,0.023,0.02,0.023,0.02s0.007-0.01,0.02-0.024C24.641,10.241,24.626,10.243,24.612,10.244z"/>
	<circle cx="24.333" cy="7.396" r="1.244"/>
</g>
<g>
</g>
<g>
</g>
<g>
</g>
<g>
</g>
<g>
</g>
<g>
</g>
<g>
</g>
<g>
</g>
<g>
</g>
<g>
</g>
<g>
</g>
<g>
</g>
<g>
</g>
<g>
</g>
<g>
</g>
</svg>
