<?xml version="1.0" encoding="iso-8859-1"?>
<!-- Generator: Adobe Illustrator 16.0.0, SVG Export Plug-In . SVG Version: 6.00 Build 0)  -->
<!DOCTYPE svg PUBLIC "-//W3C//DTD SVG 1.1//EN" "http://www.w3.org/Graphics/SVG/1.1/DTD/svg11.dtd">
<svg version="1.1" id="Layer_1" xmlns="http://www.w3.org/2000/svg" xmlns:xlink="http://www.w3.org/1999/xlink" x="0px" y="0px"
	 width="32px" height="31.776px" viewBox="0 0 32 31.776" style="enable-background:new 0 0 32 31.776;" xml:space="preserve">
<path d="M29.726,0.39c-0.007,0.007-0.011,0.014-0.017,0.021l-0.002-0.002c0,0-6.922,6.922-7.564,7.564
	c-2.624,3.717-4.469,4.227-4.469,4.227l-0.684,0.684l0.561,0.561l-3.848,3.847L8.32,16.898l-8.174,8.174c0,0-0.916,1.546,1.83,4.291
	c2.746,2.746,4.859,2.398,4.859,2.398l8.174-8.173l-0.369-5.357l3.85-3.85l0.56,0.56l0.685-0.684c0,0,0.932-2.486,4.275-4.383
	c0.554-0.555,7.582-7.582,7.582-7.582L31.59,2.289c0.006-0.005,0.014-0.009,0.02-0.016c0.521-0.52,0.521-1.364,0.001-1.884
	C31.09-0.13,30.246-0.13,29.726,0.39z M12.785,22.828l-6.637,6.868l-0.635-0.635l6.636-6.868L12.785,22.828z M11.303,21.347
	l-6.752,6.752l-0.635-0.635l6.752-6.752L11.303,21.347z M9.832,19.875l-6.869,6.636l-0.635-0.635l6.868-6.636L9.832,19.875z
	 M31.119,2.021c-0.291,0.293-1.522,1.05-1.814,0.757c-0.291-0.291,0.466-1.521,0.758-1.815c0.292-0.292,0.766-0.292,1.057,0.002
	C31.412,1.256,31.412,1.729,31.119,2.021z"/>
<g>
</g>
<g>
</g>
<g>
</g>
<g>
</g>
<g>
</g>
<g>
</g>
<g>
</g>
<g>
</g>
<g>
</g>
<g>
</g>
<g>
</g>
<g>
</g>
<g>
</g>
<g>
</g>
<g>
</g>
</svg>
