<?xml version="1.0" encoding="iso-8859-1"?>
<!-- Generator: Adobe Illustrator 16.0.0, SVG Export Plug-In . SVG Version: 6.00 Build 0)  -->
<!DOCTYPE svg PUBLIC "-//W3C//DTD SVG 1.1//EN" "http://www.w3.org/Graphics/SVG/1.1/DTD/svg11.dtd">
<svg version="1.1" id="Layer_1" xmlns="http://www.w3.org/2000/svg" xmlns:xlink="http://www.w3.org/1999/xlink" x="0px" y="0px"
	 width="31.999px" height="31.829px" viewBox="0 0 31.999 31.829" style="enable-background:new 0 0 31.999 31.829;"
	 xml:space="preserve">
<path d="M7.222,31.521l0.01,0.003c0.002-0.009,0.006-0.02,0.01-0.028c0.035-0.066,0.058-0.145,0.072-0.228
	c1.414-4.523,5.183-10.806,7.172-12.973l2.328-2.329l0.723,0.723l0.764-0.765c0,0,1.041-2.776,4.775-4.896
	c0.619-0.618,8.468-8.468,8.468-8.468l-0.002-0.003c0.007-0.007,0.016-0.011,0.022-0.018c0.582-0.581,0.581-1.524,0-2.104
	c-0.58-0.581-1.523-0.581-2.104,0c-0.008,0.007-0.012,0.015-0.02,0.022l-0.002-0.002c0,0-7.73,7.73-8.447,8.447
	c-2.932,4.151-4.99,4.722-4.99,4.722l-0.765,0.764l0.644,0.644l-2.098,2.098c-1.91,1.91-8.469,5.896-13.16,7.375
	c-0.174,0.021-0.32,0.079-0.426,0.185c-0.652,0.651,0.373,2.734,2.291,4.652c1.917,1.917,4,2.942,4.652,2.29
	C7.172,31.599,7.198,31.561,7.222,31.521z M31.017,1.077c0.326,0.326,0.326,0.854,0,1.181s-1.701,1.172-2.027,0.846
	s0.521-1.7,0.847-2.026C30.161,0.75,30.69,0.75,31.017,1.077z M4.849,26.981c-1.067-1.067-2.185-1.856-3.078-2.235
	c4.131-1.51,9.262-4.555,11.648-6.498l0.17,0.17c-1.943,2.389-4.99,7.523-6.5,11.655C6.712,29.176,5.92,28.053,4.849,26.981z"/>
<g>
</g>
<g>
</g>
<g>
</g>
<g>
</g>
<g>
</g>
<g>
</g>
<g>
</g>
<g>
</g>
<g>
</g>
<g>
</g>
<g>
</g>
<g>
</g>
<g>
</g>
<g>
</g>
<g>
</g>
</svg>
