<?xml version="1.0" encoding="iso-8859-1"?>
<!-- Generator: Adobe Illustrator 16.0.0, SVG Export Plug-In . SVG Version: 6.00 Build 0)  -->
<!DOCTYPE svg PUBLIC "-//W3C//DTD SVG 1.1//EN" "http://www.w3.org/Graphics/SVG/1.1/DTD/svg11.dtd">
<svg version="1.1" id="Layer_1" xmlns="http://www.w3.org/2000/svg" xmlns:xlink="http://www.w3.org/1999/xlink" x="0px" y="0px"
	 width="31.888px" height="32px" viewBox="0 0 31.888 32" style="enable-background:new 0 0 31.888 32;" xml:space="preserve">
<path d="M31.346,0.552c-3.33-3.33-21.255,9.375-18.078,12.552c0.479,0.479,0.873,0.873,1.208,1.208c0,0.012,0,0.023,0.001,0.035
	c-0.244,4.049-3.732,4.943-4.25,5.459c-0.578,0.579-9.803,9.803-9.803,9.803l0.002,0.002c-0.006,0.006-0.014,0.011-0.021,0.017
	c-0.542,0.543-0.542,1.422,0,1.964c0.542,0.543,1.422,0.543,1.965,0c0.007-0.006,0.011-0.014,0.017-0.021l0.002,0.002
	c0,0,9.115-9.114,9.783-9.783c0.593-0.593,1.974-4.086,5.531-4.251c0.302,0.302,0.657,0.658,1.09,1.09
	C21.662,21.498,34.677,3.882,31.346,0.552z"/>
<g>
</g>
<g>
</g>
<g>
</g>
<g>
</g>
<g>
</g>
<g>
</g>
<g>
</g>
<g>
</g>
<g>
</g>
<g>
</g>
<g>
</g>
<g>
</g>
<g>
</g>
<g>
</g>
<g>
</g>
</svg>
