<?xml version="1.0" encoding="iso-8859-1"?>
<!-- Generator: Adobe Illustrator 16.0.0, SVG Export Plug-In . SVG Version: 6.00 Build 0)  -->
<!DOCTYPE svg PUBLIC "-//W3C//DTD SVG 1.1//EN" "http://www.w3.org/Graphics/SVG/1.1/DTD/svg11.dtd">
<svg version="1.1" id="Layer_1" xmlns="http://www.w3.org/2000/svg" xmlns:xlink="http://www.w3.org/1999/xlink" x="0px" y="0px"
	 width="16.136px" height="22.772px" viewBox="0 0 16.136 22.772" style="enable-background:new 0 0 16.136 22.772;"
	 xml:space="preserve">
<path d="M13.88,12.697c-2.427-2.534-0.236-10.381-0.236-10.381h-0.02c0.009-0.05,0.02-0.099,0.021-0.149
	C13.652,0.991,11.128,0.021,8.009,0c-3.12-0.021-5.656,0.917-5.665,2.094C2.343,2.169,2.356,2.243,2.376,2.316H2.372
	c0,0,2.155,7.813-0.236,10.381c-1.863,2.004-2.954,6.904-1.38,10.075c2.258,0,5.265-0.023,7.251-0.033
	c1.987,0.01,4.995,0.033,7.252,0.033C16.833,19.602,16.238,15.158,13.88,12.697z M5.475,9.712c-0.033,0.437-0.055,0.901-0.144,1.373
	c-0.065,0.475-0.16,0.966-0.288,1.46c-0.146,0.496-0.282,0.992-0.604,1.539c-0.319,0.436-0.663,0.785-0.923,1.173
	c-0.279,0.371-0.5,0.762-0.699,1.151c-0.152,0.409-0.355,0.79-0.426,1.195c-0.106,0.395-0.208,0.773-0.227,1.139
	c-0.028,0.361-0.109,0.696-0.111,0.996c0,0.303,0,0.566,0,0.783c-0.004,0.438-0.02,0.695-0.02,0.695s-0.072-0.24-0.174-0.672
	c-0.049-0.218-0.109-0.482-0.178-0.786c-0.069-0.306-0.067-0.661-0.091-1.049c-0.003-0.193-0.032-0.397-0.014-0.608
	c0.027-0.21,0.055-0.428,0.083-0.65c0.03-0.456,0.193-0.912,0.348-1.389c0.199-0.455,0.407-0.942,0.719-1.36
	c0.281-0.436,0.633-0.818,0.896-1.193c0.191-0.316,0.357-0.781,0.493-1.227c0.122-0.46,0.266-0.907,0.353-1.36
	c0.107-0.445,0.189-0.883,0.268-1.299c0.088-0.415,0.127-0.811,0.19-1.178c0.064-0.369,0.081-0.696,0.12-0.997
	C5.088,7.15,5.105,6.883,5.096,6.662c0.005-0.441,0.021-0.695,0.021-0.695S5.188,6.21,5.288,6.64c0.058,0.213,0.1,0.476,0.128,0.788
	c0.032,0.309,0.094,0.67,0.081,1.049C5.496,8.857,5.522,9.277,5.475,9.712z M6.149,2.846c-0.547,0-0.992-0.237-0.992-0.529
	s0.444-0.528,0.992-0.528s0.991,0.236,0.991,0.528S6.697,2.846,6.149,2.846z M7.995,1.648c-0.547,0-0.991-0.236-0.991-0.528
	c0-0.293,0.444-0.529,0.991-0.529S8.986,0.827,8.986,1.12C8.986,1.412,8.542,1.648,7.995,1.648z M10.378,2.846
	c-0.547,0-0.991-0.237-0.991-0.529s0.444-0.528,0.991-0.528s0.991,0.236,0.991,0.528S10.926,2.846,10.378,2.846z"/>
<g>
</g>
<g>
</g>
<g>
</g>
<g>
</g>
<g>
</g>
<g>
</g>
<g>
</g>
<g>
</g>
<g>
</g>
<g>
</g>
<g>
</g>
<g>
</g>
<g>
</g>
<g>
</g>
<g>
</g>
</svg>
