<?xml version="1.0" encoding="iso-8859-1"?>
<!-- Generator: Adobe Illustrator 16.0.0, SVG Export Plug-In . SVG Version: 6.00 Build 0)  -->
<!DOCTYPE svg PUBLIC "-//W3C//DTD SVG 1.1//EN" "http://www.w3.org/Graphics/SVG/1.1/DTD/svg11.dtd">
<svg version="1.1" id="Layer_1" xmlns="http://www.w3.org/2000/svg" xmlns:xlink="http://www.w3.org/1999/xlink" x="0px" y="0px"
	 width="31.986px" height="32px" viewBox="0 0 31.986 32" style="enable-background:new 0 0 31.986 32;" xml:space="preserve">
<path d="M26.201,0l-8.148,6.854c0,0-0.006,0.01-0.014,0.021c-0.025,0.026-0.057,0.048-0.082,0.075
	c-1.115,1.115-1.592,2.627-1.436,4.082c-0.342,5.668-5.223,6.919-5.947,7.644c-0.81,0.81-9.977,9.978-9.977,9.978L0.6,28.655
	c-0.01,0.01-0.021,0.016-0.029,0.025c-0.76,0.758-0.76,1.99,0,2.75c0.759,0.76,1.991,0.759,2.75,0
	c0.009-0.01,0.015-0.021,0.024-0.03l0.003,0.003c0,0,9.014-9.014,9.949-9.951c0.846-0.844,2.834-5.904,8.021-5.961
	c0.004,0,0.016-0.003,0.023-0.004c1.221,0.038,2.451-0.369,3.432-1.223c0.027-0.01,0.041-0.016,0.041-0.016l7.172-8.465L26.201,0z"
	/>
<g>
</g>
<g>
</g>
<g>
</g>
<g>
</g>
<g>
</g>
<g>
</g>
<g>
</g>
<g>
</g>
<g>
</g>
<g>
</g>
<g>
</g>
<g>
</g>
<g>
</g>
<g>
</g>
<g>
</g>
</svg>
