<?xml version="1.0" encoding="iso-8859-1"?>
<!-- Generator: Adobe Illustrator 16.0.0, SVG Export Plug-In . SVG Version: 6.00 Build 0)  -->
<!DOCTYPE svg PUBLIC "-//W3C//DTD SVG 1.1//EN" "http://www.w3.org/Graphics/SVG/1.1/DTD/svg11.dtd">
<svg version="1.1" id="Layer_1" xmlns="http://www.w3.org/2000/svg" xmlns:xlink="http://www.w3.org/1999/xlink" x="0px" y="0px"
	 width="32px" height="31.777px" viewBox="0 0 32 31.777" style="enable-background:new 0 0 32 31.777;" xml:space="preserve">
<path d="M14.641,18.232l3.85-3.85l0.56,0.56l0.685-0.684c0,0,0.932-2.486,4.275-4.384c0.554-0.555,7.582-7.582,7.582-7.582
	L31.59,2.29c0.006-0.006,0.014-0.01,0.02-0.017c0.521-0.52,0.521-1.364,0.001-1.884c-0.521-0.52-1.364-0.52-1.885,0
	c-0.007,0.007-0.011,0.014-0.017,0.021l-0.002-0.002c0,0-6.922,6.922-7.564,7.564c-2.624,3.717-4.469,4.228-4.469,4.228
	l-0.684,0.684l0.56,0.56l-3.847,3.847l-5.384-0.391l-8.173,8.174c0,0-0.915,1.546,1.83,4.291c2.746,2.746,4.859,2.398,4.859,2.398
	l8.174-8.173L14.641,18.232z M31.119,0.964c0.293,0.292,0.293,0.765,0,1.057c-0.291,0.293-1.522,1.05-1.814,0.758
	c-0.291-0.292,0.466-1.522,0.758-1.815C30.354,0.671,30.828,0.671,31.119,0.964z M12.532,23.637l0.533,0.532l-0.533,0.533L12,24.169
	L12.532,23.637z M10.787,25.37l0.532,0.533l-0.532,0.532l-0.533-0.532L10.787,25.37z M9.355,26.826l0.532-0.532l0.532,0.532
	l-0.532,0.532L9.355,26.826z M9.57,27.657l-0.531,0.532l-0.532-0.532l0.532-0.532L9.57,27.657z M11.586,22.689l0.532,0.533
	l-0.532,0.532l-0.533-0.532L11.586,22.689z M9.84,24.424l0.533,0.532L9.84,25.489l-0.532-0.533L9.84,24.424z M8.408,25.88
	l0.532-0.533l0.533,0.533L8.94,26.412L8.408,25.88z M8.624,26.711l-0.532,0.532L7.56,26.711l0.532-0.533L8.624,26.711z
	 M7.427,24.897l0.532-0.533l0.532,0.533L7.959,25.43L7.427,24.897z M7.643,25.729l-0.533,0.532l-0.532-0.532l0.532-0.532
	L7.643,25.729z M8.858,24.507l-0.532-0.533l0.532-0.532l0.532,0.532L8.858,24.507z M10.604,21.708l0.532,0.532l-0.532,0.533
	L10.07,22.24L10.604,21.708z M9.657,20.761l0.532,0.533l-0.532,0.532l-0.533-0.532L9.657,20.761z M7.911,22.495l0.533,0.532
	L7.911,23.56l-0.532-0.532L7.911,22.495z M6.479,23.951l0.532-0.533l0.533,0.532l-0.533,0.533L6.479,23.951z M6.695,24.782
	l-0.532,0.532l-0.532-0.532l0.532-0.533L6.695,24.782z M8.687,19.791l0.533,0.532l-0.533,0.532l-0.533-0.532L8.687,19.791z
	 M6.941,21.524l0.532,0.532L6.941,22.59l-0.533-0.533L6.941,21.524z M5.51,22.98l0.532-0.532l0.532,0.532l-0.532,0.532L5.51,22.98z
	 M5.725,23.812l-0.532,0.532L4.66,23.812l0.532-0.533L5.725,23.812z M7.74,18.844l0.532,0.533L7.74,19.909l-0.533-0.532L7.74,18.844
	z M5.994,20.577l0.533,0.533l-0.533,0.532L5.462,21.11L5.994,20.577z M4.563,22.033l0.532-0.532l0.533,0.532l-0.533,0.532
	L4.563,22.033z M4.778,22.864l-0.532,0.532l-0.533-0.532l0.533-0.532L4.778,22.864z M2.5,24.065l0.533,0.533L2.5,25.131
	l-0.532-0.532L2.5,24.065z M1.602,26.054l-0.532-0.532l0.532-0.532l0.532,0.532L1.602,26.054z M3.347,24.32l-0.532-0.532
	l0.532-0.533l0.532,0.533L3.347,24.32z M6.841,20.832L6.308,20.3l0.533-0.532L7.373,20.3L6.841,20.832z M3.447,25.013l0.533,0.532
	l-0.533,0.532l-0.532-0.532L3.447,25.013z M2.548,27.001l-0.532-0.533l0.532-0.532l0.532,0.532L2.548,27.001z M4.294,25.268
	l-0.533-0.533l0.533-0.532l0.532,0.532L4.294,25.268z M7.787,21.779l-0.532-0.533l0.532-0.532l0.532,0.532L7.787,21.779z
	 M4.418,25.982l0.531,0.533l-0.531,0.532l-0.532-0.532L4.418,25.982z M3.518,27.971l-0.531-0.532l0.531-0.532l0.533,0.532
	L3.518,27.971z M5.264,26.237l-0.532-0.532l0.532-0.532l0.533,0.532L5.264,26.237z M8.758,22.749l-0.533-0.532l0.533-0.532
	l0.532,0.532L8.758,22.749z M5.364,26.93l0.533,0.532l-0.533,0.532l-0.532-0.532L5.364,26.93z M4.465,28.918l-0.532-0.533
	l0.532-0.532l0.533,0.532L4.465,28.918z M6.211,27.184l-0.533-0.532l0.533-0.532l0.532,0.532L6.211,27.184z M9.704,23.696
	l-0.532-0.532l0.532-0.533l0.532,0.533L9.704,23.696z M6.346,27.912l0.533,0.532l-0.532,0.532l-0.532-0.532L6.346,27.912z
	 M5.447,29.899l-0.532-0.532l0.532-0.532l0.532,0.532L5.447,29.899z M7.193,28.167L6.66,27.634l0.533-0.532l0.531,0.532
	L7.193,28.167z M10.687,24.679l-0.532-0.533l0.532-0.532l0.533,0.532L10.687,24.679z M7.293,28.858l0.533,0.532l-0.533,0.532
	l-0.532-0.532L7.293,28.858z M6.395,30.847l-0.533-0.533l0.533-0.532l0.532,0.532L6.395,30.847z M8.14,29.113L7.606,28.58
	l0.533-0.532l0.532,0.532L8.14,29.113z M11.633,25.625l-0.532-0.532l0.532-0.533l0.532,0.533L11.633,25.625z"/>
<g>
</g>
<g>
</g>
<g>
</g>
<g>
</g>
<g>
</g>
<g>
</g>
<g>
</g>
<g>
</g>
<g>
</g>
<g>
</g>
<g>
</g>
<g>
</g>
<g>
</g>
<g>
</g>
<g>
</g>
</svg>
