<?xml version="1.0" encoding="iso-8859-1"?>
<!-- Generator: Adobe Illustrator 16.0.0, SVG Export Plug-In . SVG Version: 6.00 Build 0)  -->
<!DOCTYPE svg PUBLIC "-//W3C//DTD SVG 1.1//EN" "http://www.w3.org/Graphics/SVG/1.1/DTD/svg11.dtd">
<svg version="1.1" id="Layer_1" xmlns="http://www.w3.org/2000/svg" xmlns:xlink="http://www.w3.org/1999/xlink" x="0px" y="0px"
	 width="31.396px" height="32px" viewBox="0 0 31.396 32" style="enable-background:new 0 0 31.396 32;" xml:space="preserve">
<path d="M31.396,11.777L19.618,0l-5.651,5.65l5.228,5.228l-4.183,4.191L9.101,19.45l-8.473,8.474l0.003,0.003
	c-0.01,0.008-0.021,0.015-0.032,0.025C-0.2,28.752-0.2,30.048,0.6,30.848c0.04,0.04,0.512,0.512,0.552,0.552
	c0.8,0.8,2.097,0.801,2.896,0.001c0.011-0.011,0.018-0.021,0.026-0.032l0.003,0.003l8.38-8.38l4.299-6.159l4.192-4.201l4.798,4.798
	L31.396,11.777z"/>
<g>
</g>
<g>
</g>
<g>
</g>
<g>
</g>
<g>
</g>
<g>
</g>
<g>
</g>
<g>
</g>
<g>
</g>
<g>
</g>
<g>
</g>
<g>
</g>
<g>
</g>
<g>
</g>
<g>
</g>
</svg>
