<?xml version="1.0" encoding="iso-8859-1"?>
<!-- Generator: Adobe Illustrator 16.0.0, SVG Export Plug-In . SVG Version: 6.00 Build 0)  -->
<!DOCTYPE svg PUBLIC "-//W3C//DTD SVG 1.1//EN" "http://www.w3.org/Graphics/SVG/1.1/DTD/svg11.dtd">
<svg version="1.1" id="Layer_1" xmlns="http://www.w3.org/2000/svg" xmlns:xlink="http://www.w3.org/1999/xlink" x="0px" y="0px"
	 width="32px" height="22.164px" viewBox="0 0 32 22.164" style="enable-background:new 0 0 32 22.164;" xml:space="preserve">
<path d="M28.005,1.438c-0.704,0.247-1.658,1.221-2.069,1.666c0-1.826,0-3.053,0-3.053l-9.463-0.046V0l-0.48,0.003L15.512,0v0.005
	L6.049,0.051c0,0,0,1.219,0,3.035C5.628,2.633,4.689,1.682,3.995,1.438c-0.92-0.326-3.995,0-3.995,0v1.243
	c0,0,3.021-0.106,3.671,0.272c0.65,0.377,1.353,3.571,1.894,3.571c0.119,0,0.29,0,0.484,0c0,5.291,0,12.008,0,12.704
	c0,1.164,1.112,2.936,3.238,2.936c1.55,0,4.653,0,6.225,0c0.583,0,0.961,0,0.961,0c1.57,0,4.675,0,6.225,0
	c2.125,0,3.238-1.771,3.238-2.936c0-0.696,0-7.413,0-12.704c0.2,0,0.378,0,0.5,0c0.541,0,1.243-3.194,1.894-3.571
	C28.979,2.574,32,2.681,32,2.681V1.438C32,1.438,28.925,1.111,28.005,1.438z M10.435,20.394c-0.28-0.051-0.616-0.148-0.993-0.331
	c-0.366-0.188-0.792-0.491-1.077-1.022c-0.303-0.682-0.205-1.117-0.265-1.663c-0.019-0.535-0.038-1.1-0.059-1.684
	c-0.026-0.584-0.019-1.187-0.03-1.8c-0.009-0.613-0.017-1.235-0.004-1.858c0.005-2.49,0.131-4.98,0.288-6.849
	c0.15-1.868,0.354-3.113,0.354-3.113s0.203,1.245,0.354,3.113c0.157,1.868,0.283,4.358,0.288,6.849
	c0.013,0.623,0.005,1.245-0.004,1.858c-0.012,0.613-0.004,1.216-0.03,1.8c-0.021,0.584-0.04,1.148-0.059,1.684
	c-0.02,0.512-0.097,1.128-0.004,1.317c0.196,0.682,0.913,1.134,1.353,1.395c0.469,0.259,0.769,0.38,0.769,0.38
	S10.993,20.5,10.435,20.394z"/>
<g>
</g>
<g>
</g>
<g>
</g>
<g>
</g>
<g>
</g>
<g>
</g>
<g>
</g>
<g>
</g>
<g>
</g>
<g>
</g>
<g>
</g>
<g>
</g>
<g>
</g>
<g>
</g>
<g>
</g>
</svg>
