<?xml version="1.0" encoding="iso-8859-1"?>
<!-- Generator: Adobe Illustrator 16.0.0, SVG Export Plug-In . SVG Version: 6.00 Build 0)  -->
<!DOCTYPE svg PUBLIC "-//W3C//DTD SVG 1.1//EN" "http://www.w3.org/Graphics/SVG/1.1/DTD/svg11.dtd">
<svg version="1.1" id="Layer_1" xmlns="http://www.w3.org/2000/svg" xmlns:xlink="http://www.w3.org/1999/xlink" x="0px" y="0px"
	 width="29.979px" height="32px" viewBox="0 0 29.979 32" style="enable-background:new 0 0 29.979 32;" xml:space="preserve">
<path d="M29.515,0l0.419,0.414c0,0,1.527,5.461-13.055,20.043c-3.413-1.941-5.211,2.109-5.379,2.686
	c-0.743,0.742-8.426,8.311-8.426,8.311l-0.005-0.01c-0.005,0.01-0.01,0.02-0.02,0.029c-0.698,0.703-1.833,0.703-2.526,0
	c-0.698-0.693-0.698-1.832,0-2.525c0.005-0.01,0.015-0.02,0.024-0.02v-0.01c7.464-7.465,7.46-7.469,9.446-9.441
	C10.771,18.693,29.515,0,29.515,0z"/>
<g>
</g>
<g>
</g>
<g>
</g>
<g>
</g>
<g>
</g>
<g>
</g>
<g>
</g>
<g>
</g>
<g>
</g>
<g>
</g>
<g>
</g>
<g>
</g>
<g>
</g>
<g>
</g>
<g>
</g>
</svg>
