<?xml version="1.0" encoding="iso-8859-1"?>
<!-- Generator: Adobe Illustrator 16.0.0, SVG Export Plug-In . SVG Version: 6.00 Build 0)  -->
<!DOCTYPE svg PUBLIC "-//W3C//DTD SVG 1.1//EN" "http://www.w3.org/Graphics/SVG/1.1/DTD/svg11.dtd">
<svg version="1.1" id="Layer_1" xmlns="http://www.w3.org/2000/svg" xmlns:xlink="http://www.w3.org/1999/xlink" x="0px" y="0px"
	 width="31.843px" height="32px" viewBox="0 0 31.843 32" style="enable-background:new 0 0 31.843 32;" xml:space="preserve">
<path d="M29.979,21.141c-2.345-2.344-6.063-2.473-8.563-0.392c-0.09-0.106-0.196-0.233-0.322-0.382c2-1.729,4.304-1.632,4.328-1.629
	l0.058-0.868c-0.115-0.008-2.684-0.151-4.956,1.815c-0.176-0.211-0.368-0.44-0.589-0.707l1.012-1.011l-0.806-0.808l-1.076,1.076
	c-2.805-2.846-5.477-5.943-6.062-7.736C12.35,9.846,2.946,0.443,2.946,0.443L2.943,0.446C2.937,0.438,2.932,0.43,2.925,0.422
	C2.311-0.191,1.253-0.129,0.563,0.563c-0.692,0.69-0.755,1.748-0.141,2.361c0.007,0.008,0.015,0.012,0.023,0.02L0.443,2.945
	c0,0,9.278,9.278,10.035,10.035c2.377,0.818,4.862,3.477,7.641,6.201l-1.055,1.055l0.806,0.807l0.983-0.983
	c0.271,0.24,0.5,0.448,0.712,0.642c-1.78,2.2-1.892,4.619-1.895,4.73l0.868,0.025c0.001-0.024,0.098-2.195,1.661-4.163
	c0.135,0.129,0.247,0.237,0.344,0.333c-2.036,2.498-1.889,6.183,0.438,8.51c2.484,2.484,6.513,2.484,8.996,0
	C32.464,27.652,32.463,23.625,29.979,21.141z M22.571,29.466c-0.043,0.052-0.117,0.065-0.184,0.033
	c-0.018-0.008-0.102-0.054-0.222-0.161c-0.028-0.023-0.059-0.053-0.088-0.086l-0.049-0.055c-0.136-0.152-0.325-0.358-0.493-0.635
	c-0.54-0.841-0.848-1.625-0.934-2.396c-0.015-0.267-0.003-0.496,0.039-0.752c0.043-0.225,0.1-0.445,0.174-0.678
	c0.156-0.448,0.357-0.834,0.521-1.119c0.185-0.329,0.4-0.578,0.545-0.729c0.174-0.179,0.295-0.297,0.295-0.297
	c0.054-0.052,0.144-0.053,0.208,0.004c0.066,0.061,0.085,0.144,0.049,0.208c-0.003,0.001-0.105,0.165-0.193,0.341
	c-0.101,0.161-0.194,0.404-0.312,0.73c-0.107,0.285-0.208,0.645-0.301,1.068c-0.042,0.184-0.076,0.382-0.102,0.592
	c-0.024,0.18-0.032,0.398-0.014,0.574c0.101,0.799,0.4,1.618,0.62,2.215c0.049,0.116,0.096,0.232,0.137,0.339
	c0.058,0.149,0.107,0.278,0.159,0.376c0.072,0.152,0.136,0.236,0.136,0.24C22.608,29.337,22.612,29.415,22.571,29.466z
	 M26.135,26.293c-0.4,0.4-1.049,0.4-1.449,0s-0.4-1.049,0-1.449s1.049-0.4,1.449,0S26.535,25.893,26.135,26.293z"/>
<g>
</g>
<g>
</g>
<g>
</g>
<g>
</g>
<g>
</g>
<g>
</g>
<g>
</g>
<g>
</g>
<g>
</g>
<g>
</g>
<g>
</g>
<g>
</g>
<g>
</g>
<g>
</g>
<g>
</g>
</svg>
