<?xml version="1.0" encoding="iso-8859-1"?>
<!-- Generator: Adobe Illustrator 16.0.0, SVG Export Plug-In . SVG Version: 6.00 Build 0)  -->
<!DOCTYPE svg PUBLIC "-//W3C//DTD SVG 1.1//EN" "http://www.w3.org/Graphics/SVG/1.1/DTD/svg11.dtd">
<svg version="1.1" id="Layer_1" xmlns="http://www.w3.org/2000/svg" xmlns:xlink="http://www.w3.org/1999/xlink" x="0px" y="0px"
	 width="19.727px" height="32px" viewBox="0 0 19.727 32" style="enable-background:new 0 0 19.727 32;" xml:space="preserve">
<path d="M18.399,7.126h-5.065c0.2-1.686,0.562-4.73,0.627-5.277C14.051,1.085,14.494,0,12.956,0C11.417,0,7.36,0,6.802,0
	c-0.56,0-1.33,0.036-1.132,1.361c0.142,0.949,0.498,4.067,0.69,5.765H1.327C0.595,7.126,0,7.72,0,8.453v22.22
	C0,31.406,0.595,32,1.327,32h17.072c0.733,0,1.327-0.594,1.327-1.327V8.453C19.727,7.72,19.133,7.126,18.399,7.126z M9.991,1.999
	c0.69,0,1.252,0.56,1.252,1.251c0,0.69-0.562,1.251-1.252,1.251C9.3,4.501,8.739,3.94,8.739,3.25C8.739,2.559,9.3,1.999,9.991,1.999
	z M16.742,30.983c0,0-6.694-5.188-6.999-5.661c-1.145-1.781-2.94-4.577-2.94-4.577l1.864-1.198L8.354,19.06
	c0,0-0.249-1.708-2.109-3.376c-0.275-0.427-3.767-5.861-3.767-5.861L2.479,9.82C2.478,9.815,2.473,9.813,2.469,9.808
	C2.21,9.405,2.327,8.869,2.729,8.611C3.132,8.353,3.668,8.47,3.926,8.872c0.004,0.005,0.005,0.01,0.009,0.015l0,0
	c0,0,3.439,5.352,3.757,5.848c1.152,2.724,2.254,3.303,2.254,3.303l0.313,0.487l0.026,0.041c0.284,0.444,2.945,4.585,4.123,6.419
	C17.63,29.999,16.742,30.983,16.742,30.983z"/>
<g>
</g>
<g>
</g>
<g>
</g>
<g>
</g>
<g>
</g>
<g>
</g>
<g>
</g>
<g>
</g>
<g>
</g>
<g>
</g>
<g>
</g>
<g>
</g>
<g>
</g>
<g>
</g>
<g>
</g>
</svg>
