<?xml version="1.0" encoding="iso-8859-1"?>
<!-- Generator: Adobe Illustrator 16.0.0, SVG Export Plug-In . SVG Version: 6.00 Build 0)  -->
<!DOCTYPE svg PUBLIC "-//W3C//DTD SVG 1.1//EN" "http://www.w3.org/Graphics/SVG/1.1/DTD/svg11.dtd">
<svg version="1.1" id="Layer_1" xmlns="http://www.w3.org/2000/svg" xmlns:xlink="http://www.w3.org/1999/xlink" x="0px" y="0px"
	 width="29.874px" height="32px" viewBox="0 0 29.874 32" style="enable-background:new 0 0 29.874 32;" xml:space="preserve">
<path d="M14.916,15.91l-0.78,0.78l-0.535-0.534l-0.722,0.722c0,0-0.539,1.946-4.463,4.718c-0.677,0.678-7.984,7.984-7.984,7.984
	l0.001,0.002c-0.007,0.007-0.014,0.012-0.021,0.018c-0.549,0.549-0.55,1.44,0,1.989c0.549,0.549,1.44,0.549,1.989,0
	c0.006-0.006,0.01-0.015,0.017-0.021l0.002,0.002c0,0,7.42-7.419,8.004-8.004c2.004-3.529,4.628-4.513,4.628-4.513l0.723-0.723
	l-0.767-0.767l0.78-0.78l0.632,0.631c0,0,2.646-0.863,3.231-1.448c0.585-0.584,4.707-4.707,5.515-5.515S30.675,1.532,29.756,0
	c-0.891,0.893-15.374,15.375-15.374,15.375L14.916,15.91z M24.619,9.106C24.046,9.68,23.24,9.804,22.82,9.384
	c-0.419-0.42-0.295-1.224,0.278-1.798c0.574-0.573,1.379-0.698,1.799-0.278S25.192,8.532,24.619,9.106z M21.724,12.003
	c-0.574,0.573-1.38,0.697-1.799,0.277c-0.42-0.42-0.296-1.225,0.277-1.799c0.574-0.572,1.379-0.697,1.799-0.277
	C22.42,10.624,22.296,11.429,21.724,12.003z M17.071,15.134c-0.419-0.42-0.295-1.225,0.278-1.799
	c0.573-0.573,1.378-0.697,1.798-0.277s0.296,1.225-0.278,1.798C18.296,15.429,17.491,15.554,17.071,15.134z"/>
<g>
</g>
<g>
</g>
<g>
</g>
<g>
</g>
<g>
</g>
<g>
</g>
<g>
</g>
<g>
</g>
<g>
</g>
<g>
</g>
<g>
</g>
<g>
</g>
<g>
</g>
<g>
</g>
<g>
</g>
</svg>
