<?xml version="1.0" encoding="iso-8859-1"?>
<!-- Generator: Adobe Illustrator 16.0.0, SVG Export Plug-In . SVG Version: 6.00 Build 0)  -->
<!DOCTYPE svg PUBLIC "-//W3C//DTD SVG 1.1//EN" "http://www.w3.org/Graphics/SVG/1.1/DTD/svg11.dtd">
<svg version="1.1" id="Layer_1" xmlns="http://www.w3.org/2000/svg" xmlns:xlink="http://www.w3.org/1999/xlink" x="0px" y="0px"
	 width="32.001px" height="30.711px" viewBox="0 0 32.001 30.711" style="enable-background:new 0 0 32.001 30.711;"
	 xml:space="preserve">
<path d="M31.943,1.71c0.527-0.527-2.739-2.431-3.751-1.419S11.821,16.663,11.821,16.663l-1.409,1.429c0,0-0.416,1.61-3.607,3.95
	c-0.549,0.567-6.464,6.69-6.464,6.69l0.002,0.002c-0.006,0.005-0.012,0.009-0.017,0.014c-0.444,0.461-0.433,1.194,0.028,1.64
	c0.459,0.443,1.193,0.431,1.638-0.03c0.006-0.005,0.009-0.012,0.015-0.017l0.001,0.002c0,0,6.005-6.216,6.478-6.708
	c1.601-2.935,3.748-3.783,3.748-3.783l0.584-0.604c0,0,2.491-0.901,2.776-1.187c0.286-0.286,0.351-0.351,0.946-0.946l-0.122-0.707
	l0.707,0.122c0.042-0.042,0.084-0.085,0.128-0.128l-0.123-0.706l0.708,0.121c0.04-0.04,0.083-0.083,0.125-0.125l-0.122-0.707
	l0.706,0.122c0.048-0.047,0.095-0.094,0.143-0.142l-0.122-0.707l0.707,0.122c0.041-0.041,0.083-0.084,0.125-0.125l-0.122-0.707
	l0.707,0.122c0.047-0.047,0.095-0.096,0.143-0.143l-0.122-0.707l0.706,0.123c0.042-0.042,0.084-0.084,0.126-0.126l-0.122-0.707
	l0.707,0.122c0.047-0.047,0.094-0.095,0.142-0.142l-0.122-0.707l0.707,0.122c0.042-0.042,0.083-0.084,0.125-0.125l-0.122-0.707
	l0.707,0.122c0.042-0.043,0.085-0.085,0.128-0.128L22.864,9.96l0.706,0.122c0.042-0.041,0.084-0.083,0.126-0.125L23.574,9.25
	l0.706,0.122c0.048-0.047,0.096-0.095,0.143-0.142l-0.122-0.707l0.706,0.122c0.043-0.042,0.084-0.084,0.126-0.125l-0.122-0.707
	l0.707,0.122c0.07-0.07,0.141-0.142,0.211-0.211l-0.122-0.707l0.707,0.122c0.042-0.042,0.084-0.084,0.125-0.125l-0.122-0.707
	l0.707,0.122c0.048-0.048,0.095-0.095,0.143-0.143l-0.123-0.706l0.707,0.121c0.042-0.041,0.084-0.083,0.126-0.125l-0.122-0.706
	l0.706,0.122c0.044-0.044,0.085-0.086,0.128-0.129l-0.122-0.706l0.707,0.122c0.042-0.042,0.084-0.084,0.125-0.125l-0.122-0.707
	l0.707,0.122c0.049-0.049,0.095-0.095,0.143-0.143l-0.123-0.706l0.707,0.122c0.043-0.043,0.085-0.085,0.125-0.126l-0.122-0.707
	l0.707,0.123C31.768,1.886,31.917,1.736,31.943,1.71z"/>
<g>
</g>
<g>
</g>
<g>
</g>
<g>
</g>
<g>
</g>
<g>
</g>
<g>
</g>
<g>
</g>
<g>
</g>
<g>
</g>
<g>
</g>
<g>
</g>
<g>
</g>
<g>
</g>
<g>
</g>
</svg>
