<?xml version="1.0" encoding="iso-8859-1"?>
<!-- Generator: Adobe Illustrator 16.0.0, SVG Export Plug-In . SVG Version: 6.00 Build 0)  -->
<!DOCTYPE svg PUBLIC "-//W3C//DTD SVG 1.1//EN" "http://www.w3.org/Graphics/SVG/1.1/DTD/svg11.dtd">
<svg version="1.1" id="Layer_1" xmlns="http://www.w3.org/2000/svg" xmlns:xlink="http://www.w3.org/1999/xlink" x="0px" y="0px"
	 width="32px" height="31.857px" viewBox="0 0 32 31.857" style="enable-background:new 0 0 32 31.857;" xml:space="preserve">
<path d="M32,0c0,0-1.926,5.096-3.56,6.729c-1.634,1.634-12.459,12.46-12.459,12.46l-0.631-0.63l-0.662,0.662
	c0,0-2.562,0.961-4.517,4.404c-0.57,0.57-7.811,7.812-7.811,7.812l-0.002-0.003c-0.007,0.008-0.01,0.015-0.017,0.021
	c-0.536,0.536-1.405,0.536-1.94,0.001c-0.537-0.536-0.537-1.405,0-1.941c0.006-0.007,0.014-0.011,0.02-0.019l-0.001-0.001
	c0,0,7.131-7.131,7.792-7.792c3.829-2.704,4.354-4.604,4.354-4.604l0.662-0.662l0.042-0.043C13.979,15.688,23.991,5.676,25.567,4.1
	C27.2,2.467,32,0,32,0z"/>
<g>
</g>
<g>
</g>
<g>
</g>
<g>
</g>
<g>
</g>
<g>
</g>
<g>
</g>
<g>
</g>
<g>
</g>
<g>
</g>
<g>
</g>
<g>
</g>
<g>
</g>
<g>
</g>
<g>
</g>
</svg>
