<?xml version="1.0" encoding="iso-8859-1"?>
<!-- Generator: Adobe Illustrator 16.0.0, SVG Export Plug-In . SVG Version: 6.00 Build 0)  -->
<!DOCTYPE svg PUBLIC "-//W3C//DTD SVG 1.1//EN" "http://www.w3.org/Graphics/SVG/1.1/DTD/svg11.dtd">
<svg version="1.1" id="Layer_1" xmlns="http://www.w3.org/2000/svg" xmlns:xlink="http://www.w3.org/1999/xlink" x="0px" y="0px"
	 width="31.101px" height="32px" viewBox="0 0 31.101 32" style="enable-background:new 0 0 31.101 32;" xml:space="preserve">
<path d="M14.786,14.775l0.64,0.64l0.489-0.489l0.635-1.326c0,0,13.31-13.31,13.6-13.6l0.952,0.953l-4.248,7.778l-8.567,8.567
	l-1.159-1.159l-0.489,0.489l0.51,0.51l-0.785,0.785c0,0-2.854,1.07-5.031,4.907c-0.636,0.636-8.701,8.701-8.701,8.701l-0.002-0.002
	c-0.008,0.008-0.012,0.017-0.02,0.024c-0.597,0.597-1.565,0.596-2.161,0c-0.597-0.597-0.598-1.565,0-2.162
	c0.007-0.008,0.015-0.012,0.023-0.02l-0.001-0.001c0,0,7.944-7.944,8.68-8.68c4.266-3.013,4.852-5.129,4.852-5.129L14.786,14.775z"
	/>
<g>
</g>
<g>
</g>
<g>
</g>
<g>
</g>
<g>
</g>
<g>
</g>
<g>
</g>
<g>
</g>
<g>
</g>
<g>
</g>
<g>
</g>
<g>
</g>
<g>
</g>
<g>
</g>
<g>
</g>
</svg>
