<?xml version="1.0" encoding="iso-8859-1"?>
<!-- Generator: Adobe Illustrator 16.0.0, SVG Export Plug-In . SVG Version: 6.00 Build 0)  -->
<!DOCTYPE svg PUBLIC "-//W3C//DTD SVG 1.1//EN" "http://www.w3.org/Graphics/SVG/1.1/DTD/svg11.dtd">
<svg version="1.1" id="Layer_1" xmlns="http://www.w3.org/2000/svg" xmlns:xlink="http://www.w3.org/1999/xlink" x="0px" y="0px"
	 width="32px" height="32px" viewBox="0 0 32 32" style="enable-background:new 0 0 32 32;" xml:space="preserve">
<g>
	<path d="M26.844,2.887H5.156c-1.254,0-2.27,1.017-2.27,2.27v21.688c0,1.253,1.016,2.27,2.27,2.27h5.965l0.248-4.812
		c0-2.71-2.003-1.842-2.003-3.738c0-1.062,0.033-3.276,0.033-4.938c0-4.429,1.881-8.714,2.343-9.67
		c0.465-0.955,1.558-1.997,1.57-0.994c0,1.455,0.062,18.375,0.062,18.375h-0.003l0.232,5.776h5.159l0.467-9.045
		c-1.102-0.242-2.041-0.943-2.63-1.823c-0.73-1.093,0.561-10.764,0.561-10.764h0.841v9.076h0.834V7.481h0.911v9.076h0.831V7.481
		h0.946v9.076h0.833V7.481h0.645c0,0,1.29,9.671,0.56,10.764c-0.583,0.871-1.514,1.57-2.601,1.818
		c-0.02,0.007-0.037,0.014-0.037,0.014l0.471,9.036h5.45c1.253,0,2.27-1.017,2.27-2.27V5.156
		C29.113,3.903,28.097,2.887,26.844,2.887z"/>
	<path d="M28.683,0H3.317C1.488,0,0,1.488,0,3.317v25.365C0,30.512,1.488,32,3.317,32h25.365C30.512,32,32,30.512,32,28.683V3.317
		C32,1.488,30.512,0,28.683,0z M30.673,28.683c0,1.098-0.893,1.99-1.99,1.99H3.317c-1.098,0-1.99-0.893-1.99-1.99V3.317
		c0-1.098,0.893-1.99,1.99-1.99h25.365c1.098,0,1.99,0.893,1.99,1.99V28.683z"/>
</g>
<g>
</g>
<g>
</g>
<g>
</g>
<g>
</g>
<g>
</g>
<g>
</g>
<g>
</g>
<g>
</g>
<g>
</g>
<g>
</g>
<g>
</g>
<g>
</g>
<g>
</g>
<g>
</g>
<g>
</g>
</svg>
