<?xml version="1.0" encoding="iso-8859-1"?>
<!-- Generator: Adobe Illustrator 16.0.0, SVG Export Plug-In . SVG Version: 6.00 Build 0)  -->
<!DOCTYPE svg PUBLIC "-//W3C//DTD SVG 1.1//EN" "http://www.w3.org/Graphics/SVG/1.1/DTD/svg11.dtd">
<svg version="1.1" id="Layer_1" xmlns="http://www.w3.org/2000/svg" xmlns:xlink="http://www.w3.org/1999/xlink" x="0px" y="0px"
	 width="32px" height="30.093px" viewBox="0 0 32 30.093" style="enable-background:new 0 0 32 30.093;" xml:space="preserve">
<path d="M14.796,13.137C15.205,12.729,27.374,0.56,27.733,0.201C28.091-0.158,31.472-0.047,32,0.625
	c-0.48,0.48-14.305,14.354-14.786,14.786c-1.946,0.627-1.946,0.627-1.946,0.627l-0.494,0.494l0.404,0.404l-0.695,0.695
	c0,0-2.525,0.947-4.453,4.343c-0.563,0.563-7.702,7.702-7.702,7.702l-0.002-0.002c-0.007,0.007-0.01,0.015-0.017,0.021
	c-0.529,0.529-1.387,0.529-1.914,0.001c-0.529-0.529-0.529-1.386,0-1.915c0.006-0.006,0.013-0.011,0.02-0.017l-0.001-0.002
	c0,0,7.032-7.031,7.684-7.684c3.776-2.667,4.295-4.54,4.295-4.54l0.695-0.694l0.405,0.404l0.493-0.493
	C13.987,14.756,14.041,14.602,14.796,13.137z"/>
<g>
</g>
<g>
</g>
<g>
</g>
<g>
</g>
<g>
</g>
<g>
</g>
<g>
</g>
<g>
</g>
<g>
</g>
<g>
</g>
<g>
</g>
<g>
</g>
<g>
</g>
<g>
</g>
<g>
</g>
</svg>
