<?xml version="1.0" encoding="iso-8859-1"?>
<!-- Generator: Adobe Illustrator 16.0.0, SVG Export Plug-In . SVG Version: 6.00 Build 0)  -->
<!DOCTYPE svg PUBLIC "-//W3C//DTD SVG 1.1//EN" "http://www.w3.org/Graphics/SVG/1.1/DTD/svg11.dtd">
<svg version="1.1" id="Layer_1" xmlns="http://www.w3.org/2000/svg" xmlns:xlink="http://www.w3.org/1999/xlink" x="0px" y="0px"
	 width="29.89px" height="32px" viewBox="0 0 29.89 32" style="enable-background:new 0 0 29.89 32;" xml:space="preserve">
<path d="M29.89,1.087L28.637,6.37L15.262,19.745l-0.95-0.949l-0.327,0.326l0.405,0.405l-0.659,0.658c0,0-2.394,0.899-4.222,4.118
	c-0.533,0.533-7.302,7.302-7.302,7.302l-0.002-0.002C2.2,31.61,2.196,31.617,2.19,31.624c-0.501,0.501-1.313,0.5-1.814,0
	c-0.501-0.501-0.501-1.313,0-1.815c0.006-0.006,0.013-0.009,0.02-0.016l-0.001-0.001c0,0,6.667-6.667,7.284-7.285
	c3.58-2.528,4.072-4.304,4.072-4.304l0.658-0.658l0.56,0.559l0.327-0.326l-0.74-0.74l0.725-1.514c0,0,15.193-15.193,15.524-15.523
	L29.89,1.087z"/>
<g>
</g>
<g>
</g>
<g>
</g>
<g>
</g>
<g>
</g>
<g>
</g>
<g>
</g>
<g>
</g>
<g>
</g>
<g>
</g>
<g>
</g>
<g>
</g>
<g>
</g>
<g>
</g>
<g>
</g>
</svg>
