<?xml version="1.0" encoding="iso-8859-1"?>
<!-- Generator: Adobe Illustrator 16.0.0, SVG Export Plug-In . SVG Version: 6.00 Build 0)  -->
<!DOCTYPE svg PUBLIC "-//W3C//DTD SVG 1.1//EN" "http://www.w3.org/Graphics/SVG/1.1/DTD/svg11.dtd">
<svg version="1.1" id="Layer_1" xmlns="http://www.w3.org/2000/svg" xmlns:xlink="http://www.w3.org/1999/xlink" x="0px" y="0px"
	 width="23.665px" height="32px" viewBox="0 0 23.665 32" style="enable-background:new 0 0 23.665 32;" xml:space="preserve">
<g>
	<path d="M12.178,4.274c0,0.351,0,12.224,0,12.622c0.346,1.084,0.396,1.186,0.396,1.186v0.481h-0.395l0,0.678
		c0,0,0.661,1.167,0.12,4.311c0,0.636,0,7.496,0,7.496h0.001c0,0.007-0.001,0.013-0.001,0.019c0,0.517,0.418,0.934,0.934,0.934
		c0.516,0.001,0.934-0.417,0.934-0.934c0-0.006-0.002-0.011-0.002-0.019h0.002c0,0,0-6.966,0-7.515
		c-0.716-2.597,0.054-4.291,0.054-4.291l0-0.679h-0.395l0-0.481c0,0,0,0,0.643-1.255c0.024-0.446,0-13.958,0-14.428
		C13.881,2.329,12.178,3.925,12.178,4.274z"/>
	<path d="M16.806,4.531c0,0.258,0,12.128,0,12.128l0.308,0.874v0.436h-0.57v0.7c0,0,0.683,1.205,0.124,4.45c0,0.656,0,7.741,0,7.741
		h0.001c0,0.007-0.002,0.013-0.001,0.019c0,0.533,0.432,0.964,0.964,0.964c0.531,0,0.964-0.431,0.964-0.963
		c0-0.008-0.002-0.013-0.002-0.02h0.002c0,0,0-7.193,0-7.76c-0.74-2.682,0.056-4.432,0.056-4.432l0-0.7h-0.454l0-0.436h1.034v-7.64
		l-1.575-5.362H16.806z"/>
	<path d="M23.665,19.908V7.98l-1.798-2.914h-0.969c0,0.295,0,13.844,0,13.844l0.352,0.998h0.66V20.2h-0.499v0.587
		c0,0,0.572,1.011,0.103,3.734c0,0.551,0,6.496,0,6.496h0.001c0,0.007-0.001,0.01-0.001,0.016c0,0.447,0.363,0.81,0.81,0.81
		s0.809-0.362,0.809-0.809c0-0.007-0.001-0.011-0.001-0.017h0.001c0,0,0-6.036,0-6.512c-0.62-2.25,0.046-3.719,0.046-3.719l0-0.587
		h-0.362l0.001-0.292H23.665z"/>
	<path d="M0,7.729c0,2.618,0,8.524,0,9.158l0,0.06v0.695c0,0,0.736,1.299,0.133,4.797c0,0.708,0,8.344,0,8.344h0.002
		c0,0.008-0.002,0.015-0.002,0.021c0,0.574,0.466,1.04,1.041,1.039c0.572,0.001,1.039-0.465,1.039-1.039
		c0-0.007-0.002-0.014-0.002-0.021l0.002-0.001c0,0,0-7.753,0-8.363c-0.797-2.892,0.059-4.777,0.059-4.777v-0.695l2.66-0.001
		c0,0,0-3.988,0-6.53c0-0.676-3.395-10.258-3.395-10.258S0,0.574,0,7.729z"/>
	<path d="M8.274,0c0,0-1.185,3.688-1.184,5.345c0,1.601,0,11.762,0,12.48l0,0.043v0.672c0,0,0.697,1.23,0.126,4.547
		c0,0.671,0,7.909,0,7.909h0.001c0,0.006-0.001,0.012-0.001,0.019c0,0.545,0.44,0.986,0.986,0.985c0.543,0,0.984-0.44,0.984-0.985
		c0-0.007-0.002-0.012-0.002-0.019h0.002c0,0,0-7.35,0-7.929C8.43,20.328,9.242,18.54,9.242,18.54v-0.672h0.64
		c0,0,0-10.989,0-12.646C9.882,3.563,8.274,0,8.274,0z"/>
</g>
<g>
</g>
<g>
</g>
<g>
</g>
<g>
</g>
<g>
</g>
<g>
</g>
<g>
</g>
<g>
</g>
<g>
</g>
<g>
</g>
<g>
</g>
<g>
</g>
<g>
</g>
<g>
</g>
<g>
</g>
</svg>
