<?xml version="1.0" encoding="iso-8859-1"?>
<!-- Generator: Adobe Illustrator 16.0.0, SVG Export Plug-In . SVG Version: 6.00 Build 0)  -->
<!DOCTYPE svg PUBLIC "-//W3C//DTD SVG 1.1//EN" "http://www.w3.org/Graphics/SVG/1.1/DTD/svg11.dtd">
<svg version="1.1" id="Layer_1" xmlns="http://www.w3.org/2000/svg" xmlns:xlink="http://www.w3.org/1999/xlink" x="0px" y="0px"
	 width="31.346px" height="32px" viewBox="0 0 31.346 32" style="enable-background:new 0 0 31.346 32;" xml:space="preserve">
<path d="M17.91,15.6l0.104-0.103c0,0,1.014-2.701,4.646-4.765c0.602-0.602,8.24-8.24,8.24-8.24l-0.002-0.003
	c0.008-0.007,0.016-0.011,0.023-0.018c0.564-0.565,0.564-1.483,0-2.047c-0.564-0.566-1.482-0.566-2.049-0.001
	c-0.006,0.007-0.012,0.015-0.018,0.022l-0.002-0.002c0,0-7.523,7.523-8.221,8.221c-2.854,4.041-4.857,4.595-4.857,4.595
	l-0.103,0.104l-0.104-0.104c0,0-2.004-0.554-4.857-4.595c-0.697-0.697-8.221-8.221-8.221-8.221L2.489,0.446
	C2.483,0.438,2.478,0.431,2.472,0.424C1.905-0.142,0.987-0.142,0.423,0.425c-0.564,0.563-0.564,1.481,0,2.047
	c0.008,0.007,0.016,0.011,0.023,0.018L0.444,2.492c0,0,7.639,7.639,8.24,8.24c3.633,2.063,4.646,4.765,4.646,4.765l0.104,0.103
	c-2.072,2.072-5.577,5.578-7.427,7.427C-1.04,30.074,0.063,32,0.063,32s12.785-6.098,13.451-6.763
	c0.654-0.654,1.405-1.405,2.159-2.159c0.753,0.754,1.504,1.505,2.158,2.159C18.497,25.902,31.282,32,31.282,32
	s1.103-1.926-5.945-8.974C23.487,21.178,19.982,17.672,17.91,15.6z"/>
<g>
</g>
<g>
</g>
<g>
</g>
<g>
</g>
<g>
</g>
<g>
</g>
<g>
</g>
<g>
</g>
<g>
</g>
<g>
</g>
<g>
</g>
<g>
</g>
<g>
</g>
<g>
</g>
<g>
</g>
</svg>
