<?xml version="1.0" encoding="iso-8859-1"?>
<!-- Generator: Adobe Illustrator 16.0.0, SVG Export Plug-In . SVG Version: 6.00 Build 0)  -->
<!DOCTYPE svg PUBLIC "-//W3C//DTD SVG 1.1//EN" "http://www.w3.org/Graphics/SVG/1.1/DTD/svg11.dtd">
<svg version="1.1" id="Layer_1" xmlns="http://www.w3.org/2000/svg" xmlns:xlink="http://www.w3.org/1999/xlink" x="0px" y="0px"
	 width="32px" height="31.984px" viewBox="0 0 32 31.984" style="enable-background:new 0 0 32 31.984;" xml:space="preserve">
<path d="M31.643,0.358c-0.474-0.479-1.25-0.478-1.723,0c-0.005,0.01-0.01,0.011-0.015,0.021c0,0-6.335,6.33-6.923,6.923
	c-2.4,3.394-4.086,3.863-4.086,3.863l-0.63,0.624l0.5,0.498l-9.344,9.35c-1.837-1.206-4.856-0.519-7.1,1.729
	c-2.473,2.468-3.061,5.884-1.322,7.622c1.739,1.737,5.153,1.144,7.621-1.323c2.27-2.26,2.946-5.319,1.702-7.152l9.333-9.338
	l0.5,0.499l0.625-0.624c0,0,0.854-2.27,3.909-4.008c0.505-0.511,6.938-6.944,6.938-6.944c0.006,0,0.011-0.011,0.016-0.011
	C32.122,1.608,32.116,0.838,31.643,0.358z M8.846,22.86c-0.001,0-0.094-0.027-0.253-0.037c-0.092-0.01-0.215-0.008-0.357-0.004
	c-0.111,0.002-0.233,0.004-0.355,0.002c-0.591,0.025-1.399,0.063-2.136,0.277c-0.157,0.049-0.352,0.138-0.511,0.234
	c-0.205,0.119-0.365,0.222-0.505,0.324c-0.359,0.252-0.655,0.484-0.879,0.693c-0.253,0.228-0.457,0.414-0.578,0.573
	c-0.134,0.149-0.252,0.31-0.254,0.31c-0.038,0.053-0.11,0.066-0.165,0.033c-0.057-0.031-0.076-0.104-0.048-0.161
	c0,0,0.075-0.155,0.19-0.385c0.098-0.195,0.265-0.49,0.509-0.788c0.216-0.262,0.51-0.602,0.866-0.911
	c0.186-0.158,0.368-0.296,0.559-0.423c0.215-0.135,0.415-0.234,0.652-0.322c0.704-0.213,1.477-0.229,2.36-0.049
	c0.293,0.052,0.528,0.15,0.699,0.223l0.044,0.018c0.17,0.076,0.259,0.158,0.282,0.182c0.001,0.001,0.006,0.006,0.007,0.006
	c0.038,0.042,0.043,0.104,0.014,0.151C8.958,22.854,8.9,22.876,8.846,22.86z M31.195,1.858c-0.265,0.26-1.395,0.958-1.66,0.687
	c-0.266-0.271,0.427-1.395,0.692-1.655c0.271-0.271,0.703-0.271,0.968,0C31.46,1.15,31.46,1.587,31.195,1.858z"/>
<g>
</g>
<g>
</g>
<g>
</g>
<g>
</g>
<g>
</g>
<g>
</g>
<g>
</g>
<g>
</g>
<g>
</g>
<g>
</g>
<g>
</g>
<g>
</g>
<g>
</g>
<g>
</g>
<g>
</g>
</svg>
