<?xml version="1.0" encoding="iso-8859-1"?>
<!-- Generator: Adobe Illustrator 16.0.0, SVG Export Plug-In . SVG Version: 6.00 Build 0)  -->
<!DOCTYPE svg PUBLIC "-//W3C//DTD SVG 1.1//EN" "http://www.w3.org/Graphics/SVG/1.1/DTD/svg11.dtd">
<svg version="1.1" id="Layer_1" xmlns="http://www.w3.org/2000/svg" xmlns:xlink="http://www.w3.org/1999/xlink" x="0px" y="0px"
	 width="23.719px" height="31.395px" viewBox="0 0 23.719 31.395" style="enable-background:new 0 0 23.719 31.395;"
	 xml:space="preserve">
<g>
	<path d="M12.821,15.585c-0.013-0.013-0.027-0.029-0.04-0.043l-0.331-0.281l-0.177-0.81l-0.02,0.076l-0.01-0.01
		c0.141,0.484-0.074,0.831-0.237,1.028c-0.243,0.297-2.384,2.408-2.385,4.581s1.874,3.83,2.401,4.368
		c0.398,0.405,0.889,0.874,0.805,1.466l0.018,0.138l0.32-0.979l0.153-0.081c0.125-0.193,0.271-0.378,0.409-0.55
		c0.47-0.589,2.164-2.432,1.939-4.593C15.44,17.734,13.093,15.854,12.821,15.585z"/>
	<path d="M1.026,4.408V1.549l0.438-0.526h21.563V0H0.985L0.003,1.179v3.229H0v26.986h23.719V4.408H1.026z M15.766,26.563
		c-0.406,0.459-1.361,0.8-2.13,0.223l-0.683-0.149l-0.455,1.302l-0.123-0.402l0.281-0.859l-0.287,0.076
		c-0.708,0.677-1.707,0.437-2.162,0.018c-0.438-0.404-3.772-2.999-3.525-6.911c0.247-3.913,3.191-6.29,3.191-6.29
		s0.935-0.8,1.845,0.129c0.024,0.024,0.037,0.046,0.059,0.069l0.344-0.005l-0.215-0.983l0.262-0.382l0.259,1.33l0.62-0.141
		c0.783-0.797,1.689-0.188,1.689-0.188s3.173,2.062,3.823,5.928C19.21,23.19,16.16,26.115,15.766,26.563z M21.39,9.371H3.184V7.586
		H21.39V9.371z"/>
</g>
<g>
</g>
<g>
</g>
<g>
</g>
<g>
</g>
<g>
</g>
<g>
</g>
<g>
</g>
<g>
</g>
<g>
</g>
<g>
</g>
<g>
</g>
<g>
</g>
<g>
</g>
<g>
</g>
<g>
</g>
</svg>
