<?xml version="1.0" encoding="iso-8859-1"?>
<!-- Generator: Adobe Illustrator 16.0.0, SVG Export Plug-In . SVG Version: 6.00 Build 0)  -->
<!DOCTYPE svg PUBLIC "-//W3C//DTD SVG 1.1//EN" "http://www.w3.org/Graphics/SVG/1.1/DTD/svg11.dtd">
<svg version="1.1" id="Layer_1" xmlns="http://www.w3.org/2000/svg" xmlns:xlink="http://www.w3.org/1999/xlink" x="0px" y="0px"
	 width="32px" height="20.94px" viewBox="0 0 32 20.94" style="enable-background:new 0 0 32 20.94;" xml:space="preserve">
<g>
	<rect x="25.039" y="18.852" width="4.979" height="2.089"/>
	<rect x="3.258" y="18.852" width="4.979" height="2.089"/>
	<path d="M29.608,0H2.393C1.071,0,0,1.07,0,2.392v13.46c0,1.32,1.071,2.392,2.393,2.392h27.216c1.321,0,2.392-1.071,2.392-2.392
		V2.392C32,1.07,30.93,0,29.608,0z M21.951,15.144H2.59V2.928h19.361V15.144z M26.272,15.144h-2.954V13.22h2.954V15.144z
		 M28.658,9.501v0.726h-3.862V9.501H28.658z M24.796,8.801V8.074h3.862v0.727H24.796z M28.658,11.108v0.726h-3.862v-0.726H28.658z
		 M29.68,15.144h-2.953V13.22h2.953V15.144z M29.68,6.766h-6.138V2.928h6.138V6.766z"/>
</g>
<g>
</g>
<g>
</g>
<g>
</g>
<g>
</g>
<g>
</g>
<g>
</g>
<g>
</g>
<g>
</g>
<g>
</g>
<g>
</g>
<g>
</g>
<g>
</g>
<g>
</g>
<g>
</g>
<g>
</g>
</svg>
