<?xml version="1.0" encoding="iso-8859-1"?>
<!-- Generator: Adobe Illustrator 16.0.0, SVG Export Plug-In . SVG Version: 6.00 Build 0)  -->
<!DOCTYPE svg PUBLIC "-//W3C//DTD SVG 1.1//EN" "http://www.w3.org/Graphics/SVG/1.1/DTD/svg11.dtd">
<svg version="1.1" id="Layer_1" xmlns="http://www.w3.org/2000/svg" xmlns:xlink="http://www.w3.org/1999/xlink" x="0px" y="0px"
	 width="32px" height="31.516px" viewBox="0 0 32 31.516" style="enable-background:new 0 0 32 31.516;" xml:space="preserve">
<g>
	<circle cx="8.317" cy="19.885" r="1.195"/>
	<path d="M13.044,16.843c0.121,0.202,0.553,0.571,2.09,0.769c2.226,0.287,8.413,0.221,13.122-0.426
		c-0.293-0.764-1.065-1.365-2.138-1.799v-3.598h-4.839v2.744c-3.304-0.077-6.814,0.662-8.276,2.211
		C13.011,16.773,13.022,16.806,13.044,16.843z"/>
	<path d="M16.73,25.778c-3.485-2.45-4.183-6.955-4.271-9.167c-0.565-0.391-1.033-0.764-1.679-0.99
		c1.499-0.747,1.991-2.218,2.067-3.564c0.1-1.759,0.475-9.371,0.532-10.528h0.357c0,0,0.063-0.994-0.849-0.994
		c-0.353,0-1.273,0-2.271,0C10.444,0.232,9.465,0,8.279,0C7.094,0,6.115,0.232,5.943,0.534c-1.147,0-2.281,0-2.681,0
		c-0.913,0-0.85,0.994-0.85,0.994h0.574c0.009,0.205,0.03,0.617,0.058,1.164H1.493c-0.798,0-1.085,1.012-1.246,1.894
		C0.09,5.443,0,6.606,0,7.78c0,1.14,0.083,2.191,0.233,2.963c0.094,0.478,0.341,1.745,1.259,1.745h2.064
		c0.155,1.236,0.701,2.502,2.084,3.163H5.576c0,0-0.085,0.085-0.224,0.233c-2.814,1.248-4.785,4.129-4.785,7.485
		c0,4.443,3.455,8.054,7.747,8.142l-0.001,0.004c0,0,14.259,0,16.993,0c2.058,0,2.025-1.831,1.258-2.967
		C23.874,28.448,19.675,27.85,16.73,25.778z M1.613,11.337c-0.21-0.331-0.479-1.651-0.462-3.74C1.168,5.538,1.44,4.209,1.646,3.842
		h1.455c0.116,2.347,0.287,5.77,0.378,7.495H1.613z M8.317,21.799c-1.055,0-1.914-0.859-1.914-1.914
		c0-1.057,0.859-1.915,1.914-1.915c1.056,0,1.915,0.858,1.915,1.915C10.231,20.939,9.373,21.799,8.317,21.799z"/>
	<path d="M31.003,18.796c-0.551-0.406-1.738-0.831-2.419-1.143c-3.078,0.443-6.76,0.688-9.667,0.688
		c-1.611,0-2.975-0.063-3.792-0.167c-0.961-0.124-1.685-0.376-2.089-0.666c0.209,2.279,1.03,5.709,3.994,7.792
		c3.193,2.245,7.788,2.628,10.346,2.649c1.122-0.385,2.583-0.921,3.349-1.349c0.745-0.416,1.156-1.415,1.259-3.053
		C31.987,23.51,32.193,19.673,31.003,18.796z M29.843,25.063c-0.58,0.319-1.731,0.753-2.765,1.113
		c0.973-1.597,1.89-4.265,1.761-6.578c0.421,0.21,0.808,0.418,1.041,0.574C30.318,20.994,30.391,24.516,29.843,25.063z"/>
</g>
<g>
</g>
<g>
</g>
<g>
</g>
<g>
</g>
<g>
</g>
<g>
</g>
<g>
</g>
<g>
</g>
<g>
</g>
<g>
</g>
<g>
</g>
<g>
</g>
<g>
</g>
<g>
</g>
<g>
</g>
</svg>
