<?xml version="1.0" encoding="iso-8859-1"?>
<!-- Generator: Adobe Illustrator 16.0.0, SVG Export Plug-In . SVG Version: 6.00 Build 0)  -->
<!DOCTYPE svg PUBLIC "-//W3C//DTD SVG 1.1//EN" "http://www.w3.org/Graphics/SVG/1.1/DTD/svg11.dtd">
<svg version="1.1" id="Layer_1" xmlns="http://www.w3.org/2000/svg" xmlns:xlink="http://www.w3.org/1999/xlink" x="0px" y="0px"
	 width="18.646px" height="32px" viewBox="0 0 18.646 32" style="enable-background:new 0 0 18.646 32;" xml:space="preserve">
<path d="M13.999,0C10.717,0,3.471,0,2.496,0c-0.975,0-1.43,2.535,0.325,2.535c1.754,0,9.586,0,10.496,0
	c0.91,0,2.34,3.021,1.755,3.021s-12.641,0-13.973,0c-1.333,0-1.592,7.572,0,7.572c0.434,0,1.726,0,3.396,0v7.019H4.219
	c-0.019,0.044-0.031,0.067-0.031,0.067L4.186,20.75l0.294,0.002c-0.05,0.896-0.55,2.335-1.085,3.86
	c-0.642,1.832-1.306,3.728-1.215,4.841c0.097,1.203,0.636,1.827,1.072,2.137c0.372,0.267,0.817,0.409,1.25,0.41
	c0.162,0.001,0.324-0.018,0.479-0.058l0.22-0.056c0.078,0.009,0.156,0.015,0.235,0.016c0.434,0.001,0.878-0.138,1.253-0.401
	c0.438-0.307,0.982-0.925,1.09-2.128c0.1-1.112-0.549-3.013-1.176-4.851c-0.502-1.473-0.974-2.863-1.046-3.767l0.239,0.002
	L5.8,20.222c0,0-0.011-0.026-0.029-0.074H5.469v-7.019c2.412,0,5.346,0,7.652,0v6.727h-0.275c-0.019,0.043-0.031,0.067-0.031,0.067
	l-0.002,0.535l0.294,0.001c-0.05,0.897-0.55,2.335-1.085,3.861c-0.642,1.832-1.306,3.727-1.215,4.84
	c0.097,1.204,0.636,1.827,1.072,2.138c0.372,0.266,0.817,0.409,1.25,0.41c0.162,0.001,0.324-0.018,0.479-0.058l0.22-0.057
	c0.078,0.01,0.156,0.016,0.235,0.016c0.434,0.002,0.878-0.138,1.253-0.4c0.438-0.307,0.982-0.926,1.09-2.128
	c0.1-1.113-0.549-3.013-1.176-4.851c-0.502-1.473-0.974-2.863-1.046-3.768l0.239,0.002l0.003-0.535c0,0-0.012-0.027-0.03-0.074
	h-0.302v-6.727c1.468,0,2.544,0,2.827,0c1.105,0,1.722-1.69,1.722-2.6c0-0.91,0-4.322,0-4.322S17.281,0,13.999,0z M3.425,31.35
	c-0.384-0.274-0.86-0.831-0.949-1.921c-0.085-1.051,0.567-2.916,1.2-4.718c0.129-0.371,0.257-0.736,0.378-1.091
	c-0.52,2.313-1.15,5.168-1.181,5.571c-0.051,1.33,0.953,2.141,1.565,2.51C4.085,31.684,3.724,31.563,3.425,31.35z M3.169,29.207
	c0.024-0.314,0.458-2.316,0.902-4.303c-0.266,1.983-0.518,3.967-0.52,4.393c-0.002,0.57,0.537,1.548,1,2.128
	C3.995,31.084,3.125,30.362,3.169,29.207z M3.848,29.298c0.002-0.483,0.35-3.14,0.66-5.413c-0.168,3.432-0.154,4.052-0.138,4.701
	c0.006,0.21,0.011,0.424,0.009,0.74c-0.003,0.832,0.206,1.461,0.384,1.881C4.376,30.707,3.846,29.854,3.848,29.298z M4.955,30.883
	c-0.144-0.387-0.282-0.904-0.279-1.557c0.001-0.32-0.004-0.535-0.008-0.748c-0.02-0.795-0.038-1.549,0.288-7.592
	c0.023-0.101,0.041-0.178,0.053-0.232l0.039,0.001c0.009,0.038,0.018,0.081,0.029,0.13c0.276,6.045,0.251,6.799,0.226,7.594
	c-0.007,0.213-0.014,0.429-0.015,0.749C5.283,29.938,5.115,30.49,4.955,30.883z M6.325,24.619c0.617,1.808,1.255,3.678,1.161,4.728
	c-0.098,1.09-0.579,1.642-0.965,1.912c-0.301,0.212-0.663,0.33-1.016,0.344c0.613-0.364,1.625-1.168,1.585-2.503
	c-0.029-0.399-0.635-3.258-1.135-5.573C6.073,23.881,6.198,24.247,6.325,24.619z M6.793,29.113c0.035,1.16-0.844,1.876-1.404,2.214
	c0.165-0.204,0.308-0.415,0.357-0.49c0.248-0.373,0.662-1.084,0.664-1.631c0.002-0.427-0.233-2.412-0.482-4.398
	C6.354,26.798,6.772,28.802,6.793,29.113z M5.499,23.786c0.292,2.276,0.617,4.936,0.615,5.419c-0.002,0.556-0.539,1.404-0.931,1.902
	c0.181-0.419,0.396-1.047,0.399-1.88c0.002-0.316,0.009-0.528,0.015-0.739C5.619,27.839,5.64,27.219,5.499,23.786z M12.053,31.057
	c-0.384-0.274-0.86-0.83-0.949-1.92c-0.085-1.052,0.567-2.916,1.2-4.719c0.129-0.37,0.257-0.735,0.378-1.09
	c-0.52,2.313-1.15,5.168-1.181,5.57c-0.051,1.33,0.953,2.142,1.565,2.51C12.713,31.392,12.352,31.27,12.053,31.057z M11.796,28.915
	c0.024-0.314,0.458-2.317,0.902-4.304c-0.266,1.984-0.518,3.967-0.52,4.394c-0.002,0.57,0.537,1.547,1,2.128
	C12.622,30.791,11.752,30.07,11.796,28.915z M12.475,29.006c0.002-0.484,0.35-3.141,0.66-5.413c-0.168,3.431-0.154,4.052-0.138,4.7
	c0.006,0.211,0.011,0.424,0.009,0.74c-0.003,0.833,0.206,1.462,0.384,1.882C13.003,30.414,12.473,29.562,12.475,29.006z
	 M13.582,30.59c-0.144-0.386-0.282-0.903-0.279-1.557c0.001-0.319-0.004-0.535-0.008-0.747c-0.02-0.796-0.038-1.55,0.288-7.592
	c0.023-0.101,0.041-0.178,0.053-0.232h0.039c0.009,0.039,0.018,0.081,0.029,0.13c0.276,6.045,0.251,6.799,0.226,7.594
	c-0.007,0.214-0.014,0.429-0.015,0.749C13.911,29.646,13.742,30.198,13.582,30.59z M14.952,24.326
	c0.617,1.809,1.255,3.679,1.161,4.729c-0.098,1.09-0.579,1.641-0.965,1.912c-0.301,0.211-0.663,0.33-1.016,0.344
	c0.613-0.364,1.625-1.168,1.585-2.504c-0.028-0.398-0.635-3.258-1.135-5.572C14.7,23.588,14.825,23.955,14.952,24.326z
	 M15.421,28.821c0.035,1.159-0.844,1.876-1.404,2.214c0.165-0.205,0.308-0.416,0.357-0.49c0.248-0.374,0.662-1.085,0.664-1.631
	c0.002-0.427-0.233-2.412-0.483-4.398C14.981,26.505,15.4,28.51,15.421,28.821z M14.126,23.494c0.292,2.275,0.617,4.935,0.615,5.419
	c-0.002,0.556-0.539,1.404-0.931,1.901c0.181-0.418,0.396-1.046,0.399-1.879c0.001-0.316,0.009-0.529,0.015-0.74
	C14.246,27.547,14.267,26.927,14.126,23.494z"/>
<g>
</g>
<g>
</g>
<g>
</g>
<g>
</g>
<g>
</g>
<g>
</g>
<g>
</g>
<g>
</g>
<g>
</g>
<g>
</g>
<g>
</g>
<g>
</g>
<g>
</g>
<g>
</g>
<g>
</g>
</svg>
