<?xml version="1.0" encoding="iso-8859-1"?>
<!-- Generator: Adobe Illustrator 16.0.0, SVG Export Plug-In . SVG Version: 6.00 Build 0)  -->
<!DOCTYPE svg PUBLIC "-//W3C//DTD SVG 1.1//EN" "http://www.w3.org/Graphics/SVG/1.1/DTD/svg11.dtd">
<svg version="1.1" id="Layer_1" xmlns="http://www.w3.org/2000/svg" xmlns:xlink="http://www.w3.org/1999/xlink" x="0px" y="0px"
	 width="32px" height="30.316px" viewBox="0 0 32 30.316" style="enable-background:new 0 0 32 30.316;" xml:space="preserve">
<path d="M26.735,26.008c-2.859,0-9.764,0-12.077,0s-4.484-1.679-4.484-4.484c0-2.805,0-11.976,0-11.976s4.123,0,8.361,0v2.967
	h-7.552c0,5.374,0,5.284,0,8.416c0,3.021,2.134,4.423,3.344,4.423c1.095,0,4.625,0,5.287,0c0.07,0,0.108,0,0.108,0
	c0.662,0,4.192,0,5.287,0c1.21,0,3.345-1.402,3.345-4.423c0-3.132,0-3.042,0-8.416h-7.552V9.548c3.357,0,6.32,0,6.77,0
	c1.106,0,0.621-5.502,0-7.04C26.951,0.971,24.2,0,23.121,0C22.042,0,14.112,0,8.07,0C5.725,0,4.455,1.262,3.896,2.877h2.879v0.809
	H3.679c-0.042,0.214-0.077,0.43-0.1,0.647h3.196v0.81H3.54c0,0.229,0.011,0.457,0.03,0.684h3.206v0.809H3.674
	c0.247,1.39,0.812,2.561,1.483,2.967c0,1.241,0,11.977,0,14.026s-7.391,5.61-4.478,6.688c1.619,0,30.102,0,31.126,0
	S29.594,26.008,26.735,26.008z M14.871,23.756c-0.28-0.139-0.671-0.377-1.053-0.787c-0.192-0.204-0.381-0.451-0.528-0.751
	c-0.083-0.146-0.141-0.309-0.203-0.476c-0.041-0.17-0.102-0.402-0.11-0.545c-0.05-0.376-0.042-0.671-0.05-1.021
	c-0.002-0.339-0.017-0.683-0.011-1.027c0.001-1.376,0.095-2.753,0.217-3.785c0.117-1.032,0.28-1.721,0.28-1.721
	s0.163,0.688,0.28,1.721c0.123,1.032,0.216,2.409,0.217,3.785c0.006,0.345-0.008,0.688-0.011,1.027
	c0.004,0.326-0.028,0.7-0.022,0.967c-0.006,0.182,0.025,0.257,0.035,0.394c0.032,0.129,0.044,0.262,0.09,0.385
	c0.072,0.251,0.187,0.479,0.296,0.692c0.237,0.418,0.501,0.752,0.699,0.977c0.198,0.226,0.328,0.349,0.328,0.349
	S15.152,23.896,14.871,23.756z"/>
<g>
</g>
<g>
</g>
<g>
</g>
<g>
</g>
<g>
</g>
<g>
</g>
<g>
</g>
<g>
</g>
<g>
</g>
<g>
</g>
<g>
</g>
<g>
</g>
<g>
</g>
<g>
</g>
<g>
</g>
</svg>
