<?xml version="1.0" encoding="iso-8859-1"?>
<!-- Generator: Adobe Illustrator 16.0.0, SVG Export Plug-In . SVG Version: 6.00 Build 0)  -->
<!DOCTYPE svg PUBLIC "-//W3C//DTD SVG 1.1//EN" "http://www.w3.org/Graphics/SVG/1.1/DTD/svg11.dtd">
<svg version="1.1" id="Layer_1" xmlns="http://www.w3.org/2000/svg" xmlns:xlink="http://www.w3.org/1999/xlink" x="0px" y="0px"
	 width="32px" height="31.731px" viewBox="0 0 32 31.731" style="enable-background:new 0 0 32 31.731;" xml:space="preserve">
<path d="M28.842,14.384c1.003-1.002,1.718-2.176,2.149-3.408l0.688,0.15L32,9.682l-0.604-0.341c0.193-1.354,0.06-2.724-0.415-3.972
	L30.24,5.713c-0.695,0.149-0.75-0.518-0.501-0.782c0.318-0.336,1.204-1.03,1.204-1.03l0.424-0.019l0.086-1.513l-0.387-1.196
	L30.8,0.906l-1.164-0.354l-1.513,0.086l-0.018,0.425c0,0-0.694,0.886-1.03,1.203c-0.242,0.229-0.849,0.23-0.841-0.296l0.354-0.888
	c-1.216-0.429-2.539-0.541-3.847-0.348L22.391,0l-1.713,0.521c0,0,0.326,0.364,0.515,0.596c-1.249,0.431-2.438,1.15-3.453,2.165
	c-0.676,0.675-1.215,1.429-1.632,2.224l-0.49-0.232l-0.621,1.538l0.478,0.236c-0.471,1.553-0.495,3.179-0.061,4.672
	c-0.457,0.388-1.398,1.316-1.928,1.844L13.13,13.21L0.835,25.505l0.576,0.576l-1.155,1.154c-0.203,0.204-0.288,0.456-0.247,0.73
	c0.035,0.23,0.158,0.462,0.35,0.654c0.386,0.387,0.998,0.557,1.418,0.137l1.155-1.154l0.335,0.293L15.564,15.6l0.126,0.17
	c0.247-0.055,0.507-0.124,0.636-0.159l-0.071,0.07l-0.019,0.634l0.057,0.058L3.997,28.666l0.247,0.246l-1.054,1.055
	c-0.202,0.202-0.288,0.454-0.247,0.73c0.034,0.229,0.159,0.46,0.35,0.651c0.387,0.388,0.999,0.56,1.419,0.139l1.053-1.053
	l0.743,0.711L18.803,18.85l-0.36-0.328c0.505-0.508,1.373-1.389,1.788-1.864c1.494,0.472,3.128,0.48,4.697,0.033l0.157,0.457
	l1.505-0.63l-0.106-0.435C27.329,15.656,28.129,15.097,28.842,14.384z M1.547,28.526C1.278,28.795,0.862,28.66,0.59,28.39
	c-0.143-0.144-0.233-0.311-0.256-0.473c-0.025-0.17,0.026-0.321,0.154-0.45l1.155-1.154l1.059,1.059L1.547,28.526z M4.48,31.257
	c-0.27,0.269-0.685,0.134-0.957-0.14c-0.142-0.142-0.233-0.308-0.257-0.469c-0.025-0.171,0.026-0.324,0.154-0.452l1.054-1.053
	l1.059,1.059L4.48,31.257z M16.836,8.691l0.107-0.106l-0.042-0.302c0.005-0.025,0.01-0.052,0.015-0.076l0.2-0.2L17.032,7.72
	c0.006-0.024,0.014-0.048,0.021-0.073l0.226-0.228l-0.075-0.243c0.355-0.974,0.929-1.903,1.728-2.702
	c1.668-1.667,3.905-2.373,5.935-2.081c0.121,0.146,0.198,0.324,0.041,0.424c-0.262,0.165-3.65,1.069-5.114,3.169
	c-1.464,2.1-2.138,4.295-2.331,4.487c-0.192,0.193-0.542,0.089-0.558-0.115c-0.011-0.147-0.07-0.901-0.103-1.323
	C16.81,8.92,16.822,8.806,16.836,8.691z M29.19,7.098c0.129-0.203,0.393-0.014,0.546,0.158c0.082,0.575,0.083,1.166,0.005,1.757
	l-0.108,0.108l0.079,0.11c-0.015,0.088-0.033,0.176-0.05,0.263l-0.125,0.089l0.067,0.18c-0.017,0.068-0.039,0.137-0.057,0.205
	l-0.144,0.06c0,0,0.024,0.132,0.047,0.261c-0.176,0.533-0.42,1.054-0.728,1.55c-1.6,2.272-3.855,2.976-3.855,2.976l-0.28-0.087
	l-0.26,0.26l-0.327-0.097l-0.221,0.221l-0.356-0.047l-0.164,0.164c0,0-1.403-0.109-1.608-0.126
	c-0.206-0.016-0.309-0.364-0.116-0.558c0.192-0.192,2.388-0.866,4.487-2.331C28.121,10.749,29.023,7.36,29.19,7.098z M29.357,1.949
	l0.223,0.446l0.002,0.017l0.008,0.004l0.004,0.009l0.016,0.001l0.446,0.224l-0.193,0.385L29.18,3.179l-0.067,0.26l-0.289,0.271
	l0.164,0.164l-0.215,0.194L28.4,4.055l-0.251,0.29L27.89,4.372l-0.154,0.193l-0.304-0.071l0.009-0.224l0.193-0.154l0.028-0.26
	l0.289-0.251l-0.013-0.372l0.195-0.215l0.164,0.164l0.27-0.29l0.259-0.066l0.145-0.684L29.357,1.949z M22.76,6.774l0.279,0.145
	l0.328-0.289l0.153,0.154l0.318-0.26l0.299,0.182l0.25-0.346l0.193,0.193l0.26-0.165l0.221,0.126l0.165-0.164l0.211,0.02
	l0.219-0.109l-0.019,0.309l0.019,0.211l-0.164,0.165l0.125,0.221l-0.164,0.26l0.192,0.193l-0.346,0.249l0.182,0.299l-0.259,0.319
	l0.154,0.153l-0.289,0.327l0.145,0.279l-1.079,1.08l-0.29-0.06l-0.26,0.26l-0.211-0.096l-0.454,0.299l-0.115-0.115l-0.308,0.289
	l-0.27-0.136l-0.375,0.376l-1.035,0.037l-0.002,0.001l0.029-1.047l0.375-0.375l-0.135-0.27l0.289-0.308l-0.115-0.115l0.299-0.453
	l-0.097-0.212l0.26-0.26l-0.058-0.289L22.76,6.774z"/>
<g>
</g>
<g>
</g>
<g>
</g>
<g>
</g>
<g>
</g>
<g>
</g>
<g>
</g>
<g>
</g>
<g>
</g>
<g>
</g>
<g>
</g>
<g>
</g>
<g>
</g>
<g>
</g>
<g>
</g>
</svg>
