<?xml version="1.0" encoding="iso-8859-1"?>
<!-- Generator: Adobe Illustrator 16.0.0, SVG Export Plug-In . SVG Version: 6.00 Build 0)  -->
<!DOCTYPE svg PUBLIC "-//W3C//DTD SVG 1.1//EN" "http://www.w3.org/Graphics/SVG/1.1/DTD/svg11.dtd">
<svg version="1.1" id="Layer_1" xmlns="http://www.w3.org/2000/svg" xmlns:xlink="http://www.w3.org/1999/xlink" x="0px" y="0px"
	 width="22.815px" height="29px" viewBox="0 0 22.815 29" style="enable-background:new 0 0 22.815 29;" xml:space="preserve">
<path d="M20.441,0.066c-0.819,0-1.542,0.415-1.969,1.046h-2.034C15.839,0.436,14.974,0,13.998,0H8.85C7.875,0,7.01,0.436,6.41,1.112
	H4.378C3.958,0.446,3.221,0,2.375,0C1.063,0,0,1.063,0,2.375v1.727c0,1.312,1.063,2.375,2.375,2.375c0.787,0,1.481-0.389,1.913-0.98
	h2.177c0.597,0.64,1.44,1.046,2.385,1.046h1.414v8.742h-1.13v1.262h1.129v1.229H8.968v1.262h1.13v1.229h-1.13v1.262h1.13v1.229
	H8.802v1.262h1.13v1.229H8.968v1.262h1.13v1.229H8.802V29h2.259v-1.262h1.296v-1.262h-1.13v-1.229h0.964v-1.262h-1.13v-1.229h1.296
	v-1.262h-1.13v-1.229h1.13v-1.262h-1.13v-1.229h1.296v-1.262h-1.13v-0.864h0.665V6.542h1.94c0.944,0,1.789-0.406,2.386-1.046h2.089
	c0.427,0.632,1.149,1.046,1.969,1.046c1.311,0,2.374-1.063,2.374-2.375V2.441C22.815,1.13,21.752,0.066,20.441,0.066z"/>
<g>
</g>
<g>
</g>
<g>
</g>
<g>
</g>
<g>
</g>
<g>
</g>
<g>
</g>
<g>
</g>
<g>
</g>
<g>
</g>
<g>
</g>
<g>
</g>
<g>
</g>
<g>
</g>
<g>
</g>
</svg>
