<?xml version="1.0" encoding="iso-8859-1"?>
<!-- Generator: Adobe Illustrator 16.0.0, SVG Export Plug-In . SVG Version: 6.00 Build 0)  -->
<!DOCTYPE svg PUBLIC "-//W3C//DTD SVG 1.1//EN" "http://www.w3.org/Graphics/SVG/1.1/DTD/svg11.dtd">
<svg version="1.1" id="Layer_1" xmlns="http://www.w3.org/2000/svg" xmlns:xlink="http://www.w3.org/1999/xlink" x="0px" y="0px"
	 width="31.408px" height="28.863px" viewBox="0 0 31.408 28.863" style="enable-background:new 0 0 31.408 28.863;"
	 xml:space="preserve">
<polygon points="9.412,15.628 11.113,25.953 11.159,26.363 20.03,26.36 20.046,25.872 21.912,15.628 "/>
<path d="M22.42,28.863H8.57v-2.175C8.285,25.182,5.1,8.311,4.774,5.954c-0.07-0.51-0.459-0.641-1.979-0.667
	C1.737,5.269,0.419,5.245,0.063,4.069c-0.141-0.468-0.045-0.971,0.271-1.416c1.059-1.494,4.849-2.552,7.1-2.652L26.544,0
	l0.248,0.202c0.89,0.723,4.156,3.904,4.539,5.9c0.252,1.318-0.157,6.616-0.638,12.145l-0.091,1.059
	c-0.117,1.417-1.092,2.052-2.007,2.052l0,0c-0.664,0-1.327-0.305-1.774-0.813c-0.404-0.46-0.584-1.034-0.509-1.616
	c0.168-1.288,0.23-9.223,0.209-10.313c-0.002-0.126-0.068-0.287-0.172-0.461l-3.93,18.396V28.863z M10.37,27.063h10.25l0.02-0.797
	L25.26,4.638l1.139,0.914c0.316,0.254,1.895,1.593,1.923,3.027c0.021,1.063-0.035,9.128-0.224,10.581
	c-0.003,0.026-0.013,0.095,0.076,0.195c0.102,0.117,0.28,0.201,0.421,0.201c0.059,0,0.18,0,0.213-0.399l0.092-1.066
	c0.223-2.571,0.903-10.395,0.663-11.649c-0.206-1.072-2.401-3.531-3.668-4.641H7.475C5.379,1.895,2.842,2.815,2.029,3.455
	c0.246,0.022,0.559,0.028,0.798,0.032C4.11,3.51,6.259,3.548,6.558,5.708c0.327,2.37,3.762,20.546,3.797,20.729l0.016,0.167V27.063z
	"/>
<rect x="13.124" y="6.402" width="4.917" height="1.315"/>
<rect x="13.124" y="11.277" width="4.917" height="1.315"/>
<rect x="13.124" y="16.996" width="4.917" height="1.189"/>
<rect x="13.124" y="21.792" width="4.917" height="1.189"/>
<g>
</g>
<g>
</g>
<g>
</g>
<g>
</g>
<g>
</g>
<g>
</g>
<g>
</g>
<g>
</g>
<g>
</g>
<g>
</g>
<g>
</g>
<g>
</g>
<g>
</g>
<g>
</g>
<g>
</g>
</svg>
