<?xml version="1.0" encoding="iso-8859-1"?>
<!-- Generator: Adobe Illustrator 16.0.0, SVG Export Plug-In . SVG Version: 6.00 Build 0)  -->
<!DOCTYPE svg PUBLIC "-//W3C//DTD SVG 1.1//EN" "http://www.w3.org/Graphics/SVG/1.1/DTD/svg11.dtd">
<svg version="1.1" id="Layer_1" xmlns="http://www.w3.org/2000/svg" xmlns:xlink="http://www.w3.org/1999/xlink" x="0px" y="0px"
	 width="27.313px" height="32px" viewBox="0 0 27.313 32" style="enable-background:new 0 0 27.313 32;" xml:space="preserve">
<path d="M27.313,8.036c-1.231-0.815-1.307-0.978-1.307-0.978S23.931,8.3,23.427,9.947c-0.503,1.647-0.288,3.773-0.863,5.309
	c-0.576,1.536-1.442,1.967-1.442,1.967l-0.001,0.001c-1.079-1.009-2.743-1.276-2.814-3.79c-0.096-3.406,1.392-2.495,1.104-5.086
	s-2.398-3.166-2.398-3.166s0.29-3.715-2.358-4.006c0.006-0.053,0.011-0.105,0.011-0.16C14.663,0.455,14.37,0,14.008,0
	s-0.655,0.455-0.655,1.016c0,0.06,0.005,0.117,0.012,0.174c-2.55,0.366-2.268,3.992-2.268,3.992s-0.911,0.253-1.618,1.16
	C7.818,4.019,4.157-0.507,1.587,0.73c-0.7,0.338-1.544,1.173-1.585,3.238c-0.06,2.967,1.634,7.488,3.826,8.655
	c1.3,0.691,2.016,3.866,2.272,6.429c-0.341,2.63,1.184,6.82,4.996,7.143c0,0.527,0,1.679,0,1.679S7.931,29.218,8.362,32
	c2.563,0,4.653,0,5.674,0c0.011,0,0.024,0,0.035,0c1.021,0,3.111,0,5.674,0c0.432-2.782-2.734-4.126-2.734-4.126s0-1.151,0-1.679
	c0.472-0.04,0.907-0.141,1.31-0.289l-0.001,0.003c0,0,0.006-0.004,0.009-0.006c0.79-0.292,1.448-0.772,1.979-1.363
	c1.632-1.236,3.768-3.149,4.366-5.062c1.008-3.215,0.145-4.822,0.337-7.165C25.202,9.971,26.354,8.756,27.313,8.036z M4.549,11.269
	C3.089,10.491,1.484,6.619,1.537,4c0.012-0.581,0.12-1.599,0.716-1.886C3.53,1.495,6.784,5.06,8.755,7.993
	c-0.021,0.115-0.043,0.23-0.057,0.354c-0.288,2.591,1.199,1.68,1.104,5.086c-0.063,2.24-1.393,2.695-2.445,3.482
	C6.96,14.693,6.161,12.126,4.549,11.269z M12.021,14.896c-0.179,0.728-0.599,1.403-1.092,1.935c-0.492,0.538-1.035,0.968-1.512,1.39
	c-0.48,0.422-0.856,0.87-1.071,1.373c-0.224,0.51-0.242,1.056-0.178,1.616c0.052,0.499,0.25,1.005,0.498,1.405
	c0.484,0.835,1.155,1.373,1.628,1.707c0.477,0.343,0.785,0.489,0.785,0.489s-0.33-0.086-0.869-0.35
	c-0.524-0.276-1.288-0.725-1.951-1.572c-0.325-0.431-0.601-0.945-0.736-1.595c-0.123-0.576-0.162-1.296,0.069-1.979
	c0.217-0.696,0.706-1.279,1.192-1.762c0.488-0.49,1.005-0.907,1.415-1.376c0.839-0.907,1.16-2.128,0.942-3.252
	c-0.203-1.142-0.782-2.172-1.164-3.14C9.88,9.543,9.795,9.302,9.74,9.05C9.706,8.936,9.69,8.782,9.677,8.647
	C9.669,8.503,9.678,8.454,9.692,8.29c0.099-0.437,0.256-0.792,0.43-1.053c0.171-0.262,0.339-0.438,0.473-0.535
	C10.722,6.599,10.8,6.562,10.8,6.562s-0.243,0.261-0.429,0.798c-0.099,0.266-0.132,0.609-0.146,0.987
	c0.007,0.039,0.005,0.207,0.027,0.276c0.027,0.08,0.037,0.151,0.082,0.256c0.065,0.193,0.175,0.399,0.283,0.618
	c0.443,0.871,1.139,1.889,1.451,3.245C12.219,13.421,12.214,14.176,12.021,14.896z"/>
<g>
</g>
<g>
</g>
<g>
</g>
<g>
</g>
<g>
</g>
<g>
</g>
<g>
</g>
<g>
</g>
<g>
</g>
<g>
</g>
<g>
</g>
<g>
</g>
<g>
</g>
<g>
</g>
<g>
</g>
</svg>
