<?xml version="1.0" encoding="iso-8859-1"?>
<!-- Generator: Adobe Illustrator 16.0.0, SVG Export Plug-In . SVG Version: 6.00 Build 0)  -->
<!DOCTYPE svg PUBLIC "-//W3C//DTD SVG 1.1//EN" "http://www.w3.org/Graphics/SVG/1.1/DTD/svg11.dtd">
<svg version="1.1" id="Layer_1" xmlns="http://www.w3.org/2000/svg" xmlns:xlink="http://www.w3.org/1999/xlink" x="0px" y="0px"
	 width="25.74px" height="32px" viewBox="0 0 25.74 32" style="enable-background:new 0 0 25.74 32;" xml:space="preserve">
<g>
	<rect x="5.521" y="12.766" width="2.1" height="0.731"/>
	<rect x="5.521" y="14.621" width="2.1" height="0.731"/>
	<path d="M11.568,22.455l0.756-6.372H4.939v6.372H11.568z M7.62,17.752h-2.1v-0.731h2.1V17.752z M7.62,19.606h-2.1v-0.73h2.1V19.606
		z"/>
	<path d="M3.291,16.959v6.958h9.758l1.145-9.763c2.129-1.224,1.979-3.418,1.971-3.514l-0.042-0.518H3.385
		c-0.569-0.261-1.328-0.475-2.022-0.23c-0.437,0.154-1.013,0.55-1.273,1.562C-0.55,13.928,2.457,16.346,3.291,16.959z M4.415,11.248
		h10.589c-0.101,0.572-0.444,1.485-1.582,2.044l-0.275,0.135l-1.098,9.366H4.415V11.248z M1.396,11.792
		c0.09-0.351,0.229-0.561,0.414-0.626c0.396-0.14,1.085,0.188,1.481,0.44v3.601C2.294,14.297,1.109,12.901,1.396,11.792z"/>
</g>
<path d="M1.572,0v5.895h16.757v19.789H1.572V32H25.74v-3.958v-2.358V5.895V2.105V0H1.572z M20.335,29.262h-0.831V2.904h0.831V29.262
	z M22.514,29.262h-0.831V2.904h0.831V29.262z M24.44,29.262h-0.831V2.904h0.831V29.262z"/>
<g>
</g>
<g>
</g>
<g>
</g>
<g>
</g>
<g>
</g>
<g>
</g>
<g>
</g>
<g>
</g>
<g>
</g>
<g>
</g>
<g>
</g>
<g>
</g>
<g>
</g>
<g>
</g>
<g>
</g>
</svg>
