<?xml version="1.0" encoding="iso-8859-1"?>
<!-- Generator: Adobe Illustrator 16.0.0, SVG Export Plug-In . SVG Version: 6.00 Build 0)  -->
<!DOCTYPE svg PUBLIC "-//W3C//DTD SVG 1.1//EN" "http://www.w3.org/Graphics/SVG/1.1/DTD/svg11.dtd">
<svg version="1.1" id="Layer_1" xmlns="http://www.w3.org/2000/svg" xmlns:xlink="http://www.w3.org/1999/xlink" x="0px" y="0px"
	 width="32px" height="31.383px" viewBox="0 0 32 31.383" style="enable-background:new 0 0 32 31.383;" xml:space="preserve">
<path d="M32,8.454c-0.777-0.583-1.564-0.839-2.328-0.848c-2.688-0.029-5.074,3.009-5.656,5.644c-0.747,3.382-1.4,6.508-2.426,6.405
	s-2.276-2.519-2.276-5.745s2.921-4.057,2.921-6.414c0-2.046-2.241-3.233-5.904-3.656c0.348-0.406,0.56-0.934,0.56-1.512
	C16.89,1.043,15.848,0,14.562,0c-1.285,0-2.328,1.043-2.328,2.328c0,0.521,0.175,1.002,0.465,1.391
	C9.6,3.92,7.233,4.973,6.375,6.081C5.548,5.366,4.536,4.719,3.474,4.572c-0.873-0.121-1.702,0.109-2.393,0.67
	c-3.367,2.729,2.203,14.149,2.262,14.263c0.232,0.451,0.424,1.564,0.547,2.579c-0.012,0.157-0.019,0.317-0.013,0.483
	c0.132,3.733,2.383,4.994,3.525,5.302c-1.274,3.118,3.294,3.514,6.765,3.514c3.47,0,8.17-0.264,6.808-3.646
	c4.524-0.176,5.59-4.085,6.029-5.798S25.026,10.798,32,8.454z M5.118,19.228c-0.064-0.196-0.136-0.375-0.213-0.525
	C3.4,15.772,0.583,7.906,2.188,6.606c0.315-0.256,0.648-0.35,1.043-0.294c1.403,0.192,3.048,2.079,3.643,2.893
	c0.667,1.233,1.477,2.757,1.451,4.705C8.296,16.134,6.426,17.529,5.118,19.228z M11.236,16.293
	c-0.058,0.408-0.171,0.786-0.322,1.147c-0.305,0.721-0.764,1.317-1.218,1.853c-0.454,0.54-0.943,1.005-1.386,1.452
	c-0.438,0.449-0.85,0.878-1.121,1.297c-0.133,0.211-0.22,0.416-0.25,0.607C6.92,22.73,6.923,22.856,6.917,23
	c-0.007,0.139,0.01,0.229,0.011,0.346c0.086,0.933,0.444,1.72,0.707,2.242C7.906,26.115,8.107,26.4,8.107,26.4
	s-0.286-0.2-0.697-0.657c-0.399-0.458-0.97-1.171-1.251-2.27c-0.028-0.139-0.071-0.305-0.085-0.433
	c-0.013-0.123-0.049-0.27-0.035-0.464c0.013-0.361,0.124-0.705,0.271-1.01c0.296-0.615,0.719-1.117,1.146-1.612
	c0.838-0.987,1.803-1.934,2.272-3.028c0.12-0.266,0.208-0.547,0.253-0.813c0.021-0.104,0.033-0.266,0.039-0.444l-0.005-0.455
	c-0.01-0.643-0.058-1.284-0.136-1.901c-0.146-1.238-0.38-2.39-0.647-3.354C8.96,8.995,8.644,8.218,8.326,7.729
	c-0.306-0.5-0.615-0.684-0.615-0.684S7.793,7.07,7.939,7.145C8.089,7.219,8.296,7.352,8.519,7.57
	c0.453,0.431,0.959,1.177,1.393,2.139c0.44,0.96,0.819,2.134,1.079,3.427c0.122,0.648,0.225,1.326,0.27,2.028l0.017,0.559
	C11.273,15.883,11.269,16.061,11.236,16.293z"/>
<g>
</g>
<g>
</g>
<g>
</g>
<g>
</g>
<g>
</g>
<g>
</g>
<g>
</g>
<g>
</g>
<g>
</g>
<g>
</g>
<g>
</g>
<g>
</g>
<g>
</g>
<g>
</g>
<g>
</g>
</svg>
