<?xml version="1.0" encoding="iso-8859-1"?>
<!-- Generator: Adobe Illustrator 16.0.0, SVG Export Plug-In . SVG Version: 6.00 Build 0)  -->
<!DOCTYPE svg PUBLIC "-//W3C//DTD SVG 1.1//EN" "http://www.w3.org/Graphics/SVG/1.1/DTD/svg11.dtd">
<svg version="1.1" id="Layer_1" xmlns="http://www.w3.org/2000/svg" xmlns:xlink="http://www.w3.org/1999/xlink" x="0px" y="0px"
	 width="31.373px" height="32px" viewBox="0 0 31.373 32" style="enable-background:new 0 0 31.373 32;" xml:space="preserve">
<path d="M18.31,26.915c0.382-2.119-1.329-5.443-2.175-6.917c0.046-0.455-0.021-0.903-0.32-1.203
	c-0.332-0.331-0.885-0.886-1.486-1.488l7.135-7.135l0.379,0.378l0.483-0.482c0,0,0.658-1.755,3.019-3.095
	c0.392-0.392,5.354-5.354,5.354-5.354l-0.003-0.002C30.7,1.612,30.705,1.61,30.71,1.605c0.366-0.366,0.366-0.963,0.001-1.33
	c-0.369-0.367-0.964-0.367-1.332,0c-0.005,0.004-0.008,0.009-0.012,0.014l-0.001-0.001c0,0-4.887,4.888-5.341,5.341
	c-1.854,2.624-3.155,2.985-3.155,2.985l-0.482,0.482l0.411,0.412l-7.135,7.135c-0.608-0.608-1.204-1.204-1.615-1.615
	c-0.977-0.977-2.447-0.231-2.846,0.167c-0.399,0.399-2.79,2.789,0.307,5.888c2.501,2.501,4.679,1.538,5.581,0.919
	c0.533,1.512-0.322,3.737-0.88,4.926L0,26.969v1.628c0,0,4.745-0.092,5.798-0.092S8.438,32,9.451,32s10.861,0,12.212,0
	c1.35,0,3.157-3.495,4.389-3.495s5.321,0,5.321,0v-1.628L18.31,26.915z M29.617,0.681c0.206-0.206,0.54-0.207,0.746,0
	c0.207,0.206,0.207,0.54,0,0.746c-0.206,0.207-1.074,0.741-1.281,0.535C28.876,1.756,29.41,0.887,29.617,0.681z M12.138,18.651
	c-1.204-1.204-2.768-2.729-1.982-3.366c1.047-0.768,1.976,0.41,3.581,2.016c1.058,1.059,1.63,1.461,1.835,1.945
	c-0.431,0-1.931,0.038-2.148,0.603C12.973,19.475,12.522,19.035,12.138,18.651z"/>
<g>
</g>
<g>
</g>
<g>
</g>
<g>
</g>
<g>
</g>
<g>
</g>
<g>
</g>
<g>
</g>
<g>
</g>
<g>
</g>
<g>
</g>
<g>
</g>
<g>
</g>
<g>
</g>
<g>
</g>
</svg>
