<?xml version="1.0" encoding="iso-8859-1"?>
<!-- Generator: Adobe Illustrator 16.0.0, SVG Export Plug-In . SVG Version: 6.00 Build 0)  -->
<!DOCTYPE svg PUBLIC "-//W3C//DTD SVG 1.1//EN" "http://www.w3.org/Graphics/SVG/1.1/DTD/svg11.dtd">
<svg version="1.1" id="Layer_1" xmlns="http://www.w3.org/2000/svg" xmlns:xlink="http://www.w3.org/1999/xlink" x="0px" y="0px"
	 width="32px" height="23.031px" viewBox="0 0 32 23.031" style="enable-background:new 0 0 32 23.031;" xml:space="preserve">
<g>
	<path d="M16.435,0C10.074,0,4.919,5.156,4.919,11.516c0,6.36,5.155,11.516,11.516,11.516c6.359,0,11.516-5.155,11.516-11.516
		C27.95,5.156,22.794,0,16.435,0z M16.308,18.895c-3.993,0-7.229-3.236-7.229-7.229s3.236-7.229,7.229-7.229
		c3.992,0,7.229,3.236,7.229,7.229S20.3,18.895,16.308,18.895z"/>
	<path d="M3.691,2.046H3.208l0.144,5.06h-0.58v-5.06H2.347v5.091h-0.48V2.046L1.398,2.047v5.091h-0.57l0.163-5.092H0.549
		L0.014,6.353c0,0-0.014,0.162-0.014,0.224C0,7.24,0.309,7.834,0.79,8.22c1.586,1.791,0.503,3.619,0.504,4.053
		c0.001,0.48,0.001,7.877,0.001,7.877c0.001,0.006-0.002,0.01-0.001,0.017c0.001,0.453,0.367,0.82,0.82,0.82s0.821-0.369,0.821-0.82
		c-0.001-0.007-0.002-0.011-0.003-0.017l0.002,0.001c0,0,0-7.305,0.001-7.861C2.935,11.784,2.02,9.684,3.549,8.121
		C3.55,8.119,3.553,8.114,3.556,8.112c0.373-0.354,0.62-0.842,0.656-1.39c0.003-0.038,0.002-0.136,0.002-0.136L3.691,2.046z"/>
	<path d="M31.999,14.26C32,13.772,31.985,2.047,31.985,2.047l-0.268-0.001c0,0-2.182,1.231-2.182,10.366
		c1.676,0.46,0.971,2.292,0.844,2.525c0,0.465,0.036,5.242,0.036,5.242l0.006-0.002c-0.002,0.006-0.004,0.01-0.004,0.016
		c-0.002,0.439,0.354,0.795,0.791,0.792c0.436,0.001,0.793-0.355,0.791-0.792c0.002-0.005,0.002-0.01,0-0.014L32,20.176
		C32,20.176,32,14.796,31.999,14.26z"/>
</g>
<g>
</g>
<g>
</g>
<g>
</g>
<g>
</g>
<g>
</g>
<g>
</g>
<g>
</g>
<g>
</g>
<g>
</g>
<g>
</g>
<g>
</g>
<g>
</g>
<g>
</g>
<g>
</g>
<g>
</g>
</svg>
