<?xml version="1.0" encoding="iso-8859-1"?>
<!-- Generator: Adobe Illustrator 16.0.0, SVG Export Plug-In . SVG Version: 6.00 Build 0)  -->
<!DOCTYPE svg PUBLIC "-//W3C//DTD SVG 1.1//EN" "http://www.w3.org/Graphics/SVG/1.1/DTD/svg11.dtd">
<svg version="1.1" id="Layer_1" xmlns="http://www.w3.org/2000/svg" xmlns:xlink="http://www.w3.org/1999/xlink" x="0px" y="0px"
	 width="33.5px" height="33.5px" viewBox="0 0 33.5 33.5" style="enable-background:new 0 0 33.5 33.5;" xml:space="preserve">
<g>
	<path d="M16.574,6.161c-5.953,0-10.796,4.843-10.796,10.796c0,5.952,4.843,10.796,10.796,10.796
		c5.952,0,10.795-4.844,10.795-10.796C27.369,11.004,22.526,6.161,16.574,6.161z M16.574,26.253c-5.126,0-9.296-4.17-9.296-9.296
		s4.17-9.296,9.296-9.296c5.125,0,9.295,4.17,9.295,9.296S21.699,26.253,16.574,26.253z"/>
	<path d="M16.75,0C7.514,0,0,7.515,0,16.75S7.514,33.5,16.75,33.5S33.5,25.985,33.5,16.75S25.986,0,16.75,0z M16.75,32
		C8.341,32,1.5,25.159,1.5,16.75S8.341,1.5,16.75,1.5S32,8.341,32,16.75S25.159,32,16.75,32z"/>
</g>
<g>
</g>
<g>
</g>
<g>
</g>
<g>
</g>
<g>
</g>
<g>
</g>
<g>
</g>
<g>
</g>
<g>
</g>
<g>
</g>
<g>
</g>
<g>
</g>
<g>
</g>
<g>
</g>
<g>
</g>
</svg>
