<?xml version="1.0" encoding="iso-8859-1"?>
<!-- Generator: Adobe Illustrator 16.0.0, SVG Export Plug-In . SVG Version: 6.00 Build 0)  -->
<!DOCTYPE svg PUBLIC "-//W3C//DTD SVG 1.1//EN" "http://www.w3.org/Graphics/SVG/1.1/DTD/svg11.dtd">
<svg version="1.1" id="Layer_1" xmlns="http://www.w3.org/2000/svg" xmlns:xlink="http://www.w3.org/1999/xlink" x="0px" y="0px"
	 width="31.739px" height="24.811px" viewBox="0 0 31.739 24.811" style="enable-background:new 0 0 31.739 24.811;"
	 xml:space="preserve">
<g>
	<path d="M13.752,4.596c-5.574,0-10.108,4.533-10.108,10.107s4.534,10.107,10.108,10.107c5.573,0,10.107-4.533,10.107-10.107
		S19.325,4.596,13.752,4.596z M13.752,23.914c-5.079,0-9.212-4.133-9.212-9.211s4.133-9.211,9.212-9.211
		c5.078,0,9.211,4.133,9.211,9.211S18.83,23.914,13.752,23.914z"/>
	<path d="M13.646,8.314c-3.592,0-6.514,2.922-6.514,6.514s2.922,6.513,6.514,6.513c3.591,0,6.513-2.921,6.513-6.513
		S17.236,8.314,13.646,8.314z M13.646,20.444c-3.097,0-5.617-2.52-5.617-5.616c0-3.098,2.521-5.617,5.617-5.617
		s5.615,2.52,5.615,5.617C19.261,17.925,16.742,20.444,13.646,20.444z"/>
	<path d="M3.644,11.895L3.316,7.968L2.898,7.967v4.376l-0.417-0.001V7.967L2.029,7.968v4.402H1.613V7.968h-0.48v4.402H0.716V7.968
		H0.334l-0.322,3.724c0,0-0.012,0.141-0.012,0.193c0,0.574,0.267,1.088,0.683,1.422c1.372,1.549,0.436,3.129,0.436,3.504
		c0.001,0.416,0.001,6.812,0.001,6.812H1.12c0,0.005-0.002,0.009-0.002,0.015c0,0.392,0.318,0.709,0.71,0.709s0.71-0.318,0.71-0.709
		c0-0.006-0.002-0.01-0.002-0.014h0.001c0,0,0.001-6.316,0.001-6.799c-0.001-0.436-0.793-2.253,0.53-3.604
		c0.001-0.002,0.004-0.006,0.006-0.008c0.323-0.306,0.536-0.728,0.568-1.201C3.645,11.979,3.644,11.895,3.644,11.895z"/>
	<path d="M13.752,10.453c-2.344,0-4.25,1.906-4.25,4.25s1.906,4.25,4.25,4.25s4.25-1.906,4.25-4.25S16.096,10.453,13.752,10.453z
		 M13.752,18.203c-1.93,0-3.5-1.57-3.5-3.5s1.57-3.5,3.5-3.5s3.5,1.57,3.5,3.5S15.682,18.203,13.752,18.203z"/>
	<path d="M26.3,7.65l-0.336-0.003c0,0-1.783,1.065-1.781,8.965c1.449,0.398,0.838,1.982,0.729,2.184
		c0,0.402,0.031,4.533,0.031,4.533l0.004-0.002c-0.002,0.005-0.004,0.009-0.002,0.014c-0.002,0.38,0.307,0.687,0.684,0.685
		c0.377,0.001,0.686-0.308,0.684-0.686c0.002-0.003,0.002-0.008,0-0.011l0.002-0.003c0,0,0-4.652-0.002-5.115
		C26.313,17.789,26.3,7.65,26.3,7.65z"/>
	<path d="M31.739,10.691c0-1.573-0.852-3.018-2.36-3.043V7.647c-0.007,0-0.032,0-0.038,0c0,0,0,0.001,0,0.002
		c-1.51,0.024-2.361,1.469-2.361,3.042c0,1.583,0.953,2.713,1.783,2.963c0.453,0.639,0.154,2.145-0.166,3.014
		c0,0.416,0,6.784,0,6.784h0.001c-0.001,0.004-0.001,0.009-0.001,0.013c0,0.391,0.315,0.708,0.705,0.708
		c0.021,0,0.096-0.002,0.115,0c0.39-0.002,0.707-0.317,0.707-0.708c0-0.004-0.002-0.009-0.002-0.013h0.002c0,0,0-6.368,0-6.784
		c-0.322-0.869-0.621-2.375-0.168-3.013C30.787,13.404,31.739,12.274,31.739,10.691z M28.591,13.041
		c-0.094-0.072-0.213-0.188-0.34-0.342s-0.26-0.342-0.385-0.56c-0.061-0.109-0.119-0.226-0.172-0.35
		c-0.051-0.129-0.093-0.253-0.121-0.4c-0.052-0.282-0.043-0.553-0.014-0.801c0.027-0.249,0.081-0.476,0.14-0.664
		c0.058-0.189,0.124-0.343,0.178-0.447c0.054-0.106,0.097-0.156,0.097-0.156s-0.01,0.068-0.014,0.18
		c-0.004,0.112-0.009,0.272-0.016,0.465c-0.004,0.377-0.035,0.893,0.035,1.349c0.014,0.107,0.051,0.229,0.088,0.337
		c0.035,0.114,0.076,0.227,0.121,0.334c0.085,0.218,0.176,0.418,0.256,0.592c0.08,0.171,0.15,0.315,0.205,0.412
		c0.053,0.1,0.102,0.142,0.105,0.138C28.755,13.133,28.683,13.115,28.591,13.041z"/>
	<path d="M8.11,2.57c0.004,0,0.007-0.001,0.011-0.002L8.12,2.57c0,0,4.245,0,4.584,0c0.711-0.264,1.942-0.508,2.463-0.137
		c0.206,0.678,1.129,1.457,2.424,1.457c1.284,0,2.145-0.695,2.165-1.93h0.001c0-0.005,0-0.025,0-0.031h-0.001
		C19.735,0.696,18.875,0,17.591,0c-1.294,0-2.218,0.779-2.424,1.459c-0.521,0.37-1.752,0.125-2.463-0.138c-0.339,0-4.584,0-4.584,0
		l0.001,0.001c-0.004,0-0.008-0.001-0.012,0C7.791,1.321,7.533,1.58,7.533,1.898c0,0.017,0,0.078-0.001,0.094
		C7.533,2.311,7.791,2.57,8.11,2.57z M15.904,1.61c0.022-0.108,0.062-0.198,0.088-0.253c0.033-0.066,0.056-0.109,0.056-0.109
		c0.012-0.02,0.036-0.028,0.06-0.018c0.023,0.012,0.036,0.032,0.032,0.053c-0.001,0.002-0.015,0.057-0.025,0.113
		c-0.014,0.055-0.016,0.131-0.021,0.232c-0.004,0.089,0.001,0.199,0.013,0.326c0.004,0.056,0.012,0.115,0.024,0.175
		c0.01,0.052,0.025,0.115,0.046,0.162c0.099,0.215,0.257,0.418,0.373,0.565c0.022,0.027,0.046,0.057,0.066,0.084
		c0.029,0.035,0.056,0.067,0.079,0.09c0.034,0.037,0.059,0.055,0.059,0.056c0.019,0.011,0.026,0.034,0.02,0.052
		s-0.027,0.027-0.05,0.025c-0.004-0.001-0.032-0.006-0.075-0.025c-0.01-0.004-0.021-0.01-0.032-0.017l-0.018-0.011
		c-0.053-0.03-0.124-0.072-0.196-0.134c-0.225-0.188-0.382-0.38-0.476-0.588c-0.027-0.073-0.045-0.139-0.057-0.214
		c-0.007-0.067-0.011-0.135-0.011-0.205C15.861,1.83,15.884,1.704,15.904,1.61z"/>
</g>
<g>
</g>
<g>
</g>
<g>
</g>
<g>
</g>
<g>
</g>
<g>
</g>
<g>
</g>
<g>
</g>
<g>
</g>
<g>
</g>
<g>
</g>
<g>
</g>
<g>
</g>
<g>
</g>
<g>
</g>
</svg>
