<?xml version="1.0" encoding="iso-8859-1"?>
<!-- Generator: Adobe Illustrator 16.0.0, SVG Export Plug-In . SVG Version: 6.00 Build 0)  -->
<!DOCTYPE svg PUBLIC "-//W3C//DTD SVG 1.1//EN" "http://www.w3.org/Graphics/SVG/1.1/DTD/svg11.dtd">
<svg version="1.1" id="Layer_1" xmlns="http://www.w3.org/2000/svg" xmlns:xlink="http://www.w3.org/1999/xlink" x="0px" y="0px"
	 width="31.232px" height="29.629px" viewBox="0 0 31.232 29.629" style="enable-background:new 0 0 31.232 29.629;"
	 xml:space="preserve">
<g>
	<path d="M11.958,2.857C5.364,2.857,0,8.22,0,14.813c0,6.595,5.364,11.957,11.958,11.957c6.593,0,11.957-5.362,11.957-11.957
		C23.915,8.22,18.551,2.857,11.958,2.857z M11.958,25.71c-6.008,0-10.897-4.889-10.897-10.896c0-6.007,4.889-10.896,10.897-10.896
		c6.007,0,10.896,4.889,10.896,10.896C22.854,20.821,17.965,25.71,11.958,25.71z"/>
	<path d="M11.832,7.256c-4.249,0-7.706,3.457-7.706,7.706s3.457,7.704,7.706,7.704c4.248,0,7.705-3.455,7.705-7.704
		S16.08,7.256,11.832,7.256z M11.832,21.605c-3.663,0-6.645-2.98-6.645-6.644c0-3.665,2.982-6.646,6.645-6.646
		c3.664,0,6.643,2.98,6.643,6.646C18.475,18.625,15.496,21.605,11.832,21.605z"/>
	<path d="M26.967,7.233h-0.899V0h-0.613v7.233v4.208v0.407h0.061c0.933,2.437,0.056,5.438,0.056,5.906c0,0.521,0,10.97,0,10.97
		h0.002c0,0.006-0.002,0.013-0.002,0.017c0,0.491,0.397,0.888,0.887,0.888c0.49,0,0.887-0.396,0.887-0.888
		c0-0.004-0.002-0.011-0.002-0.017h0.002c0,0,0-10.351,0-10.953c0-0.544-0.61-3.97,0.174-5.923h0.061v-0.407V7.233V0h-0.613V7.233z"
		/>
	<path d="M30.655,5.153v3.761h-0.847V5.153H29.23v3.761v2.695v0.406c0.933,2.437,0.056,5.44,0.056,5.907c0,0.521,0,6.557,0,6.557
		h0.002c0,0.006-0.002,0.011-0.002,0.017c0,0.49,0.397,0.888,0.886,0.888c0.49,0,0.887-0.397,0.887-0.888
		c0-0.006-0.001-0.011-0.001-0.017h0.001c0,0,0-5.937,0-6.539c0-0.546-0.609-3.97,0.174-5.925v-0.406V8.914V5.153H30.655z"/>
</g>
<g>
</g>
<g>
</g>
<g>
</g>
<g>
</g>
<g>
</g>
<g>
</g>
<g>
</g>
<g>
</g>
<g>
</g>
<g>
</g>
<g>
</g>
<g>
</g>
<g>
</g>
<g>
</g>
<g>
</g>
</svg>
