<?xml version="1.0" encoding="iso-8859-1"?>
<!-- Generator: Adobe Illustrator 16.0.0, SVG Export Plug-In . SVG Version: 6.00 Build 0)  -->
<!DOCTYPE svg PUBLIC "-//W3C//DTD SVG 1.1//EN" "http://www.w3.org/Graphics/SVG/1.1/DTD/svg11.dtd">
<svg version="1.1" id="Layer_1" xmlns="http://www.w3.org/2000/svg" xmlns:xlink="http://www.w3.org/1999/xlink" x="0px" y="0px"
	 width="28.807px" height="28.392px" viewBox="0 0 28.807 28.392" style="enable-background:new 0 0 28.807 28.392;"
	 xml:space="preserve">
<g>
	<path d="M10.107,8.177C4.534,8.177,0,12.71,0,18.284s4.534,10.107,10.107,10.107c5.574,0,10.107-4.533,10.107-10.107
		S15.682,8.177,10.107,8.177z M10.107,27.495c-5.078,0-9.211-4.133-9.211-9.211s4.133-9.211,9.211-9.211s9.211,4.133,9.211,9.211
		S15.186,27.495,10.107,27.495z"/>
	<path d="M10.001,11.896c-3.592,0-6.513,2.922-6.513,6.514s2.921,6.513,6.513,6.513s6.513-2.921,6.513-6.513
		S13.593,11.896,10.001,11.896z M10.001,24.025c-3.096,0-5.616-2.52-5.616-5.616c0-3.098,2.521-5.617,5.616-5.617
		c3.097,0,5.616,2.52,5.616,5.617C15.617,21.506,13.098,24.025,10.001,24.025z"/>
	<path d="M21.307,8.566c0,2,0,17.841,0,19.504s7.5-8.417,7.5-9.752S21.307,6.566,21.307,8.566z"/>
	<circle cx="17.182" cy="3.563" r="3.563"/>
</g>
<g>
</g>
<g>
</g>
<g>
</g>
<g>
</g>
<g>
</g>
<g>
</g>
<g>
</g>
<g>
</g>
<g>
</g>
<g>
</g>
<g>
</g>
<g>
</g>
<g>
</g>
<g>
</g>
<g>
</g>
</svg>
