<?xml version="1.0" encoding="iso-8859-1"?>
<!-- Generator: Adobe Illustrator 16.0.0, SVG Export Plug-In . SVG Version: 6.00 Build 0)  -->
<!DOCTYPE svg PUBLIC "-//W3C//DTD SVG 1.1//EN" "http://www.w3.org/Graphics/SVG/1.1/DTD/svg11.dtd">
<svg version="1.1" id="Layer_1" xmlns="http://www.w3.org/2000/svg" xmlns:xlink="http://www.w3.org/1999/xlink" x="0px" y="0px"
	 width="31.917px" height="25.831px" viewBox="0 0 31.917 25.831" style="enable-background:new 0 0 31.917 25.831;"
	 xml:space="preserve">
<g>
	<path d="M3.316,9.236L2.898,9.235v4.376L2.48,13.61V9.235L2.029,9.236v4.402H1.613V9.236h-0.48v4.402H0.715V9.236H0.334
		L0.012,12.96c0,0-0.012,0.141-0.012,0.193c0,0.574,0.266,1.088,0.682,1.422c1.373,1.549,0.436,3.129,0.436,3.504
		c0.002,0.416,0.002,6.812,0.002,6.812c0,0.005-0.002,0.009-0.002,0.015c0,0.392,0.318,0.709,0.711,0.709
		c0.391,0,0.709-0.318,0.709-0.709c0-0.006-0.002-0.01-0.002-0.014h0.002c0,0,0-6.316,0-6.799c0-0.436-0.793-2.253,0.531-3.604
		c0-0.002,0.004-0.006,0.006-0.008c0.322-0.306,0.535-0.728,0.568-1.201c0.002-0.033,0-0.117,0-0.117L3.316,9.236z"/>
	<circle cx="25.664" cy="3.583" r="3.583"/>
	<path d="M26.478,9.165l-0.336-0.003c0,0-1.783,1.065-1.781,8.965c1.449,0.398,0.838,1.982,0.729,2.184
		c0,0.402,0.031,4.533,0.031,4.533l0.004-0.002c-0.002,0.005-0.004,0.009-0.002,0.014c-0.002,0.38,0.307,0.687,0.684,0.685
		c0.377,0.001,0.686-0.308,0.684-0.686c0.002-0.003,0.002-0.008,0-0.011l0.002-0.003c0,0,0-4.652-0.002-5.115
		C26.491,19.304,26.478,9.165,26.478,9.165z"/>
	<path d="M31.917,12.206c0-1.573-0.852-3.018-2.36-3.043V9.162c-0.007,0-0.032,0-0.038,0c0,0,0,0.001,0,0.002
		c-1.51,0.024-2.361,1.469-2.361,3.042c0,1.583,0.953,2.713,1.783,2.963c0.453,0.639,0.154,2.145-0.166,3.014
		c0,0.416,0,6.784,0,6.784h0.001c-0.001,0.004-0.001,0.009-0.001,0.013c0,0.391,0.315,0.708,0.705,0.708
		c0.021,0,0.096-0.002,0.115,0c0.39-0.002,0.707-0.317,0.707-0.708c0-0.004-0.002-0.009-0.002-0.013h0.002c0,0,0-6.368,0-6.784
		c-0.322-0.869-0.621-2.375-0.168-3.013C30.965,14.919,31.917,13.789,31.917,12.206z M28.769,14.556
		c-0.094-0.072-0.213-0.188-0.34-0.342s-0.26-0.342-0.385-0.56c-0.061-0.109-0.119-0.226-0.172-0.35
		c-0.051-0.129-0.093-0.253-0.121-0.4c-0.052-0.282-0.043-0.553-0.014-0.801c0.027-0.249,0.081-0.476,0.14-0.664
		c0.058-0.189,0.124-0.343,0.178-0.447c0.054-0.106,0.097-0.156,0.097-0.156s-0.01,0.068-0.014,0.18
		c-0.004,0.112-0.009,0.272-0.016,0.465c-0.004,0.377-0.035,0.893,0.035,1.349c0.014,0.107,0.051,0.229,0.088,0.337
		c0.035,0.114,0.076,0.227,0.121,0.334c0.085,0.218,0.176,0.418,0.256,0.592c0.08,0.171,0.15,0.315,0.205,0.412
		c0.053,0.1,0.102,0.142,0.105,0.138C28.933,14.647,28.86,14.63,28.769,14.556z"/>
	<path d="M14.012,6.362c-5.376,0-9.734,4.358-9.734,9.734s4.358,9.734,9.734,9.734s9.735-4.358,9.735-9.734
		S19.388,6.362,14.012,6.362z M13.904,22.334c-3.375,0-6.111-2.735-6.111-6.111c0-3.375,2.736-6.111,6.111-6.111
		c3.376,0,6.111,2.736,6.111,6.111C20.016,19.599,17.28,22.334,13.904,22.334z"/>
</g>
<g>
</g>
<g>
</g>
<g>
</g>
<g>
</g>
<g>
</g>
<g>
</g>
<g>
</g>
<g>
</g>
<g>
</g>
<g>
</g>
<g>
</g>
<g>
</g>
<g>
</g>
<g>
</g>
<g>
</g>
</svg>
