<?xml version="1.0" encoding="iso-8859-1"?>
<!-- Generator: Adobe Illustrator 16.0.0, SVG Export Plug-In . SVG Version: 6.00 Build 0)  -->
<!DOCTYPE svg PUBLIC "-//W3C//DTD SVG 1.1//EN" "http://www.w3.org/Graphics/SVG/1.1/DTD/svg11.dtd">
<svg version="1.1" id="Layer_1" xmlns="http://www.w3.org/2000/svg" xmlns:xlink="http://www.w3.org/1999/xlink" x="0px" y="0px"
	 width="23.719px" height="31.395px" viewBox="0 0 23.719 31.395" style="enable-background:new 0 0 23.719 31.395;"
	 xml:space="preserve">
<path d="M1.025,4.408v-2.86l0.438-0.525h21.563V0H0.984L0.003,1.179v3.229H0v26.986h23.719V4.408H1.025z M4.816,8.164h15.516v1.521
	H4.816V8.164z M18.771,18.01c-0.004,0.229-0.027,0.978-0.256,0.978l-0.438,0.001c-1.33,0.002-5.377,0.008-8.289,0.008
	c-2.049,0-3.09-0.004-3.186-0.009c-0.222-0.012-0.238-0.554-0.228-0.875c0.014-0.523,0.313-5.117,6.217-5.117
	c0.069,0,0.141,0.001,0.21,0.002C18.383,13.1,18.782,16.859,18.771,18.01z M18.715,26.874c-0.02,0-0.119,0.005-0.285,0.012
	c-0.818,0.038-3.311,0.149-5.815,0.152l-0.132,0.001c-2.961,0-5.936-0.146-6.051-0.166c-0.352-0.062-0.254-2.08-0.253-2.101
	c0.042-0.599,0.137-0.725,0.267-0.729c0.055-0.001,0.531-0.002,1.503-0.002c1.188,0,2.937,0.001,4.68,0.001
	c1.733,0.002,3.462,0.004,4.63,0.004c0.928,0,1.415-0.001,1.451-0.003c0.086,0.004,0.275,0,0.275,1.537
	C18.984,26.874,18.816,26.874,18.715,26.874z M18.842,23.175H6.308c-0.878,0-1.589-0.712-1.589-1.589c0-0.878,0.711-1.59,1.589-1.59
	h12.534c0.877,0,1.589,0.712,1.589,1.59C20.431,22.463,19.719,23.175,18.842,23.175z"/>
<g>
</g>
<g>
</g>
<g>
</g>
<g>
</g>
<g>
</g>
<g>
</g>
<g>
</g>
<g>
</g>
<g>
</g>
<g>
</g>
<g>
</g>
<g>
</g>
<g>
</g>
<g>
</g>
<g>
</g>
</svg>
