<?xml version="1.0" encoding="iso-8859-1"?>
<!-- Generator: Adobe Illustrator 16.0.0, SVG Export Plug-In . SVG Version: 6.00 Build 0)  -->
<!DOCTYPE svg PUBLIC "-//W3C//DTD SVG 1.1//EN" "http://www.w3.org/Graphics/SVG/1.1/DTD/svg11.dtd">
<svg version="1.1" id="Layer_1" xmlns="http://www.w3.org/2000/svg" xmlns:xlink="http://www.w3.org/1999/xlink" x="0px" y="0px"
	 width="32px" height="32px" viewBox="0 0 32 32" style="enable-background:new 0 0 32 32;" xml:space="preserve">
<g>
	<path d="M16.786,11.793c0.048-0.197,0.113-0.384,0.116-0.387c0.021-0.074-0.018-0.149-0.098-0.197
		c-0.076-0.041-0.169-0.02-0.212,0.046c0,0-0.092,0.147-0.226,0.364c-0.109,0.187-0.27,0.486-0.38,0.858
		c-0.095,0.326-0.209,0.76-0.26,1.245c-0.022,0.255-0.027,0.485-0.019,0.722c0.019,0.27,0.06,0.501,0.138,0.765
		c0.265,0.754,0.469,1.483,1.206,2.202c0.233,0.24,0.472,0.403,0.645,0.523l0.061,0.043c0.037,0.025,0.073,0.047,0.108,0.067
		c0.145,0.077,0.242,0.104,0.26,0.108c0.072,0.019,0.146-0.016,0.177-0.074c0.029-0.062,0.008-0.139-0.052-0.188
		c0-0.001-0.084-0.073-0.192-0.21c-0.074-0.083-0.154-0.203-0.247-0.338c-0.066-0.097-0.144-0.205-0.216-0.31
		c-0.359-0.548-0.566-1.313-0.852-2.096c-0.056-0.17-0.102-0.39-0.119-0.577c-0.023-0.216-0.034-0.424-0.034-0.617
		c-0.008-0.448,0.012-0.833,0.051-1.145C16.687,12.244,16.722,11.98,16.786,11.793z"/>
	<path d="M26.844,2.887H5.156c-1.254,0-2.27,1.017-2.27,2.27v21.688c0,1.253,1.016,2.27,2.27,2.27h5.47l0.273-5.298
		c0-2.7-1.994-1.834-1.994-3.724c0-1.058,0.032-3.264,0.032-4.919c0-4.411,1.873-8.68,2.334-9.631
		c0.462-0.952,1.552-1.989,1.564-0.991c0,1.449,0.061,18.304,0.061,18.304h-0.003l0.252,6.259h5.034l0.508-9.839
		c0,0-0.794-0.261-0.968-0.346c-1.685-0.742-2.909-2.928-2.909-5.764c0-3.095,2.4-5.761,4.721-5.783c0.003,0,0.003,0,0.005,0
		c0.001,0,0.003,0,0.004,0c2.321,0.022,4.722,2.688,4.722,5.783c0,2.836-1.226,5.021-2.908,5.764
		c-0.013,0.006-0.976,0.355-0.976,0.355l0.511,9.829h5.955c1.253,0,2.27-1.017,2.27-2.27V5.156
		C29.113,3.903,28.097,2.887,26.844,2.887z"/>
	<path d="M28.683,0H3.317C1.488,0,0,1.488,0,3.317v25.365C0,30.512,1.488,32,3.317,32h25.365C30.512,32,32,30.512,32,28.683V3.317
		C32,1.488,30.512,0,28.683,0z M30.673,28.683c0,1.098-0.893,1.99-1.99,1.99H3.317c-1.098,0-1.99-0.893-1.99-1.99V3.317
		c0-1.098,0.893-1.99,1.99-1.99h25.365c1.098,0,1.99,0.893,1.99,1.99V28.683z"/>
</g>
<g>
</g>
<g>
</g>
<g>
</g>
<g>
</g>
<g>
</g>
<g>
</g>
<g>
</g>
<g>
</g>
<g>
</g>
<g>
</g>
<g>
</g>
<g>
</g>
<g>
</g>
<g>
</g>
<g>
</g>
</svg>
