<?xml version="1.0" encoding="iso-8859-1"?>
<!-- Generator: Adobe Illustrator 16.0.0, SVG Export Plug-In . SVG Version: 6.00 Build 0)  -->
<!DOCTYPE svg PUBLIC "-//W3C//DTD SVG 1.1//EN" "http://www.w3.org/Graphics/SVG/1.1/DTD/svg11.dtd">
<svg version="1.1" id="Layer_1" xmlns="http://www.w3.org/2000/svg" xmlns:xlink="http://www.w3.org/1999/xlink" x="0px" y="0px"
	 width="23.374px" height="32.281px" viewBox="0 0 23.374 32.281" style="enable-background:new 0 0 23.374 32.281;"
	 xml:space="preserve">
<g>
	<path d="M23.374,30.773c0,0,0-9.09-0.003-9.994c0.003-0.825-0.023-20.635-0.023-20.635l-0.452-0.002c0,0-3.688,2.081-3.687,17.513
		c2.833,0.778,1.641,3.874,1.426,4.267c0,0.786,0.06,8.856,0.06,8.856l0.009-0.003c-0.003,0.009-0.006,0.016-0.005,0.027
		c-0.004,0.741,0.598,1.342,1.336,1.337c0.736,0.002,1.34-0.601,1.337-1.337c0.003-0.007,0.003-0.018-0.002-0.023L23.374,30.773z"/>
	<path d="M16.834,0.713l-0.802-0.001l0.238,8.396l-0.963-0.002V0.711l-0.704,0.002v8.447h-0.798l-0.001-8.448l-0.775,0.001
		l-0.001,8.447l-0.945,0l0.27-8.45l-0.731,0l-0.889,7.147c0,0-0.022,0.269-0.022,0.371c0,1.102,0.511,2.088,1.31,2.729
		c2.634,2.972,0.836,6.004,0.836,6.724c0.002,0.798,0.002,13.07,0.002,13.07h0.002c0,0.01-0.003,0.017-0.004,0.028
		c0.001,0.752,0.611,1.36,1.362,1.361s1.363-0.611,1.363-1.36c-0.001-0.012-0.005-0.02-0.005-0.026l0.002,0
		c0,0,0.002-12.121,0.002-13.047c-0.002-0.835-1.521-4.323,1.018-6.914c0.002-0.004,0.008-0.011,0.012-0.016
		c0.619-0.587,1.028-1.396,1.09-2.305c0.004-0.064,0.002-0.225,0.002-0.225L16.834,0.713z"/>
	<path d="M4.687,0.002V0C4.673,0,4.624,0,4.61,0c0,0,0,0.001,0,0.002C1.661,0.05,0,2.873,0,5.942
		c-0.001,3.094,1.86,5.302,3.482,5.793c0.889,1.245,0.303,4.189-0.325,5.886c0,0.812,0,13.253,0,13.253H3.16
		c-0.001,0.009-0.003,0.018-0.003,0.028c0,0.761,0.617,1.379,1.379,1.379c0.039,0,0.186,0,0.225,0c0.762,0,1.379-0.618,1.379-1.379
		c0-0.01-0.001-0.019-0.003-0.028l0.003,0c0,0,0-12.441,0-13.253c-0.628-1.697-1.213-4.641-0.325-5.886
		c1.623-0.491,3.482-2.699,3.483-5.793C9.298,2.873,7.636,0.05,4.687,0.002z M3.148,10.536c-0.184-0.142-0.419-0.369-0.665-0.668
		C2.233,9.57,1.974,9.2,1.73,8.775C1.612,8.561,1.5,8.333,1.396,8.092C1.297,7.84,1.215,7.597,1.159,7.31
		C1.057,6.758,1.074,6.23,1.132,5.744c0.054-0.485,0.157-0.928,0.272-1.297c0.112-0.371,0.241-0.669,0.348-0.873
		c0.104-0.207,0.189-0.305,0.189-0.305s-0.018,0.132-0.027,0.35C1.907,3.838,1.896,4.152,1.885,4.527
		C1.876,5.266,1.815,6.271,1.953,7.164c0.026,0.209,0.1,0.446,0.172,0.658C2.192,8.044,2.273,8.263,2.36,8.473
		c0.166,0.424,0.345,0.817,0.499,1.156c0.156,0.336,0.295,0.617,0.403,0.806c0.103,0.194,0.197,0.277,0.204,0.269
		C3.468,10.714,3.328,10.683,3.148,10.536z"/>
</g>
<g>
</g>
<g>
</g>
<g>
</g>
<g>
</g>
<g>
</g>
<g>
</g>
<g>
</g>
<g>
</g>
<g>
</g>
<g>
</g>
<g>
</g>
<g>
</g>
<g>
</g>
<g>
</g>
<g>
</g>
</svg>
