<?xml version="1.0" encoding="iso-8859-1"?>
<!-- Generator: Adobe Illustrator 16.0.0, SVG Export Plug-In . SVG Version: 6.00 Build 0)  -->
<!DOCTYPE svg PUBLIC "-//W3C//DTD SVG 1.1//EN" "http://www.w3.org/Graphics/SVG/1.1/DTD/svg11.dtd">
<svg version="1.1" id="Layer_1" xmlns="http://www.w3.org/2000/svg" xmlns:xlink="http://www.w3.org/1999/xlink" x="0px" y="0px"
	 width="32px" height="32px" viewBox="0 0 32 32" style="enable-background:new 0 0 32 32;" xml:space="preserve">
<g>
	<path d="M26.844,2.887H5.156c-1.254,0-2.27,1.017-2.27,2.27v21.688c0,1.253,1.016,2.27,2.27,2.27h4.226l0.503-9.739
		c0,0-0.794-0.261-0.968-0.346c-1.685-0.742-2.909-2.928-2.909-5.764c0-3.095,2.4-5.761,4.721-5.783c0.003,0,0.003,0,0.005,0
		c0,0,0.003,0,0.004,0c2.321,0.022,4.722,2.688,4.722,5.783c0,2.836-1.226,5.021-2.908,5.764c-0.013,0.006-0.976,0.355-0.976,0.355
		l0.506,9.729h7.432l0.467-9.045c-1.102-0.242-2.041-0.943-2.63-1.823c-0.73-1.093,0.561-10.764,0.561-10.764h0.841v9.076h0.834
		V7.481h0.911v9.076h0.831V7.481h0.946v9.076h0.833V7.481h0.645c0,0,1.29,9.671,0.56,10.764c-0.583,0.871-1.514,1.57-2.601,1.818
		c-0.02,0.007-0.037,0.014-0.037,0.014l0.471,9.036h4.7c1.253,0,2.27-1.017,2.27-2.27V5.156C29.113,3.903,28.097,2.887,26.844,2.887
		z"/>
	<path d="M7.983,11.893c0.048-0.197,0.113-0.384,0.116-0.387c0.021-0.074-0.018-0.149-0.098-0.197
		c-0.076-0.041-0.169-0.02-0.212,0.046c0,0-0.092,0.147-0.226,0.364c-0.109,0.187-0.27,0.486-0.38,0.858
		c-0.095,0.326-0.209,0.76-0.26,1.245c-0.022,0.255-0.027,0.485-0.019,0.722c0.019,0.27,0.06,0.501,0.138,0.765
		c0.265,0.754,0.469,1.483,1.206,2.202c0.233,0.24,0.472,0.403,0.645,0.523l0.061,0.043c0.037,0.025,0.073,0.047,0.108,0.067
		c0.145,0.077,0.242,0.104,0.26,0.108c0.072,0.019,0.146-0.016,0.177-0.074c0.029-0.062,0.008-0.139-0.052-0.188
		c0-0.001-0.084-0.073-0.192-0.21c-0.074-0.083-0.154-0.203-0.247-0.338c-0.066-0.097-0.144-0.205-0.216-0.31
		c-0.359-0.548-0.566-1.313-0.852-2.096c-0.056-0.17-0.102-0.39-0.119-0.577c-0.023-0.216-0.034-0.424-0.034-0.617
		C7.78,13.395,7.8,13.01,7.839,12.698C7.884,12.344,7.919,12.08,7.983,11.893z"/>
	<path d="M28.683,0H3.317C1.488,0,0,1.488,0,3.317v25.365C0,30.512,1.488,32,3.317,32h25.365C30.512,32,32,30.512,32,28.683V3.317
		C32,1.488,30.512,0,28.683,0z M30.673,28.683c0,1.098-0.893,1.99-1.99,1.99H3.317c-1.098,0-1.99-0.893-1.99-1.99V3.317
		c0-1.098,0.893-1.99,1.99-1.99h25.365c1.098,0,1.99,0.893,1.99,1.99V28.683z"/>
</g>
<g>
</g>
<g>
</g>
<g>
</g>
<g>
</g>
<g>
</g>
<g>
</g>
<g>
</g>
<g>
</g>
<g>
</g>
<g>
</g>
<g>
</g>
<g>
</g>
<g>
</g>
<g>
</g>
<g>
</g>
</svg>
