<?xml version="1.0" encoding="utf-8"?>
<!-- Generator: Adobe Illustrator 16.0.4, SVG Export Plug-In . SVG Version: 6.00 Build 0)  -->
<!DOCTYPE svg PUBLIC "-//W3C//DTD SVG 1.1//EN" "http://www.w3.org/Graphics/SVG/1.1/DTD/svg11.dtd">
<svg version="1.1" id="Layer_1" xmlns="http://www.w3.org/2000/svg" xmlns:xlink="http://www.w3.org/1999/xlink" x="0px" y="0px"
	 width="32px" height="26.945px" viewBox="0 0 32 26.945" enable-background="new 0 0 32 26.945" xml:space="preserve">
<path d="M32,8.661c0-1.406-1.581-2.296-5.286-2.977c-2.812-0.516-6.495-0.809-10.426-0.837V4.844c-0.097,0-0.191,0.003-0.288,0.003
	s-0.191-0.003-0.288-0.003v0.005C11.781,4.877,8.096,5.17,5.286,5.686C1.581,6.365,0,7.255,0,8.661c0,0.094,0.008,0.185,0.022,0.272
	C-0.211,13.569,3.8,22.101,10.07,22.101c2.255,0,4.095,0,5.642,0c0.187,0,0.38,0,0.576,0c1.547,0,3.387,0,5.642,0
	c6.271,0,10.281-8.533,10.049-13.167C31.992,8.846,32,8.755,32,8.661z M16,10.49C8.068,10.46,3.362,9.38,2.111,8.661
	C3.362,7.944,8.068,6.864,16,6.833c7.934,0.029,12.639,1.109,13.891,1.828C28.639,9.38,23.932,10.46,16,10.49z"/>
</svg>
