<?xml version="1.0" encoding="utf-8"?>
<!-- Generator: Adobe Illustrator 16.0.4, SVG Export Plug-In . SVG Version: 6.00 Build 0)  -->
<!DOCTYPE svg PUBLIC "-//W3C//DTD SVG 1.1//EN" "http://www.w3.org/Graphics/SVG/1.1/DTD/svg11.dtd">
<svg version="1.1" id="Layer_1" xmlns="http://www.w3.org/2000/svg" xmlns:xlink="http://www.w3.org/1999/xlink" x="0px" y="0px"
	 width="32px" height="27.326px" viewBox="0 0 32 27.326" enable-background="new 0 0 32 27.326" xml:space="preserve">
<g>
	<path d="M31.098,9.981c-0.787-0.087-9.156,1.228-10.611,1.538c-1.454,0.31-4.34,1.177-4.34,1.177l0.003,0.142l-1.118,0.075
		c-0.015-0.111-0.028-0.215-0.043-0.297h0.189v-0.774H0v0.773h0.202c-0.09,0.517-0.188,1.689-0.128,2.781
		c0.072,1.359,0.576,4.037,0.638,4.367v0.584H14.48v-0.588c0.064-0.34,0.563-3.006,0.638-4.363c0.031-0.6,0.016-1.219-0.019-1.745
		l-0.006-0.066l1.071-0.072l0.005,0.196c0,0,2.789-0.744,4.503-0.893c1.715-0.149,9.328-0.599,10.451-0.676
		C32.246,12.062,32.348,10.12,31.098,9.981z M1.964,18.751C1.89,18.597,1.8,18.427,1.74,18.237
		c-0.066-0.188-0.149-0.383-0.191-0.604c-0.045-0.213-0.123-0.449-0.137-0.664c-0.022-0.226-0.062-0.422-0.071-0.683
		c0-0.231,0.001-0.468,0.001-0.695c0.024-0.228,0.048-0.45,0.07-0.668c0.071-0.428,0.169-0.82,0.283-1.148
		c0.224-0.657,0.498-1.038,0.498-1.038s-0.038,0.446-0.095,1.12c-0.021,0.333-0.039,0.715-0.055,1.122
		c-0.002,0.41-0.005,0.84,0.02,1.271c0.004,0.186,0.033,0.438,0.048,0.648c0.015,0.228,0.05,0.412,0.069,0.615
		c0.053,0.396,0.119,0.775,0.182,1.1c0.129,0.646,0.25,1.095,0.25,1.095S2.271,19.38,1.964,18.751z"/>
	<path d="M14.953,11.443c0-0.729,0.172-1.509-1.783-1.509c-0.397,0-1.051,0-1.841,0c-0.539-0.267-1.19-0.476-1.918-0.613
		c0.016-0.414-0.033-1.172-0.514-1.729C8.654,7.313,8.204,6.979,7.43,6.979c-0.777,0-1.223,0.335-1.461,0.616
		C5.499,8.15,5.463,8.904,5.486,9.321C4.757,9.458,4.104,9.667,3.564,9.934c-0.862,0-1.553,0-1.913,0
		c-1.604,0-1.41,0.907-1.41,1.509C0.968,11.443,14.427,11.443,14.953,11.443z M6.8,8.299c0.048-0.058,0.196-0.232,0.63-0.232
		c0.294,0,0.504,0.078,0.643,0.235C8.27,8.53,8.319,8.897,8.323,9.17C8.037,9.148,7.745,9.135,7.447,9.135
		c-0.299,0-0.592,0.013-0.877,0.035C6.568,8.904,6.607,8.526,6.8,8.299z"/>
</g>
</svg>
