<?xml version="1.0" encoding="iso-8859-1"?>
<!-- Generator: Adobe Illustrator 16.0.0, SVG Export Plug-In . SVG Version: 6.00 Build 0)  -->
<!DOCTYPE svg PUBLIC "-//W3C//DTD SVG 1.1//EN" "http://www.w3.org/Graphics/SVG/1.1/DTD/svg11.dtd">
<svg version="1.1" id="Layer_1" xmlns="http://www.w3.org/2000/svg" xmlns:xlink="http://www.w3.org/1999/xlink" x="0px" y="0px"
	 width="32px" height="31.546px" viewBox="0 0 32 31.546" style="enable-background:new 0 0 32 31.546;" xml:space="preserve">
<path d="M10.929,26.105c-0.461-0.461-1.23-1.23-2.066-2.066l9.911-9.911l0.526,0.526l0.671-0.671c0,0,0.915-2.438,4.192-4.299
	C24.707,9.14,31.6,2.249,31.6,2.249l-0.002-0.003c0.006-0.006,0.014-0.009,0.02-0.015c0.51-0.51,0.51-1.338,0-1.848
	c-0.51-0.51-1.338-0.51-1.848,0c-0.006,0.006-0.01,0.013-0.016,0.019L29.752,0.4c0,0-6.789,6.789-7.418,7.418
	c-2.574,3.645-4.382,4.146-4.382,4.146l-0.671,0.67l0.572,0.572l-9.91,9.91c-0.846-0.845-1.673-1.672-2.245-2.243
	c-1.356-1.356-3.397-0.322-3.953,0.232c-0.555,0.555-3.875,3.874,0.427,8.177c4.301,4.301,7.917,1.228,8.331,0.813
	C10.916,29.683,12.015,27.19,10.929,26.105z M31.136,0.945c0.287,0.286,0.287,0.75,0,1.036c-0.286,0.287-1.493,1.03-1.78,0.743
	c-0.286-0.286,0.457-1.493,0.744-1.779C30.386,0.659,30.851,0.658,31.136,0.945z M5.821,25.905
	c-1.671-1.671-3.843-3.791-2.752-4.675c1.453-1.065,2.744,0.57,4.974,2.801c2.23,2.231,2.93,2.357,2.605,3.982
	C10.076,30.005,7.491,27.575,5.821,25.905z"/>
<g>
</g>
<g>
</g>
<g>
</g>
<g>
</g>
<g>
</g>
<g>
</g>
<g>
</g>
<g>
</g>
<g>
</g>
<g>
</g>
<g>
</g>
<g>
</g>
<g>
</g>
<g>
</g>
<g>
</g>
</svg>
