<?xml version="1.0" encoding="iso-8859-1"?>
<!-- Generator: Adobe Illustrator 16.0.0, SVG Export Plug-In . SVG Version: 6.00 Build 0)  -->
<!DOCTYPE svg PUBLIC "-//W3C//DTD SVG 1.1//EN" "http://www.w3.org/Graphics/SVG/1.1/DTD/svg11.dtd">
<svg version="1.1" id="Layer_1" xmlns="http://www.w3.org/2000/svg" xmlns:xlink="http://www.w3.org/1999/xlink" x="0px" y="0px"
	 width="18.252px" height="32px" viewBox="0 0 18.252 32" style="enable-background:new 0 0 18.252 32;" xml:space="preserve">
<path d="M7.778,25.454c-0.505,0-1.349,0-2.266,0V14.583h0.577v-0.736c0,0-0.835-1.839-0.058-4.657c0-0.596,0-8.156,0-8.156H6.029
	c0-0.007,0.002-0.013,0.002-0.02C6.031,0.454,5.577,0,5.018,0c-0.56,0-1.014,0.454-1.014,1.014c0,0.007,0.001,0.013,0.001,0.02
	H4.004c0,0,0,7.446,0,8.137c0.587,3.411-0.13,4.678-0.13,4.678v0.735h0.627v10.871c-0.928,0-1.834,0-2.461,0
	C0.553,25.454,0,27.141,0,27.75C0,28.358,0,32,4.718,32s5.016-3.669,5.016-4.123C9.734,27.424,8.969,25.454,7.778,25.454z
	 M5.063,0.572c0.314,0,0.569,0.255,0.569,0.568c0,0.314-0.254,1.384-0.569,1.384c-0.314,0-0.568-1.069-0.568-1.384
	C4.494,0.827,4.749,0.572,5.063,0.572z M4.867,28.146c-1.833,0-4.187,0.028-4.074-1.055C1.006,25.711,2.611,25.9,5.058,25.9
	s2.9-0.314,3.613,0.755C9.451,28.062,6.7,28.146,4.867,28.146z"/>
<path d="M16.881,27.04c-0.359,0-0.962,0-1.615,0V16.307h0.472v-0.599c0,0-0.68-1.492-0.047-3.781c0-0.484,0-6.624,0-6.624h-0.003
	c0-0.005,0.003-0.01,0.003-0.015c0-0.456-0.37-0.824-0.824-0.824s-0.823,0.369-0.823,0.824c0,0.005,0.002,0.01,0.002,0.015h-0.002
	c0,0,0,6.046,0,6.609c0.477,2.77-0.105,3.798-0.105,3.798v0.597h0.473V27.04c-0.59,0-1.155,0-1.556,0
	c-1.043,0-1.431,1.183-1.431,1.61c0,0.427,0,2.98,3.309,2.98c3.31,0,3.519-2.573,3.519-2.892S17.715,27.04,16.881,27.04z
	 M14.903,4.93c0.255,0,0.462,0.206,0.462,0.461c0,0.256-0.207,1.124-0.462,1.124c-0.255,0-0.462-0.868-0.462-1.124
	C14.441,5.136,14.648,4.93,14.903,4.93z M14.838,28.929c-1.286,0-2.937,0.02-2.857-0.741c0.148-0.968,1.275-0.836,2.991-0.836
	c1.717,0,2.034-0.22,2.534,0.529C18.054,28.868,16.124,28.929,14.838,28.929z"/>
<path d="M7.778,25.454c-0.505,0-1.349,0-2.266,0V14.583h0.577v-0.736c0,0-0.835-1.839-0.058-4.657c0-0.596,0-8.156,0-8.156H6.029
	c0-0.007,0.002-0.013,0.002-0.02C6.031,0.454,5.577,0,5.018,0c-0.56,0-1.014,0.454-1.014,1.014c0,0.007,0.001,0.013,0.001,0.02
	H4.004c0,0,0,7.446,0,8.137c0.587,3.411-0.13,4.678-0.13,4.678v0.735h0.627v10.871c-0.928,0-1.834,0-2.461,0
	C0.553,25.454,0,27.141,0,27.75C0,28.358,0,32,4.718,32s5.016-3.669,5.016-4.123C9.734,27.424,8.969,25.454,7.778,25.454z
	 M5.063,0.572c0.314,0,0.569,0.255,0.569,0.568c0,0.314-0.254,1.384-0.569,1.384c-0.314,0-0.568-1.069-0.568-1.384
	C4.494,0.827,4.749,0.572,5.063,0.572z M4.867,28.146c-1.833,0-4.187,0.028-4.074-1.055C1.006,25.711,2.611,25.9,5.058,25.9
	s2.9-0.314,3.613,0.755C9.451,28.062,6.7,28.146,4.867,28.146z"/>
<path d="M16.881,27.04c-0.359,0-0.962,0-1.615,0V16.307h0.472v-0.599c0,0-0.68-1.492-0.047-3.781c0-0.484,0-6.624,0-6.624h-0.003
	c0-0.005,0.003-0.01,0.003-0.015c0-0.456-0.37-0.824-0.824-0.824s-0.823,0.369-0.823,0.824c0,0.005,0.002,0.01,0.002,0.015h-0.002
	c0,0,0,6.046,0,6.609c0.477,2.77-0.105,3.798-0.105,3.798v0.597h0.473V27.04c-0.59,0-1.155,0-1.556,0
	c-1.043,0-1.431,1.183-1.431,1.61c0,0.427,0,2.98,3.309,2.98c3.31,0,3.519-2.573,3.519-2.892S17.715,27.04,16.881,27.04z
	 M14.903,4.93c0.255,0,0.462,0.206,0.462,0.461c0,0.256-0.207,1.124-0.462,1.124c-0.255,0-0.462-0.868-0.462-1.124
	C14.441,5.136,14.648,4.93,14.903,4.93z M14.838,28.929c-1.286,0-2.937,0.02-2.857-0.741c0.148-0.968,1.275-0.836,2.991-0.836
	c1.717,0,2.034-0.22,2.534,0.529C18.054,28.868,16.124,28.929,14.838,28.929z"/>
<g>
</g>
<g>
</g>
<g>
</g>
<g>
</g>
<g>
</g>
<g>
</g>
<g>
</g>
<g>
</g>
<g>
</g>
<g>
</g>
<g>
</g>
<g>
</g>
<g>
</g>
<g>
</g>
<g>
</g>
</svg>
