<?xml version="1.0" encoding="iso-8859-1"?>
<!-- Generator: Adobe Illustrator 16.0.0, SVG Export Plug-In . SVG Version: 6.00 Build 0)  -->
<!DOCTYPE svg PUBLIC "-//W3C//DTD SVG 1.1//EN" "http://www.w3.org/Graphics/SVG/1.1/DTD/svg11.dtd">
<svg version="1.1" id="Layer_1" xmlns="http://www.w3.org/2000/svg" xmlns:xlink="http://www.w3.org/1999/xlink" x="0px" y="0px"
	 width="30.871px" height="32.001px" viewBox="0 0 30.871 32.001" style="enable-background:new 0 0 30.871 32.001;"
	 xml:space="preserve">
<path d="M29.408,12.169c2.132-2.133,1.908-5.815-0.5-8.223c-2.409-2.41-8.798-5.341-10.93-3.208
	c-1.909,1.908,0.042,7.058,2.375,9.99C17.74,13.915,6.994,24.548,5.936,24.433c-0.479,0.48-5.583,5.582-5.583,5.582l0.002,0.002
	c-0.006,0.006-0.013,0.008-0.018,0.014c-0.451,0.451-0.451,1.182,0,1.633c0.451,0.451,1.181,0.449,1.631,0
	c0.006-0.006,0.009-0.012,0.015-0.018l0.001,0.002c0,0,5.01-5.012,5.566-5.566c0.243-1.342,10.486-11.883,13.732-14.314
	l-0.098-0.099C23.594,14.077,27.275,14.3,29.408,12.169z M18.745,5.524c0,0-0.002-0.002-0.003-0.002
	c-0.019-0.019-0.084-0.091-0.145-0.23l-0.016-0.04c-0.054-0.133-0.127-0.314-0.166-0.541c-0.135-0.685-0.121-1.284,0.044-1.828
	c0.07-0.19,0.146-0.344,0.249-0.509c0.093-0.141,0.196-0.277,0.324-0.429c0.248-0.284,0.516-0.515,0.696-0.664
	c0.23-0.19,0.456-0.316,0.604-0.39l0.291-0.144c0.058-0.029,0.131-0.008,0.161,0.046c0.034,0.055,0.021,0.127-0.031,0.166
	c-0.001,0.001-0.122,0.092-0.235,0.193c-0.124,0.095-0.274,0.262-0.433,0.438c-0.158,0.172-0.334,0.396-0.524,0.668
	c-0.081,0.111-0.163,0.24-0.246,0.385c-0.072,0.119-0.139,0.266-0.177,0.387c-0.164,0.568-0.194,1.21-0.213,1.635
	c0.001,0.088-0.001,0.179-0.003,0.261c-0.002,0.111-0.005,0.208,0.003,0.282c0.006,0.12,0.026,0.189,0.026,0.189
	c0.016,0.055-0.006,0.114-0.055,0.143C18.848,5.57,18.786,5.563,18.745,5.524z"/>
<g>
</g>
<g>
</g>
<g>
</g>
<g>
</g>
<g>
</g>
<g>
</g>
<g>
</g>
<g>
</g>
<g>
</g>
<g>
</g>
<g>
</g>
<g>
</g>
<g>
</g>
<g>
</g>
<g>
</g>
</svg>
