<?xml version="1.0" encoding="iso-8859-1"?>
<!-- Generator: Adobe Illustrator 16.0.0, SVG Export Plug-In . SVG Version: 6.00 Build 0)  -->
<!DOCTYPE svg PUBLIC "-//W3C//DTD SVG 1.1//EN" "http://www.w3.org/Graphics/SVG/1.1/DTD/svg11.dtd">
<svg version="1.1" id="Layer_1" xmlns="http://www.w3.org/2000/svg" xmlns:xlink="http://www.w3.org/1999/xlink" x="0px" y="0px"
	 width="32px" height="27.906px" viewBox="0 0 32 27.906" style="enable-background:new 0 0 32 27.906;" xml:space="preserve">
<path d="M27.387,26.801c0.605-0.005,1.281-0.825,1.684-1.546c1.184-0.163,2.916-1.588,2.93-3.2c0.005-0.609-0.249-0.923-0.463-1.08
	c-0.421-0.313-0.997-0.251-1.425-0.148c0.013-0.333,0.011-0.631-0.002-0.861c-0.542,0-1.269,0-2.001,0
	c-0.083-0.875-0.2-2.007-0.327-2.764c-0.233-1.39-1.119-2.366-1.795-3.129c-0.414-0.468-0.888-0.706-1.194-0.822
	c0.139-0.185,0.222-0.295,0.222-0.295s-0.176-1.389-2.356-2.185c-2.184-0.796-5.093,1.321-5.093,1.321s0.748-2.652-2.828-5.914
	l0.379-0.833c0.613,0.091,1.257-0.141,1.657-0.672c0.582-0.772,0.429-1.871-0.346-2.454c-0.771-0.582-1.87-0.428-2.452,0.345
	c-0.393,0.521-0.444,1.185-0.205,1.743l-0.686,0.553c-2.249-1.57-4.013-1.928-5.353-1.794c-0.63-1.619-1.673-3.31-3.227-3.036
	c-2.05,0.357-4.582,2.754-4.504,4.935c0.032,0.935,0.585,1.625,1.24,2.119c0.439,0.331,0.924,0.572,1.332,0.741
	c-0.442,1.37-0.44,2.86,0.695,3.969l-0.347,0.46l7.877,5.936l0.346-0.458c2.394,0.865,4.99-1.625,6.646-2.754
	c1.675-1.145,3.931-3.281,6.114-0.55c0.121-0.16,0.232-0.309,0.338-0.448c0.373,0.702,1.201,2.496,0.825,4.001
	c-0.193,0.773-0.397,1.447-0.575,1.985c-0.873,0-2.493,0-3.66,0c-0.086,1.568,0.518,6.64,2.81,6.836c0,0.112,0,0.202,0,0.262h-4.43
	v0.844H32v-0.844h-4.613C27.387,27.003,27.387,26.913,27.387,26.801z M30.048,21.752c0.5-0.15,0.83-0.18,0.973-0.075
	c0.09,0.067,0.108,0.239,0.105,0.371c-0.007,0.895-0.855,1.745-1.581,2.132C29.814,23.381,29.968,22.521,30.048,21.752z
	 M3.075,6.626C2.302,6.308,1.331,5.725,1.301,4.918C1.25,3.475,3.27,1.565,4.73,1.31c0.114-0.02,0.299-0.02,0.582,0.226
	C5.745,1.908,6.128,2.608,6.44,3.37C5.737,3.639,5.213,4.013,4.853,4.274C4.414,4.593,3.651,5.5,3.075,6.626z M9.479,4.521
	c-0.261,0.1-0.621,0.274-1.03,0.512c-0.81,0.472-1.837,1.213-2.473,2.171C5.839,7.424,5.64,7.747,5.519,7.984
	C5.385,8.251,5.248,8.518,5.133,8.78c-0.226,0.53-0.404,1.038-0.519,1.487c-0.107,0.447-0.146,0.832-0.119,1.102
	c0.022,0.271,0.117,0.42,0.117,0.42s-0.034-0.025-0.098-0.073c-0.059-0.052-0.152-0.142-0.221-0.278
	c-0.154-0.269-0.28-0.709-0.287-1.229C3.993,9.687,4.071,9.079,4.262,8.463c0.093-0.31,0.204-0.622,0.355-0.93
	c0.168-0.334,0.281-0.579,0.5-0.904c0.41-0.604,0.953-1.08,1.505-1.427c0.553-0.345,1.111-0.574,1.605-0.707
	c0.493-0.137,0.919-0.181,1.22-0.171c0.306,0.001,0.47,0.105,0.455,0.113C9.902,4.42,9.741,4.413,9.479,4.521z M22.515,24.771
	c-0.499-1.152-0.858-4.273-0.858-4.273s1.013,2.805,1.243,3.582c0.229,0.778,1.238,1.882,1.238,1.882S23.014,25.923,22.515,24.771z"
	/>
<g>
</g>
<g>
</g>
<g>
</g>
<g>
</g>
<g>
</g>
<g>
</g>
<g>
</g>
<g>
</g>
<g>
</g>
<g>
</g>
<g>
</g>
<g>
</g>
<g>
</g>
<g>
</g>
<g>
</g>
</svg>
