<?xml version="1.0" encoding="iso-8859-1"?>
<!-- Generator: Adobe Illustrator 16.0.0, SVG Export Plug-In . SVG Version: 6.00 Build 0)  -->
<!DOCTYPE svg PUBLIC "-//W3C//DTD SVG 1.1//EN" "http://www.w3.org/Graphics/SVG/1.1/DTD/svg11.dtd">
<svg version="1.1" id="Layer_1" xmlns="http://www.w3.org/2000/svg" xmlns:xlink="http://www.w3.org/1999/xlink" x="0px" y="0px"
	 width="32px" height="30.562px" viewBox="0 0 32 30.562" style="enable-background:new 0 0 32 30.562;" xml:space="preserve">
<path d="M31.977,5.62c-0.104-0.445-0.363-1.538-0.519-2.195c-0.074-0.311-0.125-0.526-0.125-0.526
	c-0.153-0.659-0.412-1.752-0.519-2.196c-0.153-0.652-0.947-0.772-1.383-0.67C28.996,0.136,16.658,3.048,14.954,3.45
	c-1.705,0.405-2.627,2.997-3.824,3.28S4.527,8.288,4.527,8.288l0.101,0.43C4.172,8.992,3.023,9.726,2.373,10.55
	c-0.53,0.673-0.376,2.12-0.199,3.063c-0.538-0.039-0.949-0.078-0.949-0.078s-2.007,4.993-0.883,6.84
	C1.466,22.22,3.51,23.425,3.51,24.58c0,1.156,0,3.602,0,3.602c0,1.234-2.255,1.985-3.216,2.255c-0.206,0.062-0.146,0.125,0,0.125
	c0.14,0,3.163,0,3.469,0c0.016,0,0.03,0,0.03,0c0.306,0,3.329,0,3.468,0c0.146,0,0.207-0.063,0-0.125
	c-0.961-0.27-3.108-1.021-3.108-2.255c0-0.024-0.002-0.049-0.003-0.073H4.146c0-0.397,0-2.485,0-3.528
	c0-1.155,2.045-2.36,3.168-4.206c1.125-1.847-0.883-6.84-0.883-6.84s-0.795,0.076-1.624,0.121c-0.064-0.731-0.174-1.621-0.285-2.292
	c-0.176-1.051,0.235-1.307,0.407-1.368l0.141,0.598c0,0,5.406-1.276,6.604-1.56c1.196-0.282,3.181,1.625,4.885,1.223
	c1.706-0.402,14.043-3.317,14.479-3.419C31.474,6.734,32.131,6.272,31.977,5.62z M2.386,21.668c-0.307-0.311-0.647-0.694-0.96-1.155
	c-0.148-0.236-0.31-0.479-0.423-0.763c-0.063-0.132-0.111-0.297-0.156-0.46c-0.027-0.166-0.06-0.259-0.056-0.461
	c0-0.607,0.074-1.184,0.174-1.721c0.091-0.537,0.209-1.03,0.325-1.448c0.23-0.838,0.441-1.379,0.441-1.379s-0.051,0.579-0.144,1.436
	c-0.047,0.427-0.103,0.924-0.162,1.457c-0.055,0.529-0.115,1.098-0.105,1.642c-0.017,0.086,0.021,0.279,0.04,0.393
	c0.034,0.112,0.059,0.225,0.115,0.349c0.094,0.244,0.218,0.483,0.346,0.709c0.26,0.452,0.547,0.86,0.795,1.207
	c0.502,0.694,0.864,1.149,0.864,1.149S3.005,22.286,2.386,21.668z M29.903,5.921c-0.484,0.151-1.172,0.395-2.007,0.64
	c-1.667,0.504-3.907,1.106-6.161,1.642c-1.129,0.257-2.26,0.517-3.324,0.732c-0.534,0.104-1.049,0.204-1.538,0.305
	c-0.223,0.06-0.55,0.048-0.805,0.057c-0.251-0.038-0.489-0.093-0.711-0.145c-0.214-0.077-0.418-0.15-0.609-0.22
	c-0.184-0.088-0.356-0.171-0.521-0.25c-0.318-0.167-0.591-0.319-0.807-0.456c-0.436-0.269-0.661-0.454-0.661-0.454
	s0.267,0.123,0.736,0.308c0.233,0.097,0.522,0.201,0.854,0.312c0.331,0.109,0.71,0.198,1.118,0.285
	c0.202,0.021,0.416,0.041,0.626,0.051c0.209-0.047,0.377-0.019,0.633-0.107c0.481-0.132,0.988-0.271,1.511-0.416
	c1.05-0.284,2.176-0.557,3.302-0.834c2.257-0.529,4.528-0.994,6.245-1.285c0.855-0.155,1.579-0.246,2.082-0.326
	c0.504-0.073,0.794-0.103,0.794-0.103S30.387,5.76,29.903,5.921z"/>
<g>
</g>
<g>
</g>
<g>
</g>
<g>
</g>
<g>
</g>
<g>
</g>
<g>
</g>
<g>
</g>
<g>
</g>
<g>
</g>
<g>
</g>
<g>
</g>
<g>
</g>
<g>
</g>
<g>
</g>
</svg>
