<?xml version="1.0" encoding="iso-8859-1"?>
<!-- Generator: Adobe Illustrator 16.0.0, SVG Export Plug-In . SVG Version: 6.00 Build 0)  -->
<!DOCTYPE svg PUBLIC "-//W3C//DTD SVG 1.1//EN" "http://www.w3.org/Graphics/SVG/1.1/DTD/svg11.dtd">
<svg version="1.1" id="Layer_1" xmlns="http://www.w3.org/2000/svg" xmlns:xlink="http://www.w3.org/1999/xlink" x="0px" y="0px"
	 width="8.96px" height="32px" viewBox="0 0 8.96 32" style="enable-background:new 0 0 8.96 32;" xml:space="preserve">
<path d="M8.96,25.628V22.27H8.615c0,0-3.231-3.019-0.575-12.127c-0.042-1.031,0-2.438,0-3.242c1.531-0.26,1.424-4.275-2.704-4.59
	c0.268-0.243,0.437-0.593,0.437-0.982C5.773,0.594,5.178,0,4.444,0C3.711,0,3.116,0.594,3.116,1.328
	c0,0.394,0.173,0.746,0.444,0.989C-0.504,2.668-0.603,6.643,0.92,6.9c0,0.804,0.042,2.211,0,3.242
	C3.577,19.251,0.345,22.27,0.345,22.27H0v3.358h0.644v0.874H0v3.75h0.713V32h3.739h0.057h3.739v-1.748H8.96v-3.75H8.316v-0.874H8.96
	z"/>
<g>
</g>
<g>
</g>
<g>
</g>
<g>
</g>
<g>
</g>
<g>
</g>
<g>
</g>
<g>
</g>
<g>
</g>
<g>
</g>
<g>
</g>
<g>
</g>
<g>
</g>
<g>
</g>
<g>
</g>
</svg>
