<?xml version="1.0" encoding="iso-8859-1"?>
<!-- Generator: Adobe Illustrator 16.0.0, SVG Export Plug-In . SVG Version: 6.00 Build 0)  -->
<!DOCTYPE svg PUBLIC "-//W3C//DTD SVG 1.1//EN" "http://www.w3.org/Graphics/SVG/1.1/DTD/svg11.dtd">
<svg version="1.1" id="Layer_1" xmlns="http://www.w3.org/2000/svg" xmlns:xlink="http://www.w3.org/1999/xlink" x="0px" y="0px"
	 width="32px" height="31.792px" viewBox="0 0 32 31.792" style="enable-background:new 0 0 32 31.792;" xml:space="preserve">
<path d="M32,0.984L31.015,0L13.735,17.644l-0.687-0.686l-0.616,0.616l0.002,0.054c0.011,0.315-0.015,0.834-0.119,1.1l-0.518-0.519
	l-0.667,0.667l0.577,0.577c-2.597,2.868-5.775,5.808-6.662,5.814l-0.051,0l-0.036,0.036c-0.397,0.398-4.63,4.631-4.63,4.631
	l-0.014,0.014c-0.015,0.015-0.03,0.031-0.043,0.047L0.268,30c-0.372,0.424-0.356,1.072,0.048,1.477
	c0.204,0.204,0.476,0.316,0.765,0.316c0.202,0,0.396-0.055,0.565-0.161v0.042l0.212-0.211c0,0,4.156-4.157,4.617-4.617l0.028-0.027
	l0.007-0.039c0.146-0.806,3.103-4.131,5.893-6.632l0.566,0.566l0.667-0.666l-0.502-0.502c0.232-0.092,0.664-0.134,1.046-0.134
	l0.092,0.001l0.615-0.616l-0.645-0.645L31.909,1.072L32,0.984z"/>
<g>
</g>
<g>
</g>
<g>
</g>
<g>
</g>
<g>
</g>
<g>
</g>
<g>
</g>
<g>
</g>
<g>
</g>
<g>
</g>
<g>
</g>
<g>
</g>
<g>
</g>
<g>
</g>
<g>
</g>
</svg>
