<?xml version="1.0" encoding="iso-8859-1"?>
<!-- Generator: Adobe Illustrator 16.0.0, SVG Export Plug-In . SVG Version: 6.00 Build 0)  -->
<!DOCTYPE svg PUBLIC "-//W3C//DTD SVG 1.1//EN" "http://www.w3.org/Graphics/SVG/1.1/DTD/svg11.dtd">
<svg version="1.1" id="Layer_1" xmlns="http://www.w3.org/2000/svg" xmlns:xlink="http://www.w3.org/1999/xlink" x="0px" y="0px"
	 width="32.001px" height="31.941px" viewBox="0 0 32.001 31.941" style="enable-background:new 0 0 32.001 31.941;"
	 xml:space="preserve">
<path d="M10.961,21.81l9.104-9.104l0.494,0.495l0.605-0.604c0,0,0.823-2.196,3.777-3.873c0.488-0.489,6.697-6.698,6.697-6.698
	l-0.002-0.002c0.006-0.006,0.014-0.009,0.019-0.015c0.46-0.459,0.46-1.205,0.001-1.664c-0.46-0.46-1.205-0.46-1.665,0
	c-0.006,0.006-0.009,0.012-0.015,0.018l-0.002-0.001c0,0-6.115,6.115-6.682,6.682c-2.32,3.284-3.949,3.735-3.949,3.735l-0.604,0.604
	l0.494,0.495l-9.104,9.104c-2.432-2.014-6.041-1.884-8.318,0.394c-2.417,2.418-2.416,6.337,0,8.754c2.418,2.418,6.337,2.418,8.755,0
	C12.844,27.851,12.975,24.241,10.961,21.81z M31.223,0.852c0.258,0.258,0.258,0.676,0,0.934s-1.346,0.927-1.604,0.669
	s0.411-1.345,0.67-1.603C30.547,0.594,30.965,0.594,31.223,0.852z M9.559,27.136c0.151,0.15,0.152,0.396,0.001,0.547
	c-0.151,0.15-0.396,0.15-0.548-0.001c-0.15-0.15-0.15-0.396,0-0.547C9.164,26.983,9.408,26.984,9.559,27.136z M11.139,23.712
	c0.151,0.15,0.152,0.396,0.001,0.547s-0.396,0.15-0.548,0c-0.15-0.151-0.15-0.396,0-0.548
	C10.744,23.561,10.988,23.561,11.139,23.712z M9.636,24.313c0.151,0.151,0.151,0.396,0,0.548c-0.151,0.15-0.396,0.15-0.547-0.001
	c-0.151-0.15-0.151-0.396,0-0.547S9.484,24.162,9.636,24.313z M7.734,26.883c0.151,0.151,0.152,0.396,0,0.547
	c-0.15,0.151-0.396,0.151-0.547,0c-0.15-0.151-0.151-0.396,0-0.547S7.584,26.731,7.734,26.883z M8.201,25.593
	c0.151,0.151,0.152,0.396,0,0.548c-0.15,0.151-0.396,0.15-0.547-0.001c-0.15-0.15-0.15-0.395,0-0.547
	C7.806,25.442,8.051,25.442,8.201,25.593z M6.459,27.336c0.151,0.15,0.152,0.396,0,0.547c-0.15,0.151-0.396,0.15-0.547,0
	c-0.15-0.151-0.151-0.396,0-0.548C6.063,27.185,6.309,27.185,6.459,27.336z M8.425,23.628c-0.151-0.151-0.151-0.396-0.001-0.547
	c0.152-0.152,0.396-0.151,0.548,0c0.151,0.15,0.151,0.396,0,0.547S8.576,23.778,8.425,23.628z M7.603,24.886
	c-0.151,0.151-0.396,0.151-0.547,0s-0.151-0.396-0.001-0.547c0.152-0.151,0.396-0.15,0.548,0C7.754,24.49,7.754,24.734,7.603,24.886
	z M9.488,21.906c0.15-0.151,0.396-0.15,0.547,0c0.15,0.151,0.15,0.396,0,0.548c-0.151,0.15-0.396,0.15-0.547-0.001
	C9.337,22.303,9.336,22.058,9.488,21.906z M7.85,22.317c0.15,0.151,0.151,0.396,0,0.547s-0.396,0.15-0.547,0
	c-0.15-0.151-0.151-0.396,0-0.547C7.453,22.166,7.699,22.166,7.85,22.317z M8.34,20.824c0.15,0.151,0.151,0.396,0,0.548
	c-0.151,0.15-0.396,0.15-0.547,0c-0.15-0.151-0.151-0.396,0-0.548C7.943,20.673,8.189,20.674,8.34,20.824z M5.127,24.916
	c-0.151,0.15-0.396,0.15-0.547,0c-0.151-0.151-0.152-0.396,0-0.547c0.15-0.152,0.396-0.151,0.547,0
	C5.277,24.52,5.277,24.765,5.127,24.916z M6.585,22.032c0.151,0.15,0.151,0.396,0.001,0.547c-0.152,0.15-0.396,0.15-0.547,0
	c-0.151-0.151-0.152-0.396-0.001-0.547C6.189,21.88,6.435,21.881,6.585,22.032z M5.271,22.992c-0.151,0.15-0.396,0.15-0.548-0.001
	c-0.15-0.15-0.15-0.396,0-0.547c0.151-0.151,0.396-0.15,0.547,0.001C5.421,22.596,5.422,22.841,5.271,22.992z M4.076,23.639
	c-0.15,0.15-0.396,0.15-0.547-0.001c-0.15-0.15-0.151-0.396,0-0.547s0.396-0.15,0.547,0C4.227,23.242,4.228,23.486,4.076,23.639z
	 M6.465,20.595c0.15,0.15,0.151,0.396,0,0.547c-0.15,0.151-0.396,0.151-0.547,0s-0.151-0.396,0-0.547
	C6.068,20.443,6.314,20.444,6.465,20.595z M4.529,21.011c0.15,0.151,0.15,0.396,0,0.548c-0.151,0.15-0.396,0.15-0.547-0.001
	c-0.151-0.15-0.152-0.396,0-0.547C4.133,20.859,4.378,20.86,4.529,21.011z M2.342,22.037c0.152-0.151,0.396-0.15,0.547,0
	c0.152,0.151,0.152,0.396,0.001,0.547c-0.151,0.151-0.396,0.151-0.548,0C2.191,22.434,2.191,22.188,2.342,22.037z M1.205,24.363
	c-0.15-0.151-0.151-0.396,0-0.547c0.151-0.151,0.396-0.151,0.547,0c0.15,0.15,0.151,0.396,0,0.547
	C1.602,24.515,1.355,24.514,1.205,24.363z M0.961,26.057c-0.15-0.15-0.151-0.396,0-0.547c0.15-0.151,0.396-0.151,0.547,0
	s0.151,0.396,0,0.547C1.357,26.208,1.111,26.208,0.961,26.057z M2.756,24.62c-0.15-0.15-0.151-0.396,0-0.547
	c0.151-0.15,0.396-0.15,0.547,0.001c0.151,0.15,0.151,0.396,0,0.547C3.152,24.772,2.906,24.771,2.756,24.62z M2.456,25.614
	c0.151-0.151,0.396-0.151,0.547,0c0.151,0.15,0.151,0.396,0,0.547s-0.396,0.15-0.547,0C2.305,26.01,2.305,25.765,2.456,25.614z
	 M1.232,27.932c-0.15-0.151-0.151-0.396,0-0.547c0.15-0.151,0.396-0.15,0.547,0c0.15,0.151,0.151,0.396,0,0.547
	C1.629,28.083,1.383,28.083,1.232,27.932z M2.647,27.395c-0.151-0.15-0.151-0.396,0-0.547c0.151-0.15,0.396-0.15,0.547,0
	c0.151,0.151,0.151,0.396,0,0.548S2.799,27.546,2.647,27.395z M4.127,26.191c-0.151-0.151-0.152-0.396,0-0.548
	c0.15-0.151,0.396-0.15,0.547,0c0.15,0.151,0.151,0.396,0,0.548S4.277,26.342,4.127,26.191z M5.869,24.448
	c-0.151-0.15-0.151-0.396,0-0.547c0.15-0.151,0.396-0.15,0.547,0c0.15,0.151,0.151,0.396,0,0.547
	C6.265,24.601,6.02,24.6,5.869,24.448z M2.348,29.594c-0.15-0.151-0.151-0.396,0-0.547c0.15-0.151,0.396-0.15,0.547,0
	c0.15,0.151,0.151,0.396,0,0.547S2.498,29.745,2.348,29.594z M3.423,28.519c-0.151-0.151-0.151-0.396-0.001-0.547
	c0.152-0.151,0.396-0.15,0.548,0c0.151,0.151,0.151,0.396,0,0.547S3.574,28.67,3.423,28.519z M4.839,27.45
	c-0.151-0.15-0.151-0.396,0-0.547s0.396-0.151,0.548,0c0.15,0.15,0.15,0.396,0,0.547C5.234,27.602,4.99,27.601,4.839,27.45z
	 M5.787,26.266c-0.217-0.217-0.217-0.567,0-0.784s0.567-0.217,0.783,0c0.217,0.217,0.217,0.567,0,0.784S6.003,26.482,5.787,26.266z
	 M4.523,28.725c0.151-0.151,0.396-0.151,0.547,0c0.151,0.15,0.152,0.396,0,0.547c-0.15,0.151-0.396,0.15-0.547,0
	C4.373,29.12,4.373,28.875,4.523,28.725z M3.867,30.751c-0.151-0.151-0.152-0.396,0-0.548c0.15-0.151,0.396-0.15,0.547,0.001
	c0.15,0.15,0.151,0.396,0,0.547C4.263,30.901,4.018,30.901,3.867,30.751z M5.847,29.551c-0.151-0.15-0.151-0.396,0-0.547
	c0.151-0.15,0.396-0.15,0.547,0.001c0.151,0.15,0.151,0.396,0,0.547S5.998,29.702,5.847,29.551z M9.235,26.163
	c-0.151-0.151-0.151-0.396-0.001-0.547c0.152-0.151,0.396-0.151,0.548,0c0.151,0.15,0.151,0.396,0,0.547S9.386,26.313,9.235,26.163z
	 M7.186,28.961c0.151-0.15,0.396-0.15,0.547,0c0.151,0.151,0.152,0.396,0,0.547c-0.15,0.152-0.396,0.151-0.547,0
	C7.035,29.357,7.035,29.112,7.186,28.961z M5.854,31.147c-0.151-0.15-0.152-0.396,0-0.547c0.15-0.151,0.396-0.15,0.547,0
	c0.15,0.151,0.15,0.396,0,0.548C6.249,31.299,6.004,31.299,5.854,31.147z M8.261,28.74c-0.15-0.151-0.151-0.396,0-0.547
	c0.151-0.151,0.396-0.151,0.547,0c0.151,0.15,0.151,0.396,0.001,0.547C8.656,28.892,8.412,28.891,8.261,28.74z M10.957,26.181
	c-0.151-0.151-0.152-0.396,0-0.547c0.15-0.152,0.396-0.151,0.547,0c0.15,0.15,0.15,0.396,0,0.547
	C11.353,26.332,11.107,26.331,10.957,26.181z M10.556,27.483c0.151-0.151,0.396-0.15,0.547,0c0.151,0.151,0.151,0.396,0.001,0.547
	c-0.152,0.151-0.396,0.151-0.548,0C10.404,27.88,10.404,27.635,10.556,27.483z M7.996,30.746c-0.15-0.15-0.15-0.396,0-0.547
	c0.151-0.15,0.396-0.15,0.547,0.001c0.151,0.15,0.152,0.396,0,0.547C8.393,30.898,8.147,30.897,7.996,30.746z M9.564,29.569
	c-0.15-0.151-0.151-0.396,0-0.547c0.151-0.151,0.396-0.151,0.547,0c0.15,0.15,0.151,0.396,0,0.547
	C9.961,29.721,9.715,29.72,9.564,29.569z"/>
<g>
</g>
<g>
</g>
<g>
</g>
<g>
</g>
<g>
</g>
<g>
</g>
<g>
</g>
<g>
</g>
<g>
</g>
<g>
</g>
<g>
</g>
<g>
</g>
<g>
</g>
<g>
</g>
<g>
</g>
</svg>
