<?xml version="1.0" encoding="iso-8859-1"?>
<!-- Generator: Adobe Illustrator 16.0.0, SVG Export Plug-In . SVG Version: 6.00 Build 0)  -->
<!DOCTYPE svg PUBLIC "-//W3C//DTD SVG 1.1//EN" "http://www.w3.org/Graphics/SVG/1.1/DTD/svg11.dtd">
<svg version="1.1" id="Layer_1" xmlns="http://www.w3.org/2000/svg" xmlns:xlink="http://www.w3.org/1999/xlink" x="0px" y="0px"
	 width="23.75px" height="32px" viewBox="0 0 23.75 32" style="enable-background:new 0 0 23.75 32;" xml:space="preserve">
<g>
	<path d="M7.235,24.912c1.62,0,2.942,0,4.053,0c0.134,0,0.272,0,0.414,0c1.112,0,2.434,0,4.053,0c4.506,0,7.388-6.131,7.22-9.46
		c0.01-0.063,0.015-0.13,0.015-0.196c0-1.012-1.135-1.65-3.797-2.139c-2.019-0.37-4.667-0.58-7.491-0.602v-0.004
		c-0.069,0-0.138,0.003-0.208,0.003c-0.069,0-0.137-0.003-0.207-0.003v0.004c-2.825,0.021-5.472,0.231-7.491,0.602
		C1.136,13.605,0,14.244,0,15.256c0,0.066,0.006,0.133,0.015,0.196C-0.152,18.781,2.729,24.912,7.235,24.912z M11.495,13.942
		c5.7,0.021,9.082,0.797,9.98,1.313c-0.898,0.516-4.28,1.291-9.98,1.313c-5.699-0.021-9.08-0.797-9.979-1.313
		C2.415,14.739,5.796,13.964,11.495,13.942z"/>
	<path d="M8,7.573c0.109,0.204,0.184,0.262,0.279,0.399l0.246,0.298c0.046,0.099,0.12,0.178,0.152,0.287
		c0.081,0.206,0.169,0.425,0.195,0.665c0.079,0.472,0.073,0.964,0.053,1.395c-0.057,0.861-0.14,1.491-0.14,1.491
		s0.46-0.446,0.827-1.329c0.091-0.22,0.181-0.466,0.238-0.741c0.059-0.273,0.116-0.572,0.103-0.897c0-0.319-0.039-0.672-0.167-1.015
		C9.737,7.951,9.63,7.789,9.547,7.62C9.5,7.537,9.437,7.464,9.38,7.387L9.292,7.272L9.248,7.217L9.237,7.202
		c0.005,0.007,0.015,0.016,0.031,0.035L9.264,7.231L9.247,7.21C9.171,7.105,9.018,6.955,9.001,6.889
		C8.965,6.812,8.913,6.748,8.877,6.63C8.794,6.425,8.729,6.191,8.695,5.953C8.625,5.477,8.633,4.981,8.653,4.55
		C8.71,3.687,8.786,3.056,8.786,3.056S8.33,3.506,7.964,4.387c-0.183,0.438-0.345,0.986-0.353,1.63
		c0.008,0.317,0.013,0.667,0.145,1.012C7.798,7.194,7.896,7.387,8,7.573z"/>
	<path d="M10.712,4.517c0.11,0.205,0.184,0.263,0.279,0.4l0.246,0.296c0.046,0.1,0.12,0.18,0.152,0.289
		c0.081,0.206,0.169,0.424,0.195,0.664c0.079,0.472,0.073,0.965,0.053,1.395c-0.057,0.862-0.141,1.491-0.141,1.491
		s0.46-0.445,0.827-1.328c0.091-0.221,0.181-0.467,0.238-0.742c0.059-0.273,0.116-0.572,0.104-0.896
		c0-0.319-0.039-0.673-0.167-1.016c-0.05-0.175-0.157-0.337-0.239-0.506c-0.048-0.082-0.111-0.155-0.167-0.233l-0.088-0.114
		L11.96,4.16l-0.01-0.015c0.005,0.007,0.014,0.016,0.031,0.035l-0.004-0.005l-0.017-0.022c-0.076-0.105-0.229-0.254-0.246-0.32
		c-0.036-0.077-0.089-0.141-0.124-0.26c-0.083-0.205-0.148-0.438-0.182-0.676c-0.071-0.479-0.062-0.972-0.042-1.405
		C11.423,0.63,11.498,0,11.498,0s-0.456,0.45-0.822,1.33c-0.183,0.438-0.345,0.987-0.353,1.629c0.008,0.318,0.013,0.669,0.145,1.013
		C10.51,4.139,10.609,4.331,10.712,4.517z"/>
	<path d="M14.064,7.287c0.109,0.205,0.183,0.263,0.278,0.401l0.247,0.296c0.045,0.099,0.12,0.179,0.152,0.289
		c0.08,0.205,0.168,0.424,0.195,0.663c0.08,0.472,0.073,0.966,0.053,1.395c-0.057,0.862-0.14,1.491-0.14,1.491
		s0.46-0.445,0.827-1.329c0.091-0.219,0.181-0.466,0.238-0.741c0.059-0.273,0.116-0.572,0.104-0.896
		c0-0.318-0.039-0.672-0.167-1.015c-0.05-0.176-0.157-0.338-0.24-0.506C15.563,7.252,15.5,7.18,15.444,7.102l-0.088-0.114
		l-0.044-0.057L15.3,6.916c0.006,0.007,0.014,0.017,0.031,0.036l-0.003-0.006l-0.017-0.022c-0.077-0.104-0.229-0.254-0.246-0.32
		c-0.037-0.077-0.089-0.141-0.125-0.26c-0.083-0.205-0.148-0.438-0.181-0.675c-0.072-0.479-0.062-0.973-0.042-1.405
		c0.057-0.863,0.132-1.493,0.132-1.493s-0.456,0.451-0.821,1.331c-0.183,0.438-0.346,0.987-0.353,1.629
		c0.007,0.318,0.012,0.668,0.144,1.012C13.861,6.909,13.96,7.103,14.064,7.287z"/>
	<path d="M23.748,28.78c-0.034-2.022-1.972-3.164-4.079-3.164c-2.125,0.001-3.641,1.279-3.977,2.391
		c-0.855,0.611-2.876,0.21-4.042-0.222c-0.557,0.002-9.098,0.002-9.098,0.002l0,0.001c-0.006,0-0.012-0.001-0.019-0.001
		c-0.522,0-0.946,0.424-0.947,0.947c0,0.027,0.001,0.127,0,0.154c0.001,0.522,0.424,0.945,0.947,0.945c0.007,0,0.013,0,0.019,0h0
		c0,0,8.542,0,9.099,0c1.166-0.431,3.186-0.835,4.042-0.225c0.337,1.114,1.853,2.392,3.978,2.391c2.106,0,4.045-1.143,4.077-3.165h0
		c0.001-0.011,0-0.045,0.002-0.055C23.75,28.78,23.749,28.78,23.748,28.78z M21.264,26.933c-0.15-0.006-0.366-0.013-0.624-0.022
		c-0.506-0.007-1.197-0.046-1.809,0.049c-0.143,0.018-0.306,0.067-0.452,0.117c-0.151,0.046-0.303,0.103-0.447,0.163
		c-0.291,0.112-0.561,0.235-0.793,0.342c-0.231,0.106-0.423,0.202-0.553,0.275c-0.133,0.069-0.19,0.137-0.184,0.142
		c-0.008,0.002,0.013-0.096,0.114-0.22c0.097-0.126,0.253-0.287,0.458-0.457c0.205-0.171,0.458-0.349,0.75-0.516
		c0.147-0.08,0.303-0.157,0.469-0.229c0.172-0.069,0.339-0.125,0.537-0.162c0.378-0.071,0.741-0.06,1.075-0.02
		c0.333,0.036,0.637,0.107,0.89,0.187c0.255,0.076,0.46,0.165,0.6,0.239c0.142,0.071,0.21,0.129,0.21,0.129
		S21.413,26.938,21.264,26.933z"/>
</g>
<g>
</g>
<g>
</g>
<g>
</g>
<g>
</g>
<g>
</g>
<g>
</g>
<g>
</g>
<g>
</g>
<g>
</g>
<g>
</g>
<g>
</g>
<g>
</g>
<g>
</g>
<g>
</g>
<g>
</g>
</svg>
