<?xml version="1.0" encoding="iso-8859-1"?>
<!-- Generator: Adobe Illustrator 16.0.0, SVG Export Plug-In . SVG Version: 6.00 Build 0)  -->
<!DOCTYPE svg PUBLIC "-//W3C//DTD SVG 1.1//EN" "http://www.w3.org/Graphics/SVG/1.1/DTD/svg11.dtd">
<svg version="1.1" id="Layer_1" xmlns="http://www.w3.org/2000/svg" xmlns:xlink="http://www.w3.org/1999/xlink" x="0px" y="0px"
	 width="32px" height="32px" viewBox="0 0 32 32" style="enable-background:new 0 0 32 32;" xml:space="preserve">
<path d="M28.952,3.048c-2.967-2.684-7.345-4.464-10.263-1.546c-2.244,2.245-1.674,4.105-0.713,7.333
	c0.602,6.047-6.067,9.752-6.067,9.752L0.328,30.167l0.002,0.002c-0.005,0.005-0.012,0.008-0.017,0.013
	c-0.417,0.417-0.417,1.091-0.005,1.51c0.419,0.412,1.093,0.411,1.51-0.005c0.005-0.005,0.008-0.011,0.013-0.017l0.002,0.002
	l11.58-11.581c0,0,3.705-6.668,9.752-6.067c3.227,0.96,5.088,1.531,7.332-0.713C33.416,10.393,31.635,6.014,28.952,3.048z
	 M20.024,2.504c-0.002,0.001-0.103,0.118-0.194,0.246c-0.099,0.115-0.182,0.3-0.315,0.543c-0.117,0.211-0.24,0.482-0.362,0.806
	c-0.056,0.14-0.107,0.292-0.151,0.454c-0.042,0.139-0.097,0.509-0.105,0.65c-0.016,0.642,0.123,1.323,0.226,1.82
	c0.024,0.098,0.047,0.195,0.066,0.284c0.028,0.125,0.052,0.232,0.081,0.314c0.04,0.129,0.08,0.203,0.079,0.205
	c0.029,0.052,0.022,0.114-0.016,0.149c-0.04,0.037-0.1,0.038-0.148,0.005c-0.012-0.009-0.074-0.055-0.156-0.154
	c-0.019-0.022-0.039-0.048-0.058-0.078L18.938,7.7c-0.089-0.136-0.214-0.321-0.314-0.559c-0.325-0.729-0.474-1.383-0.451-2
	c0.02-0.213,0.082-0.592,0.146-0.788c0.061-0.171,0.131-0.338,0.218-0.513c0.176-0.336,0.381-0.615,0.542-0.821
	c0.187-0.236,0.368-0.411,0.501-0.512c0.157-0.12,0.266-0.198,0.266-0.198c0.049-0.037,0.12-0.025,0.165,0.027
	C20.055,2.391,20.061,2.458,20.024,2.504z"/>
<g>
</g>
<g>
</g>
<g>
</g>
<g>
</g>
<g>
</g>
<g>
</g>
<g>
</g>
<g>
</g>
<g>
</g>
<g>
</g>
<g>
</g>
<g>
</g>
<g>
</g>
<g>
</g>
<g>
</g>
</svg>
