<?xml version="1.0" encoding="iso-8859-1"?>
<!-- Generator: Adobe Illustrator 16.0.0, SVG Export Plug-In . SVG Version: 6.00 Build 0)  -->
<!DOCTYPE svg PUBLIC "-//W3C//DTD SVG 1.1//EN" "http://www.w3.org/Graphics/SVG/1.1/DTD/svg11.dtd">
<svg version="1.1" id="Layer_1" xmlns="http://www.w3.org/2000/svg" xmlns:xlink="http://www.w3.org/1999/xlink" x="0px" y="0px"
	 width="32px" height="28.002px" viewBox="0 0 32 28.002" style="enable-background:new 0 0 32 28.002;" xml:space="preserve">
<g>
	<path d="M3.813,0C1.708,0,0,2.645,0,5.124c0,2.077,1.202,3.82,2.83,4.332c0.701,1.566,0.188,10.605-0.361,12.089
		c0.001,0.732,0,5.042,0,5.042l0.003,0.001c-0.001,0.008-0.002,0.017-0.002,0.024c-0.001,0.687,0.557,1.243,1.243,1.243
		c0.035,0,0.166-0.001,0.202,0.001c0.688-0.002,1.244-0.558,1.243-1.244c0.001-0.009-0.002-0.017-0.002-0.025l0.002,0.001
		c0,0,0.001-4.311,0-5.043c-0.55-1.484-1.063-10.522-0.362-12.089c1.629-0.511,2.831-2.254,2.831-4.332C7.627,2.645,5.919,0,3.813,0
		z M5.44,2.515c0,0.227-0.184,0.41-0.41,0.41s-0.41-0.184-0.41-0.41s0.184-0.41,0.41-0.41S5.44,2.288,5.44,2.515z M2.913,4.806
		c0,0.227-0.184,0.41-0.41,0.41s-0.41-0.184-0.41-0.41s0.184-0.41,0.41-0.41S2.913,4.579,2.913,4.806z M2.748,3.601
		c0-0.227,0.184-0.41,0.41-0.41s0.41,0.184,0.41,0.41s-0.184,0.41-0.41,0.41S2.748,3.827,2.748,3.601z M3.323,5.508
		c0.227,0,0.41,0.184,0.41,0.41s-0.184,0.41-0.41,0.41s-0.41-0.184-0.41-0.41S3.097,5.508,3.323,5.508z M3.403,4.806
		c0-0.227,0.184-0.41,0.41-0.41s0.41,0.184,0.41,0.41s-0.184,0.41-0.41,0.41S3.403,5.032,3.403,4.806z M4.059,3.601
		c0-0.227,0.184-0.41,0.41-0.41s0.41,0.184,0.41,0.41s-0.184,0.41-0.41,0.41S4.059,3.827,4.059,3.601z M4.634,5.508
		c0.227,0,0.41,0.184,0.41,0.41s-0.184,0.41-0.41,0.41s-0.41-0.184-0.41-0.41S4.407,5.508,4.634,5.508z M4.688,4.806
		c0-0.227,0.184-0.41,0.41-0.41s0.41,0.184,0.41,0.41s-0.184,0.41-0.41,0.41S4.688,5.032,4.688,4.806z M4.469,1.046
		c0.227,0,0.41,0.184,0.41,0.41s-0.184,0.41-0.41,0.41s-0.41-0.184-0.41-0.41S4.242,1.046,4.469,1.046z M4.157,2.515
		c0,0.227-0.185,0.41-0.411,0.41c-0.226,0-0.41-0.184-0.41-0.41s0.185-0.41,0.41-0.41C3.973,2.104,4.157,2.288,4.157,2.515z
		 M3.158,1.046c0.227,0,0.41,0.184,0.41,0.41s-0.184,0.41-0.41,0.41s-0.41-0.184-0.41-0.41S2.932,1.046,3.158,1.046z M2.436,2.104
		c0.227,0,0.41,0.184,0.41,0.41s-0.184,0.41-0.41,0.41s-0.41-0.184-0.41-0.41S2.209,2.104,2.436,2.104z M1.874,3.19
		c0.227,0,0.41,0.184,0.41,0.41s-0.184,0.41-0.41,0.41s-0.41-0.184-0.41-0.41S1.647,3.19,1.874,3.19z M1.312,5.216
		c-0.227,0-0.41-0.184-0.41-0.41s0.184-0.41,0.41-0.41s0.41,0.184,0.41,0.41S1.538,5.216,1.312,5.216z M1.629,5.918
		c0-0.227,0.184-0.41,0.41-0.41s0.41,0.184,0.41,0.41s-0.184,0.41-0.41,0.41S1.629,6.145,1.629,5.918z M2.694,7.388
		c-0.227,0-0.41-0.184-0.41-0.41s0.184-0.41,0.41-0.41s0.41,0.184,0.41,0.41S2.921,7.388,2.694,7.388z M3.256,8.474
		c-0.227,0-0.41-0.184-0.41-0.41s0.184-0.41,0.41-0.41s0.41,0.184,0.41,0.41S3.482,8.474,3.256,8.474z M3.568,6.978
		c0-0.227,0.184-0.41,0.41-0.41s0.41,0.184,0.41,0.41s-0.184,0.41-0.41,0.41S3.568,7.204,3.568,6.978z M4.62,8.474
		c-0.227,0-0.41-0.184-0.41-0.41s0.184-0.41,0.41-0.41s0.41,0.184,0.41,0.41S4.847,8.474,4.62,8.474z M5.289,7.388
		c-0.227,0-0.41-0.184-0.41-0.41s0.184-0.41,0.41-0.41s0.41,0.184,0.41,0.41S5.516,7.388,5.289,7.388z M5.918,6.328
		c-0.227,0-0.41-0.184-0.41-0.41s0.184-0.41,0.41-0.41s0.41,0.184,0.41,0.41S6.145,6.328,5.918,6.328z M6.738,4.806
		c0,0.227-0.184,0.41-0.41,0.41s-0.41-0.184-0.41-0.41s0.184-0.41,0.41-0.41S6.738,4.579,6.738,4.806z M6.163,3.601
		c0,0.227-0.184,0.41-0.41,0.41s-0.41-0.184-0.41-0.41s0.184-0.41,0.41-0.41S6.163,3.374,6.163,3.601z"/>
	<path d="M20.495,0.146c-2.105,0-3.813,2.646-3.813,5.124c0,2.078,1.201,3.821,2.83,4.332c0.7,1.566,0.188,10.606-0.362,12.089
		c0.001,0.733,0,5.043,0,5.043h0.003c-0.001,0.008-0.002,0.017-0.002,0.024c-0.001,0.687,0.557,1.244,1.243,1.244
		c0.035-0.001,0.167-0.002,0.202,0c0.688-0.002,1.244-0.558,1.243-1.244c0.001-0.009-0.002-0.017-0.002-0.024h0.002
		c0,0,0.001-4.311,0-5.042c-0.55-1.484-1.063-10.522-0.362-12.09c1.629-0.511,2.831-2.254,2.831-4.332
		C24.309,2.791,22.602,0.146,20.495,0.146z"/>
	<path d="M13.862,0.656v5.526h-1.311V0.169c-0.112-0.014-0.227-0.023-0.343-0.023c-0.194,0-0.384,0.026-0.57,0.064v5.973h-1.311
		v-5.37c-1.153,0.866-1.932,2.467-1.932,4.14c0,2.07,1.192,3.809,2.813,4.326c0.724,1.461,0.209,10.626-0.346,12.12
		c0.001,0.733,0,5.043,0,5.043l0.003,0.001c-0.001,0.007-0.002,0.016-0.002,0.023c-0.001,0.687,0.557,1.244,1.243,1.244
		c0.035-0.001,0.167-0.001,0.202,0.001c0.688-0.002,1.244-0.559,1.244-1.245c0-0.008-0.002-0.017-0.003-0.024l0.003,0.001
		c0,0,0-4.312,0-5.043c-0.554-1.496-1.069-10.66-0.346-12.121c1.62-0.518,2.813-2.256,2.813-4.326
		C16.022,3.171,15.14,1.474,13.862,0.656z"/>
	<path d="M32,5.229c0-1.77-0.282-2.832-1.539-3.296v5.348H29.15v-5.6c-0.222-0.016-0.454-0.026-0.71-0.026
		c-0.072,0-0.328-0.002-0.556,0.026v5.622l-1.298-0.027V1.783c-1.548,0.357-1.707,1.459-1.707,3.446c0,2.03,1.07,3.744,2.537,4.299
		c0.759,1.31,0.238,10.652-0.321,12.162c0.001,0.733,0,5.043,0,5.043h0.003c-0.001,0.008-0.002,0.017-0.002,0.024
		c-0.001,0.687,0.557,1.244,1.243,1.244c0.035-0.001,0.167-0.002,0.202,0c0.688-0.002,1.244-0.558,1.243-1.244
		c0.001-0.009-0.002-0.017-0.002-0.024h0.002c0,0,0.001-4.311,0-5.042c-0.56-1.512-1.08-10.854-0.322-12.164
		C30.931,8.974,32,7.26,32,5.229z"/>
</g>
<g>
</g>
<g>
</g>
<g>
</g>
<g>
</g>
<g>
</g>
<g>
</g>
<g>
</g>
<g>
</g>
<g>
</g>
<g>
</g>
<g>
</g>
<g>
</g>
<g>
</g>
<g>
</g>
<g>
</g>
</svg>
