<?xml version="1.0" encoding="iso-8859-1"?>
<!-- Generator: Adobe Illustrator 16.0.0, SVG Export Plug-In . SVG Version: 6.00 Build 0)  -->
<!DOCTYPE svg PUBLIC "-//W3C//DTD SVG 1.1//EN" "http://www.w3.org/Graphics/SVG/1.1/DTD/svg11.dtd">
<svg version="1.1" id="Layer_1" xmlns="http://www.w3.org/2000/svg" xmlns:xlink="http://www.w3.org/1999/xlink" x="0px" y="0px"
	 width="26.801px" height="32px" viewBox="0 0 26.801 32" style="enable-background:new 0 0 26.801 32;" xml:space="preserve">
<g>
	<path d="M16.302,0h-0.835l0.188,18.075l-0.712,0.001l0.001,0.509c0,0,0.544,0.506,0.563,0.786h-0.563v0.51h0.593
		c0.132,2.563,0.064,6.077-0.461,6.61c0,0.412,0.001,4.794,0.001,4.794l0.002,0.001c-0.001,0.004-0.003,0.009-0.002,0.014
		c0,0.387,0.313,0.7,0.699,0.7c0.387,0,0.701-0.313,0.701-0.701c0-0.004-0.002-0.009,0-0.014c0,0,0-4.302,0-4.779
		c-0.387-0.557-0.542-4.042-0.395-6.625l0.582-0.001v-0.508l-0.548-0.001c0.022-0.278,0.548-0.786,0.548-0.786v-0.508h-0.669
		L16.302,0z"/>
	<path d="M26.801,3.636c0-1.768-1.162-3.201-2.595-3.201s-2.595,1.433-2.595,3.201c0,1.623,0.98,2.961,2.25,3.169
		c0.21,4.338,0.082,18.51-0.451,18.937c0,0.469,0,5.447,0,5.447h0.002c0,0.006-0.002,0.01-0.002,0.015
		c0,0.44,0.357,0.797,0.796,0.797c0.439,0,0.796-0.356,0.796-0.796c0-0.007-0.001-0.011-0.001-0.016l0.001-0.001
		c0,0,0-4.888,0-5.431c-0.495-0.714-0.657-14.648-0.366-18.969C25.864,6.535,26.801,5.223,26.801,3.636z"/>
	<path d="M5.976,25.423c0,0.491-0.001,5.724-0.001,5.724h0.003c0,0.006-0.003,0.011-0.002,0.017C5.975,31.625,6.351,32,6.813,32
		c0.461,0,0.836-0.375,0.836-0.836c0-0.007-0.001-0.012-0.001-0.018l0.002,0.001c0,0,0-5.139,0-5.709
		c-0.564-0.813-0.717-11.469-0.299-14.38L7.25,11.058H6.387C6.691,13.893,6.583,24.935,5.976,25.423z"/>
	<path d="M7.249,3.141C4.779,3.14,0,4.912,0,7.1c0,2.186,4.55,3.983,7.25,3.958c2.47,0.001,4.472-1.772,4.472-3.958
		C11.722,4.913,9.719,3.14,7.249,3.141z"/>
</g>
<g>
</g>
<g>
</g>
<g>
</g>
<g>
</g>
<g>
</g>
<g>
</g>
<g>
</g>
<g>
</g>
<g>
</g>
<g>
</g>
<g>
</g>
<g>
</g>
<g>
</g>
<g>
</g>
<g>
</g>
</svg>
