<?xml version="1.0" encoding="iso-8859-1"?>
<!-- Generator: Adobe Illustrator 16.0.0, SVG Export Plug-In . SVG Version: 6.00 Build 0)  -->
<!DOCTYPE svg PUBLIC "-//W3C//DTD SVG 1.1//EN" "http://www.w3.org/Graphics/SVG/1.1/DTD/svg11.dtd">
<svg version="1.1" id="Layer_1" xmlns="http://www.w3.org/2000/svg" xmlns:xlink="http://www.w3.org/1999/xlink" x="0px" y="0px"
	 width="32px" height="31.686px" viewBox="0 0 32 31.686" style="enable-background:new 0 0 32 31.686;" xml:space="preserve">
<path d="M29.858,2.142c-3.061-3.06-8.273-2.811-11.642,0.558c-2.331,2.332-3.167,5.544-2.446,8.317
	c-0.024,0.043-0.021,0.121,0.022,0.248c-0.001-0.001-0.003-0.002-0.003-0.003c0.581,5.347-11.034,13.271-11.034,13.271l-4.618,4.619
	l0.001,0c-0.005,0.005-0.011,0.009-0.015,0.013c-0.367,0.367,0.165,1.497,0.532,1.864c0.368,0.369,1.498,0.901,1.865,0.534
	c0.005-0.004,0.009-0.01,0.013-0.015l0.001,0.001l4.606-4.606c0,0,8.288-11.565,13.268-10.81c0.192,0.08,1.041,0.206,1.041,0.206
	s-0.008-0.007-0.012-0.013c2.664,0.521,5.656-0.337,7.861-2.543C32.669,10.414,32.919,5.202,29.858,2.142z M23.039,2.503
	c-0.003,0-0.276,0.127-0.542,0.283c-0.271,0.126-0.598,0.368-1.029,0.694c-0.383,0.283-0.821,0.669-1.301,1.147
	c-0.213,0.205-0.427,0.436-0.637,0.689c-0.187,0.214-0.381,0.496-0.506,0.741c-0.549,1.133-0.85,2.464-1.068,3.435
	c-0.036,0.191-0.073,0.385-0.11,0.56c-0.05,0.245-0.094,0.458-0.109,0.627c-0.034,0.263-0.022,0.428-0.024,0.431
	c0.01,0.116-0.053,0.22-0.149,0.253c-0.1,0.032-0.209-0.015-0.27-0.112c-0.015-0.025-0.088-0.157-0.154-0.4
	c-0.015-0.056-0.031-0.12-0.042-0.188l-0.017-0.112c-0.051-0.315-0.123-0.747-0.109-1.252c0.007-1.563,0.27-2.853,0.812-3.938
	c0.207-0.363,0.418-0.654,0.69-0.955c0.247-0.257,0.508-0.499,0.803-0.741c0.587-0.458,1.178-0.791,1.634-1.028
	c0.523-0.272,1.018-0.417,1.336-0.49c0.379-0.087,0.637-0.14,0.637-0.14c0.115-0.023,0.234,0.054,0.271,0.181
	C23.188,2.326,23.144,2.451,23.039,2.503z"/>
<g>
</g>
<g>
</g>
<g>
</g>
<g>
</g>
<g>
</g>
<g>
</g>
<g>
</g>
<g>
</g>
<g>
</g>
<g>
</g>
<g>
</g>
<g>
</g>
<g>
</g>
<g>
</g>
<g>
</g>
</svg>
