<?xml version="1.0" encoding="utf-8"?>
<!-- Generator: Adobe Illustrator 16.0.4, SVG Export Plug-In . SVG Version: 6.00 Build 0)  -->
<!DOCTYPE svg PUBLIC "-//W3C//DTD SVG 1.1//EN" "http://www.w3.org/Graphics/SVG/1.1/DTD/svg11.dtd">
<svg version="1.1" id="Layer_1" xmlns="http://www.w3.org/2000/svg" xmlns:xlink="http://www.w3.org/1999/xlink" x="0px" y="0px"
	 width="32px" height="27.965px" viewBox="0 0 32 27.965" enable-background="new 0 0 32 27.965" xml:space="preserve">
<path d="M29.402,9.91c-0.422,0.148-0.98,0.695-1.274,1.008c0.226-0.997,0.378-1.882,0.463-2.429h0.896V6.958H2.512v1.531h0.897
	c0.085,0.547,0.237,1.433,0.463,2.43C3.578,10.606,3.02,10.059,2.597,9.91C1.999,9.698,0,9.91,0,9.91v0.809
	c0,0,1.964-0.069,2.386,0.177c0.423,0.245,0.88,2.322,1.231,2.322c0.183,0,0.557,0,0.873,0c0.38,1.176,0.86,2.292,1.453,3.033
	c1.575,1.969,3.851,3.594,4.514,4.047v0.711h11.085v-0.711c0.661-0.451,2.938-2.076,4.515-4.047c0.594-0.74,1.073-1.856,1.453-3.033
	c0.315,0,0.689,0,0.873,0c0.352,0,0.809-2.077,1.23-2.322C30.035,10.648,32,10.718,32,10.718V9.91C32,9.91,30,9.698,29.402,9.91z
	 M16.016,19.845c-0.223-0.059-0.39-0.25-0.39-0.491c0-0.281,0.23-0.515,0.515-0.515c0.285,0,0.516,0.229,0.516,0.515
	c0,0.241-0.168,0.436-0.39,0.491H16.016z M14.635,17.546c-0.284,0-0.516-0.23-0.516-0.516c0-0.286,0.231-0.517,0.516-0.517
	c0.285,0,0.515,0.23,0.515,0.517C15.15,17.316,14.919,17.546,14.635,17.546z M15.149,18.471c0,0.284-0.23,0.515-0.516,0.515
	c-0.283,0-0.515-0.229-0.515-0.515c0-0.283,0.231-0.515,0.515-0.515C14.919,17.958,15.149,18.187,15.149,18.471z M14.563,16.128
	c-0.283,0-0.515-0.23-0.515-0.516c0-0.286,0.231-0.517,0.515-0.517c0.285,0,0.516,0.23,0.516,0.517
	C15.079,15.898,14.849,16.128,14.563,16.128z M14.193,13.349c-0.283,0-0.515-0.23-0.515-0.517c0-0.283,0.231-0.515,0.515-0.515
	c0.285,0,0.515,0.23,0.515,0.515C14.708,13.118,14.479,13.349,14.193,13.349z M13.778,16.411c0,0.284-0.23,0.516-0.516,0.516
	c-0.283,0-0.514-0.229-0.514-0.516c0-0.283,0.23-0.516,0.514-0.516C13.548,15.895,13.778,16.126,13.778,16.411z M13.779,17.818
	c0,0.285-0.23,0.519-0.516,0.519c-0.283,0-0.515-0.231-0.515-0.519c0-0.282,0.231-0.514,0.515-0.514
	C13.549,17.305,13.779,17.536,13.779,17.818z M12.927,13.106c0.283,0,0.516,0.231,0.516,0.516c0,0.285-0.232,0.516-0.516,0.516
	c-0.285,0-0.515-0.229-0.515-0.516C12.412,13.338,12.642,13.106,12.927,13.106z M12.413,12.212c0-0.283,0.229-0.514,0.515-0.514
	c0.283,0,0.515,0.229,0.515,0.514c0,0.285-0.231,0.516-0.515,0.516C12.643,12.728,12.413,12.498,12.413,12.212z M12.512,17.032
	c0,0.283-0.23,0.516-0.514,0.516c-0.286,0-0.516-0.23-0.516-0.516c0-0.283,0.229-0.517,0.516-0.517
	C12.281,16.516,12.512,16.749,12.512,17.032z M11.557,12.318c0.284,0,0.515,0.23,0.515,0.516s-0.23,0.516-0.515,0.516
	c-0.285,0-0.516-0.23-0.516-0.516S11.271,12.318,11.557,12.318z M11.112,11.416c0-0.284,0.229-0.516,0.515-0.516
	c0.283,0,0.515,0.23,0.515,0.516s-0.231,0.516-0.515,0.516C11.342,11.931,11.112,11.7,11.112,11.416z M11.557,13.758
	c0.284,0,0.515,0.231,0.515,0.516c0,0.285-0.23,0.516-0.515,0.516c-0.285,0-0.516-0.229-0.516-0.516
	C11.041,13.99,11.271,13.758,11.557,13.758z M15.863,15.625c0.286,0,0.516,0.229,0.516,0.516s-0.229,0.517-0.516,0.517
	c-0.283,0-0.515-0.23-0.515-0.517S15.58,15.625,15.863,15.625z M15.493,14.659c0-0.285,0.23-0.517,0.516-0.517
	c0.284,0,0.515,0.23,0.515,0.517c0,0.283-0.229,0.516-0.515,0.516C15.724,15.173,15.493,14.941,15.493,14.659z M16.523,17.673
	c0,0.285-0.23,0.516-0.518,0.516c-0.284,0-0.515-0.229-0.515-0.516c0-0.284,0.23-0.516,0.515-0.516
	C16.293,17.159,16.523,17.389,16.523,17.673z M17.436,14.954c0.283,0,0.517,0.229,0.517,0.514s-0.229,0.516-0.517,0.516
	c-0.285,0-0.516-0.229-0.516-0.516C16.92,15.182,17.15,14.954,17.436,14.954z M17.074,12.753c0-0.284,0.229-0.515,0.515-0.515
	c0.283,0,0.515,0.229,0.515,0.515s-0.229,0.516-0.515,0.516C17.305,13.269,17.074,13.039,17.074,12.753z M17.363,16.372
	c0.285,0,0.517,0.229,0.517,0.514s-0.231,0.516-0.517,0.516c-0.284,0-0.514-0.229-0.514-0.516
	C16.85,16.6,17.08,16.372,17.363,16.372z M17.365,17.81c0.283,0,0.515,0.23,0.515,0.517c0,0.283-0.231,0.516-0.515,0.516
	c-0.285,0-0.516-0.229-0.516-0.516S17.08,17.81,17.365,17.81z M18.855,13.026c0.285,0,0.515,0.231,0.515,0.516
	c0,0.285-0.229,0.516-0.515,0.516c-0.287,0-0.518-0.229-0.518-0.516C18.34,13.258,18.57,13.026,18.855,13.026z M18.34,12.132
	c0-0.283,0.23-0.514,0.516-0.514c0.287,0,0.516,0.229,0.516,0.514c0,0.285-0.229,0.516-0.516,0.516
	C18.57,12.647,18.34,12.417,18.34,12.132z M18.736,15.75c0.283,0,0.514,0.229,0.514,0.515c0,0.284-0.23,0.518-0.514,0.518
	c-0.285,0-0.516-0.23-0.516-0.518C18.221,15.979,18.451,15.75,18.736,15.75z M18.734,17.159c0.283,0,0.516,0.229,0.516,0.514
	c0,0.287-0.23,0.518-0.516,0.518c-0.284,0-0.517-0.229-0.517-0.518C18.221,17.389,18.45,17.159,18.734,17.159z M20.227,13.269
	c-0.285,0-0.516-0.229-0.516-0.516c0-0.284,0.23-0.515,0.516-0.515c0.287,0,0.517,0.229,0.517,0.515
	C20.741,13.039,20.51,13.269,20.227,13.269z M20.741,14.193c0,0.285-0.231,0.517-0.517,0.517c-0.283,0-0.516-0.229-0.516-0.517
	c0-0.282,0.229-0.516,0.516-0.516C20.51,13.678,20.741,13.911,20.741,14.193z M20.154,11.851c-0.283,0-0.516-0.229-0.516-0.516
	c0-0.284,0.23-0.516,0.516-0.516s0.516,0.23,0.516,0.516S20.439,11.851,20.154,11.851z M20.002,16.372
	c0.285,0,0.516,0.229,0.516,0.514s-0.229,0.516-0.516,0.516c-0.284,0-0.516-0.229-0.516-0.516
	C19.486,16.601,19.718,16.372,20.002,16.372z M20.939,11.863c0-0.284,0.23-0.517,0.516-0.517s0.516,0.231,0.516,0.517
	c0,0.284-0.229,0.515-0.516,0.515C21.172,12.377,20.939,12.146,20.939,11.863z M21.6,12.881c0.284,0,0.517,0.229,0.517,0.515
	s-0.229,0.517-0.517,0.517c-0.285,0-0.516-0.231-0.516-0.517S21.314,12.881,21.6,12.881z M21.602,10.895
	c-0.285,0-0.518-0.229-0.518-0.515s0.23-0.516,0.518-0.516c0.282,0,0.515,0.23,0.515,0.516
	C22.115,10.666,21.884,10.895,21.602,10.895z M10.715,10.605c0,0.285-0.23,0.517-0.514,0.517c-0.285,0-0.517-0.23-0.517-0.517
	c0-0.283,0.231-0.515,0.517-0.515C10.484,10.091,10.715,10.322,10.715,10.605z M7.97,12.358c0,0.285-0.229,0.517-0.515,0.517
	c-0.284,0-0.515-0.23-0.515-0.517c0-0.282,0.23-0.515,0.515-0.515C7.74,11.844,7.97,12.076,7.97,12.358z M6.189,13.496
	c-0.285,0-0.516-0.231-0.516-0.518c0-0.283,0.23-0.514,0.516-0.514c0.283,0,0.514,0.229,0.514,0.514
	C6.703,13.264,6.473,13.496,6.189,13.496z M7.456,14.284c-0.284,0-0.516-0.23-0.516-0.518c0-0.283,0.231-0.514,0.516-0.514
	s0.515,0.229,0.515,0.514C7.971,14.053,7.741,14.284,7.456,14.284z M8.756,11.047c0.285,0,0.515,0.229,0.515,0.515
	s-0.23,0.515-0.515,0.515c-0.284,0-0.516-0.23-0.516-0.516S8.472,11.047,8.756,11.047z M8.825,14.935
	c-0.283,0-0.514-0.229-0.514-0.516c0-0.283,0.23-0.515,0.514-0.515c0.285,0,0.517,0.229,0.517,0.515
	C9.342,14.706,9.11,14.935,8.825,14.935z M8.826,13.496c-0.284,0-0.515-0.231-0.515-0.517s0.23-0.515,0.515-0.515
	c0.285,0,0.516,0.229,0.516,0.515S9.11,13.496,8.826,13.496z M10.056,11.574c0.285,0,0.515,0.229,0.515,0.516
	c0,0.284-0.229,0.515-0.515,0.515c-0.283,0-0.516-0.229-0.516-0.515S9.772,11.574,10.056,11.574z M10.2,13.106
	c0.284,0,0.515,0.231,0.515,0.517s-0.231,0.515-0.515,0.515c-0.284,0-0.516-0.229-0.516-0.515S9.916,13.106,10.2,13.106z
	 M9.817,15.303c0-0.284,0.23-0.515,0.515-0.515s0.516,0.229,0.516,0.515c0,0.284-0.23,0.516-0.516,0.516
	C10.048,15.818,9.817,15.587,9.817,15.303z M21.732,15.591c-0.285,0-0.518-0.229-0.518-0.516c0-0.283,0.229-0.516,0.518-0.516
	c0.283,0,0.515,0.231,0.515,0.516C22.247,15.361,22.018,15.591,21.732,15.591z M22.956,14.561c-0.285,0-0.517-0.229-0.517-0.515
	c0-0.283,0.229-0.515,0.517-0.515c0.284,0,0.515,0.23,0.515,0.515C23.471,14.333,23.24,14.561,22.956,14.561z M22.955,13.123
	c-0.284,0-0.516-0.23-0.516-0.516c0-0.284,0.229-0.516,0.516-0.516s0.516,0.231,0.516,0.516
	C23.471,12.892,23.24,13.123,22.955,13.123z M23.025,11.705c-0.284,0-0.514-0.23-0.514-0.516c0-0.284,0.229-0.516,0.514-0.516
	c0.283,0,0.516,0.231,0.516,0.516C23.541,11.474,23.311,11.705,23.025,11.705z M24.326,13.912c-0.285,0-0.516-0.231-0.516-0.518
	c0-0.283,0.229-0.514,0.516-0.514c0.283,0,0.516,0.229,0.516,0.514C24.842,13.68,24.609,13.912,24.326,13.912z M24.327,12.502
	c-0.285,0-0.515-0.231-0.515-0.518c0-0.282,0.229-0.514,0.515-0.514c0.282,0,0.515,0.23,0.515,0.514
	C24.842,12.27,24.609,12.502,24.327,12.502z M25.593,13.123c-0.282,0-0.515-0.23-0.515-0.517c0-0.282,0.23-0.515,0.515-0.515
	c0.285,0,0.515,0.231,0.515,0.515C26.107,12.892,25.878,13.123,25.593,13.123z"/>
</svg>
