<?xml version="1.0" encoding="iso-8859-1"?>
<!-- Generator: Adobe Illustrator 16.0.0, SVG Export Plug-In . SVG Version: 6.00 Build 0)  -->
<!DOCTYPE svg PUBLIC "-//W3C//DTD SVG 1.1//EN" "http://www.w3.org/Graphics/SVG/1.1/DTD/svg11.dtd">
<svg version="1.1" id="Layer_1" xmlns="http://www.w3.org/2000/svg" xmlns:xlink="http://www.w3.org/1999/xlink" x="0px" y="0px"
	 width="7.933px" height="27.612px" viewBox="0 0 7.933 27.612" style="enable-background:new 0 0 7.933 27.612;"
	 xml:space="preserve">
<path d="M7.763,27.502c-1.229-0.235-3.226-0.768-3.226-1.85c0,0-0.01,0-0.011,0c0-0.002,0-6.763,0-7.24s0.203-1.653,0.298-2.258
	s2.958-2.64,2.958-6.265S7.051,0,6.668,0C6.479,0,5.223,0.128,3.966,0.128C2.711,0.128,1.454,0,1.264,0
	C0.882,0,0.151,6.265,0.151,9.89s2.862,5.66,2.957,6.265s0.298,1.78,0.298,2.258s0,7.24,0,7.24c0,1.082-2.008,1.614-3.236,1.85
	c-0.264,0.056-0.187,0.11,0.001,0.11c0.177,0,3.385,0,3.776,0c0.021,0,0.039,0,0.039,0c0.391,0,3.599,0,3.775,0
	C7.949,27.612,8.027,27.558,7.763,27.502z M1.831,12.45c-0.221-0.521-0.457-1.15-0.58-1.862c-0.056-0.372-0.1-0.727-0.087-1.108
	c0.009-0.369,0.019-0.745,0.028-1.12c0.049-1.502,0.213-2.986,0.356-4.1c0.144-1.113,0.289-1.85,0.289-1.85s0.015,0.751-0.008,1.871
	c-0.016,0.56-0.034,1.212-0.053,1.911C1.754,6.891,1.701,7.635,1.692,8.376c-0.015,0.37-0.031,0.741-0.045,1.105
	c-0.016,0.354,0.001,0.723,0.039,1.043c0.085,0.673,0.232,1.301,0.408,1.825c0.342,1.054,0.681,1.728,0.681,1.728
	S2.298,13.488,1.831,12.45z"/>
<g>
</g>
<g>
</g>
<g>
</g>
<g>
</g>
<g>
</g>
<g>
</g>
<g>
</g>
<g>
</g>
<g>
</g>
<g>
</g>
<g>
</g>
<g>
</g>
<g>
</g>
<g>
</g>
<g>
</g>
</svg>
