<?xml version="1.0" encoding="iso-8859-1"?>
<!-- Generator: Adobe Illustrator 16.0.0, SVG Export Plug-In . SVG Version: 6.00 Build 0)  -->
<!DOCTYPE svg PUBLIC "-//W3C//DTD SVG 1.1//EN" "http://www.w3.org/Graphics/SVG/1.1/DTD/svg11.dtd">
<svg version="1.1" id="Layer_1" xmlns="http://www.w3.org/2000/svg" xmlns:xlink="http://www.w3.org/1999/xlink" x="0px" y="0px"
	 width="32px" height="27.254px" viewBox="0 0 32 27.254" style="enable-background:new 0 0 32 27.254;" xml:space="preserve">
<g>
	<rect x="13.502" y="20.146" width="1.887" height="0.666"/>
	<rect x="16.315" y="20.146" width="1.887" height="0.666"/>
	<path d="M27.969,6.382c-0.664,0.234-1.549,1.108-2,1.588V5.496c0,0-3.997,1.702-10.029,1.702c-6.032,0-10.028-1.702-10.028-1.702
		v2.349C5.436,7.352,4.641,6.598,4.031,6.382C3.103,6.053,0,6.382,0,6.382v1.255c0,0,3.048-0.107,3.704,0.275
		c0.656,0.38,1.365,3.604,1.91,3.604c0.079,0,0.182,0,0.298,0v11.558c0,0,1.639,0.316,3.8,0.605l-2.208,2.059l1.517,1.185
		l4.613-2.844c0.674,0.043,1.34,0.068,1.973,0.068c0.814,0,1.708-0.042,2.619-0.109l4.671,3.217l1.303-1.405l-1.536-2.281
		c1.909-0.253,3.304-0.494,3.304-0.494V11.516c0.167,0,0.312,0,0.417,0c0.545,0,1.254-3.224,1.91-3.604
		C28.952,7.529,32,7.637,32,7.637V6.382C32,6.382,28.897,6.053,27.969,6.382z M12.61,19.705h6.401v2.332H12.61V19.705z"/>
	<path d="M15.852,6.402c5.396,0,9.769-1.171,9.769-2.479c0-1.082-2.992-1.689-7.077-1.868C18.319,0.885,17.291,0,16.056,0
		c-1.23,0-2.255,0.877-2.486,2.039C9.276,2.193,6.083,2.806,6.083,3.924C6.083,5.231,10.457,6.402,15.852,6.402z"/>
</g>
<g>
</g>
<g>
</g>
<g>
</g>
<g>
</g>
<g>
</g>
<g>
</g>
<g>
</g>
<g>
</g>
<g>
</g>
<g>
</g>
<g>
</g>
<g>
</g>
<g>
</g>
<g>
</g>
<g>
</g>
</svg>
