<?xml version="1.0" encoding="iso-8859-1"?>
<!-- Generator: Adobe Illustrator 16.0.0, SVG Export Plug-In . SVG Version: 6.00 Build 0)  -->
<!DOCTYPE svg PUBLIC "-//W3C//DTD SVG 1.1//EN" "http://www.w3.org/Graphics/SVG/1.1/DTD/svg11.dtd">
<svg version="1.1" id="Layer_1" xmlns="http://www.w3.org/2000/svg" xmlns:xlink="http://www.w3.org/1999/xlink" x="0px" y="0px"
	 width="10.773px" height="22.263px" viewBox="0 0 10.773 22.263" style="enable-background:new 0 0 10.773 22.263;"
	 xml:space="preserve">
<path d="M10.365,21.996c-1.371-0.572-4.187-2.699-4.245-4.4c-0.015-0.439-0.032-1.447-0.032-2.154c0-1.107,2.402-0.969,2.402-2.769
	c0-1.802,0-8.725,0-9.671C8.49,2.055,11.63,0,10.546,0c-0.438,0-2.785,0.154-5.14,0.154c-0.006,0-0.013,0-0.02,0s-0.013,0-0.02,0
	C3.013,0.154,0.666,0,0.228,0c-1.084,0,2.056,2.055,2.056,3.002c0,0.946,0,7.869,0,9.671c0,1.8,2.402,1.661,2.402,2.769
	c0,0.707-0.018,1.715-0.032,2.154c-0.059,1.701-2.874,3.828-4.245,4.4c-0.298,0.133-0.21,0.267,0,0.267c0.199,0,4.514,0,4.979,0
	s4.78,0,4.979,0C10.575,22.263,10.663,22.129,10.365,21.996z M3.919,13.425c-0.148-0.122-0.325-0.287-0.471-0.531
	c-0.154-0.226-0.248-0.615-0.245-0.91c-0.097-1.281-0.159-2.989-0.159-4.697C3.05,6.432,3.06,5.578,3.092,4.777
	c0.019-0.4,0.037-0.787,0.054-1.154C3.154,3.27,3.21,2.878,3.191,2.624C3.137,2.058,2.804,1.605,2.567,1.336
	c-0.241-0.28-0.41-0.418-0.41-0.418s0.2,0.085,0.505,0.316c0.15,0.118,0.327,0.272,0.502,0.483c0.171,0.211,0.354,0.483,0.432,0.839
	C3.664,2.938,3.666,3.244,3.69,3.623C3.708,3.99,3.726,4.377,3.744,4.777c0.032,0.801,0.042,1.654,0.048,2.509
	c0,1.708-0.062,3.416-0.159,4.697c-0.036,0.345-0.02,0.549,0.064,0.789c0.08,0.227,0.208,0.409,0.323,0.549
	c0.234,0.281,0.413,0.409,0.413,0.409S4.225,13.663,3.919,13.425z"/>
<g>
</g>
<g>
</g>
<g>
</g>
<g>
</g>
<g>
</g>
<g>
</g>
<g>
</g>
<g>
</g>
<g>
</g>
<g>
</g>
<g>
</g>
<g>
</g>
<g>
</g>
<g>
</g>
<g>
</g>
</svg>
