<?xml version="1.0" encoding="iso-8859-1"?>
<!-- Generator: Adobe Illustrator 16.0.0, SVG Export Plug-In . SVG Version: 6.00 Build 0)  -->
<!DOCTYPE svg PUBLIC "-//W3C//DTD SVG 1.1//EN" "http://www.w3.org/Graphics/SVG/1.1/DTD/svg11.dtd">
<svg version="1.1" id="Layer_1" xmlns="http://www.w3.org/2000/svg" xmlns:xlink="http://www.w3.org/1999/xlink" x="0px" y="0px"
	 width="19.116px" height="32px" viewBox="0 0 19.116 32" style="enable-background:new 0 0 19.116 32;" xml:space="preserve">
<path d="M11.37,15.285c-0.9-0.091-1.78,0.479-2.42,1.047c0-1.464,0-2.523,0-2.523H7.866l4.454-9.662L19.116,1.3L18.571,0
	L11.27,3.059l-4.955,10.75H4.653H3.154c0.025-0.334,0.069-0.651,0.125-0.919C3.21,12.438,1.671,2.417,1.671,2.417H1.67
	c0-0.005,0-0.011-0.001-0.016C1.604,1.978,1.207,1.687,0.783,1.752C0.762,1.755,0.68,1.768,0.659,1.771
	c-0.425,0.064-0.715,0.461-0.65,0.884c0.002,0.006,0.003,0.011,0.005,0.016L0.012,2.672c0,0,1.538,10.021,1.607,10.473
	c0.107,0.192,0.217,0.421,0.32,0.664H0.357c0,0,0,7.199,0,10.001c0,2.803,2.148,8.19,2.148,8.19h2.147h2.148
	c0,0,2.053-5.15,2.144-7.999c0.66-0.448,5.738-4.039,4.208-7.247C12.62,15.636,11.889,15.338,11.37,15.285z M8.95,22.506
	c0-1.289,0-2.915,0-4.413c0.426-0.562,1.538-1.678,2.298-1.605c0.307,0.031,0.58,0.296,0.814,0.786
	C12.876,18.978,10.527,21.286,8.95,22.506z"/>
<g>
</g>
<g>
</g>
<g>
</g>
<g>
</g>
<g>
</g>
<g>
</g>
<g>
</g>
<g>
</g>
<g>
</g>
<g>
</g>
<g>
</g>
<g>
</g>
<g>
</g>
<g>
</g>
<g>
</g>
</svg>
