<?xml version="1.0" encoding="iso-8859-1"?>
<!-- Generator: Adobe Illustrator 16.0.0, SVG Export Plug-In . SVG Version: 6.00 Build 0)  -->
<!DOCTYPE svg PUBLIC "-//W3C//DTD SVG 1.1//EN" "http://www.w3.org/Graphics/SVG/1.1/DTD/svg11.dtd">
<svg version="1.1" id="Layer_1" xmlns="http://www.w3.org/2000/svg" xmlns:xlink="http://www.w3.org/1999/xlink" x="0px" y="0px"
	 width="32px" height="29.184px" viewBox="0 0 32 29.184" style="enable-background:new 0 0 32 29.184;" xml:space="preserve">
<g>
	<path d="M26.351,8.688c0-0.072,0-0.182,0-0.319c0.741-0.007,1.568-1.01,2.063-1.894c1.448-0.198,3.569-1.942,3.586-3.916
		c0.006-0.746-0.304-1.13-0.565-1.324c-0.517-0.382-1.222-0.307-1.746-0.181C29.703,0.646,29.7,0.283,29.686,0
		c-1.865,0-5.51,0-6.113,0c0,0-0.039,0-0.094,0c-0.527,0-3.312,0-5.15,0c-0.104,1.921,0.635,8.129,3.441,8.369
		c0,0.138,0,0.247,0,0.319h-5.425v1.034H32V8.688H26.351z M29.608,2.188c0.612-0.185,1.019-0.222,1.192-0.092
		c0.11,0.081,0.133,0.291,0.129,0.452c-0.008,1.097-1.047,2.138-1.937,2.611C29.323,4.184,29.512,3.13,29.608,2.188z M20.388,5.884
		c-0.611-1.408-1.052-5.231-1.052-5.231s1.238,3.435,1.521,4.387c0.282,0.951,1.516,2.302,1.516,2.302S20.998,7.294,20.388,5.884z"
		/>
	<path d="M25.857,14.086c-2.569,0.783-3.78,4.762-3.78,4.762s-1.156-2.968-6.727-3.492l-0.23-1.031
		c0.63-0.344,1.063-1.004,1.063-1.773c0-1.118-0.906-2.025-2.025-2.025c-1.118,0-2.025,0.907-2.025,2.025
		c0,0.753,0.415,1.401,1.024,1.752l-0.248,0.987C9.74,15.404,7.863,16.3,6.72,17.356c-1.709-1.057-3.846-1.891-5.09-0.558
		c-1.644,1.757-2.314,5.73-0.726,7.689c0.681,0.84,1.671,1.092,2.619,1.092c0.636,0,1.251-0.114,1.745-0.241
		c0.547,1.571,1.584,2.946,3.403,3.18v0.665h11.4V28.52c2.811-0.867,3.477-4.971,4.22-7.165c0.751-2.223,1.347-5.765,5.262-4.763
		c0-1.252,0-2.13,0-2.13S28.425,13.304,25.857,14.086z M4.903,20.476c-0.184,0.601-0.256,1.967-0.006,3.407
		c-0.935,0.244-2.237,0.382-2.825-0.341c-1.052-1.298-0.515-4.464,0.655-5.717c0.092-0.098,0.263-0.227,0.693-0.197
		c0.66,0.043,1.5,0.423,2.318,0.909C5.276,19.274,5.054,19.984,4.903,20.476z M9.768,27.579c-0.09-0.005-0.239-0.023-0.398-0.102
		c-0.328-0.142-0.752-0.46-1.119-0.937c-0.377-0.471-0.726-1.087-0.979-1.787c-0.129-0.351-0.243-0.717-0.319-1.106
		c-0.076-0.425-0.143-0.73-0.166-1.182c-0.042-0.844,0.128-1.661,0.396-2.364c0.271-0.703,0.627-1.303,0.99-1.77
		c0.359-0.469,0.723-0.807,1.007-1.007c0.282-0.212,0.507-0.229,0.499-0.212c-0.012-0.015-0.167,0.09-0.333,0.372
		c-0.172,0.273-0.383,0.686-0.596,1.188c-0.42,0.999-0.854,2.397-0.773,3.724c0.028,0.3,0.069,0.737,0.122,1.041
		c0.063,0.338,0.122,0.68,0.198,1.002c0.159,0.646,0.349,1.239,0.556,1.733c0.213,0.489,0.444,0.871,0.657,1.101
		c0.209,0.234,0.399,0.306,0.399,0.306S9.86,27.58,9.768,27.579z"/>
</g>
<g>
</g>
<g>
</g>
<g>
</g>
<g>
</g>
<g>
</g>
<g>
</g>
<g>
</g>
<g>
</g>
<g>
</g>
<g>
</g>
<g>
</g>
<g>
</g>
<g>
</g>
<g>
</g>
<g>
</g>
</svg>
