<?xml version="1.0" encoding="iso-8859-1"?>
<!-- Generator: Adobe Illustrator 16.0.0, SVG Export Plug-In . SVG Version: 6.00 Build 0)  -->
<!DOCTYPE svg PUBLIC "-//W3C//DTD SVG 1.1//EN" "http://www.w3.org/Graphics/SVG/1.1/DTD/svg11.dtd">
<svg version="1.1" id="Layer_1" xmlns="http://www.w3.org/2000/svg" xmlns:xlink="http://www.w3.org/1999/xlink" x="0px" y="0px"
	 width="32px" height="20.203px" viewBox="0 0 32 20.203" style="enable-background:new 0 0 32 20.203;" xml:space="preserve">
<path d="M27.998,3.855c-2.781,0.848-4.093,5.155-4.093,5.155s-1.252-3.214-7.284-3.78l-0.249-1.117
	c0.683-0.372,1.151-1.087,1.151-1.92C17.523,0.982,16.542,0,15.33,0c-1.211,0-2.192,0.982-2.192,2.193
	c0,0.814,0.449,1.518,1.108,1.896l-0.269,1.069c-3.431,0.125-5.463,1.094-6.702,2.238C5.426,6.253,3.112,5.35,1.764,6.793
	c-1.779,1.902-2.505,6.205-0.784,8.326c0.737,0.908,1.809,1.183,2.835,1.183c0.688,0,1.355-0.124,1.89-0.263
	c0.593,1.703,1.716,3.19,3.686,3.443v0.721h12.345v-0.72c3.044-0.938,3.765-5.383,4.568-7.759C27.116,9.318,27.761,5.483,32,6.568
	c0-1.356,0-2.306,0-2.306S30.778,3.008,27.998,3.855z M5.309,10.773c-0.198,0.65-0.276,2.13-0.006,3.69
	c-1.012,0.264-2.423,0.413-3.059-0.37c-1.14-1.404-0.559-4.834,0.709-6.189c0.1-0.106,0.284-0.246,0.751-0.214
	c0.715,0.047,1.624,0.458,2.51,0.984C5.713,9.474,5.472,10.242,5.309,10.773z M10.576,18.466c-0.098-0.006-0.259-0.025-0.431-0.11
	c-0.356-0.152-0.814-0.498-1.213-1.014c-0.408-0.51-0.786-1.177-1.061-1.936c-0.139-0.38-0.264-0.776-0.345-1.197
	c-0.084-0.46-0.155-0.791-0.181-1.28c-0.046-0.913,0.138-1.798,0.43-2.56s0.679-1.411,1.071-1.916
	c0.39-0.508,0.783-0.874,1.091-1.091c0.306-0.229,0.548-0.247,0.54-0.229c-0.013-0.016-0.181,0.098-0.36,0.403
	C9.932,7.832,9.704,8.278,9.474,8.822c-0.455,1.082-0.924,2.597-0.838,4.033c0.03,0.323,0.075,0.798,0.133,1.126
	c0.067,0.366,0.132,0.736,0.214,1.086c0.173,0.699,0.378,1.342,0.603,1.876c0.23,0.53,0.48,0.943,0.711,1.192
	c0.226,0.254,0.433,0.331,0.433,0.331S10.676,18.467,10.576,18.466z"/>
<g>
</g>
<g>
</g>
<g>
</g>
<g>
</g>
<g>
</g>
<g>
</g>
<g>
</g>
<g>
</g>
<g>
</g>
<g>
</g>
<g>
</g>
<g>
</g>
<g>
</g>
<g>
</g>
<g>
</g>
</svg>
