<?xml version="1.0" encoding="iso-8859-1"?>
<!-- Generator: Adobe Illustrator 16.0.0, SVG Export Plug-In . SVG Version: 6.00 Build 0)  -->
<!DOCTYPE svg PUBLIC "-//W3C//DTD SVG 1.1//EN" "http://www.w3.org/Graphics/SVG/1.1/DTD/svg11.dtd">
<svg version="1.1" id="Layer_1" xmlns="http://www.w3.org/2000/svg" xmlns:xlink="http://www.w3.org/1999/xlink" x="0px" y="0px"
	 width="32px" height="32px" viewBox="0 0 32 32" style="enable-background:new 0 0 32 32;" xml:space="preserve">
<path d="M31.103,0.897C29.705-0.5,27.175-0.236,25.45,1.488c-1.583,1.583-1.931,3.844-0.896,5.285
	C20.529,11.209,6.585,24.903,5.647,24.8c-0.456,0.457-5.311,5.312-5.311,5.312l0.002,0.002c-0.006,0.005-0.012,0.008-0.017,0.013
	c-0.429,0.429-0.429,1.125-0.001,1.553c0.429,0.429,1.124,0.429,1.553,0c0.006-0.006,0.009-0.012,0.014-0.017l0.002,0.001
	c0,0,4.767-4.767,5.295-5.296C7.398,25.188,20.83,11.441,25.326,7.513c1.445,0.951,3.639,0.584,5.186-0.964
	C32.235,4.825,32.5,2.295,31.103,0.897z M26.756,1.79c-0.113,0.083-0.249,0.236-0.409,0.415c-0.161,0.178-0.332,0.404-0.501,0.648
	c-0.086,0.12-0.168,0.251-0.243,0.382c-0.072,0.123-0.144,0.276-0.187,0.407c-0.183,0.582-0.255,1.236-0.306,1.716
	c-0.015,0.242-0.042,0.445-0.038,0.587c-0.006,0.14,0.033,0.222,0.01,0.224c-0.025,0.003-0.05-0.067-0.089-0.213
	c-0.034-0.142-0.091-0.348-0.109-0.597c-0.044-0.499-0.057-1.173,0.163-1.845c0.066-0.176,0.139-0.319,0.232-0.472
	c0.096-0.146,0.194-0.276,0.295-0.397c0.209-0.242,0.43-0.438,0.625-0.598c0.195-0.159,0.382-0.262,0.519-0.323
	c0.14-0.066,0.188-0.104,0.211-0.077C26.95,1.676,26.862,1.694,26.756,1.79z"/>
<g>
</g>
<g>
</g>
<g>
</g>
<g>
</g>
<g>
</g>
<g>
</g>
<g>
</g>
<g>
</g>
<g>
</g>
<g>
</g>
<g>
</g>
<g>
</g>
<g>
</g>
<g>
</g>
<g>
</g>
</svg>
