<?xml version="1.0" encoding="iso-8859-1"?>
<!-- Generator: Adobe Illustrator 16.0.0, SVG Export Plug-In . SVG Version: 6.00 Build 0)  -->
<!DOCTYPE svg PUBLIC "-//W3C//DTD SVG 1.1//EN" "http://www.w3.org/Graphics/SVG/1.1/DTD/svg11.dtd">
<svg version="1.1" id="Layer_1" xmlns="http://www.w3.org/2000/svg" xmlns:xlink="http://www.w3.org/1999/xlink" x="0px" y="0px"
	 width="22.35px" height="28.268px" viewBox="0 0 22.35 28.268" style="enable-background:new 0 0 22.35 28.268;"
	 xml:space="preserve">
<g>
	<path d="M9.225,0H4.718H4.507H0l4.25,21.933h0.002c0,1.484,0,5.068,0,5.068c0,0.7-1.298,1.044-2.091,1.195
		c-0.17,0.037-0.121,0.071,0,0.071c0.114,0,2.188,0,2.441,0c0.013,0,0.025,0,0.025,0c0.252,0,2.326,0,2.44,0
		c0.121,0,0.171-0.034,0.001-0.071c-0.794-0.151-2.085-0.495-2.085-1.195c0,0-0.006,0-0.007,0c0,0,0-3.585,0-5.068L9.225,0z
		 M4.613,16.409c0,0-0.085-0.229-0.21-0.632c-0.115-0.405-0.308-0.979-0.487-1.676c-0.374-1.393-0.786-3.265-1.121-5.149
		C2.467,7.065,2.218,5.165,2.094,3.729C2.025,3.011,2.01,2.406,1.98,1.986C1.959,1.564,1.961,1.321,1.961,1.321
		S2.046,1.55,2.171,1.953c0.114,0.405,0.307,0.979,0.486,1.676C3.03,5.021,3.444,6.894,3.779,8.778
		c0.328,1.887,0.579,3.787,0.702,5.224c0.069,0.717,0.083,1.322,0.113,1.742C4.615,16.166,4.613,16.409,4.613,16.409z"/>
	<path d="M20.192,28.196c-0.794-0.151-2.085-0.495-2.085-1.195c0,0-0.006,0-0.007,0c0,0,0-3.585,0-5.068L22.35,0h-4.507h-0.211
		h-4.507l4.25,21.933h0.002c0,1.484,0,5.068,0,5.068c0,0.7-1.298,1.044-2.091,1.195c-0.17,0.037-0.121,0.071,0,0.071
		c0.114,0,2.188,0,2.441,0c0.013,0,0.025,0,0.025,0c0.252,0,2.326,0,2.44,0C20.313,28.268,20.363,28.233,20.192,28.196z
		 M17.738,16.409c0,0-0.085-0.229-0.21-0.632c-0.115-0.405-0.308-0.979-0.487-1.676c-0.374-1.393-0.786-3.265-1.121-5.149
		c-0.328-1.887-0.577-3.787-0.701-5.224c-0.069-0.718-0.084-1.322-0.114-1.742c-0.021-0.422-0.019-0.665-0.019-0.665
		s0.084,0.229,0.209,0.632c0.114,0.405,0.307,0.979,0.486,1.676c0.373,1.393,0.787,3.265,1.122,5.149
		c0.328,1.887,0.579,3.787,0.702,5.224c0.069,0.717,0.083,1.322,0.113,1.742C17.74,16.166,17.738,16.409,17.738,16.409z"/>
</g>
<g>
</g>
<g>
</g>
<g>
</g>
<g>
</g>
<g>
</g>
<g>
</g>
<g>
</g>
<g>
</g>
<g>
</g>
<g>
</g>
<g>
</g>
<g>
</g>
<g>
</g>
<g>
</g>
<g>
</g>
</svg>
