<?xml version="1.0" encoding="iso-8859-1"?>
<!-- Generator: Adobe Illustrator 16.0.0, SVG Export Plug-In . SVG Version: 6.00 Build 0)  -->
<!DOCTYPE svg PUBLIC "-//W3C//DTD SVG 1.1//EN" "http://www.w3.org/Graphics/SVG/1.1/DTD/svg11.dtd">
<svg version="1.1" id="Layer_1" xmlns="http://www.w3.org/2000/svg" xmlns:xlink="http://www.w3.org/1999/xlink" x="0px" y="0px"
	 width="20.79px" height="32px" viewBox="0 0 20.79 32" style="enable-background:new 0 0 20.79 32;" xml:space="preserve">
<g>
	<path d="M12.658,10.557c0-0.001,0-0.001,0-0.001c-0.009,0-0.046,0-0.056,0c0,0,0,0,0,0.001c-2.164,0.035-3.385,1.545-3.385,3.798
		c0,2.271,1.366,3.892,2.557,4.251c0.651,0.915,0.222,3.076-0.239,4.321c0,0.596,0,8.041,0,8.041h0.002
		c-0.001,0.006-0.002,0.014-0.002,0.021c0,0.558,0.453,1.012,1.012,1.012c0.028,0,0.136,0,0.164,0c0.559,0,1.013-0.454,1.013-1.012
		c0-0.006-0.001-0.014-0.002-0.02h0.002c0,0,0-7.444,0-8.041c-0.461-1.246-0.89-3.406-0.239-4.32
		c1.191-0.36,2.557-1.981,2.557-4.252C16.043,12.102,14.823,10.592,12.658,10.557z M11.644,17.532
		c-0.106-0.082-0.251-0.206-0.41-0.367c-0.157-0.164-0.325-0.367-0.49-0.596c-0.159-0.236-0.325-0.482-0.449-0.79
		c-0.052-0.146-0.111-0.319-0.126-0.471c-0.02-0.156-0.044-0.307-0.036-0.451c-0.005-0.29,0.03-0.554,0.076-0.778
		c0.043-0.223,0.116-0.406,0.165-0.534c0.05-0.124,0.103-0.184,0.099-0.185c0,0,0.008,0.076,0.021,0.21
		c0.018,0.126,0.042,0.307,0.071,0.524c0.028,0.211,0.06,0.459,0.094,0.725c0.029,0.265,0.086,0.518,0.157,0.765
		c0.191,0.493,0.475,1.02,0.66,1.41c0.184,0.398,0.338,0.651,0.358,0.631C11.836,17.632,11.752,17.614,11.644,17.532z"/>
	<path d="M20.79,21.056c0.001-0.955-0.688-2.546-2.129-2.569v-0.001c-0.006,0-0.031,0-0.037,0v0
		c-1.44,0.023-2.042,1.761-2.042,2.585c0,1.512,0.698,2.533,1.492,2.772c0.432,0.609,0.317,2.047,0.011,2.876
		c0,0.396,0,4.592,0,4.592h0.002c0,0.004-0.001,0.008-0.001,0.013c0,0.372,0.131,0.674,0.502,0.673c0.019,0,0.091,0,0.109,0
		c0.373,0,0.586-0.302,0.586-0.673c0-0.004,0-0.009-0.002-0.014l0.002,0c0,0,0-4.196,0-4.593c-0.307-0.829-0.504-2.267-0.071-2.875
		C20.003,23.605,20.79,22.568,20.79,21.056z M17.271,22.151c-0.06-0.173-0.058-0.345-0.067-0.504
		c-0.008-0.158,0.019-0.306,0.035-0.43c0.04-0.251,0.118-0.403,0.118-0.403s-0.006,0.167,0.014,0.411
		c0.02,0.241,0.03,0.572,0.113,0.86c0.083,0.287,0.27,0.566,0.394,0.771c0.124,0.211,0.235,0.335,0.246,0.32
		C18.11,23.216,17.51,22.831,17.271,22.151z"/>
	<path d="M9.218,5.891c0-3.042-1.649-5.841-4.572-5.888c0,0,0-0.002,0-0.002C4.633,0,4.584,0,4.571,0c0,0,0,0.001,0,0.002
		C1.648,0.05,0,2.849,0,5.891c0,3.067,1.845,5.256,3.453,5.743c0.879,1.235,0.3,4.153-0.323,5.835c0,0.804,0,13.137,0,13.137h0.003
		c-0.001,0.009-0.003,0.018-0.003,0.028C3.13,31.388,3.742,32,4.498,32c0.038,0,0.184,0,0.222,0c0.755,0,1.368-0.612,1.368-1.367
		c0-0.01-0.002-0.019-0.003-0.028h0.003c0,0,0-12.332,0-13.137c-0.623-1.682-1.203-4.601-0.323-5.835
		C7.373,11.147,9.218,8.958,9.218,5.891z M3,9.893c-0.17-0.132-0.388-0.344-0.619-0.622C2.149,8.994,1.907,8.649,1.681,8.253
		c-0.109-0.2-0.215-0.412-0.312-0.637c-0.092-0.234-0.17-0.46-0.22-0.729C1.053,6.375,1.07,5.883,1.124,5.43
		C1.173,4.979,1.27,4.567,1.377,4.222C1.481,3.877,1.602,3.599,1.7,3.409c0.098-0.193,0.177-0.284,0.177-0.284
		S1.86,3.249,1.853,3.451C1.845,3.656,1.836,3.947,1.824,4.297C1.815,4.985,1.76,5.922,1.888,6.753
		C1.913,6.947,1.98,7.168,2.047,7.366c0.064,0.207,0.139,0.411,0.22,0.606c0.155,0.395,0.321,0.761,0.464,1.076
		c0.146,0.313,0.275,0.575,0.375,0.751c0.096,0.181,0.184,0.258,0.19,0.251C3.299,10.059,3.168,10.03,3,9.893z"/>
</g>
<g>
</g>
<g>
</g>
<g>
</g>
<g>
</g>
<g>
</g>
<g>
</g>
<g>
</g>
<g>
</g>
<g>
</g>
<g>
</g>
<g>
</g>
<g>
</g>
<g>
</g>
<g>
</g>
<g>
</g>
</svg>
