<?xml version="1.0" encoding="iso-8859-1"?>
<!-- Generator: Adobe Illustrator 16.0.0, SVG Export Plug-In . SVG Version: 6.00 Build 0)  -->
<!DOCTYPE svg PUBLIC "-//W3C//DTD SVG 1.1//EN" "http://www.w3.org/Graphics/SVG/1.1/DTD/svg11.dtd">
<svg version="1.1" id="Layer_1" xmlns="http://www.w3.org/2000/svg" xmlns:xlink="http://www.w3.org/1999/xlink" x="0px" y="0px"
	 width="22.719px" height="30.25px" viewBox="0 0 22.719 30.25" style="enable-background:new 0 0 22.719 30.25;"
	 xml:space="preserve">
<g>
	<path d="M3.918,17.599v-2.092h1.174v2.092h5.749v-2.092h1.174v2.092h5.136v-2.092h1.174v2.092h4.388
		C22.447,10.047,18.305,0,11.359,0C4.413,0,0.271,10.047,0.006,17.599H3.918z M8.255,8.788h2.008
		c-0.014,0.395,0.081,0.687,0.286,0.877c0.099,0.12,0.224,0.204,0.375,0.254c0.151,0.049,0.319,0.073,0.502,0.073
		c0.303,0,0.543-0.061,0.719-0.185c0.177-0.123,0.265-0.336,0.265-0.64c0-0.161-0.028-0.293-0.084-0.391
		c-0.057-0.099-0.13-0.177-0.223-0.232c-0.092-0.058-0.196-0.095-0.316-0.112s-0.24-0.026-0.36-0.026
		c-0.155,0-0.277,0.006-0.364,0.017c-0.088,0.01-0.171,0.023-0.249,0.037V7.021c0.078,0.008,0.164,0.017,0.26,0.026
		c0.095,0.011,0.212,0.017,0.354,0.017c0.112,0,0.228-0.007,0.345-0.021c0.116-0.014,0.223-0.046,0.322-0.095
		c0.099-0.05,0.179-0.119,0.242-0.206c0.063-0.088,0.096-0.202,0.096-0.345c0-0.112-0.03-0.211-0.09-0.295
		c-0.061-0.085-0.136-0.152-0.228-0.201c-0.091-0.05-0.195-0.086-0.312-0.111c-0.116-0.023-0.229-0.037-0.333-0.037
		c-0.142,0-0.275,0.02-0.402,0.059s-0.236,0.097-0.327,0.174c-0.092,0.078-0.164,0.173-0.217,0.285
		c-0.053,0.114-0.076,0.247-0.069,0.402H8.465c0.008-0.437,0.092-0.814,0.254-1.131C8.882,5.224,9.104,4.96,9.386,4.749
		c0.281-0.204,0.605-0.357,0.972-0.46c0.368-0.103,0.758-0.153,1.175-0.153c0.535,0,0.984,0.068,1.348,0.206
		c0.362,0.138,0.655,0.306,0.878,0.502c0.222,0.197,0.38,0.405,0.476,0.624c0.095,0.219,0.142,0.405,0.142,0.561
		c0,0.388-0.051,0.685-0.153,0.894c-0.102,0.208-0.213,0.361-0.332,0.46c-0.12,0.099-0.23,0.158-0.333,0.179
		c-0.103,0.021-0.153,0.036-0.153,0.043v0.021c0,0.014,0.029,0.029,0.091,0.043c0.059,0.014,0.133,0.041,0.221,0.079
		c0.088,0.039,0.186,0.092,0.291,0.158c0.105,0.068,0.202,0.163,0.29,0.286c0.089,0.123,0.162,0.278,0.223,0.465
		c0.06,0.187,0.09,0.418,0.09,0.692c0,0.226-0.048,0.473-0.143,0.74c-0.095,0.269-0.261,0.519-0.498,0.751
		c-0.235,0.231-0.553,0.429-0.95,0.586c-0.399,0.159-0.897,0.238-1.497,0.238c-0.549,0-1.015-0.059-1.395-0.174
		c-0.381-0.117-0.693-0.267-0.937-0.45c-0.242-0.183-0.43-0.386-0.56-0.607c-0.131-0.223-0.226-0.44-0.285-0.656
		c-0.061-0.214-0.093-0.41-0.096-0.586C8.245,9.014,8.247,8.879,8.255,8.788z"/>
	<path d="M0,18.74c0.167,7.378,5.188,11.51,11.359,11.51s11.191-4.132,11.359-11.51H0z M13.634,25.636
		c-0.435,0.223-4.59,0.254-4.836,0c-0.246-0.253,2.018-3.566,2.593-3.566S14.069,25.415,13.634,25.636z"/>
</g>
<g>
</g>
<g>
</g>
<g>
</g>
<g>
</g>
<g>
</g>
<g>
</g>
<g>
</g>
<g>
</g>
<g>
</g>
<g>
</g>
<g>
</g>
<g>
</g>
<g>
</g>
<g>
</g>
<g>
</g>
</svg>
