<?xml version="1.0" encoding="iso-8859-1"?>
<!-- Generator: Adobe Illustrator 16.0.0, SVG Export Plug-In . SVG Version: 6.00 Build 0)  -->
<!DOCTYPE svg PUBLIC "-//W3C//DTD SVG 1.1//EN" "http://www.w3.org/Graphics/SVG/1.1/DTD/svg11.dtd">
<svg version="1.1" id="Layer_1" xmlns="http://www.w3.org/2000/svg" xmlns:xlink="http://www.w3.org/1999/xlink" x="0px" y="0px"
	 width="32px" height="28.506px" viewBox="0 0 32 28.506" style="enable-background:new 0 0 32 28.506;" xml:space="preserve">
<path d="M15.838,0.113C2.964-0.905,0,5.207,0,8.218c0,3.01,0,15.931,0,15.931s13.105,2.918,18.246,4.029
	c5.14,1.111,13.707-0.695,13.754-3.983c0-3.611,0-16.625,0-17.736S28.712,1.132,15.838,0.113z M12.654,2.132l14.83,3.272
	l-3.212,0.952L9.192,2.881L12.654,2.132z M20.035,7.978L4.955,4.502l3.461-0.749l14.831,3.272L20.035,7.978z M24.463,25.134
	c-0.378,0-0.683-0.306-0.683-0.684c0-0.377,0.305-0.683,0.683-0.683c0.377,0,0.684,0.306,0.684,0.683
	C25.146,24.828,24.84,25.134,24.463,25.134z M26.199,24.601c-0.377,0-0.683-0.306-0.683-0.683c0-0.378,0.306-0.684,0.683-0.684
	c0.378,0,0.684,0.306,0.684,0.684C26.883,24.295,26.577,24.601,26.199,24.601z M30.027,13.388l-1.692,1.143l0.191,8.854
	c0.007,0.307-0.237,0.562-0.544,0.567c-0.004,0-0.008,0-0.012,0c-0.302,0-0.549-0.241-0.556-0.544l-0.176-8.138l-1.055,0.712
	c-0.191,0.129-0.407,0.189-0.621,0.189c-0.357,0-0.708-0.171-0.923-0.489c-0.343-0.509-0.209-1.2,0.301-1.543l3.844-2.594
	c0.508-0.344,1.199-0.209,1.543,0.3C30.671,12.354,30.537,13.044,30.027,13.388z"/>
<g>
</g>
<g>
</g>
<g>
</g>
<g>
</g>
<g>
</g>
<g>
</g>
<g>
</g>
<g>
</g>
<g>
</g>
<g>
</g>
<g>
</g>
<g>
</g>
<g>
</g>
<g>
</g>
<g>
</g>
</svg>
