<?xml version="1.0" encoding="iso-8859-1"?>
<!-- Generator: Adobe Illustrator 16.0.0, SVG Export Plug-In . SVG Version: 6.00 Build 0)  -->
<!DOCTYPE svg PUBLIC "-//W3C//DTD SVG 1.1//EN" "http://www.w3.org/Graphics/SVG/1.1/DTD/svg11.dtd">
<svg version="1.1" id="Layer_1" xmlns="http://www.w3.org/2000/svg" xmlns:xlink="http://www.w3.org/1999/xlink" x="0px" y="0px"
	 width="32px" height="22.807px" viewBox="0 0 32 22.807" style="enable-background:new 0 0 32 22.807;" xml:space="preserve">
<g>
	<rect x="3.138" y="20.887" width="5.99" height="1.92"/>
	<rect x="19.417" y="20.887" width="5.99" height="1.92"/>
	<path d="M32,10.188v-1.64c0,0-2.867,0.028-3.456-1.349V5.253c0-1.262-1.022-2.284-2.283-2.284h-3.772v-1.74h2.727V0H3.713v1.229
		h2.304v1.74H2.283C1.022,2.969,0,3.991,0,5.253v12.813c0,1.262,1.022,2.284,2.283,2.284h0.753C2.6,19.969,2.323,19.41,2.323,18.788
		V8.877c0-1.144,0.93-2.074,2.073-2.074h18.548c1.144,0,2.073,0.931,2.073,2.074v9.911c0,0.622-0.277,1.181-0.713,1.562h1.956
		c1.261,0,2.283-1.022,2.283-2.284v-1.153h2.535v-2.289h-2.535v-4.436H32z M6.785,1.229h14.936v1.74H6.785V1.229z"/>
	<path d="M4.923,20.173h17.495c0.92,0,1.666-0.73,1.666-1.633V9.38c0-0.902-0.746-1.634-1.666-1.634H4.923
		c-0.92,0-1.666,0.731-1.666,1.634v9.16C3.257,19.442,4.003,20.173,4.923,20.173z"/>
</g>
<g>
</g>
<g>
</g>
<g>
</g>
<g>
</g>
<g>
</g>
<g>
</g>
<g>
</g>
<g>
</g>
<g>
</g>
<g>
</g>
<g>
</g>
<g>
</g>
<g>
</g>
<g>
</g>
<g>
</g>
</svg>
