<?xml version="1.0" encoding="iso-8859-1"?>
<!-- Generator: Adobe Illustrator 16.0.0, SVG Export Plug-In . SVG Version: 6.00 Build 0)  -->
<!DOCTYPE svg PUBLIC "-//W3C//DTD SVG 1.1//EN" "http://www.w3.org/Graphics/SVG/1.1/DTD/svg11.dtd">
<svg version="1.1" id="Layer_1" xmlns="http://www.w3.org/2000/svg" xmlns:xlink="http://www.w3.org/1999/xlink" x="0px" y="0px"
	 width="32px" height="33.796px" viewBox="0 0 32 33.796" style="enable-background:new 0 0 32 33.796;" xml:space="preserve">
<path d="M28.888,5.859C26.682,3.652,23.07,1.47,20.247,2.21c-0.672-1.294-3.526-3.451-5.688-1.291
	c-2.333,2.334,0.303,5.296,1.865,5.748c0.009,0.001,0.019,0.005,0.028,0.008c-0.516,1.787-0.512,3.813,0.12,5.665
	c-0.002-0.001-0.003-0.002-0.003-0.002c0.612,5.642-6.474,9.048-6.474,9.048L0.163,31.32v0.001
	c-0.005,0.005-0.011,0.009-0.015,0.013c-0.389,0.389,0.064,1.472,0.453,1.86c0.389,0.389,1.473,0.843,1.861,0.454
	c0.004-0.004,0.008-0.01,0.013-0.015h0.001l9.922-9.921c0,0,4.307-7.639,9.046-6.236c0.204,0.084,0.409,0.161,0.616,0.23
	c0.007,0.004,0.015,0.005,0.021,0.009l-0.003-0.002c3.044,1.023,6.438,0.416,8.456-1.604C33.406,13.238,31.625,8.595,28.888,5.859z
	 M18.931,13.348c-0.014-0.006-0.085-0.042-0.185-0.129c-0.024-0.02-0.05-0.043-0.075-0.069l-0.04-0.044
	c-0.115-0.123-0.272-0.292-0.415-0.516c-0.458-0.685-0.723-1.328-0.804-1.961c-0.017-0.22-0.003-1.533,0.027-1.744
	c0.032-0.186,0.076-0.368,0.135-0.561c0.121-0.372,0.282-0.692,0.411-0.93c0.149-0.273,0.323-0.482,0.44-0.608
	c0.141-0.149,0.237-0.248,0.237-0.248c0.044-0.044,0.118-0.045,0.173-0.001c0.055,0.05,0.072,0.118,0.041,0.171
	c-0.001,0.001-0.083,0.137-0.154,0.283c-0.08,0.135-0.151,0.337-0.245,0.607c-0.085,0.236-0.162,0.534-0.231,0.883
	c-0.033,0.153-0.058,0.316-0.075,0.489c-0.019,0.149-0.029,1.453-0.012,1.597c0.094,0.657,0.354,1.328,0.543,1.817
	c0.042,0.094,0.081,0.189,0.117,0.276c0.05,0.122,0.094,0.228,0.137,0.307c0.062,0.125,0.116,0.194,0.116,0.196
	c0.038,0.048,0.041,0.112,0.009,0.155C19.047,13.362,18.985,13.374,18.931,13.348z"/>
<g>
</g>
<g>
</g>
<g>
</g>
<g>
</g>
<g>
</g>
<g>
</g>
<g>
</g>
<g>
</g>
<g>
</g>
<g>
</g>
<g>
</g>
<g>
</g>
<g>
</g>
<g>
</g>
<g>
</g>
</svg>
