<?xml version="1.0" encoding="utf-8"?>
<!-- Generator: Adobe Illustrator 16.0.4, SVG Export Plug-In . SVG Version: 6.00 Build 0)  -->
<!DOCTYPE svg PUBLIC "-//W3C//DTD SVG 1.1//EN" "http://www.w3.org/Graphics/SVG/1.1/DTD/svg11.dtd">
<svg version="1.1" id="Layer_1" xmlns="http://www.w3.org/2000/svg" xmlns:xlink="http://www.w3.org/1999/xlink" x="0px" y="0px"
	 width="30.791px" height="21.375px" viewBox="0 0 30.791 21.375" enable-background="new 0 0 30.791 21.375" xml:space="preserve">
<path d="M22.694,10.856c0.556-0.617,1.09-1.154,1.535-1.154c1.049,0,4.535,0,4.535,0V8.313L2.025,8.391v1.388
	c0,0,4.044-0.077,4.941-0.077c0.381,0,0.844,0.537,1.316,1.154H0v1.256c0,0,6.011,0,6.235,0c0.224,0,1.128,0.951,1.128,0.951h16.333
	c0,0,1.033-0.951,1.287-0.951c0.257,0,5.808,0,5.808,0v-1.256H22.694z"/>
</svg>
