<?xml version="1.0" encoding="iso-8859-1"?>
<!-- Generator: Adobe Illustrator 16.0.0, SVG Export Plug-In . SVG Version: 6.00 Build 0)  -->
<!DOCTYPE svg PUBLIC "-//W3C//DTD SVG 1.1//EN" "http://www.w3.org/Graphics/SVG/1.1/DTD/svg11.dtd">
<svg version="1.1" id="Layer_1" xmlns="http://www.w3.org/2000/svg" xmlns:xlink="http://www.w3.org/1999/xlink" x="0px" y="0px"
	 width="10.993px" height="32px" viewBox="0 0 10.993 32" style="enable-background:new 0 0 10.993 32;" xml:space="preserve">
<path d="M10.449,0C8.587,0,5.497,0,5.497,0s-3.09,0-4.952,0s1.65,11.514,1.65,15.238C2.195,25.65-0.344,32,1.433,32s4.063,0,4.063,0
	s2.286,0,4.063,0s-0.762-6.35-0.762-16.762C8.798,11.514,12.311,0,10.449,0z M4.539,18.456c-0.078,0.924-0.126,1.839-0.25,2.705
	c-0.111,0.87-0.192,1.714-0.338,2.504c-0.134,0.792-0.26,1.54-0.377,2.23c-0.229,1.382-0.509,2.518-0.683,3.315
	c-0.182,0.796-0.312,1.246-0.312,1.246s0.139-1.865,0.399-4.643c0.132-1.388,0.253-3.01,0.395-4.741
	c0.06-0.862,0.121-1.753,0.184-2.659c0.071-0.897,0.061-1.841,0.109-2.767c0.021-0.896-0.027-1.825-0.077-2.727
	c-0.058-0.904-0.141-1.795-0.236-2.657c-0.17-1.727-0.398-3.336-0.618-4.711C2.532,4.174,2.352,3.023,2.209,2.222
	C2.074,1.417,1.997,0.957,1.997,0.957s0.595,1.771,1.252,4.496c0.606,2.734,1.406,6.399,1.397,10.22
	C4.615,16.606,4.633,17.527,4.539,18.456z"/>
<g>
</g>
<g>
</g>
<g>
</g>
<g>
</g>
<g>
</g>
<g>
</g>
<g>
</g>
<g>
</g>
<g>
</g>
<g>
</g>
<g>
</g>
<g>
</g>
<g>
</g>
<g>
</g>
<g>
</g>
</svg>
