<?xml version="1.0" encoding="iso-8859-1"?>
<!-- Generator: Adobe Illustrator 16.0.0, SVG Export Plug-In . SVG Version: 6.00 Build 0)  -->
<!DOCTYPE svg PUBLIC "-//W3C//DTD SVG 1.1//EN" "http://www.w3.org/Graphics/SVG/1.1/DTD/svg11.dtd">
<svg version="1.1" id="Layer_1" xmlns="http://www.w3.org/2000/svg" xmlns:xlink="http://www.w3.org/1999/xlink" x="0px" y="0px"
	 width="10.473px" height="32px" viewBox="0 0 10.473 32" style="enable-background:new 0 0 10.473 32;" xml:space="preserve">
<path d="M8.404,21.679c-0.111-2.322,1.425-4.33,1.832-4.942c0.406-0.612,0.212-1.26,0-1.311c0-0.357-0.357-2.412-2.278-2.468
	c-0.625-0.011-1.139,0-1.139,0l-0.391-0.814H6.126v-0.38h0.302v-0.703H6.126v-0.525h0.268V9.754H6.126V9.308h0.257l0.011-2.502
	c0,0,4.02-2.456,3.841-5.002c-0.179-2.545-4.109-1.652-4.109-1.652l-0.841-0.12c0-0.005,0-0.014,0-0.014L5.236,0.025L5.188,0.018
	c0,0,0,0.009,0,0.014l-0.841,0.12c0,0-3.931-0.893-4.109,1.652C0.059,4.35,4.079,6.806,4.079,6.806L4.09,9.308h0.257v0.446H4.079
	v0.781h0.268v0.525H4.045v0.703h0.302v0.38H4.045l-0.391,0.814c0,0-0.514-0.011-1.139,0c-1.92,0.056-2.278,2.11-2.278,2.468
	c-0.212,0.051-0.406,0.698,0,1.311c0.407,0.612,1.943,2.62,1.832,4.942c-0.112,2.322-1.742,3.26-1.832,6.298
	c-0.089,3.037,0.759,3.752,1.585,3.975c0.827,0.224,1.353-0.367,1.273-0.982c-0.08-0.615-0.179-1.385-0.179-1.385
	s1.997,0.376,2.319,0.089c0.322,0.287,2.319-0.089,2.319-0.089s-0.099,0.77-0.179,1.385c-0.079,0.615,0.447,1.206,1.273,0.982
	c0.826-0.223,1.674-0.938,1.585-3.975C10.146,24.939,8.516,24.001,8.404,21.679z M2.642,2.43c0.294-1.313,2.274-0.464,2.594-0.713
	c0.32,0.249,2.3-0.601,2.594,0.713C8.146,3.838,7.59,5.158,5.285,5.024c0-0.002,0-0.003,0-0.003c-0.017,0-0.032,0-0.048,0.001
	C5.22,5.021,5.205,5.021,5.188,5.02c0,0,0,0.002,0,0.004C2.883,5.158,2.327,3.838,2.642,2.43z M2.538,16.052
	c-0.395,0-0.715-0.34-0.715-0.76c0-0.419,0.32-0.759,0.715-0.759c0.395,0,0.714,0.34,0.714,0.759
	C3.252,15.712,2.932,16.052,2.538,16.052z M3.107,19.413c0-0.337,0.979-0.367,1.625-0.351v0.778h0.285v0.615H4.732v0.534h0.285
	v0.614H4.732v0.477h0.285v0.614H4.732v0.534h0.285v0.614H4.732v0.508h0.285v0.614H4.732v0.158l-1.658,0.018
	C3.074,25.141,3.107,19.916,3.107,19.413z M5.988,25.126v-0.53H5.653v-0.615h0.335v-0.507H5.653v-0.615h0.335v-0.533H5.653V21.71
	h0.335v-0.476H5.653V20.62h0.335v-0.533H5.653v-0.615h0.335v-0.413c0.621-0.001,1.377,0.059,1.377,0.354
	c0,0.503,0.034,5.729,0.034,5.729L5.988,25.126z M7.83,15.449c0-0.419,0.32-0.759,0.715-0.759s0.715,0.34,0.715,0.759
	c0,0.42-0.32,0.76-0.715,0.76S7.83,15.869,7.83,15.449z"/>
<g>
</g>
<g>
</g>
<g>
</g>
<g>
</g>
<g>
</g>
<g>
</g>
<g>
</g>
<g>
</g>
<g>
</g>
<g>
</g>
<g>
</g>
<g>
</g>
<g>
</g>
<g>
</g>
<g>
</g>
</svg>
