<?xml version="1.0" encoding="iso-8859-1"?>
<!-- Generator: Adobe Illustrator 16.0.0, SVG Export Plug-In . SVG Version: 6.00 Build 0)  -->
<!DOCTYPE svg PUBLIC "-//W3C//DTD SVG 1.1//EN" "http://www.w3.org/Graphics/SVG/1.1/DTD/svg11.dtd">
<svg version="1.1" id="Layer_1" xmlns="http://www.w3.org/2000/svg" xmlns:xlink="http://www.w3.org/1999/xlink" x="0px" y="0px"
	 width="11.606px" height="32px" viewBox="0 0 11.606 32" style="enable-background:new 0 0 11.606 32;" xml:space="preserve">
<path d="M7.96,9.895c0-2.029,0-9.895,0-9.895H6.406H5.2H3.646c0,0,0,7.865,0,9.895S0,15.032,0,16.776S0,29.684,0,30.54
	S0.634,32,1.3,32c0.44,0,2.535,0,3.9,0c0.697,0,1.206,0,1.206,0c1.365,0,3.46,0,3.9,0c0.666,0,1.3-0.604,1.3-1.46s0-12.02,0-13.764
	S7.96,11.924,7.96,9.895z M4.572,12.955c-0.3,0.428-0.721,1.039-1.195,1.766c-0.442,0.733-0.991,1.612-1.187,2.565
	c-0.102,0.426-0.068,1.032-0.08,1.617c-0.01,0.585-0.021,1.181-0.031,1.775c-0.042,2.38-0.135,4.76-0.242,6.545
	c-0.102,1.784-0.207,2.975-0.207,2.975c0.001,0-0.104-1.19-0.206-2.975c-0.107-1.785-0.201-4.165-0.242-6.545
	c-0.01-0.595-0.021-1.19-0.031-1.775c0.009-0.584-0.049-1.141,0.064-1.813c0.271-1.246,0.946-2.136,1.532-2.839
	c0.599-0.701,1.193-1.183,1.618-1.5c0.418-0.325,0.69-0.469,0.69-0.469S4.879,12.527,4.572,12.955z"/>
<g>
</g>
<g>
</g>
<g>
</g>
<g>
</g>
<g>
</g>
<g>
</g>
<g>
</g>
<g>
</g>
<g>
</g>
<g>
</g>
<g>
</g>
<g>
</g>
<g>
</g>
<g>
</g>
<g>
</g>
</svg>
