<?xml version="1.0" encoding="iso-8859-1"?>
<!-- Generator: Adobe Illustrator 16.0.0, SVG Export Plug-In . SVG Version: 6.00 Build 0)  -->
<!DOCTYPE svg PUBLIC "-//W3C//DTD SVG 1.1//EN" "http://www.w3.org/Graphics/SVG/1.1/DTD/svg11.dtd">
<svg version="1.1" id="Layer_1" xmlns="http://www.w3.org/2000/svg" xmlns:xlink="http://www.w3.org/1999/xlink" x="0px" y="0px"
	 width="9.225px" height="32px" viewBox="0 0 9.225 32" style="enable-background:new 0 0 9.225 32;" xml:space="preserve">
<g>
	<path d="M7.741,11.439c-0.476-0.609-0.968-1.24-0.968-1.679V2.112H5.972V0H3.308v2.112H2.452v7.648
		c0,0.438-0.492,1.069-0.968,1.679C0.788,12.33,0,13.34,0,14.506v15.776C0,30.975,0.47,32,1.48,32h6.264
		c1.01,0,1.48-1.025,1.48-1.718V14.506C9.225,13.34,8.437,12.33,7.741,11.439z M8.319,30.282c0,0.239-0.166,0.813-0.575,0.813H1.48
		c-0.41,0-0.575-0.573-0.575-0.813V14.506c0-0.855,0.657-1.696,1.292-2.509c0.597-0.765,1.16-1.485,1.16-2.236V6.188h2.51v3.572
		c0,0.751,0.563,1.472,1.16,2.236c0.635,0.813,1.292,1.653,1.292,2.509V30.282z"/>
	<path d="M2.302,14.617c-0.135,0.429-0.174,0.955-0.201,1.412c-0.028,0.48-0.058,0.986-0.089,1.511
		c-0.049,1.048-0.072,2.165-0.08,3.283c0.006,1.117,0.013,2.235,0.063,3.283c0.038,1.048,0.103,2.025,0.18,2.863
		c0.141,1.677,0.343,2.794,0.343,2.794s0.203-1.117,0.344-2.794c0.077-0.838,0.142-1.815,0.18-2.863
		c0.05-1.048,0.057-2.166,0.063-3.283c-0.007-1.118-0.03-2.235-0.08-3.283c-0.03-0.524-0.06-1.03-0.088-1.511
		c-0.033-0.504-0.083-0.891-0.02-1.281c0.102-0.788,0.328-1.457,0.478-1.919c0.155-0.464,0.262-0.726,0.262-0.726
		s-0.181,0.217-0.454,0.633C2.939,13.157,2.564,13.766,2.302,14.617z"/>
</g>
<g>
</g>
<g>
</g>
<g>
</g>
<g>
</g>
<g>
</g>
<g>
</g>
<g>
</g>
<g>
</g>
<g>
</g>
<g>
</g>
<g>
</g>
<g>
</g>
<g>
</g>
<g>
</g>
<g>
</g>
</svg>
