<?xml version="1.0" encoding="iso-8859-1"?>
<!-- Generator: Adobe Illustrator 16.0.0, SVG Export Plug-In . SVG Version: 6.00 Build 0)  -->
<!DOCTYPE svg PUBLIC "-//W3C//DTD SVG 1.1//EN" "http://www.w3.org/Graphics/SVG/1.1/DTD/svg11.dtd">
<svg version="1.1" id="Layer_1" xmlns="http://www.w3.org/2000/svg" xmlns:xlink="http://www.w3.org/1999/xlink" x="0px" y="0px"
	 width="8.186px" height="32px" viewBox="0 0 8.186 32" style="enable-background:new 0 0 8.186 32;" xml:space="preserve">
<path d="M5.479,7.945c0-1.44,0-7.945,0-7.945H4.409H3.776H2.707c0,0,0,6.505,0,7.945S0,11.133,0,13.185s0,16.895,0,17.419
	C0,31.127,0.35,32,1.135,32c0.534,0,1.85,0,2.642,0c0.374,0,0.633,0,0.633,0c0.792,0,2.107,0,2.642,0
	c0.785,0,1.135-0.873,1.135-1.396c0-0.524,0-15.367,0-17.419S5.479,9.386,5.479,7.945z M3.305,10.278
	c-0.175,0.239-0.371,0.541-0.584,0.889c-0.215,0.349-0.419,0.756-0.627,1.197c-0.079,0.226-0.16,0.462-0.228,0.699
	c-0.002,0.251-0.082,0.436-0.047,0.751c0.021,0.584,0.044,1.198,0.067,1.834c0.042,1.272,0.05,2.63,0.061,3.986
	c-0.003,2.714-0.085,5.428-0.212,7.463c-0.056,1.018-0.147,1.866-0.19,2.46c-0.053,0.594-0.097,0.933-0.097,0.933
	s-0.044-0.339-0.097-0.933c-0.043-0.594-0.134-1.442-0.19-2.46c-0.127-2.035-0.209-4.749-0.212-7.463
	c0.01-1.356,0.018-2.714,0.061-3.986c0.023-0.636,0.046-1.25,0.067-1.834c-0.01-0.271,0.092-0.639,0.15-0.932
	c0.113-0.276,0.238-0.532,0.357-0.773c0.145-0.222,0.282-0.434,0.414-0.636c0.15-0.184,0.292-0.358,0.425-0.523
	c0.276-0.318,0.522-0.587,0.736-0.797c0.424-0.424,0.696-0.632,0.696-0.632S3.643,9.792,3.305,10.278z"/>
<g>
</g>
<g>
</g>
<g>
</g>
<g>
</g>
<g>
</g>
<g>
</g>
<g>
</g>
<g>
</g>
<g>
</g>
<g>
</g>
<g>
</g>
<g>
</g>
<g>
</g>
<g>
</g>
<g>
</g>
</svg>
