<?xml version="1.0" encoding="iso-8859-1"?>
<!-- Generator: Adobe Illustrator 16.0.0, SVG Export Plug-In . SVG Version: 6.00 Build 0)  -->
<!DOCTYPE svg PUBLIC "-//W3C//DTD SVG 1.1//EN" "http://www.w3.org/Graphics/SVG/1.1/DTD/svg11.dtd">
<svg version="1.1" id="Layer_1" xmlns="http://www.w3.org/2000/svg" xmlns:xlink="http://www.w3.org/1999/xlink" x="0px" y="0px"
	 width="8.246px" height="21.247px" viewBox="0 0 8.246 21.247" style="enable-background:new 0 0 8.246 21.247;"
	 xml:space="preserve">
<path d="M8.094,21.092c-1.09-0.335-3.439-1.249-3.461-2.779h0.019c0,0,0-3.354,0-5.022c0.269-0.176,0.456-0.464,0.456-0.809
	c0-0.216-0.084-0.404-0.201-0.566c0.598-1.179,2.172-2.737,3.002-5.634C8.945,2.667,7.257,0,7.257,0S5.27,0.234,4.123,0.234
	S1.047,0.008,1.047,0.008s-1.688,2.666-0.651,6.281c0.817,2.851,2.356,4.405,2.976,5.577c-0.139,0.17-0.232,0.378-0.232,0.615
	c0,0.37,0.212,0.681,0.514,0.849c0,1.497,0,4.285,0,4.871c0,0.029-0.002,0.06-0.002,0.091c0,1.542-2.404,2.463-3.498,2.8
	c-0.236,0.077-0.167,0.155,0,0.155c0.158,0,3.604,0,3.953,0c0.018,0,0.035,0,0.035,0c0.348,0,3.795,0,3.953,0
	C8.26,21.247,8.33,21.169,8.094,21.092z M2.745,8.943C2.324,8.179,1.813,7.13,1.478,5.995C1.389,5.714,1.321,5.423,1.263,5.117
	L1.199,4.695C1.183,4.526,1.188,4.4,1.181,4.254C1.156,3.69,1.232,3.167,1.318,2.73c0.2-0.875,0.517-1.385,0.517-1.385
	S1.771,1.934,1.777,2.78C1.791,3.204,1.8,3.692,1.867,4.207c0.015,0.125,0.03,0.251,0.045,0.379c0.025,0.135,0.045,0.281,0.074,0.41
	c0.067,0.262,0.136,0.526,0.203,0.791c0.317,1.078,0.683,2.168,0.935,2.995c0.248,0.83,0.398,1.396,0.398,1.396
	S3.177,9.704,2.745,8.943z"/>
<g>
</g>
<g>
</g>
<g>
</g>
<g>
</g>
<g>
</g>
<g>
</g>
<g>
</g>
<g>
</g>
<g>
</g>
<g>
</g>
<g>
</g>
<g>
</g>
<g>
</g>
<g>
</g>
<g>
</g>
</svg>
